<svg width="1535" height="1615" viewBox="0 0 1535 1615" fill="none" xmlns="http://www.w3.org/2000/svg">
<path d="M691.296 383.574C691.461 384.624 691.122 385.708 690.291 386.49C688.862 387.841 686.506 387.808 685.023 386.424C647.14 350.804 643.677 318.663 643.547 317.275C643.355 315.35 644.869 313.697 646.916 313.596C648.96 313.475 650.734 315.016 650.956 316.854C651.008 317.183 654.45 347.924 690.225 381.558C690.823 382.12 691.183 382.854 691.296 383.574ZM676.886 416.603C677.051 417.652 676.712 418.736 675.881 419.518C674.452 420.869 672.096 420.836 670.613 419.452C641.396 392.104 606.176 405.812 605.822 405.956C603.965 406.706 601.751 405.883 600.892 404.094C600.012 402.308 600.867 400.267 602.723 399.518C603.118 399.349 642.959 383.852 675.793 414.589C676.41 415.127 676.769 415.862 676.886 416.603ZM654.435 302.74C654.081 304.014 653.015 304.99 651.611 305.229L638.341 307.595L633.214 319.275C632.673 320.486 631.446 321.292 630.035 321.343C628.623 321.394 627.269 320.686 626.555 319.53L619.666 308.32L606.106 307.014C604.687 306.878 603.463 306.009 602.932 304.749C602.398 303.469 602.671 302.099 603.603 301.117L612.634 291.831L609.38 279.34C609.036 277.997 609.518 276.688 610.585 275.858C611.674 275.026 613.182 274.881 614.469 275.45L626.931 280.916L638.479 274.512C639.681 273.835 641.196 273.877 642.4 274.623C643.601 275.348 644.298 276.674 644.15 277.988L642.816 290.651L653.211 299.192C654.329 300.094 654.789 301.466 654.435 302.74ZM629.176 309.969L632.196 303.084C632.651 302.029 633.641 301.271 634.83 301.077L642.664 299.688L636.525 294.653C635.582 293.878 635.093 292.739 635.226 291.615L636.002 284.141L629.189 287.929C628.148 288.505 626.871 288.562 625.727 288.061L618.386 284.833L620.3 292.197C620.615 293.356 620.286 294.501 619.465 295.345L614.136 300.811L622.132 301.58C623.348 301.697 624.453 302.37 625.079 303.39L629.176 309.969ZM598.123 417.502C597.794 418.794 596.727 419.77 595.348 420.027L584.729 422.038L580.732 431.458C580.216 432.687 578.99 433.493 577.581 433.565C576.173 433.637 574.801 432.951 574.083 431.775L568.46 422.832L557.574 421.879C556.158 421.764 554.913 420.897 554.385 419.657C553.838 418.441 554.079 417.012 555.012 416.03L562.148 408.523L559.421 398.528C559.065 397.248 559.515 395.88 560.604 395.048C561.671 394.219 563.172 394.032 564.482 394.599L574.518 398.889L583.722 393.665C584.925 392.988 586.436 393.009 587.659 393.732C588.861 394.457 589.569 395.718 589.428 397.074L588.478 407.245L596.883 413.997C597.998 414.879 598.458 416.251 598.123 417.502ZM576.588 422.184L578.55 417.593C579.005 416.538 579.973 415.783 581.178 415.545L586.371 414.573L582.281 411.279C581.319 410.527 580.83 409.388 580.938 408.246L581.398 403.277L576.919 405.823C575.881 406.419 574.604 406.477 573.463 405.996L568.563 403.9L569.886 408.777C570.195 409.894 569.893 411.079 569.094 411.92L565.612 415.591L570.92 416.051C572.136 416.168 573.237 416.82 573.882 417.816L576.588 422.184ZM561.567 361.853C561.654 362.408 561.592 363.001 561.39 363.547C560.92 364.792 559.722 365.636 558.299 365.751L552.448 366.21L549.699 371.013C549.039 372.174 547.725 372.843 546.294 372.771C544.884 372.696 543.62 371.852 543.03 370.641L540.584 365.533L534.796 364.414C533.401 364.15 532.27 363.166 531.867 361.871C531.47 360.617 531.87 359.213 532.931 358.342L537.263 354.724L536.442 349.226C536.235 347.91 536.851 346.607 538.025 345.891C539.199 345.175 540.726 345.153 541.945 345.855L547.077 348.721L552.375 346.44C553.643 345.902 555.159 346.09 556.289 346.928C557.423 347.786 557.945 349.131 557.659 350.418L556.488 355.801L560.574 359.912C561.104 360.46 561.457 361.154 561.567 361.853ZM546.657 361.408L546.795 361.163C547.369 360.157 548.444 359.515 549.668 359.401L549.976 359.388L549.766 359.181C548.92 358.312 548.561 357.158 548.807 356.043L548.873 355.763L548.603 355.877C547.502 356.355 546.202 356.268 545.133 355.675L544.867 355.537L544.912 355.825C545.09 356.956 544.648 358.093 543.746 358.842L543.482 358.996L543.778 359.047C544.989 359.269 546.022 360.055 546.521 361.109L546.657 361.408Z" fill="#9A4AFF"/>
<path d="M777.935 480.193C777.018 481.131 775.614 481.517 774.272 481.163L672.872 455.222C670.861 454.711 669.65 452.794 670.131 450.92C670.613 449.046 672.617 447.967 674.627 448.477L769.182 472.642L734.751 386.39C734.024 384.587 734.972 382.578 736.913 381.945C738.832 381.314 740.983 382.29 741.713 384.114L778.637 476.62C779.115 477.969 778.815 479.3 777.935 480.193ZM746.71 340.887C746.121 342.083 744.867 342.849 743.449 342.859L739.191 342.87L736.917 346.177C736.16 347.286 734.785 347.856 733.382 347.677C731.978 347.497 730.766 346.563 730.301 345.296L728.838 341.502L724.736 340.386C723.369 340.014 722.312 338.938 722.017 337.631C721.77 336.34 722.245 334.99 723.366 334.217L726.721 331.858L726.47 327.867C726.393 326.536 727.109 325.306 728.343 324.688C729.577 324.071 731.098 324.154 732.265 324.946L735.782 327.278L739.742 325.94C742.607 324.974 745.518 327.541 744.665 330.293L743.49 334.107L746.183 337.262C747.096 338.27 747.298 339.692 746.71 340.887ZM734.666 336.672C735.042 336.38 735.492 336.142 735.959 336.006C735.757 335.568 735.66 335.098 735.651 334.617C735.147 334.652 734.648 334.582 734.157 334.427C734.051 334.878 733.832 335.321 733.535 335.688C733.998 335.951 734.383 336.285 734.666 336.672ZM753.343 443.334C753.644 445.247 752.234 446.994 750.206 447.218L704.571 452.262C702.543 452.486 700.64 451.106 700.339 449.193C700.038 447.28 701.427 445.536 703.476 445.309L749.111 440.265C751.139 440.041 753.042 441.421 753.343 443.334ZM740.247 412.425C740.549 414.339 739.138 416.085 737.11 416.309L726.797 417.449C724.769 417.673 722.866 416.293 722.565 414.38C722.264 412.467 723.653 410.723 725.702 410.496L736.015 409.356C738.043 409.132 739.946 410.512 740.247 412.425ZM730.173 389.575C726.878 401.053 719.132 413.148 708.363 423.652C697.594 434.155 685.036 441.885 672.966 445.396C660.113 449.139 649.199 447.73 642.236 441.404C634.937 434.781 633.235 423.542 637.537 410.572C638.137 408.748 640.226 407.784 642.187 408.405C644.151 409.046 645.26 411.016 644.638 412.843C641.208 423.184 642.185 431.783 647.312 436.448C652.175 440.85 660.421 441.655 670.58 438.69C681.501 435.495 693.007 428.405 702.948 418.704C712.89 409.003 720.021 397.939 722.998 387.543C725.762 377.903 724.613 370.182 719.746 365.759C716.744 363.036 712.473 361.687 707.053 361.784C704.996 361.823 703.285 360.254 703.162 358.342C703.057 356.407 704.649 354.829 706.706 354.79C714.095 354.664 720.37 356.754 724.844 360.801C732.926 368.175 733.053 379.546 730.173 389.575ZM696.019 299.442C695.665 300.716 694.526 301.658 693.141 301.874L688.616 302.583L686.794 306.51C686.231 307.723 684.976 308.49 683.561 308.521C682.146 308.552 680.811 307.82 680.115 306.641L677.87 302.808L673.282 302.269C671.882 302.11 670.652 301.199 670.168 299.955C669.683 298.711 669.949 297.301 670.91 296.357L674.04 293.27L673.036 289.006C672.726 287.743 673.241 286.368 674.334 285.556C675.429 284.765 676.959 284.617 678.228 285.209L682.434 287.13L686.408 285.038C689.049 283.637 692.356 285.762 692.009 288.625L691.46 292.893L694.922 295.859C695.956 296.791 696.398 298.186 696.019 299.442ZM682.971 297.305C683.358 296.802 683.898 296.429 684.505 296.194C684.112 295.672 683.865 295.093 683.808 294.45C683.171 294.625 682.507 294.636 681.839 294.48C681.849 295.106 681.656 295.714 681.319 296.253C681.972 296.453 682.538 296.809 682.971 297.305ZM688.545 363.85C688.768 365.27 688.06 366.688 686.658 367.366L685.077 368.168C683.293 369.098 681.02 368.47 679.975 366.765C678.931 365.06 679.529 362.942 681.312 362.013L683.059 361.129C684.874 360.259 687.131 360.93 688.114 362.663C688.332 363.058 688.484 363.46 688.545 363.85ZM669.47 378.663L666.964 375.989L669.371 378.736C667.861 379.992 665.451 379.902 664.049 378.467C662.644 377.01 662.666 374.894 664.151 373.621L666.989 376.007L669.47 378.663ZM656.454 390.252C656.594 391.136 656.381 392.039 655.79 392.795L654.686 394.236C653.511 395.789 651.191 396.129 649.501 394.976C647.811 393.823 647.402 391.65 648.552 390.079L649.749 388.523C650.95 386.988 653.279 386.71 654.951 387.886C655.799 388.483 656.312 389.347 656.454 390.252ZM613.872 378.048C613.956 378.583 613.913 379.153 613.707 379.678C613.259 380.92 612.089 381.803 610.669 381.939L608.791 382.126L607.927 383.686C607.289 384.845 605.981 385.555 604.575 385.501C603.147 385.449 601.864 384.628 601.252 383.419L600.442 381.793L598.573 381.476C597.181 381.232 596.007 380.253 595.607 378.979C595.188 377.727 595.566 376.325 596.602 375.436L597.969 374.26L597.669 372.493C597.278 371.134 598.034 369.878 599.201 369.121C600.35 368.387 601.874 368.345 603.134 369.022L604.807 369.925L606.482 369.154C607.748 368.595 609.26 368.763 610.387 369.58C611.517 370.418 612.083 371.758 611.823 373.063L611.474 374.797L612.81 376.093C613.402 376.614 613.759 377.328 613.872 378.048Z" fill="#5BD9E4"/>
<path d="M687.063 364.015C687.196 364.858 686.777 365.721 685.932 366.128L684.328 366.933C683.263 367.49 681.895 367.118 681.269 366.099C680.665 365.078 680.997 363.806 682.063 363.249L683.769 362.391C684.841 361.875 686.211 362.267 686.797 363.312C686.945 363.546 687.024 363.768 687.063 364.015Z" fill="#83ECF6"/>
<path d="M668.461 377.603C667.559 378.352 666.007 378.356 665.185 377.505C664.36 376.633 664.26 375.43 665.162 374.682L666.695 376.25L665.28 374.585L666.99 376.008L668.461 377.603Z" fill="#83ECF6"/>
<path d="M654.971 390.416C655.052 390.93 654.94 391.486 654.569 391.946L653.446 393.41C652.75 394.345 651.361 394.54 650.344 393.857C649.327 393.174 649.076 391.862 649.772 390.928L650.951 389.395C651.671 388.478 653.063 388.303 654.062 389.009C654.581 389.35 654.884 389.86 654.971 390.416Z" fill="#83ECF6"/>
<path d="M694.602 299.035C694.367 299.793 693.703 300.369 692.881 300.502L687.597 301.316L685.458 305.905C685.129 306.632 684.358 307.094 683.517 307.104C682.676 307.113 681.875 306.678 681.453 305.971L678.837 301.468L673.481 300.846C672.624 300.753 671.916 300.203 671.6 299.463C671.299 298.681 671.482 297.865 672.058 297.299L675.727 293.692L674.544 288.716C674.381 287.959 674.65 287.134 675.327 286.641C675.981 286.15 676.904 286.09 677.669 286.445L682.551 288.71L686.649 286.562C687.625 285.993 688.409 285.76 689.243 286.128C690.077 286.497 690.696 287.328 690.559 288.432L689.907 293.443L693.935 296.911C694.527 297.432 694.813 298.258 694.602 299.035ZM683.131 300.282L683.943 298.539C684.245 297.919 684.841 297.477 685.554 297.356L687.547 297.052L686.009 295.736C685.445 295.254 685.182 294.572 685.275 293.892L685.51 292.003L683.748 292.931C683.111 293.252 682.338 293.275 681.669 292.972L679.825 292.108L680.276 293.984C680.445 294.635 680.225 295.35 679.726 295.845L678.344 297.211L680.377 297.447C681.101 297.534 681.764 297.942 682.126 298.551L683.131 300.282Z" fill="#83ECF6"/>
<path d="M612.411 378.21C612.463 378.539 612.427 378.878 612.32 379.183C612.06 379.923 611.346 380.463 610.492 380.536L607.848 380.787L606.642 382.992C606.266 383.703 605.486 384.103 604.616 384.074C603.769 384.042 603.005 383.561 602.624 382.829L601.463 380.53L598.843 380.087C598 379.95 597.308 379.356 597.054 378.589C596.822 377.82 597.026 377.002 597.652 376.472L599.584 374.794L599.171 372.307C599.001 371.656 599.389 370.734 600.094 370.28C600.78 369.848 601.705 369.808 602.456 370.207L604.807 371.475L606.607 370.648C606.938 370.36 607.352 370.168 607.853 370.113C609.096 369.975 610.342 370.842 610.392 372.008C610.444 372.338 610.448 372.505 610.396 372.74L609.919 375.2L611.802 377.022C612.122 377.363 612.343 377.778 612.411 378.21Z" fill="#83ECF6"/>
<path d="M685.603 364.177C685.648 364.465 685.516 364.752 685.227 364.888C684.67 365.159 684.136 365.427 683.583 365.719C683.235 365.904 682.77 365.767 682.562 365.434C682.354 365.101 682.464 364.67 682.834 364.483C683.387 364.192 683.943 363.921 684.499 363.65C684.847 363.465 685.312 363.602 685.523 363.955C685.555 364.015 685.59 364.095 685.603 364.177Z" fill="#D7FCFF"/>
<path d="M653.512 390.577C653.538 390.742 653.502 390.934 653.394 391.093C653.007 391.596 652.62 392.099 652.252 392.579C652.014 392.899 651.556 392.949 651.212 392.736C650.887 392.5 650.794 392.05 651.013 391.753C651.4 391.25 651.787 390.747 652.173 390.244C652.414 389.945 652.869 389.874 653.216 390.108C653.388 390.214 653.483 390.392 653.512 390.577Z" fill="#FFDAFD"/>
<path d="M693.162 298.627C693.092 298.886 692.856 299.08 692.595 299.109L686.532 300.051L684.076 305.303C683.959 305.546 683.717 305.699 683.43 305.71C683.143 305.72 682.874 305.562 682.748 305.325L679.741 300.174L673.594 299.451C673.301 299.421 673.072 299.237 672.968 298.997C672.857 298.716 672.927 298.457 673.119 298.269L677.327 294.141L675.988 288.45C675.905 288.208 676.016 287.924 676.236 287.774C676.453 287.603 676.762 287.59 677.024 287.708L682.625 290.312L687.767 287.609C688.159 287.419 688.367 287.333 688.677 287.466C688.917 287.586 689.112 287.837 689.061 288.219L688.322 293.951L692.961 297.917C693.15 298.127 693.214 298.392 693.162 298.627ZM683.317 303.441L685.323 299.138C685.425 298.938 685.624 298.791 685.86 298.744L690.817 297.966L687.024 294.723C686.842 294.554 686.741 294.335 686.793 294.099L687.385 289.409L683.041 291.689C682.836 291.795 682.572 291.803 682.356 291.702L677.762 289.573L678.874 294.242C678.953 294.464 678.858 294.704 678.684 294.87L675.245 298.243L680.285 298.837C680.534 298.872 680.732 298.997 680.854 299.213L683.317 303.441Z" fill="#D7FBFF"/>
<path d="M610.928 378.374C610.944 378.477 610.942 378.603 610.89 378.692C610.798 378.954 610.559 379.127 610.272 379.137L606.842 379.475L605.273 382.327C605.134 382.572 604.889 382.704 604.599 382.694C604.309 382.685 604.062 382.524 603.936 382.286L602.447 379.312L599.024 378.706C598.75 378.653 598.521 378.469 598.435 378.206C598.331 377.967 598.417 377.664 598.634 377.494L601.133 375.334L600.581 372.109C600.539 371.842 600.656 371.599 600.876 371.449C601.119 371.296 601.405 371.286 601.671 371.424L604.701 373.056L607.579 371.754C607.697 371.658 607.843 371.6 607.996 371.583C608.41 371.537 608.786 371.809 608.847 372.2C608.847 372.2 608.85 372.221 608.854 372.241C608.867 372.324 608.854 372.388 608.846 372.472L608.235 375.637L610.67 378.005C610.839 378.091 610.906 378.23 610.928 378.374ZM604.66 380.406L605.711 378.49C605.813 378.291 606.034 378.141 606.277 378.135L608.594 377.921L606.945 376.324C606.764 376.156 606.703 375.911 606.736 375.698L607.153 373.559L605.083 374.5C604.856 374.609 604.61 374.594 604.391 374.472L602.334 373.38L602.699 375.559C602.735 375.785 602.658 376.003 602.484 376.168L600.785 377.633L603.091 378.048C603.34 378.083 603.544 378.249 603.642 378.447L604.66 380.406Z" fill="#D7FBFF"/>
<path d="M758.954 456.276C759.255 458.189 757.844 459.936 755.816 460.16L743.388 461.534C741.36 461.758 739.457 460.378 739.156 458.465C738.855 456.551 740.266 454.805 742.294 454.581L754.722 453.207C756.749 452.983 758.652 454.363 758.954 456.276ZM747.095 428.433C747.393 430.326 746.025 432.067 744.001 432.312L711.282 436.263C709.257 436.508 707.336 435.151 707.013 433.24C707.013 433.24 707.009 433.219 707.006 433.199C706.708 431.306 708.076 429.565 710.1 429.32L742.819 425.369C744.843 425.124 746.765 426.481 747.088 428.392C747.091 428.412 747.095 428.433 747.095 428.433ZM710.154 379.357C710.348 380.591 709.838 381.861 708.717 382.634C707.075 383.757 704.729 383.368 703.504 381.787C676.348 347.095 688.263 317.943 688.782 316.734C689.523 314.957 691.703 314.151 693.596 314.905C695.489 315.658 696.455 317.707 695.693 319.486C695.241 320.562 684.89 346.402 709.437 377.761C709.845 378.24 710.066 378.801 710.154 379.357ZM677.348 395.582C677.533 396.754 677.082 397.976 676.049 398.739C674.46 399.919 672.111 399.656 670.809 398.146C633.394 354.94 571.274 357.286 570.657 357.312C568.61 357.413 566.839 355.746 566.651 353.988C566.481 352.06 568.02 350.425 570.067 350.324C572.775 350.193 636.684 347.796 676.54 393.829C676.98 394.367 677.251 394.965 677.348 395.582ZM632.305 451.585C632.408 452.244 632.312 452.903 632.011 453.522C631.422 454.718 630.168 455.484 628.75 455.494L624.76 455.517L622.631 458.619C621.874 459.729 620.5 460.299 619.096 460.119C617.693 459.94 616.484 459.027 615.997 457.762L614.638 454.208L610.792 453.168C609.425 452.796 608.371 451.74 608.077 450.433C607.808 449.145 608.305 447.792 609.422 446.999L612.554 444.769L612.298 441.03C612.199 439.702 612.937 438.469 614.146 437.833C615.379 437.215 616.901 437.298 618.065 438.07L621.382 440.256L625.086 438.989C626.39 438.531 627.9 438.824 628.956 439.754C630.008 440.663 630.428 442.061 630.027 443.319L628.948 446.892L631.496 449.833C631.933 450.35 632.204 450.948 632.305 451.585ZM620.357 449.243C620.654 449.022 621.006 448.858 621.363 448.735C621.221 448.394 621.144 448.047 621.13 447.672C620.731 447.674 620.347 447.633 619.975 447.528C619.875 447.874 619.705 448.206 619.507 448.5C619.827 448.695 620.108 448.936 620.357 449.243ZM603.092 325.766C602.831 327.072 601.793 328.086 600.445 328.403L595.375 329.591L593.66 334.197C593.212 335.439 592.017 336.304 590.619 336.437C589.22 336.571 587.832 335.929 587.056 334.801L584.154 330.601L578.904 330.365C577.498 330.311 576.215 329.49 575.6 328.261C575.01 327.049 575.164 325.63 576.046 324.612L579.312 320.839L577.788 316.089C577.359 314.776 577.769 313.433 578.805 312.545C579.841 311.656 581.335 311.428 582.657 311.931L587.564 313.795L591.862 311.08C593.036 310.365 594.538 310.324 595.798 311.001C597.036 311.681 597.77 312.96 597.731 314.262L597.508 319.184L601.7 322.278C602.808 323.119 603.355 324.481 603.092 325.766ZM589.081 325.117C589.499 324.255 590.262 323.605 591.193 323.314C590.447 322.664 589.993 321.752 589.953 320.793C589.07 321.247 588.042 321.339 587.065 321.05C587.279 321.989 587.076 322.953 586.532 323.725C587.53 323.866 588.453 324.37 589.081 325.117Z" fill="white"/>
<path d="M601.623 325.47C601.456 326.241 600.843 326.853 600.03 327.048L594.21 328.403L592.25 333.705C591.967 334.448 591.251 334.966 590.422 335.058C589.568 335.131 588.753 334.74 588.272 334.082L584.94 329.26L578.907 328.985C578.059 328.953 577.293 328.452 576.933 327.717C576.573 326.983 576.684 326.133 577.21 325.531L580.965 321.202L579.193 315.727C578.965 314.978 579.187 314.137 579.792 313.61C580.418 313.08 581.306 312.94 582.108 313.249L587.769 315.386L592.209 312.593C593.087 311.973 593.815 311.662 594.727 311.959C595.639 312.256 596.266 313.002 596.233 314.199L595.97 319.858L600.788 323.406C601.464 323.897 601.771 324.721 601.623 325.47ZM589.506 328.253L590.377 325.896C590.61 325.264 591.175 324.762 591.881 324.6L594.471 324L592.336 322.415C591.757 321.977 591.428 321.302 591.456 320.629L591.568 318.105L589.37 319.499C588.765 319.88 587.998 319.944 587.314 319.684L584.79 318.729L585.574 321.174C585.768 321.843 585.636 322.549 585.187 323.08L583.515 325.002L586.196 325.124C586.935 325.168 587.614 325.532 588.016 326.116L589.506 328.253Z" fill="white"/>
<path d="M630.843 451.748C630.905 452.139 630.857 452.542 630.673 452.918C630.318 453.627 629.57 454.086 628.728 454.095L623.963 454.12L621.398 457.835C620.947 458.492 620.114 458.836 619.278 458.74C618.417 458.625 617.709 458.076 617.412 457.313L615.766 453.059L611.155 451.81C610.322 451.588 609.688 450.947 609.522 450.17C609.37 449.35 609.65 448.586 610.329 448.113L614.082 445.459L613.778 440.993C613.717 440.184 614.155 439.445 614.895 439.07C615.634 438.695 616.551 438.74 617.246 439.208L621.204 441.805L625.014 440.505C625.312 440.284 625.688 440.137 626.102 440.092C627.345 439.954 628.463 440.856 628.641 441.987C628.662 442.404 628.673 442.612 628.588 442.914L627.285 447.181L630.326 450.717C630.614 450.999 630.785 451.378 630.843 451.748ZM620.051 451.957L620.808 450.848C621.207 450.281 621.884 449.934 622.617 449.936L624.035 449.926L623.137 448.874C622.676 448.339 622.516 447.604 622.702 446.955L623.081 445.699L621.778 446.157C621.106 446.399 620.314 446.298 619.716 445.883L618.53 445.114L618.629 446.443C618.67 447.129 618.353 447.792 617.773 448.191L616.655 448.984L618.023 449.356C618.741 449.549 619.308 450.051 619.567 450.713L620.051 451.957Z" fill="#E6E7E8"/>
<path d="M707.209 379.682C707.248 379.929 707.152 380.17 706.91 380.322C706.569 380.548 706.113 380.473 705.865 380.165C679.708 346.746 691.395 318.122 691.527 317.835C691.694 317.482 692.11 317.31 692.491 317.477C692.873 317.645 693.05 318.064 692.902 318.395C692.791 318.679 681.394 346.601 707.051 379.386C707.151 379.458 707.189 379.559 707.209 379.682Z" fill="white"/>
<path d="M629.36 451.912C629.379 452.035 629.358 452.184 629.309 452.294C629.192 452.537 628.928 452.692 628.66 452.68L623.119 452.706L620.136 457.012C619.994 457.237 619.702 457.353 619.431 457.32C619.159 457.287 618.909 457.106 618.801 456.846L616.89 451.888L611.514 450.431C611.236 450.357 611.026 450.15 610.962 449.885C610.877 449.622 611.012 449.356 611.232 449.206L615.603 446.107L615.251 440.914C615.23 440.644 615.369 440.399 615.618 440.287C615.863 440.156 616.178 440.184 616.4 440.327L621.003 443.355L625.949 441.657C626.048 441.583 626.172 441.528 626.303 441.513C626.717 441.467 627.127 441.673 627.158 442.151C627.13 442.259 627.168 442.359 627.141 442.467L625.615 447.428L629.146 451.538C629.277 451.67 629.34 451.788 629.36 451.912ZM619.676 455.075L622.04 451.632C622.167 451.451 622.39 451.322 622.637 451.336L627.069 451.307L624.244 448.019C624.084 447.849 624.045 447.602 624.1 447.386L625.317 443.422L621.193 444.841C620.959 444.908 620.713 444.894 620.513 444.748L616.827 442.33L617.104 446.485C617.118 446.714 617.019 446.934 616.817 447.061L613.326 449.54L617.612 450.699C617.843 450.757 618.05 450.943 618.126 451.144L619.676 455.075Z" fill="white"/>
<path d="M745.653 340.505C745.299 341.214 744.55 341.673 743.687 341.685L738.675 341.695L735.962 345.594C735.511 346.251 734.677 346.594 733.842 346.498C733.002 346.382 732.273 345.835 731.997 345.07L730.269 340.573L725.402 339.248C724.569 339.026 723.957 338.382 723.769 337.608C723.624 336.829 723.918 336.022 724.576 335.551L728.549 332.747L728.25 328.03C728.192 327.241 728.627 326.481 729.367 326.106C730.106 325.732 731.026 325.797 731.721 326.265L735.904 329.025L739.97 327.655C741.011 327.226 741.971 327.12 742.747 327.683C743.426 328.194 743.849 329.047 743.543 330.065L742.167 334.57L745.375 338.317C745.871 338.932 745.985 339.798 745.653 340.505ZM734.615 339.716L735.517 338.402C735.916 337.835 736.593 337.488 737.326 337.491L738.99 337.495L737.929 336.252C737.465 335.696 737.311 335.002 737.494 334.333L737.965 332.816L736.407 333.344C735.735 333.586 734.943 333.485 734.345 333.069L732.937 332.158L733.031 333.738C733.072 334.424 732.755 335.087 732.174 335.486L730.859 336.427L732.482 336.875C733.2 337.068 733.767 337.57 734.026 338.232L734.615 339.716Z" fill="#83ECF6"/>
<path d="M744.289 339.881C744.172 340.124 743.93 340.276 743.64 340.266L737.831 340.281L734.703 344.791C734.561 345.016 734.269 345.132 733.998 345.099C733.726 345.067 733.476 344.885 733.368 344.625L731.377 339.445L725.746 337.912C725.468 337.838 725.254 337.611 725.194 337.366C725.189 337.053 725.244 336.838 725.464 336.688L730.036 333.462L729.686 327.996C729.665 327.726 729.804 327.481 730.05 327.349C730.295 327.217 730.61 327.245 730.835 327.409L735.642 330.603L740.842 328.835C741.262 328.684 741.502 328.657 741.756 328.859C741.981 329.023 742.139 329.319 742.035 329.645L740.435 334.844L744.132 339.166C744.361 339.35 744.406 339.638 744.289 339.881ZM734.243 342.854L736.774 339.205C736.901 339.023 737.124 338.894 737.371 338.908L742.071 338.891L739.08 335.392C738.92 335.221 738.881 334.974 738.936 334.759L740.226 330.556L735.846 332.045C735.613 332.113 735.367 332.098 735.145 331.955L731.255 329.371L731.549 333.776C731.563 334.004 731.465 334.224 731.263 334.351L727.569 336.957L732.112 338.192C732.343 338.25 732.546 338.416 732.625 338.638L734.243 342.854Z" fill="#D7FCFF"/>
<path d="M891.973 1141.91C890.54 1142.64 888.765 1142.07 888.029 1140.64C885.552 1135.82 879.636 1133.92 874.817 1136.4L835.923 1156.38C831.103 1158.86 829.203 1164.77 831.68 1169.59C832.416 1171.03 831.846 1172.8 830.413 1173.54C828.981 1174.27 827.206 1173.7 826.47 1172.27C822.521 1164.59 825.573 1155.15 833.233 1151.21L850.088 1142.55L831.212 1105.82L821.105 1111.01C808.209 1117.64 792.342 1112.52 785.729 1099.65L745.1 1020.59C738.474 1007.69 743.591 991.824 756.46 985.211L781.078 972.56C793.974 965.934 809.841 971.051 816.454 983.92L847.712 1044.75C848.449 1046.18 847.879 1047.96 846.446 1048.69C845.013 1049.43 843.238 1048.86 842.502 1047.43L839.918 1042.4L820.224 1052.52C818.791 1053.26 817.016 1052.69 816.28 1051.25C815.544 1049.82 816.114 1048.05 817.546 1047.31L837.241 1037.19L831.873 1026.74L812.178 1036.86C810.745 1037.6 808.971 1037.03 808.234 1035.6C807.498 1034.16 808.068 1032.39 809.501 1031.65L829.196 1021.53L823.828 1011.09L804.133 1021.21C802.7 1021.94 800.925 1021.37 800.189 1019.94C799.453 1018.51 800.023 1016.73 801.455 1016L821.15 1005.88L815.782 995.429L796.087 1005.55C794.655 1006.29 792.88 1005.72 792.144 1004.28C791.407 1002.85 791.977 1001.08 793.41 1000.34L813.105 990.219L811.217 986.546C807.134 978.6 798.522 974.464 790.138 975.644L795.707 986.481C796.443 987.914 795.873 989.689 794.44 990.425C793.008 991.161 791.233 990.591 790.497 989.158L784.419 977.331C784.185 977.452 783.924 977.585 783.69 977.706L773.972 982.699L780.05 994.526C780.786 995.959 780.216 997.734 778.784 998.47C777.351 999.206 775.576 998.637 774.84 997.204L768.762 985.377L759.097 990.343C758.863 990.463 758.602 990.597 758.368 990.718L764.445 1002.55C765.182 1003.98 764.612 1005.75 763.179 1006.49C761.746 1007.23 759.971 1006.66 759.235 1005.22L753.666 994.385C747.826 1000.51 746.174 1009.93 750.257 1017.87L752.145 1021.54L771.84 1011.42C773.272 1010.69 775.047 1011.26 775.783 1012.69C776.52 1014.12 775.95 1015.9 774.517 1016.63L754.822 1026.75L760.19 1037.2L779.885 1027.08C781.318 1026.34 783.093 1026.91 783.829 1028.35C784.565 1029.78 783.995 1031.55 782.562 1032.29L762.868 1042.41L768.236 1052.86L787.931 1042.74C789.363 1042 791.138 1042.57 791.874 1044C792.611 1045.44 792.041 1047.21 790.608 1047.95L770.913 1058.07L776.281 1068.51L795.976 1058.39C797.409 1057.66 799.183 1058.23 799.92 1059.66C800.656 1061.09 800.086 1062.87 798.653 1063.6L778.959 1073.72L790.913 1096.99C796.067 1107.02 808.411 1110.98 818.441 1105.83L843.059 1093.18C852.437 1088.36 856.635 1076.98 852.624 1067.25C852.018 1065.75 852.772 1064.02 854.219 1063.44C855.719 1062.83 857.43 1063.53 858.036 1065.03C863.178 1077.54 857.772 1092.2 845.736 1098.39L836.436 1103.17L855.311 1139.9L872.166 1131.24C879.852 1127.29 889.291 1130.34 893.226 1138C893.975 1139.39 893.405 1141.17 891.973 1141.91Z" fill="white"/>
<path d="M830.734 1088.24C824.716 1091.33 817.276 1088.96 814.17 1082.92C811.078 1076.9 813.446 1069.46 819.489 1066.35C824.674 1063.69 830.924 1065.09 834.522 1069.4C838.627 1067.45 849.067 1061.49 854.146 1048.12C857.939 1038.13 854.354 1028.98 852.159 1024.77C851.704 1025.04 851.222 1025.32 850.753 1025.56C849.32 1026.29 847.546 1025.72 846.809 1024.29L825.739 983.286C825.002 981.853 825.572 980.078 827.005 979.342C827.318 979.181 827.656 979.007 827.982 978.873C819.101 964.601 797.528 948.124 764.573 965.058C731.592 982.005 732.468 1009.15 738.901 1024.68C739.408 1024.39 739.89 1024.11 740.411 1023.84C741.844 1023.1 743.618 1023.67 744.355 1025.11L765.425 1066.11C766.162 1067.54 765.592 1069.32 764.159 1070.05C751.42 1076.6 735.724 1071.56 729.177 1058.82C723.85 1048.45 726.19 1036.15 734.121 1028.39C723.895 1006.25 728.485 977.049 761.883 959.887C795.202 942.765 821.572 955.888 833.647 977.016C844.77 974.758 856.5 980.025 861.935 990.602C867.289 1001.02 864.885 1013.45 856.835 1021.18C859.494 1025.91 864.467 1037.31 859.566 1050.2C853.774 1065.46 842.243 1072.25 837.056 1074.65C838.28 1079.98 835.788 1085.64 830.734 1088.24ZM822.167 1071.56C819.015 1073.18 817.761 1077.09 819.381 1080.24C821 1083.39 824.905 1084.65 828.057 1083.03C831.235 1081.39 832.463 1077.5 830.843 1074.35C829.223 1071.2 825.319 1069.94 822.167 1071.56ZM832.395 983.422L850.587 1018.83C858.594 1013.13 861.421 1002.23 856.802 993.239C852.425 984.721 842.752 980.635 833.857 982.934C833.414 983.227 832.879 983.403 832.395 983.422ZM739.525 1031.41C732.372 1037.29 730.023 1047.59 734.427 1056.16C739.046 1065.14 749.557 1069.19 758.848 1066L740.642 1030.57C740.33 1030.8 739.992 1031.04 739.694 1031.29C739.642 1031.31 739.564 1031.35 739.525 1031.41Z" fill="#5BD9E4"/>
<path d="M762.776 1479.53C812.982 1470.15 861.509 1503.34 870.895 1553.58C871.223 1555.66 869.935 1557.58 867.904 1557.97C865.874 1558.37 863.912 1557.01 863.516 1554.98C854.891 1508.84 810.319 1478.32 764.179 1486.95C762.148 1487.34 760.187 1485.99 759.79 1483.96C759.407 1481.71 760.886 1479.88 762.776 1479.53ZM766.536 1499.61C805.689 1492.3 843.48 1518.19 850.82 1557.34C851.113 1559.42 849.861 1561.34 847.83 1561.73C845.799 1562.13 843.838 1560.77 843.441 1558.74C836.894 1523.65 803.026 1500.47 767.938 1507.02C765.907 1507.42 763.946 1506.06 763.549 1504.03C763.166 1501.78 764.649 1499.99 766.536 1499.61ZM770.225 1519.36C798.501 1514.08 825.785 1532.76 831.066 1561.03C831.398 1563.14 830.106 1565.03 828.076 1565.42C826.045 1565.82 824.083 1564.46 823.687 1562.43C819.163 1538.22 795.799 1522.22 771.587 1526.74C769.553 1527.1 767.595 1525.78 767.198 1523.75C766.851 1521.5 768.334 1519.71 770.225 1519.36Z" fill="#9F51ED"/>
</svg>
