<svg width="1083" height="1351" viewBox="0 0 1083 1351" fill="none" xmlns="http://www.w3.org/2000/svg">
<path d="M768.474 525.432C766.932 524.919 766.085 523.265 766.599 521.72L781.604 476.618C782.108 475.104 783.788 474.257 785.329 474.77C786.902 475.293 787.75 476.947 787.236 478.492L772.22 523.625C771.685 525.128 770.016 525.945 768.474 525.432ZM723.196 508.069C721.654 507.556 720.807 505.902 721.321 504.358L734.949 463.395C735.453 461.881 737.122 461.064 738.664 461.577C740.237 462.101 741.084 463.755 740.581 465.269L726.953 506.231C726.407 507.765 724.738 508.582 723.196 508.069ZM701.451 496.649C699.909 496.136 699.03 494.471 699.544 492.927L710.665 459.502C711.168 457.988 712.838 457.171 714.411 457.694C715.953 458.207 716.8 459.862 716.296 461.375L705.166 494.831C704.694 496.355 703.024 497.172 701.451 496.649ZM760.289 511.695C758.748 511.182 757.9 509.528 758.414 507.983L766.821 482.714C767.325 481.2 768.995 480.383 770.536 480.896C772.078 481.409 772.957 483.074 772.453 484.587L764.046 509.857C763.511 511.36 761.831 512.208 760.289 511.695ZM783.627 518.224C782.085 517.711 781.206 516.047 781.71 514.533L789.387 491.457C789.891 489.943 791.561 489.126 793.134 489.649C794.675 490.162 795.523 491.817 795.019 493.33L787.352 516.376C786.838 517.92 785.169 518.737 783.627 518.224ZM738 501.912C736.426 501.389 735.579 499.734 736.093 498.19L743.092 477.152C743.596 475.639 745.275 474.791 746.849 475.314C748.39 475.827 749.238 477.481 748.724 479.026L741.725 500.063C741.242 501.618 739.573 502.435 738 501.912ZM716.132 490.965C714.59 490.452 713.743 488.798 714.246 487.284L719.046 472.858C719.549 471.344 721.219 470.527 722.761 471.04C724.302 471.553 725.15 473.207 724.646 474.721L719.857 489.117C719.343 490.661 717.673 491.478 716.132 490.965ZM751.261 500.388C749.72 499.875 748.841 498.211 749.355 496.666L752.798 486.317C753.301 484.803 754.981 483.956 756.554 484.479C758.096 484.992 758.943 486.646 758.429 488.191L754.986 498.54C754.504 500.095 752.834 500.912 751.261 500.388Z" fill="#5BD9E4"/>
<path d="M794.073 552.477C787.466 550.278 783.874 543.216 786.022 536.76L806.506 475.193C808.664 468.705 815.791 465.244 822.367 467.431C828.974 469.63 832.575 476.661 830.417 483.148L809.934 544.715C807.786 551.172 800.68 554.675 794.073 552.477ZM820.527 472.961C817.035 471.799 813.278 473.637 812.137 477.066L791.654 538.634C790.513 542.063 792.42 545.785 795.912 546.947C799.405 548.109 803.161 546.271 804.302 542.842L824.785 481.274C825.926 477.845 824.019 474.123 820.527 472.961ZM673.068 512.219C666.493 510.031 662.87 502.959 665.018 496.502L685.501 434.935C687.659 428.448 694.755 424.976 701.362 427.174C707.969 429.372 711.571 436.403 709.413 442.89L688.929 504.458C686.781 510.914 679.675 514.417 673.068 512.219ZM699.523 432.703C696.03 431.541 692.274 433.38 691.133 436.809L670.65 498.376C669.509 501.805 671.416 505.527 674.908 506.689C678.4 507.851 682.157 506.013 683.298 502.584L703.781 441.017C704.922 437.588 703.015 433.865 699.523 432.703ZM814.209 547.304C813.865 545.714 814.892 544.203 816.502 543.881C824.54 542.301 831.326 535.981 834.193 527.362L839.445 511.576C842.312 502.957 840.666 493.832 835.176 487.751C834.08 486.528 834.163 484.703 835.391 483.636C836.62 482.57 838.473 482.672 839.569 483.894C846.492 491.55 848.602 502.854 845.077 513.45L839.825 529.235C836.3 539.831 827.828 547.649 817.709 549.601C816.13 549.933 814.544 548.925 814.209 547.304ZM656.306 495.903C649.383 488.247 647.273 476.943 650.799 466.347L656.051 450.561C659.576 439.966 668.047 432.148 678.167 430.196C679.777 429.874 681.321 430.902 681.666 432.493C682.011 434.083 680.984 435.594 679.374 435.916C671.335 437.496 664.55 443.816 661.682 452.435L656.43 468.221C653.563 476.84 655.21 485.965 660.7 492.046C661.796 493.269 661.712 495.094 660.484 496.16C659.287 497.238 657.402 497.125 656.306 495.903ZM841.007 479.363L832.524 469.884C831.838 469.107 831.602 468.033 831.931 467.045C842.177 436.246 825.278 393.979 783.748 380.162C742.217 366.345 703.365 390.064 693.118 420.863C692.8 421.82 692.009 422.518 691.058 422.75L679.959 425.44C678.935 425.682 677.844 425.388 677.086 424.621C676.359 423.865 676.06 422.77 676.357 421.771C676.839 420.113 688.886 380.752 723.213 363.282C742.567 353.424 765.086 352.646 790.13 360.978C815.111 369.29 832.77 383.434 842.581 402.996C860.021 437.756 846.601 476.832 846.015 478.49C845.654 479.468 844.821 480.186 843.786 480.356C842.793 480.506 841.723 480.15 841.007 479.363ZM838.065 467.302L841.838 471.508C844.751 460.125 850.1 431.024 837.259 405.445C828.179 387.362 811.709 374.265 788.301 366.477C764.861 358.679 743.922 359.33 726.007 368.432C700.893 381.212 688.233 407.503 683.852 418.466L687.99 417.475C699.889 384.756 741.351 359.915 785.556 374.622C829.771 389.298 848.108 433.964 838.065 467.302Z" fill="white"/>
<path d="M402.06 1194.27C412.57 1204.61 426.539 1211.11 445.933 1216.76C426.538 1222.42 412.567 1228.92 402.056 1239.26C391.465 1249.68 384.833 1263.56 379.052 1282.85C373.271 1263.56 366.639 1249.68 356.048 1239.26C345.536 1228.92 331.563 1222.42 312.166 1216.77C331.563 1211.11 345.536 1204.61 356.048 1194.27C366.64 1183.85 373.272 1169.96 379.054 1150.67C384.837 1169.96 391.469 1183.85 402.06 1194.27Z" stroke="#511682" stroke-width="12"/>
<path d="M729.574 117.813C727.523 116.611 726.81 113.881 728.012 111.831C745.047 82.7523 735.234 45.1759 706.156 28.1402C704.105 26.9386 703.393 24.209 704.594 22.1581C705.854 20.0921 708.525 19.3944 710.576 20.5959C743.829 40.0776 755.038 82.9972 735.571 116.308C734.354 118.301 731.683 118.999 729.574 117.813ZM623.059 145.629C589.806 126.147 578.597 83.2274 598.064 49.9161C599.323 47.8501 601.995 47.1524 604.046 48.354C606.112 49.6135 606.81 52.2851 605.608 54.336C588.572 83.4142 598.385 120.991 627.464 138.026C629.514 139.228 630.227 141.958 629.026 144.008C627.781 146.133 625.11 146.83 623.059 145.629ZM709.358 105.969C707.307 104.768 706.595 102.038 707.796 99.9871C718.309 82.0421 712.258 58.869 694.313 48.3558C692.247 47.0962 691.549 44.4246 692.751 42.3737C694.01 40.3077 696.682 39.61 698.733 40.8115C720.853 53.7707 728.315 82.3451 715.356 104.465C714.139 106.458 711.467 107.155 709.358 105.969ZM634.844 125.428C612.724 112.469 605.277 83.9528 618.221 61.7748C619.481 59.7088 622.152 59.0111 624.203 60.2126C626.327 61.457 627.025 64.1286 625.766 66.1946C615.252 84.1396 621.304 107.313 639.249 117.826C641.358 119.012 642.071 121.742 640.811 123.808C639.683 125.902 636.953 126.615 634.844 125.428ZM689.714 94.4109C687.605 93.2245 686.892 90.4949 688.151 88.4288C692.314 81.3241 689.917 72.1478 682.813 67.9854C680.704 66.799 679.991 64.0694 681.25 62.0034C682.452 59.9525 685.182 59.2397 687.232 60.4412C698.512 67.0495 702.319 81.6271 695.711 92.9068C694.509 94.9576 691.838 95.6553 689.714 94.4109ZM646.387 105.725C635.108 99.1171 631.301 84.5395 637.909 73.2598C639.169 71.1938 641.84 70.4961 643.891 71.6976C645.942 72.8991 646.655 75.6288 645.453 77.6796C641.291 84.7844 643.687 93.9607 650.792 98.1231C652.916 99.3675 653.556 102.054 652.354 104.105C651.125 106.287 648.453 106.985 646.387 105.725ZM670.594 94.1305C664.38 95.7533 658.008 92.0201 656.385 85.8057C654.762 79.5914 658.495 73.2191 664.71 71.5962C670.924 69.9734 677.296 73.7066 678.919 79.921C680.6 86.1202 676.809 92.5076 670.594 94.1305ZM666.909 80.0175C665.341 80.427 664.455 82.0233 664.849 83.5333C665.259 85.1014 666.855 85.9874 668.365 85.593C669.933 85.1835 670.877 83.5721 670.483 82.0621C670.088 80.5521 668.477 79.608 666.909 80.0175Z" fill="#9A4AFF"/>
</svg>
