<svg width="541" height="741" viewBox="0 0 541 741" fill="none" xmlns="http://www.w3.org/2000/svg">
<path d="M211.222 420.21C210.486 420.215 209.762 419.888 209.281 419.27C208.451 418.207 208.644 416.675 209.707 415.845C237.033 394.657 259.478 395.551 260.446 395.602C261.789 395.666 262.822 396.814 262.744 398.158C262.68 399.501 261.489 400.505 260.203 400.47C259.972 400.472 238.495 399.702 212.692 419.71C212.261 420.045 211.728 420.207 211.222 420.21ZM189.452 407.587C188.716 407.592 187.991 407.265 187.511 406.647C186.681 405.584 186.873 404.052 187.936 403.222C208.926 386.87 201.996 362.584 201.922 362.339C201.538 361.056 202.266 359.694 203.563 359.31C204.86 358.912 206.208 359.669 206.591 360.951C206.68 361.225 214.512 388.696 190.921 407.072C190.505 407.422 189.972 407.584 189.452 407.587ZM269.699 404.119C268.845 403.764 268.248 402.974 268.184 402.035L267.505 393.159L259.809 388.675C259.011 388.204 258.544 387.326 258.61 386.402C258.676 385.477 259.263 384.665 260.112 384.313L268.35 380.924L270.228 372.219C270.424 371.308 271.113 370.596 272.021 370.373C272.944 370.151 273.87 370.462 274.481 371.166L280.243 377.958L289.103 377.063C290.056 376.97 290.925 377.412 291.421 378.189C291.917 378.98 291.909 379.976 291.423 380.759L286.751 388.341L290.342 396.491C290.723 397.34 290.585 398.323 289.983 399.034C289.395 399.746 288.43 400.07 287.533 399.845L278.885 397.735L272.238 403.67C271.534 404.309 270.554 404.475 269.699 404.119ZM266.526 386.957L271.063 389.599C271.759 389.998 272.211 390.717 272.26 391.511L272.655 396.75L276.574 393.245C277.177 392.707 277.999 392.499 278.765 392.696L283.871 393.934L281.745 389.125C281.423 388.39 281.475 387.552 281.904 386.857L284.662 382.391L279.438 382.916C278.616 383.008 277.848 382.681 277.324 382.064L273.934 378.057L272.826 383.19C272.658 383.971 272.114 384.624 271.365 384.933L266.526 386.957ZM194.503 356.193C193.635 355.852 193.038 355.061 192.959 354.138L192.335 347.023L186.118 343.497C185.306 343.04 184.839 342.163 184.89 341.238C184.942 340.314 185.514 339.487 186.378 339.135L192.959 336.348L194.401 329.35C194.583 328.439 195.271 327.713 196.165 327.49C197.044 327.254 198.013 327.55 198.624 328.254L203.295 333.638L210.394 332.841C211.303 332.734 212.215 333.162 212.711 333.953C213.207 334.729 213.228 335.725 212.743 336.523L209.057 342.64L212.002 349.148C212.383 349.997 212.259 350.98 211.672 351.706C211.084 352.417 210.162 352.755 209.237 352.53L202.281 350.915L197.013 355.729C196.324 356.369 195.343 356.534 194.503 356.193ZM192.821 341.706L195.85 343.434C196.546 343.833 196.998 344.538 197.075 345.346L197.372 348.824L199.942 346.483C200.53 345.93 201.352 345.723 202.133 345.905L205.531 346.692L204.095 343.524C203.759 342.79 203.811 341.952 204.225 341.257L206.025 338.27L202.562 338.654C201.768 338.746 200.972 338.433 200.448 337.83L198.164 335.202L197.465 338.615C197.296 339.396 196.766 340.049 196.032 340.371L192.821 341.706ZM235.566 337.832C235.176 337.835 234.771 337.737 234.409 337.551C233.583 337.123 233.086 336.26 233.109 335.322L233.214 331.465L230.095 329.204C229.34 328.661 228.973 327.739 229.126 326.814C229.279 325.903 229.953 325.162 230.832 324.896L234.536 323.804L235.725 320.143C236.008 319.26 236.769 318.62 237.692 318.484C238.587 318.348 239.528 318.746 240.053 319.523L242.239 322.7L246.095 322.703C247.019 322.697 247.874 323.226 248.284 324.061C248.694 324.896 248.599 325.893 248.026 326.618L245.678 329.68L246.872 333.355C247.152 334.234 246.913 335.203 246.253 335.857C245.578 336.511 244.612 336.719 243.744 336.407L240.111 335.117L236.978 337.376C236.561 337.667 236.057 337.829 235.566 337.832ZM236.947 328.163L237.106 328.278C237.759 328.75 238.125 329.513 238.116 330.322L238.103 330.524L238.261 330.407C238.922 329.941 239.744 329.82 240.497 330.09L240.685 330.161L240.626 329.973C240.376 329.21 240.529 328.371 241.016 327.733L241.13 327.573L240.928 327.574C240.134 327.579 239.381 327.18 238.929 326.519L238.841 326.332L238.784 326.52C238.544 327.287 237.927 327.883 237.163 328.104L236.947 328.163Z" fill="#9A4AFF"/>
<path d="M138.261 467.18C137.679 466.491 137.514 465.539 137.855 464.699L163.072 401.188C163.569 399.929 164.98 399.328 166.24 399.825C167.499 400.322 168.1 401.733 167.603 402.993L144.106 462.218L206.148 448.241C207.446 447.944 208.765 448.758 209.063 450.085C209.36 451.397 208.531 452.702 207.219 452.999L140.678 467.987C139.711 468.167 138.814 467.841 138.261 467.18ZM236.71 460.489C235.927 459.989 235.488 459.096 235.583 458.172L235.883 455.397L233.763 453.592C233.052 452.99 232.757 452.039 232.982 451.142C233.207 450.245 233.939 449.547 234.847 449.368L237.573 448.787L238.639 446.225C238.994 445.37 239.814 444.787 240.737 444.724C241.647 444.689 242.545 445.131 242.998 445.936L244.385 448.353L247.159 448.58C248.084 448.661 248.882 449.248 249.22 450.112C249.557 450.976 249.391 451.959 248.76 452.642L246.896 454.705L247.534 457.415C247.995 459.376 246.013 461.02 244.174 460.195L241.625 459.056L239.252 460.501C238.49 460.997 237.493 460.989 236.71 460.489ZM240.488 453.057C240.663 453.33 240.795 453.647 240.855 453.964C241.172 453.875 241.504 453.859 241.837 453.9C241.849 453.568 241.934 453.25 242.076 452.945C241.772 452.832 241.482 452.646 241.25 452.417C241.035 452.692 240.776 452.911 240.488 453.057ZM165.486 454.773C164.143 454.781 163.038 453.691 163.03 452.348L162.833 422.127C162.824 420.785 163.914 419.68 165.257 419.671C166.6 419.663 167.704 420.738 167.713 422.096L167.91 452.316C167.919 453.659 166.828 454.764 165.486 454.773ZM187.774 449.27C186.431 449.279 185.326 448.189 185.317 446.846L185.273 440.016C185.264 438.674 186.354 437.569 187.697 437.56C189.04 437.552 190.145 438.627 190.153 439.985L190.198 446.814C190.207 448.157 189.116 449.262 187.774 449.27ZM204.279 444.946C196.59 441.675 188.795 435.445 182.317 427.401C175.839 419.357 171.406 410.419 169.851 402.213C168.191 393.473 169.951 386.502 174.82 382.586C179.92 378.481 187.804 378.473 196.451 382.546C197.667 383.116 198.182 384.571 197.612 385.787C197.028 387.004 195.588 387.533 194.371 386.949C187.477 383.702 181.468 383.495 177.877 386.378C174.487 389.115 173.338 394.407 174.653 401.315C176.073 408.742 180.141 416.932 186.124 424.358C192.107 431.785 199.234 437.514 206.199 440.472C212.657 443.217 218.072 443.225 221.476 440.488C223.573 438.8 224.812 436.149 225.136 432.609C225.257 431.266 226.464 430.305 227.793 430.412C229.137 430.533 230.112 431.725 229.991 433.069C229.546 437.894 227.65 441.776 224.533 444.295C218.859 448.837 210.997 447.805 204.279 444.946ZM268.982 431.53C268.128 431.174 267.559 430.34 267.51 429.417L267.346 426.4L264.765 424.828C263.968 424.342 263.529 423.45 263.61 422.525C263.69 421.601 264.292 420.803 265.156 420.465L267.964 419.378L268.667 416.442C268.878 415.546 269.595 414.833 270.489 414.64C271.383 414.446 272.338 414.758 272.921 415.476L274.827 417.817L277.844 417.581C278.739 417.503 279.651 417.973 280.133 418.765C280.6 419.556 280.592 420.566 280.092 421.335L278.462 423.887L279.621 426.681C280.399 428.538 278.693 430.484 276.74 429.977L273.833 429.202L271.536 431.166C270.817 431.749 269.822 431.9 268.982 431.53ZM271.397 423.24C271.717 423.541 271.936 423.93 272.054 424.348C272.443 424.143 272.861 424.039 273.309 424.065C273.234 423.632 273.274 423.199 273.43 422.779C272.997 422.724 272.591 422.539 272.243 422.267C272.058 422.672 271.771 423.006 271.397 423.24ZM225.042 420.351C224.045 420.357 223.117 419.757 222.75 418.777L222.31 417.668C221.796 416.415 222.393 414.996 223.646 414.483C224.899 413.969 226.318 414.566 226.832 415.819L227.316 417.044C227.786 418.311 227.16 419.716 225.893 420.186C225.604 420.289 225.316 420.349 225.042 420.351ZM216.186 406.474L218.214 405.103L216.143 406.402C215.385 405.295 215.62 403.734 216.712 402.962C217.819 402.189 219.279 402.411 220.051 403.503L218.199 405.118L216.186 406.474ZM209.121 396.86C208.5 396.864 207.892 396.637 207.412 396.178L206.497 395.317C205.509 394.4 205.441 392.855 206.359 391.867C207.277 390.879 208.807 390.826 209.809 391.729L210.797 392.661C211.771 393.594 211.795 395.139 210.863 396.112C210.39 396.606 209.756 396.856 209.121 396.86ZM220.615 370.317C220.24 370.32 219.849 370.235 219.501 370.05C218.676 369.637 218.15 368.788 218.159 367.85L218.165 366.608L217.15 365.892C216.395 365.363 215.999 364.441 216.138 363.531C216.276 362.606 216.936 361.851 217.815 361.571L218.996 361.202L219.349 360.015C219.618 359.133 220.379 358.464 221.288 358.328C222.182 358.178 223.123 358.561 223.662 359.323L224.377 360.329L225.618 360.307C226.585 360.185 227.397 360.801 227.836 361.635C228.26 362.456 228.18 363.452 227.622 364.207L226.877 365.208L227.289 366.375C227.584 367.254 227.359 368.223 226.714 368.877C226.054 369.531 225.088 369.768 224.205 369.471L223.033 369.074L222.041 369.817C221.639 370.152 221.12 370.314 220.615 370.317Z" fill="#5BD9E4"/>
<path d="M225.035 419.368C224.443 419.372 223.878 419.015 223.657 418.424L223.217 417.301C222.909 416.552 223.264 415.698 224.013 415.39C224.762 415.096 225.616 415.437 225.924 416.186L226.394 417.381C226.673 418.13 226.303 418.985 225.54 419.264C225.367 419.337 225.209 419.367 225.035 419.368Z" fill="#83ECF6"/>
<path d="M216.991 405.92C216.539 405.259 216.648 404.248 217.295 403.796C217.956 403.344 218.794 403.396 219.245 404.057L218.053 404.903L219.304 404.144L218.198 405.118L216.991 405.92Z" fill="#83ECF6"/>
<path d="M209.114 395.877C208.753 395.88 208.377 395.752 208.086 395.465L207.156 394.591C206.561 394.046 206.526 393.122 207.071 392.526C207.615 391.931 208.539 391.896 209.135 392.441L210.108 393.359C210.689 393.918 210.71 394.842 210.151 395.423C209.878 395.728 209.504 395.875 209.114 395.877Z" fill="#83ECF6"/>
<path d="M269.365 430.646C268.858 430.418 268.509 429.93 268.476 429.381L268.295 425.859L265.279 424.016C264.801 423.73 264.537 423.183 264.592 422.634C264.646 422.085 265.004 421.607 265.522 421.401L268.82 420.138L269.636 416.71C269.762 416.161 270.192 415.754 270.726 415.62C271.288 415.501 271.838 415.7 272.188 416.131L274.415 418.874L277.936 418.591C278.47 418.559 279.02 418.815 279.312 419.304C279.604 419.779 279.579 420.385 279.279 420.849L277.363 423.807L278.552 426.688C278.874 427.379 278.978 427.912 278.664 428.42C278.35 428.927 277.731 429.249 276.979 429.051L273.565 428.135L270.88 430.42C270.478 430.754 269.886 430.859 269.365 430.646ZM269.33 423.051L270.476 423.751C270.882 424.009 271.144 424.44 271.176 424.916L271.243 426.244L272.262 425.371C272.635 425.051 273.126 424.947 273.589 425.074L274.876 425.412L274.362 424.174C274.186 423.727 274.226 423.221 274.484 422.815L275.213 421.699L273.885 421.809C273.423 421.855 272.945 421.641 272.64 421.268L271.795 420.234L271.486 421.535C271.374 421.998 271.044 422.39 270.598 422.566L269.33 423.051Z" fill="#83ECF6"/>
<path d="M220.609 369.35C220.378 369.351 220.146 369.295 219.943 369.195C219.451 368.953 219.13 368.435 219.141 367.872L219.158 366.125L217.722 365.123C217.258 364.809 217.038 364.261 217.121 363.698C217.204 363.148 217.591 362.698 218.124 362.522L219.795 361.991L220.29 360.327C220.445 359.792 220.905 359.399 221.453 359.309C222.001 359.233 222.551 359.446 222.872 359.906L223.892 361.329L225.639 361.303C226.1 361.257 226.709 361.599 226.972 362.103C227.221 362.592 227.182 363.199 226.852 363.649L225.808 365.056L226.249 366.31C226.424 366.554 226.527 366.842 226.529 367.174C226.534 367.997 225.846 368.723 225.037 368.642C224.806 368.644 224.69 368.63 224.531 368.573L222.867 368.021L221.473 369.07C221.214 369.245 220.912 369.348 220.609 369.35Z" fill="#83ECF6"/>
<path d="M225.028 418.401C224.826 418.402 224.638 418.288 224.564 418.086C224.417 417.698 224.27 417.323 224.109 416.934C224.006 416.689 224.134 416.4 224.379 416.297C224.624 416.195 224.914 416.308 225.016 416.567C225.178 416.956 225.325 417.345 225.472 417.734C225.574 417.979 225.446 418.268 225.187 418.371C225.144 418.386 225.086 418.401 225.028 418.401Z" fill="#D7FCFF"/>
<path d="M209.107 394.911C208.992 394.911 208.861 394.869 208.76 394.783C208.44 394.482 208.121 394.181 207.815 393.894C207.612 393.708 207.61 393.404 207.782 393.201C207.969 393.012 208.286 392.996 208.475 393.168C208.795 393.469 209.114 393.77 209.434 394.071C209.623 394.258 209.639 394.561 209.453 394.764C209.367 394.866 209.237 394.91 209.107 394.911Z" fill="#FFDAFD"/>
<path d="M269.75 429.748C269.576 429.677 269.46 429.504 269.458 429.331L269.244 425.29L265.794 423.175C265.635 423.075 265.547 422.902 265.56 422.714C265.573 422.527 265.702 422.367 265.875 422.308L269.649 420.854L270.59 416.92C270.633 416.732 270.776 416.602 270.949 416.557C271.151 416.513 271.325 416.584 271.441 416.727L273.988 419.873L278.015 419.558C278.188 419.528 278.376 419.628 278.464 419.786C278.566 419.944 278.553 420.146 278.453 420.306L276.251 423.699L277.748 427.313C277.851 427.587 277.895 427.731 277.781 427.92C277.68 428.065 277.493 428.167 277.233 428.096L273.328 427.053L270.255 429.687C270.097 429.789 269.909 429.805 269.75 429.748ZM267.135 422.863L269.962 424.592C270.092 424.678 270.18 424.821 270.195 424.98L270.376 428.285L272.889 426.132C273.018 426.03 273.176 425.986 273.336 426.043L276.532 426.888L275.27 423.835C275.212 423.691 275.225 423.518 275.311 423.387L277.112 420.603L273.807 420.87C273.649 420.9 273.489 420.815 273.387 420.685L271.306 418.114L270.533 421.339C270.49 421.498 270.39 421.615 270.232 421.673L267.135 422.863Z" fill="#D7FBFF"/>
<path d="M220.602 368.367C220.529 368.368 220.443 368.354 220.385 368.311C220.211 368.225 220.109 368.053 220.122 367.865L220.136 365.598L218.279 364.296C218.12 364.182 218.046 364.009 218.074 363.821C218.102 363.633 218.231 363.488 218.404 363.429L220.565 362.751L221.23 360.581C221.286 360.407 221.43 360.276 221.617 360.246C221.79 360.201 221.993 360.287 222.095 360.445L223.406 362.285L225.673 362.241C225.861 362.24 226.02 362.34 226.108 362.498C226.196 362.671 226.183 362.859 226.068 363.018L224.723 364.832L225.414 366.834C225.473 366.921 225.502 367.021 225.503 367.123C225.505 367.397 225.289 367.615 225.015 367.617C225.015 367.617 225.001 367.617 224.986 367.617C224.928 367.617 224.885 367.603 224.827 367.589L222.686 366.881L220.875 368.236C220.804 368.337 220.703 368.367 220.602 368.367ZM219.65 364.085L220.897 364.958C221.028 365.044 221.115 365.202 221.102 365.361L221.083 366.891L222.304 365.974C222.434 365.872 222.607 365.856 222.751 365.899L224.198 366.38L223.698 364.94C223.639 364.781 223.667 364.622 223.767 364.491L224.669 363.258L223.139 363.283C222.98 363.284 222.835 363.212 222.733 363.083L221.844 361.833L221.392 363.294C221.349 363.453 221.22 363.57 221.076 363.614L219.65 364.085Z" fill="#D7FBFF"/>
<path d="M156.144 457.159C154.801 457.167 153.697 456.077 153.688 454.734L153.634 446.504C153.626 445.161 154.716 444.057 156.059 444.048C157.401 444.039 158.506 445.13 158.515 446.472L158.568 454.703C158.577 456.045 157.487 457.15 156.144 457.159ZM176.226 452.162C174.897 452.17 173.793 451.109 173.77 449.766L173.398 428.066C173.374 426.723 174.45 425.604 175.793 425.581C175.793 425.581 175.807 425.581 175.822 425.581C177.15 425.572 178.254 426.634 178.278 427.977L178.65 449.677C178.673 451.02 177.597 452.138 176.255 452.162C176.24 452.162 176.226 452.162 176.226 452.162ZM212.777 432.907C211.911 432.912 211.07 432.456 210.618 431.65C209.96 430.47 210.398 428.98 211.578 428.337C237.491 414.047 256.764 424.664 257.562 425.121C258.735 425.778 259.135 427.277 258.478 428.436C257.822 429.596 256.337 430.024 255.163 429.353C254.453 428.953 237.354 419.679 213.93 432.596C213.571 432.815 213.167 432.904 212.777 432.907ZM203.935 409.948C203.112 409.953 202.301 409.54 201.848 408.792C201.148 407.641 201.499 406.137 202.635 405.436C235.166 385.298 238.02 344.603 238.047 344.198C238.125 342.855 239.403 341.865 240.631 341.915C241.974 341.992 242.993 343.155 242.915 344.499C242.811 346.276 239.863 388.141 205.203 409.593C204.801 409.826 204.368 409.945 203.935 409.948ZM168.504 375.119C168.042 375.122 167.594 374.995 167.188 374.738C166.405 374.237 165.966 373.345 166.061 372.42L166.333 369.819L164.344 368.128C163.632 367.526 163.337 366.575 163.562 365.679C163.788 364.782 164.505 364.084 165.413 363.89L167.966 363.354L168.961 360.951C169.316 360.096 170.121 359.514 171.045 359.45C171.954 359.4 172.853 359.857 173.32 360.662L174.634 362.921L177.235 363.12C178.159 363.187 178.957 363.788 179.309 364.638C179.647 365.502 179.48 366.485 178.864 367.167L177.115 369.114L177.723 371.651C177.946 372.545 177.634 373.5 176.916 374.097C176.212 374.693 175.217 374.83 174.377 374.445L171.988 373.392L169.773 374.764C169.384 374.998 168.952 375.116 168.504 375.119ZM170.982 367.565C171.114 367.781 171.202 368.026 171.261 368.271C171.506 368.212 171.752 368.196 172.012 368.223C172.039 367.963 172.095 367.717 172.195 367.485C171.963 367.386 171.745 367.243 171.557 367.085C171.399 367.274 171.212 367.434 170.982 367.565ZM257.496 368.417C256.613 368.12 255.987 367.344 255.866 366.435L255.41 363.016L252.353 361.447C251.527 361.034 251.016 360.171 251.025 359.247C251.033 358.322 251.576 357.481 252.411 357.086L255.521 355.608L256.062 352.211C256.2 351.3 256.859 350.545 257.753 350.265C258.632 349.999 259.601 350.238 260.241 350.913L262.611 353.41L266.001 352.882C266.938 352.732 267.836 353.13 268.375 353.892C268.914 354.654 268.964 355.65 268.522 356.461L266.881 359.476L268.446 362.541C268.856 363.376 268.775 364.358 268.217 365.113C267.659 365.853 266.723 366.205 265.826 366.052L262.443 365.425L260.004 367.852C259.344 368.492 258.364 368.715 257.496 368.417ZM258.953 359.354C259.518 359.711 259.912 360.272 260.046 360.906C260.549 360.484 261.211 360.278 261.876 360.346C261.627 359.726 261.637 359.048 261.907 358.439C261.243 358.487 260.592 358.26 260.098 357.83C259.929 358.467 259.514 359.018 258.953 359.354Z" fill="white"/>
<path d="M257.807 367.489C257.286 367.305 256.908 366.846 256.832 366.297L256.315 362.373L252.795 360.577C252.302 360.32 251.996 359.802 251.992 359.254C252.003 358.69 252.332 358.197 252.821 357.949L256.391 356.251L257.015 352.348C257.099 351.799 257.5 351.348 258.033 351.186C258.566 351.024 259.145 351.179 259.523 351.581L262.242 354.451L266.151 353.833C266.684 353.758 267.249 353.985 267.57 354.431C267.89 354.891 267.923 355.482 267.652 355.975L265.769 359.453L267.377 362.619C267.743 363.252 267.905 363.756 267.634 364.321C267.363 364.886 266.802 365.222 265.979 365.083L262.09 364.357L259.292 367.148C258.905 367.54 258.314 367.659 257.807 367.489ZM256.758 359.324L258.322 360.122C258.742 360.336 259.048 360.753 259.109 361.229L259.337 362.974L260.585 361.739C260.93 361.405 261.42 361.257 261.882 361.341L263.617 361.661L262.813 360.093C262.593 359.661 262.604 359.156 262.833 358.735L263.675 357.185L261.929 357.456C261.453 357.517 260.976 357.361 260.641 357.017L259.434 355.74L259.157 357.474C259.073 357.951 258.773 358.358 258.341 358.563L256.758 359.324Z" fill="white"/>
<path d="M168.498 374.151C168.223 374.152 167.949 374.082 167.702 373.925C167.238 373.624 166.975 373.092 167.029 372.543L167.355 369.436L164.974 367.401C164.553 367.043 164.376 366.467 164.502 365.932C164.643 365.382 165.074 364.975 165.622 364.856L168.678 364.201L169.873 361.32C170.086 360.798 170.574 360.449 171.123 360.416C171.7 360.398 172.207 360.655 172.485 361.144L174.047 363.848L177.153 364.088C177.717 364.127 178.196 364.485 178.401 365.004C178.607 365.522 178.51 366.115 178.137 366.522L176.058 368.845L176.682 371.455C176.813 371.671 176.887 371.93 176.889 372.204C176.894 373.027 176.191 373.667 175.397 373.672C175.108 373.645 174.963 373.632 174.76 373.547L171.908 372.28L169.247 373.915C169.031 374.075 168.758 374.149 168.498 374.151ZM169.13 367.1L169.842 367.702C170.205 368.017 170.396 368.492 170.341 368.969L170.246 369.894L171.037 369.412C171.44 369.164 171.959 369.132 172.394 369.317L173.234 369.687L173.011 368.793C172.893 368.332 173.019 367.826 173.349 367.477L173.965 366.78L173.041 366.714C172.564 366.673 172.129 366.402 171.896 365.985L171.428 365.179L171.073 366.033C170.888 366.482 170.5 366.802 170.024 366.907L169.13 367.1Z" fill="#E6E7E8"/>
<path d="M212.765 430.957C212.591 430.958 212.432 430.872 212.344 430.699C212.213 430.455 212.297 430.165 212.528 430.034C237.49 416.27 256.415 426.687 256.604 426.801C256.836 426.944 256.924 427.233 256.781 427.465C256.639 427.696 256.336 427.771 256.118 427.642C255.93 427.542 237.468 417.382 212.981 430.883C212.923 430.941 212.851 430.956 212.765 430.957Z" fill="white"/>
<path d="M237.05 459.838C236.586 459.538 236.323 459.005 236.377 458.442L236.731 455.176L234.234 453.026C233.813 452.668 233.636 452.092 233.762 451.557C233.903 451.021 234.333 450.6 234.881 450.495L238.111 449.81L239.377 446.77C239.59 446.248 240.079 445.913 240.627 445.866C241.175 445.848 241.712 446.119 241.989 446.594L243.639 449.456L246.919 449.724C247.468 449.764 247.961 450.121 248.166 450.64C248.372 451.158 248.26 451.751 247.887 452.158L245.68 454.612L246.333 457.395C246.555 458.115 246.559 458.751 246.114 459.201C245.712 459.594 245.093 459.785 244.412 459.487L241.4 458.149L238.581 459.871C238.121 460.134 237.514 460.124 237.05 459.838ZM238.39 452.725L239.232 453.441C239.595 453.757 239.786 454.232 239.732 454.709L239.609 455.793L240.543 455.223C240.961 454.975 241.451 454.943 241.9 455.128L242.914 455.583L242.661 454.516C242.543 454.055 242.67 453.549 242.999 453.2L243.73 452.373L242.632 452.279C242.156 452.238 241.721 451.967 241.487 451.55L240.932 450.6L240.506 451.614C240.321 452.063 239.933 452.383 239.457 452.487L238.39 452.725Z" fill="#83ECF6"/>
<path d="M237.58 459.011C237.42 458.911 237.333 458.738 237.36 458.551L237.769 454.765L234.879 452.286C234.734 452.171 234.675 451.969 234.717 451.796C234.759 451.622 234.903 451.477 235.09 451.432L238.81 450.643L240.275 447.125C240.346 446.951 240.518 446.834 240.692 446.819C240.908 446.846 241.053 446.903 241.141 447.061L243.039 450.355L246.839 450.663C247.027 450.676 247.186 450.79 247.259 450.963C247.333 451.136 247.291 451.338 247.162 451.469L244.61 454.287L245.456 457.848C245.53 458.136 245.531 458.295 245.373 458.441C245.244 458.571 245.028 458.645 244.811 458.545L241.335 456.994L238.085 458.979C237.941 459.11 237.739 459.111 237.58 459.011ZM236.25 452.176L238.588 454.182C238.704 454.282 238.777 454.441 238.75 454.6L238.423 457.663L241.055 456.057C241.184 455.97 241.358 455.969 241.502 456.026L244.312 457.278L243.599 454.279C243.569 454.121 243.597 453.962 243.712 453.831L245.776 451.55L242.713 451.311C242.554 451.297 242.41 451.211 242.336 451.067L240.803 448.406L239.623 451.244C239.566 451.389 239.437 451.505 239.278 451.535L236.25 452.176Z" fill="#D7FCFF"/>
<path d="M427.743 162.333C426.464 162.994 424.891 162.51 424.228 161.229L404.875 123.829C404.225 122.574 404.725 120.984 406.004 120.323C407.308 119.647 408.882 120.132 409.545 121.413L428.911 158.838C429.534 160.107 429.021 161.671 427.743 162.333ZM388.738 180.341C387.46 181.002 385.886 180.518 385.223 179.237L367.646 145.27C366.997 144.015 367.51 142.45 368.789 141.789C370.093 141.114 371.667 141.598 372.316 142.853L389.893 176.82C390.53 178.115 390.017 179.679 388.738 180.341ZM368.05 187.084C366.771 187.746 365.171 187.275 364.509 185.994L350.166 158.277C349.517 157.022 350.03 155.458 351.334 154.783C352.613 154.121 354.187 154.606 354.836 155.861L369.192 183.603C369.868 184.845 369.354 186.409 368.05 187.084ZM413.965 159.038C412.687 159.699 411.113 159.215 410.45 157.934L399.607 136.98C398.958 135.725 399.471 134.16 400.749 133.499C402.028 132.837 403.628 133.308 404.277 134.563L415.12 155.517C415.744 156.786 415.243 158.376 413.965 159.038ZM432.533 148.26C431.255 148.922 429.655 148.451 429.005 147.196L419.103 128.06C418.454 126.805 418.967 125.24 420.272 124.565C421.55 123.904 423.124 124.389 423.773 125.644L433.662 144.753C434.325 146.034 433.811 147.599 432.533 148.26ZM393.979 167.139C392.675 167.814 391.101 167.329 390.438 166.049L381.411 148.604C380.762 147.349 381.262 145.759 382.566 145.084C383.845 144.422 385.418 144.907 386.081 146.188L395.108 163.632C395.797 164.899 395.284 166.464 393.979 167.139ZM373.516 174.253C372.237 174.915 370.664 174.43 370.014 173.175L363.824 161.212C363.174 159.957 363.687 158.393 364.966 157.731C366.244 157.07 367.818 157.554 368.468 158.809L374.645 170.747C375.307 172.027 374.794 173.592 373.516 174.253ZM401.209 157.78C399.93 158.441 398.33 157.97 397.668 156.689L393.227 148.108C392.577 146.853 393.077 145.263 394.382 144.588C395.66 143.926 397.234 144.411 397.897 145.691L402.338 154.273C403.026 155.54 402.513 157.105 401.209 157.78Z" fill="#5BD9E4"/>
<path d="M460.729 162.8C455.25 165.635 448.548 163.55 445.778 158.196L419.359 107.143C416.576 101.764 418.784 95.1005 424.236 92.2789C429.715 89.4439 436.404 91.5035 439.187 96.8829L465.606 147.936C468.376 153.29 466.208 159.965 460.729 162.8ZM426.609 96.8642C423.713 98.3628 422.558 101.883 424.029 104.727L450.448 155.78C451.919 158.623 455.46 159.713 458.356 158.215C461.252 156.716 462.407 153.196 460.936 150.352L434.517 99.2995C433.046 96.4561 429.505 95.3657 426.609 96.8642ZM360.39 214.723C354.937 217.544 348.209 215.472 345.438 210.119L319.02 159.066C316.236 153.686 318.418 147.037 323.897 144.202C329.376 141.367 336.064 143.426 338.848 148.806L365.266 199.858C368.037 205.212 365.868 211.888 360.39 214.723ZM326.27 148.787C323.374 150.285 322.219 153.806 323.69 156.649L350.108 207.702C351.58 210.546 355.121 211.636 358.017 210.137C360.913 208.639 362.068 205.118 360.596 202.275L334.178 151.222C332.707 148.379 329.166 147.288 326.27 148.787ZM469.892 146.822C468.669 146.058 468.345 144.472 469.135 143.251C473.101 137.172 473.283 128.959 469.585 121.813L462.811 108.723C459.113 101.576 452.303 96.9808 445.05 96.707C443.597 96.6472 442.49 95.4664 442.572 94.0274C442.654 92.5884 443.864 91.4751 445.317 91.535C454.455 91.8725 462.934 97.5198 467.481 106.306L474.255 119.396C478.801 128.182 478.527 138.391 473.512 146.02C472.747 147.228 471.127 147.612 469.892 146.822ZM339.674 215.278C330.536 214.94 322.057 209.293 317.51 200.507L310.737 187.417C306.19 178.63 306.464 168.421 311.479 160.792C312.27 159.571 313.877 159.227 315.1 159.99C316.322 160.754 316.646 162.34 315.856 163.561C311.89 169.64 311.708 177.853 315.407 185L322.18 198.09C325.878 205.237 332.688 209.832 339.941 210.106C341.394 210.165 342.502 211.346 342.419 212.785C342.363 214.211 341.127 215.337 339.674 215.278ZM443.33 87.8221L432.07 87.3482C431.154 87.3028 430.326 86.7895 429.902 85.9698C416.686 60.4305 379.414 45.0339 344.976 62.8545C310.538 80.6751 301.58 119.994 314.796 145.534C315.207 146.328 315.161 147.261 314.72 148.008L309.568 156.715C309.089 157.515 308.228 158.025 307.273 158.033C306.344 158.026 305.463 157.54 305.013 156.734C304.258 155.403 286.721 123.429 296.848 90.8443C302.553 72.4665 315.977 57.6932 336.744 46.9469C357.459 36.2276 377.351 33.7608 395.831 39.6237C428.673 50.0383 445.181 82.7071 445.871 84.1039C446.269 84.9371 446.21 85.9095 445.678 86.6718C445.159 87.3949 444.272 87.8539 443.33 87.8221ZM433.856 82.2347L438.858 82.4396C433.433 73.5553 418.268 52.1749 394.096 44.516C377.006 39.1028 358.514 41.4622 339.104 51.5066C319.667 61.5644 307.139 75.2569 301.844 92.2536C294.435 116.093 303.297 140.378 307.547 149.934L309.476 146.695C296.063 118.92 305.922 77.2508 342.577 58.2827C379.219 39.289 418.904 55.2561 433.856 82.2347Z" fill="white"/>
<path d="M391.094 624.923L345.539 647.789C344.799 648.161 343.884 647.857 343.512 647.116C343.14 646.376 343.444 645.46 344.184 645.088L389.724 622.23C390.464 621.858 391.38 622.162 391.752 622.902C392.131 623.657 391.834 624.551 391.094 624.923Z" fill="white"/>
<path d="M492.639 650.118L372.202 710.571C365.018 714.177 356.254 711.268 352.647 704.081L320.397 639.832C316.797 632.659 319.694 623.88 326.877 620.274L447.314 559.821C454.498 556.215 463.262 559.124 466.869 566.311L499.126 630.574C502.712 637.754 499.808 646.519 492.639 650.118ZM329.137 624.775C324.435 627.135 322.527 632.891 324.889 637.596L357.146 701.859C359.507 706.564 365.241 708.466 369.957 706.099L490.394 645.646C495.096 643.286 496.996 637.551 494.635 632.847L462.37 568.569C460.009 563.865 454.268 561.947 449.566 564.307L329.129 624.761L329.137 624.775ZM454.813 648.927C438.821 656.954 419.266 650.464 411.235 634.464C403.203 618.463 409.683 598.905 425.676 590.878C441.668 582.85 461.223 589.34 469.255 605.341C477.286 621.341 470.806 640.899 454.813 648.927ZM427.928 595.364C414.417 602.146 408.941 618.673 415.733 632.206C422.526 645.738 439.051 651.222 452.561 644.44C466.087 637.651 471.563 621.124 464.77 607.592C457.978 594.059 441.453 588.575 427.928 595.364ZM446.447 632.258C439.641 635.675 431.313 632.911 427.895 626.101C424.477 619.292 427.236 610.963 434.042 607.546C440.863 604.122 449.176 606.894 452.595 613.703C456.013 620.513 453.268 628.835 446.447 632.258ZM436.295 612.033C431.955 614.211 430.2 619.509 432.379 623.85C434.558 628.192 439.856 629.95 444.195 627.772C448.534 625.594 450.289 620.295 448.11 615.954C445.931 611.613 440.634 609.855 436.295 612.033Z" fill="#9A4AFF"/>
<path d="M399.395 641.461L353.84 664.327C353.1 664.698 352.185 664.394 351.813 663.654C351.441 662.913 351.745 661.998 352.485 661.626L398.025 638.767C398.765 638.396 399.681 638.7 400.052 639.44C400.431 640.195 400.135 641.089 399.395 641.461Z" fill="white"/>
<path d="M407.696 657.998L362.141 680.865C361.401 681.236 360.485 680.932 360.114 680.192C359.742 679.451 360.045 678.535 360.786 678.164L406.326 655.305C407.066 654.934 407.982 655.237 408.353 655.978C408.732 656.733 408.436 657.627 407.696 657.998Z" fill="white"/>
<path d="M426.553 561.534L328.927 559.422C328.099 559.401 327.429 558.719 327.45 557.891C327.463 557.048 328.151 556.394 329.001 556.421L426.628 558.534C427.456 558.554 428.125 559.236 428.105 560.065C428.077 560.878 427.381 561.555 426.553 561.534Z" fill="white"/>
</svg>
