<svg width="1118" height="1504" viewBox="0 0 1118 1504" fill="none" xmlns="http://www.w3.org/2000/svg">
<path d="M618.943 247.994C619.136 248.847 618.941 249.771 618.346 250.487C617.322 251.721 615.495 251.888 614.261 250.865C582.704 224.529 578.028 198.241 577.842 197.104C577.573 195.528 578.644 194.037 580.224 193.785C581.8 193.517 583.269 194.645 583.555 196.147C583.616 196.414 588.189 221.547 617.988 246.415C618.487 246.83 618.811 247.408 618.943 247.994ZM609.828 276.484C610.021 277.338 609.825 278.262 609.231 278.977C608.207 280.212 606.38 280.379 605.146 279.355C580.816 259.146 554.382 273.375 554.116 273.523C552.725 274.295 550.958 273.797 550.182 272.389C549.389 270.984 549.925 269.226 551.316 268.454C551.612 268.282 581.515 252.196 608.856 274.909C609.368 275.304 609.692 275.882 609.828 276.484ZM585.375 184.192C585.18 185.274 584.415 186.169 583.341 186.482L573.208 189.529L569.961 199.607C569.617 200.652 568.717 201.419 567.626 201.578C566.536 201.736 565.443 201.262 564.818 200.365L558.786 191.663L548.201 191.698C547.093 191.702 546.091 191.084 545.602 190.086C545.108 189.071 545.235 187.916 545.896 187.028L552.316 178.608L549.021 168.549C548.671 167.466 548.963 166.345 549.738 165.571C550.53 164.794 551.689 164.549 552.722 164.914L562.715 168.409L571.264 162.166C572.153 161.507 573.329 161.417 574.308 161.935C575.284 162.436 575.906 163.474 575.873 164.573L575.624 175.152L584.207 181.359C585.129 182.013 585.571 183.109 585.375 184.192ZM566.256 192.244L568.168 186.304C568.455 185.395 569.175 184.686 570.084 184.428L576.067 182.636L570.999 178.978C570.221 178.414 569.771 177.513 569.804 176.573L569.942 170.33L564.899 174.022C564.128 174.583 563.142 174.736 562.225 174.415L556.338 172.349L558.278 178.281C558.594 179.213 558.409 180.187 557.826 180.952L554.037 185.909L560.279 185.888C561.228 185.885 562.125 186.35 562.674 187.142L566.256 192.244ZM548.868 283.701C548.693 284.796 547.928 285.691 546.875 286.017L538.773 288.552L536.262 296.669C535.938 297.728 535.038 298.494 533.951 298.669C532.865 298.845 531.759 298.391 531.13 297.477L526.22 290.545L517.727 290.653C516.623 290.673 515.605 290.059 515.119 289.078C514.62 288.117 514.718 286.916 515.379 286.028L520.443 279.234L517.71 271.195C517.355 270.166 517.618 268.998 518.41 268.221C519.186 267.447 520.337 267.169 521.387 267.53L529.428 270.253L536.234 265.177C537.123 264.518 538.296 264.412 539.288 264.909C540.264 265.41 540.891 266.394 540.865 267.526L540.76 276.014L547.691 280.905C548.609 281.543 549.05 282.639 548.868 283.701ZM532.476 289.342L533.711 285.385C533.998 284.476 534.701 283.771 535.62 283.476L539.582 282.246L536.21 279.858C535.418 279.316 534.968 278.414 534.981 277.461L535.03 273.315L531.717 275.788C530.951 276.366 529.964 276.519 529.051 276.215L525.126 274.885L526.452 278.809C526.761 279.707 526.601 280.711 526.034 281.472L523.564 284.793L527.705 284.737C528.654 284.734 529.547 285.183 530.109 285.953L532.476 289.342ZM517.098 240.697C517.2 241.149 517.189 241.644 517.066 242.112C516.779 243.18 515.904 243.976 514.808 244.189L510.304 245.048L508.472 249.246C508.033 250.26 507.056 250.921 505.943 250.979C504.847 251.033 503.815 250.439 503.283 249.486L501.072 245.464L496.518 245.015C495.421 244.911 494.484 244.19 494.091 243.153C493.706 242.149 493.929 240.955 494.696 240.148L497.829 236.8L496.852 232.323C496.609 231.251 497.005 230.123 497.871 229.435C498.736 228.747 499.917 228.603 500.906 229.083L505.059 231.03L509.021 228.709C509.97 228.16 511.156 228.191 512.084 228.791C513.015 229.408 513.503 230.476 513.362 231.564L512.788 236.111L516.208 239.174C516.653 239.583 516.969 240.128 517.098 240.697ZM505.52 241.555L505.612 241.34C505.994 240.462 506.787 239.843 507.728 239.648L507.966 239.611L507.791 239.458C507.081 238.809 506.731 237.885 506.853 236.942L506.887 236.706L506.685 236.822C505.862 237.307 504.849 237.342 503.984 236.94L503.769 236.847L503.822 237.082C504.03 238.002 503.758 238.979 503.106 239.672L502.911 239.822L503.144 239.839C504.095 239.923 504.944 240.488 505.396 241.319L505.52 241.555Z" fill="#9A4AFF"/>
<path d="M692.051 320.753C691.399 321.605 690.336 322.039 689.274 321.856L609.113 308.743C607.524 308.486 606.466 307.001 606.723 305.412C606.98 303.823 608.465 302.766 610.054 303.022L684.802 315.23L652.781 246.75C652.106 245.319 652.715 243.58 654.18 242.897C655.628 242.218 657.354 242.848 658.033 244.296L692.374 317.742C692.828 318.818 692.678 319.943 692.051 320.753ZM659.223 208.147C658.841 209.183 657.917 209.92 656.819 210.045L653.521 210.404L651.965 213.325C651.447 214.304 650.418 214.889 649.319 214.855C648.221 214.822 647.224 214.15 646.785 213.141L645.417 210.124L642.17 209.538C641.087 209.343 640.202 208.54 639.893 207.484C639.621 206.437 639.905 205.282 640.725 204.551L643.178 202.324L642.736 199.046C642.595 197.952 643.073 196.876 643.99 196.264C644.908 195.652 646.091 195.595 647.045 196.154L649.914 197.793L652.899 196.361C655.058 195.328 657.472 197.21 656.982 199.556L656.309 202.805L658.59 205.193C659.36 205.952 659.605 207.11 659.223 208.147ZM649.632 205.652C649.905 205.379 650.239 205.145 650.592 204.995C650.408 204.649 650.304 204.268 650.268 203.872C649.879 203.942 649.488 203.925 649.098 203.837C649.044 204.219 648.902 204.603 648.695 204.931C649.07 205.11 649.389 205.355 649.632 205.652ZM670.715 292.301C671.067 293.858 670.082 295.418 668.525 295.77L633.486 303.691C631.929 304.043 630.369 303.058 630.017 301.501C629.665 299.944 630.633 298.388 632.207 298.032L667.246 290.111C668.803 289.759 670.363 290.744 670.715 292.301ZM658.653 267.823C659.005 269.38 658.021 270.94 656.464 271.292L648.545 273.082C646.988 273.434 645.428 272.449 645.076 270.892C644.724 269.335 645.692 267.779 647.266 267.424L655.184 265.633C656.741 265.282 658.301 266.266 658.653 267.823ZM649.432 249.759C647.591 259.52 642.341 270.156 634.649 279.725C626.958 289.294 617.709 296.717 608.577 300.611C598.851 304.763 590.309 304.494 584.523 299.837C578.458 294.961 576.442 285.809 578.971 274.732C579.323 273.175 580.881 272.206 582.439 272.558C584 272.927 584.981 274.465 584.613 276.026C582.597 284.858 583.887 291.886 588.148 295.322C592.188 298.562 598.626 298.549 606.312 295.264C614.574 291.724 623.048 284.917 630.148 276.079C637.247 267.242 642.086 257.509 643.748 248.669C645.291 240.472 643.922 234.182 639.878 230.926C637.383 228.921 633.99 228.157 629.798 228.683C628.207 228.884 626.784 227.727 626.57 226.157C626.369 224.566 627.504 223.13 629.095 222.929C634.812 222.217 639.802 223.43 643.519 226.408C650.238 231.84 651.041 241.231 649.432 249.759ZM617.384 178.047C617.188 179.13 616.365 180.002 615.305 180.295L611.844 181.253L610.676 184.649C610.315 185.699 609.391 186.436 608.296 186.577C607.202 186.719 606.122 186.224 605.51 185.307L603.534 182.322L599.946 182.253C598.851 182.237 597.842 181.585 597.389 180.596C596.937 179.608 597.056 178.42 597.741 177.561L599.974 174.751L598.932 171.309C598.614 170.289 598.928 169.11 599.724 168.349C600.524 167.605 601.699 167.357 602.719 167.743L606.097 168.985L609.046 166.928C611.005 165.553 613.698 167.038 613.607 169.434L613.446 173.007L616.312 175.175C617.171 175.861 617.599 176.978 617.384 178.047ZM607.144 177.353C607.412 176.905 607.807 176.552 608.263 176.308C607.926 175.909 607.699 175.45 607.615 174.924C607.132 175.121 606.618 175.184 606.091 175.11C606.138 175.627 606.026 176.145 605.799 176.619C606.317 176.731 606.778 176.978 607.144 177.353ZM615.588 231.912C615.849 233.067 615.389 234.298 614.345 234.974L613.169 235.767C611.845 236.682 610.046 236.35 609.13 235.026C608.215 233.702 608.547 231.903 609.871 230.987L611.17 230.113C612.522 229.244 614.312 229.614 615.181 230.966C615.374 231.274 615.516 231.594 615.588 231.912ZM601.73 245.726L599.623 243.721L601.658 245.795C600.566 246.957 598.693 247.081 597.518 246.01C596.34 244.921 596.225 243.17 597.297 241.995L599.643 243.734L601.73 245.726ZM592.366 256.377C592.528 257.097 592.42 257.861 592.009 258.535L591.243 259.816C590.429 261.197 588.652 261.669 587.272 260.855C585.891 260.041 585.44 258.277 586.233 256.884L587.064 255.5C587.899 254.132 589.686 253.71 591.054 254.545C591.748 254.969 592.199 255.641 592.366 256.377ZM558.621 249.787C558.72 250.223 558.721 250.697 558.594 251.148C558.325 252.212 557.473 253.038 556.381 253.268L554.938 253.576L554.366 254.937C553.943 255.948 552.974 256.642 551.881 256.713C550.772 256.788 549.727 256.215 549.178 255.265L548.449 253.987L546.982 253.879C545.889 253.792 544.918 253.079 544.529 252.058C544.127 251.058 544.333 249.868 545.08 249.048L546.067 247.962L545.725 246.526C545.337 245.435 545.845 244.335 546.703 243.613C547.547 242.912 548.725 242.751 549.743 243.207L551.095 243.817L552.345 243.041C553.291 242.476 554.473 242.49 555.396 243.073C556.324 243.673 556.845 244.734 556.725 245.835L556.562 247.297L557.677 248.259C558.168 248.64 558.489 249.201 558.621 249.787Z" fill="#5BD9E4"/>
<path d="M614.45 232.17C614.605 232.856 614.335 233.604 613.705 234.01L612.513 234.807C611.722 235.356 610.639 235.16 610.091 234.369C609.559 233.575 609.738 232.496 610.529 231.948L611.797 231.098C612.596 230.583 613.682 230.795 614.201 231.61C614.33 231.792 614.405 231.969 614.45 232.17Z" fill="#83ECF6"/>
<path d="M600.883 244.933C600.23 245.626 599.028 245.757 598.338 245.121C597.645 244.468 597.493 243.482 598.146 242.789L599.431 243.959L598.231 242.7L599.644 243.735L600.883 244.933Z" fill="#83ECF6"/>
<path d="M591.227 256.635C591.322 257.054 591.27 257.523 591.011 257.934L590.232 259.236C589.751 260.066 588.687 260.342 587.857 259.861C587.026 259.38 586.751 258.316 587.232 257.486L588.05 256.122C588.551 255.305 589.619 255.046 590.436 255.547C590.859 255.786 591.125 256.183 591.227 256.635Z" fill="#83ECF6"/>
<path d="M616.261 177.827C616.125 178.473 615.647 179.004 615.018 179.181L610.975 180.289L609.603 184.259C609.393 184.887 608.825 185.332 608.173 185.409C607.522 185.486 606.875 185.192 606.504 184.643L604.198 181.134L600.011 181.06C599.341 181.053 598.759 180.657 598.468 180.072C598.186 179.449 598.277 178.76 598.688 178.245L601.307 174.961L600.082 170.944C599.909 170.332 600.066 169.628 600.56 169.164C601.036 168.705 601.747 168.579 602.362 168.81L606.284 170.281L609.326 168.168C610.046 167.618 610.639 167.361 611.309 167.597C611.978 167.833 612.509 168.469 612.471 169.393L612.276 173.59L615.612 176.126C616.103 176.508 616.375 177.167 616.261 177.827ZM607.451 179.801L607.972 178.293C608.168 177.756 608.602 177.341 609.147 177.183L610.672 176.768L609.399 175.806C608.932 175.454 608.686 174.911 608.716 174.342L608.781 172.761L607.473 173.672C607 173.99 606.403 174.073 605.866 173.877L604.384 173.315L604.849 174.829C605.02 175.353 604.894 175.962 604.538 176.412L603.552 177.655L605.142 177.683C605.708 177.696 606.247 177.979 606.566 178.452L607.451 179.801Z" fill="#83ECF6"/>
<path d="M557.5 250.041C557.56 250.309 557.554 250.592 557.49 250.853C557.334 251.487 556.814 251.991 556.158 252.122L554.124 252.546L553.327 254.469C553.08 255.088 552.501 255.483 551.825 255.53C551.166 255.573 550.545 255.238 550.204 254.664L549.162 252.859L547.105 252.708C546.444 252.664 545.871 252.23 545.626 251.617C545.399 251 545.506 250.307 545.959 249.817L547.351 248.271L546.877 246.249C546.705 245.725 546.948 244.931 547.466 244.497C547.971 244.084 548.685 243.975 549.291 244.243L551.191 245.098L552.534 244.266C552.773 244.001 553.082 243.808 553.467 243.721C554.421 243.505 555.44 244.12 555.551 245.08C555.612 245.348 555.625 245.485 555.6 245.685L555.382 247.758L556.955 249.109C557.224 249.365 557.42 249.69 557.5 250.041Z" fill="#83ECF6"/>
<path d="M613.328 232.424C613.381 232.658 613.297 232.906 613.081 233.043C612.667 233.312 612.27 233.578 611.859 233.865C611.601 234.046 611.232 233.971 611.051 233.713C610.869 233.455 610.927 233.09 611.202 232.905C611.613 232.618 612.027 232.349 612.441 232.079C612.699 231.898 613.068 231.973 613.253 232.247C613.281 232.294 613.313 232.357 613.328 232.424Z" fill="#D7FCFF"/>
<path d="M590.106 256.889C590.136 257.023 590.12 257.185 590.046 257.325C589.778 257.773 589.51 258.22 589.254 258.648C589.09 258.931 588.738 259.011 588.458 258.863C588.191 258.694 588.091 258.33 588.243 258.067C588.511 257.619 588.78 257.171 589.048 256.723C589.216 256.457 589.564 256.36 589.848 256.525C589.988 256.599 590.072 256.738 590.106 256.889Z" fill="#FFDAFD"/>
<path d="M615.12 177.609C615.082 177.829 614.911 178.008 614.71 178.054L610.072 179.331L608.495 183.875C608.419 184.086 608.241 184.232 608.02 184.264C607.798 184.297 607.58 184.188 607.468 184.002L604.819 179.991L600.012 179.898C599.783 179.897 599.595 179.764 599.499 179.574C599.396 179.351 599.434 179.132 599.571 178.96L602.575 175.201L601.184 170.606C601.106 170.413 601.174 170.169 601.335 170.027C601.493 169.868 601.731 169.832 601.941 169.907L606.442 171.6L610.257 168.943C610.549 168.754 610.705 168.665 610.953 168.75C611.147 168.83 611.313 169.021 611.298 169.341L611.081 174.141L614.921 177.039C615.079 177.196 615.145 177.41 615.12 177.609ZM607.792 182.398L609.079 178.676C609.146 178.502 609.29 178.364 609.471 178.306L613.263 177.255L610.123 174.885C609.972 174.761 609.88 174.588 609.905 174.389L610.073 170.462L606.85 172.704C606.697 172.809 606.493 172.838 606.319 172.771L602.628 171.389L603.779 175.158C603.854 175.335 603.796 175.541 603.671 175.693L601.216 178.764L605.157 178.841C605.353 178.849 605.513 178.936 605.622 179.105L607.792 182.398Z" fill="#D7FBFF"/>
<path d="M556.361 250.299C556.38 250.383 556.386 250.487 556.351 250.565C556.296 250.789 556.122 250.951 555.9 250.984L553.264 251.545L552.225 254.032C552.133 254.246 551.951 254.375 551.726 254.391C551.501 254.407 551.299 254.294 551.187 254.108L549.849 251.771L547.16 251.552C546.944 251.53 546.756 251.397 546.673 251.187C546.577 250.997 546.625 250.74 546.782 250.582L548.585 248.59L547.957 245.97C547.908 245.752 547.983 245.542 548.145 245.399C548.323 245.254 548.544 245.221 548.759 245.313L551.207 246.414L553.356 245.101C553.442 245.012 553.551 244.952 553.668 244.925C553.986 244.853 554.294 245.047 554.366 245.366C554.366 245.366 554.37 245.382 554.374 245.399C554.389 245.466 554.384 245.52 554.382 245.591L554.105 248.258L556.139 250.015C556.275 250.072 556.335 250.182 556.361 250.299ZM551.631 252.494L552.327 250.824C552.394 250.65 552.555 250.508 552.743 250.483L554.525 250.116L553.149 248.931C552.997 248.807 552.935 248.61 552.948 248.431L553.138 246.628L551.593 247.576C551.424 247.685 551.232 247.693 551.055 247.61L549.394 246.877L549.812 248.647C549.853 248.832 549.807 249.018 549.683 249.169L548.458 250.52L550.27 250.673C550.465 250.682 550.633 250.802 550.721 250.958L551.631 252.494Z" fill="#D7FBFF"/>
<path d="M675.863 302.54C676.215 304.097 675.23 305.657 673.674 306.009L664.131 308.166C662.574 308.518 661.014 307.533 660.662 305.976C660.31 304.419 661.295 302.859 662.852 302.507L672.394 300.35C673.951 299.998 675.511 300.983 675.863 302.54ZM664.95 280.495C665.298 282.035 664.347 283.587 662.793 283.956L637.692 289.912C636.139 290.281 634.566 289.316 634.197 287.763C634.197 287.763 634.193 287.747 634.19 287.73C633.841 286.19 634.793 284.637 636.346 284.269L661.447 278.313C663.001 277.944 664.573 278.908 664.942 280.461C664.946 280.478 664.95 280.495 664.95 280.495ZM633.289 242.956C633.516 243.961 633.2 245.053 632.38 245.784C631.177 246.847 629.335 246.718 628.289 245.512C605.1 219.062 612.522 193.98 612.85 192.939C613.313 191.408 614.952 190.563 616.465 191.03C617.979 191.498 618.854 193.112 618.374 194.646C618.09 195.572 611.674 217.787 632.635 241.696C632.98 242.058 633.187 242.504 633.289 242.956ZM608.882 259.067C609.097 260.021 608.824 261.068 608.071 261.784C606.913 262.89 605.077 262.865 603.975 261.724C572.311 229.078 524.334 236.123 523.857 236.195C522.278 236.447 520.803 235.214 520.548 233.776C520.296 232.197 521.387 230.718 522.967 230.467C525.057 230.135 574.417 222.901 608.147 257.684C608.521 258.093 608.768 258.564 608.882 259.067ZM577.46 309.071C577.581 309.606 577.548 310.159 577.353 310.696C576.971 311.733 576.047 312.47 574.949 312.595L571.86 312.941L570.403 315.681C569.885 316.66 568.856 317.245 567.757 317.212C566.659 317.178 565.666 316.523 565.21 315.518L563.937 312.691L560.893 312.147C559.811 311.952 558.929 311.166 558.62 310.109C558.332 309.066 558.633 307.907 559.449 307.159L561.737 305.058L561.307 301.988C561.148 300.898 561.643 299.818 562.54 299.193C563.458 298.581 564.641 298.524 565.591 299.066L568.296 300.602L571.087 299.249C572.069 298.764 573.257 298.882 574.132 299.564C575.004 300.229 575.416 301.35 575.183 302.423L574.569 305.466L576.725 307.688C577.096 308.08 577.343 308.552 577.46 309.071ZM568.059 308.116C568.276 307.909 568.538 307.744 568.808 307.613C568.676 307.343 568.595 307.063 568.56 306.754C568.252 306.788 567.952 306.786 567.657 306.729C567.601 307.023 567.49 307.312 567.355 307.572C567.615 307.706 567.848 307.883 568.059 308.116ZM547.027 207.449C546.906 208.549 546.165 209.473 545.141 209.846L541.287 211.245L540.244 215.194C539.974 216.258 539.102 217.071 538.026 217.296C536.951 217.522 535.836 217.105 535.165 216.236L532.657 213.002L528.575 213.239C527.482 213.31 526.438 212.736 525.885 211.77C525.353 210.817 525.384 209.631 526.004 208.717L528.3 205.329L526.825 201.528C526.412 200.477 526.646 199.333 527.393 198.513C528.14 197.693 529.284 197.382 530.339 197.689L534.256 198.827L537.417 196.23C538.282 195.542 539.443 195.385 540.461 195.841C541.463 196.301 542.111 197.298 542.161 198.378L542.293 202.465L545.732 204.679C546.643 205.283 547.152 206.365 547.027 207.449ZM536.133 208.064C536.404 207.316 536.955 206.716 537.657 206.399C537.039 205.923 536.631 205.206 536.54 204.417C535.885 204.864 535.094 205.025 534.319 204.866C534.544 205.625 534.446 206.439 534.072 207.122C534.854 207.156 535.6 207.498 536.133 208.064Z" fill="white"/>
<path d="M545.872 207.324C545.79 207.976 545.353 208.532 544.736 208.76L540.311 210.358L539.121 214.903C538.948 215.54 538.425 216.028 537.789 216.172C537.132 216.303 536.476 216.046 536.063 215.542L533.183 211.829L528.492 212.097C527.833 212.141 527.208 211.789 526.884 211.211C526.56 210.634 526.593 209.922 526.963 209.381L529.604 205.494L527.892 201.112C527.668 200.512 527.788 199.798 528.224 199.313C528.676 198.823 529.355 198.635 529.996 198.824L534.514 200.126L537.78 197.452C538.422 196.866 538.967 196.55 539.691 196.72C540.416 196.891 540.949 197.457 540.997 198.449L541.145 203.149L545.097 205.687C545.651 206.036 545.94 206.693 545.872 207.324ZM536.657 210.621L537.186 208.601C537.328 208.059 537.734 207.598 538.271 207.406L540.24 206.697L538.488 205.562C538.012 205.247 537.716 204.716 537.695 204.157L537.626 202.061L536.009 203.395C535.564 203.759 534.974 203.875 534.428 203.717L532.414 203.134L533.173 205.092C533.365 205.629 533.305 206.223 532.991 206.699L531.815 208.425L533.899 208.306C534.475 208.281 535.023 208.527 535.371 208.976L536.657 210.621Z" fill="white"/>
<path d="M576.338 309.325C576.41 309.643 576.398 309.98 576.278 310.306C576.048 310.922 575.497 311.363 574.845 311.44L571.155 311.852L569.399 315.135C569.09 315.715 568.466 316.067 567.812 316.056C567.138 316.033 566.556 315.636 566.278 315.031L564.739 311.648L561.09 310.995C560.431 310.88 559.9 310.402 559.723 309.773C559.555 309.107 559.724 308.453 560.221 308.006L562.963 305.504L562.451 301.836C562.354 301.172 562.647 300.525 563.197 300.154C563.747 299.784 564.46 299.746 565.027 300.075L568.254 301.897L571.125 300.509C571.342 300.302 571.625 300.15 571.943 300.078C572.897 299.862 573.819 300.516 574.027 301.437C574.069 301.779 574.09 301.95 574.043 302.207L573.298 305.842L575.874 308.515C576.114 308.725 576.27 309.024 576.338 309.325ZM567.991 310.385L568.509 309.406C568.782 308.904 569.285 308.562 569.853 308.504L570.951 308.379L570.19 307.583C569.8 307.178 569.63 306.583 569.734 306.032L569.95 304.963L568.969 305.448C568.463 305.703 567.843 305.685 567.355 305.391L566.388 304.853L566.547 305.943C566.621 306.507 566.417 307.081 565.992 307.459L565.176 308.206L566.258 308.401C566.826 308.502 567.297 308.87 567.539 309.396L567.991 310.385Z" fill="#E6E7E8"/>
<path d="M631.029 243.468C631.074 243.668 631.015 243.875 630.837 244.021C630.586 244.236 630.229 244.211 630.018 243.978C607.682 218.497 614.961 193.871 615.045 193.623C615.152 193.318 615.464 193.142 615.77 193.248C616.076 193.355 616.239 193.688 616.145 193.973C616.077 194.217 608.979 218.239 630.888 243.235C630.97 243.287 631.006 243.367 631.029 243.468Z" fill="white"/>
<path d="M575.2 309.582C575.223 309.683 575.216 309.807 575.185 309.902C575.109 310.113 574.914 310.263 574.706 310.275L570.415 310.752L568.371 314.557C568.275 314.755 568.056 314.875 567.844 314.87C567.632 314.865 567.426 314.735 567.327 314.529L565.538 310.587L561.284 309.825C561.064 309.786 560.888 309.632 560.822 309.419C560.74 309.209 560.828 308.977 560.99 308.835L564.183 305.914L563.588 301.649C563.556 301.428 563.648 301.213 563.834 301.101C564.016 300.972 564.262 300.969 564.443 301.069L568.196 303.194L571.922 301.384C571.994 301.315 572.087 301.259 572.188 301.236C572.506 301.164 572.836 301.301 572.889 301.694C572.875 301.785 572.91 301.865 572.896 301.956L572.021 306.183L575.011 309.291C575.121 309.389 575.178 309.482 575.2 309.582ZM567.895 312.993L569.513 309.953C569.599 309.792 569.765 309.667 569.956 309.659L573.388 309.27L570.996 306.785C570.861 306.657 570.816 306.456 570.845 306.273L571.542 302.895L568.435 304.407C568.258 304.482 568.067 304.491 567.902 304.387L564.897 302.691L565.369 306.103C565.394 306.291 565.332 306.481 565.183 306.603L562.632 308.939L566.024 309.545C566.207 309.574 566.379 309.711 566.45 309.871L567.895 312.993Z" fill="white"/>
<path d="M658.381 207.918C658.15 208.533 657.599 208.974 656.931 209.055L653.049 209.475L651.189 212.922C650.88 213.502 650.256 213.854 649.602 213.844C648.945 213.816 648.346 213.424 648.085 212.814L646.467 209.238L642.615 208.543C641.956 208.428 641.442 207.946 641.248 207.321C641.087 206.689 641.265 205.998 641.746 205.555L644.65 202.91L644.125 199.034C644.032 198.387 644.322 197.723 644.871 197.352C645.421 196.982 646.138 196.96 646.705 197.29L650.117 199.228L653.181 197.761C653.962 197.321 654.698 197.154 655.334 197.556C655.892 197.923 656.273 198.593 656.099 199.46L655.313 203.297L658.03 206.132C658.452 206.6 658.594 207.306 658.381 207.918ZM649.781 208.173L650.398 207.012C650.672 206.511 651.175 206.168 651.743 206.11L653.033 205.977L652.134 205.037C651.739 204.615 651.577 204.054 651.678 203.486L651.948 202.193L650.774 202.757C650.268 203.012 649.648 202.994 649.16 202.7L648.012 202.062L648.183 203.361C648.258 203.924 648.053 204.499 647.628 204.876L646.667 205.762L647.952 205.999C648.52 206.1 648.991 206.468 649.233 206.994L649.781 208.173Z" fill="#83ECF6"/>
<path d="M657.287 207.514C657.211 207.724 657.033 207.87 656.808 207.886L652.308 208.375L650.165 212.361C650.069 212.559 649.85 212.679 649.637 212.674C649.425 212.669 649.22 212.54 649.12 212.334L647.257 208.215L642.799 207.41C642.579 207.372 642.4 207.201 642.338 207.004C642.314 206.746 642.344 206.563 642.505 206.421L645.847 203.378L645.236 198.888C645.204 198.667 645.296 198.452 645.478 198.323C645.66 198.194 645.906 198.191 646.091 198.308L650.012 200.554L653.931 198.665C654.247 198.505 654.431 198.464 654.64 198.61C654.825 198.727 654.966 198.959 654.905 199.236L653.989 203.667L657.121 206.935C657.309 207.069 657.362 207.303 657.287 207.514ZM649.688 210.798L651.423 207.572C651.51 207.412 651.675 207.287 651.866 207.279L655.506 206.878L652.972 204.231C652.838 204.103 652.792 203.902 652.822 203.719L653.561 200.139L650.26 201.729C650.084 201.804 649.892 201.813 649.711 201.713L646.538 199.896L647.039 203.513C647.064 203.701 647.001 203.891 646.852 204.013L644.153 206.471L647.748 207.119C647.931 207.148 648.099 207.268 648.174 207.445L649.688 210.798Z" fill="#D7FCFF"/>
<path d="M612.687 1427.17C611.404 1427.82 609.828 1427.3 609.183 1426.01C607.013 1421.7 601.757 1419.96 597.444 1422.13L562.635 1439.64C558.322 1441.81 556.584 1447.06 558.753 1451.38C559.398 1452.66 558.876 1454.24 557.594 1454.88C556.312 1455.53 554.735 1455 554.09 1453.72C550.631 1446.84 553.424 1438.46 560.279 1435.01L575.363 1427.42L558.83 1394.55L549.784 1399.1C538.243 1404.9 524.145 1400.22 518.353 1388.7L482.765 1317.94C476.961 1306.4 481.643 1292.31 493.16 1286.51L515.193 1275.43C526.734 1269.63 540.831 1274.31 546.624 1285.83L574.004 1340.27C574.648 1341.55 574.127 1343.13 572.845 1343.77C571.562 1344.42 569.985 1343.89 569.341 1342.61L567.078 1338.11L549.452 1346.98C548.169 1347.62 546.592 1347.1 545.948 1345.82C545.303 1344.54 545.824 1342.96 547.106 1342.31L564.732 1333.45L560.03 1324.1L542.404 1332.96C541.122 1333.61 539.545 1333.09 538.9 1331.81C538.255 1330.52 538.777 1328.95 540.059 1328.3L557.685 1319.44L552.983 1310.09L535.357 1318.95C534.075 1319.6 532.498 1319.08 531.853 1317.79C531.208 1316.51 531.73 1314.93 533.012 1314.29L550.638 1305.43L545.936 1296.08L528.31 1304.94C527.028 1305.59 525.451 1305.06 524.806 1303.78C524.161 1302.5 524.683 1300.92 525.965 1300.28L543.591 1291.41L541.938 1288.13C538.361 1281.01 530.72 1277.26 523.241 1278.25L528.119 1287.95C528.764 1289.23 528.242 1290.81 526.96 1291.45C525.677 1292.1 524.101 1291.58 523.456 1290.29L518.132 1279.71C517.922 1279.81 517.689 1279.93 517.479 1280.04L508.783 1284.41L514.106 1295C514.751 1296.28 514.23 1297.85 512.948 1298.5C511.665 1299.14 510.088 1298.62 509.444 1297.34L504.12 1286.76L495.47 1291.11C495.26 1291.21 495.027 1291.33 494.817 1291.43L500.141 1302.02C500.786 1303.3 500.264 1304.88 498.982 1305.52C497.7 1306.17 496.123 1305.65 495.478 1304.36L490.6 1294.67C485.349 1300.08 483.805 1308.45 487.381 1315.56L489.035 1318.85L506.66 1309.99C507.943 1309.34 509.52 1309.86 510.164 1311.15C510.809 1312.43 510.288 1314 509.006 1314.65L491.38 1323.51L496.082 1332.86L513.708 1324C514.99 1323.35 516.567 1323.88 517.212 1325.16C517.857 1326.44 517.335 1328.02 516.053 1328.66L498.427 1337.53L503.129 1346.88L520.755 1338.01C522.037 1337.37 523.614 1337.89 524.259 1339.17C524.904 1340.45 524.382 1342.03 523.1 1342.67L505.474 1351.54L510.176 1360.89L527.802 1352.02C529.084 1351.38 530.661 1351.9 531.306 1353.18C531.951 1354.46 531.429 1356.04 530.147 1356.69L512.521 1365.55L522.992 1386.37C527.507 1395.35 538.474 1398.97 547.45 1394.46L569.483 1383.38C577.876 1379.16 581.704 1369.05 578.205 1360.35C577.677 1359.01 578.362 1357.47 579.656 1356.97C580.997 1356.44 582.516 1357.08 583.044 1358.42C587.529 1369.6 582.599 1382.62 571.828 1388.04L563.505 1392.23L580.038 1425.1L595.122 1417.52C602 1414.06 610.387 1416.85 613.834 1423.7C614.491 1424.95 613.969 1426.53 612.687 1427.17Z" fill="white"/>
<path d="M555.935 1378.86C550.549 1381.57 543.938 1379.4 541.218 1373.99C538.509 1368.61 540.676 1361.99 546.085 1359.27C550.725 1356.94 556.283 1358.23 559.455 1362.1C563.128 1360.4 572.476 1355.17 577.105 1343.29C580.562 1334.43 577.438 1326.24 575.515 1322.48C575.107 1322.71 574.676 1322.96 574.256 1323.17C572.974 1323.81 571.397 1323.29 570.752 1322.01L552.296 1285.31C551.651 1284.03 552.173 1282.45 553.455 1281.81C553.735 1281.67 554.038 1281.51 554.329 1281.4C546.527 1268.61 527.433 1253.76 497.94 1268.6C468.423 1283.44 468.994 1307.63 474.605 1321.52C475.059 1321.26 475.491 1321.02 475.957 1320.78C477.239 1320.14 478.816 1320.66 479.461 1321.94L497.917 1358.64C498.562 1359.92 498.041 1361.5 496.758 1362.14C485.357 1367.88 471.411 1363.27 465.677 1351.86C461.011 1342.59 463.191 1331.64 470.318 1324.79C461.378 1304.98 465.694 1279 495.583 1263.97C525.403 1248.97 548.796 1260.87 559.391 1279.79C569.318 1277.86 579.729 1282.64 584.489 1292.11C589.18 1301.44 586.941 1312.49 579.71 1319.32C582.042 1323.55 586.384 1333.75 581.918 1345.2C576.639 1358.75 566.312 1364.7 561.672 1366.8C562.722 1371.56 560.458 1376.58 555.935 1378.86ZM548.43 1363.94C545.609 1365.36 544.462 1368.82 545.881 1371.65C547.3 1374.47 550.769 1375.61 553.59 1374.2C556.434 1372.76 557.558 1369.31 556.139 1366.49C554.721 1363.67 551.252 1362.52 548.43 1363.94ZM558.225 1285.48L574.161 1317.17C581.338 1312.16 583.942 1302.46 579.896 1294.42C576.062 1286.8 567.475 1283.08 559.532 1285.06C559.135 1285.32 558.657 1285.47 558.225 1285.48ZM475.109 1327.52C468.69 1332.71 466.518 1341.86 470.375 1349.53C474.421 1357.57 483.755 1361.26 492.058 1358.49L476.111 1326.78C475.831 1326.98 475.528 1327.19 475.261 1327.41C475.214 1327.44 475.144 1327.47 475.109 1327.52Z" fill="#5BD9E4"/>
<path d="M594.091 887.348C593.278 885.423 594.211 883.125 596.136 882.311C623.429 870.78 636.274 839.143 624.742 811.85C623.929 809.925 624.862 807.626 626.787 806.813C628.761 806.02 631.01 806.933 631.823 808.858C645.01 840.07 630.34 876.206 599.108 889.441C597.203 890.206 594.953 889.293 594.091 887.348ZM504.413 850.94C491.226 819.727 505.896 783.592 537.128 770.356C539.102 769.563 541.351 770.476 542.165 772.401C542.958 774.375 542.045 776.624 540.12 777.437C512.826 788.969 499.982 820.605 511.514 847.899C512.327 849.824 511.394 852.122 509.469 852.935C507.475 853.778 505.226 852.865 504.413 850.94ZM586.074 868.373C585.261 866.448 586.194 864.15 588.119 863.336C604.963 856.22 612.884 836.71 605.767 819.866C604.974 817.892 605.887 815.643 607.812 814.83C609.786 814.036 612.035 814.949 612.849 816.874C621.62 837.637 611.853 861.695 591.091 870.466C589.186 871.231 586.937 870.318 586.074 868.373ZM523.339 842.903C514.567 822.141 524.314 798.132 545.096 789.311C547.07 788.518 549.319 789.431 550.133 791.356C550.975 793.35 550.062 795.599 548.088 796.392C531.244 803.509 523.323 823.019 530.44 839.862C531.302 841.807 530.369 844.105 528.395 844.899C526.499 845.781 524.201 844.848 523.339 842.903ZM578.31 849.899C577.448 847.954 578.381 845.656 580.355 844.863C587.023 842.045 590.16 834.319 587.343 827.651C586.48 825.706 587.413 823.408 589.387 822.614C591.312 821.801 593.61 822.734 594.424 824.659C598.897 835.246 593.914 847.52 583.327 851.993C581.402 852.806 579.152 851.893 578.31 849.899ZM541.832 835.09C537.359 824.502 542.342 812.229 552.929 807.756C554.903 806.962 557.153 807.876 557.966 809.801C558.779 811.726 557.846 814.024 555.921 814.837C549.252 817.655 546.116 825.38 548.933 832.049C549.776 834.043 548.814 836.272 546.889 837.086C544.875 837.977 542.626 837.064 541.832 835.09ZM564.986 839.648C559.754 837.524 557.227 831.543 559.351 826.311C561.475 821.079 567.456 818.552 572.688 820.676C577.92 822.8 580.447 828.781 578.323 834.013C576.248 839.265 570.218 841.772 564.986 839.648ZM569.81 827.766C568.489 827.23 567.026 827.889 566.51 829.16C565.974 830.481 566.633 831.944 567.904 832.46C569.224 832.996 570.737 832.357 571.253 831.086C571.769 829.815 571.13 828.302 569.81 827.766Z" fill="#9A4AFF"/>
</svg>
