<svg width="925" height="813" viewBox="0 0 925 813" fill="none" xmlns="http://www.w3.org/2000/svg">
<path d="M328.186 55.7322C366.248 38.5578 411.221 55.527 428.406 93.6169C429.068 95.201 428.417 96.9738 426.88 97.6821C425.344 98.3903 423.523 97.6929 422.815 96.1567C407.029 61.177 365.716 45.5647 330.736 61.3504C329.2 62.0587 327.379 61.3613 326.671 59.8251C325.93 58.1119 326.751 56.3726 328.186 55.7322ZM335.059 70.9494C364.745 57.5659 399.777 70.8149 413.188 100.49C413.823 102.084 413.199 103.847 411.663 104.555C410.127 105.264 408.306 104.566 407.598 103.03C395.603 76.4271 364.212 64.5728 337.609 76.5677C336.073 77.2759 334.252 76.5786 333.544 75.0424C332.804 73.3292 333.635 71.6177 335.059 70.9494ZM341.815 85.9263C363.253 76.2557 388.541 85.8081 398.212 107.246C398.884 108.858 398.222 110.603 396.686 111.311C395.15 112.019 393.329 111.322 392.621 109.786C384.339 91.4303 362.682 83.2448 344.327 91.5267C342.781 92.2071 340.97 91.5376 340.262 90.0014C339.549 88.2782 340.38 86.5667 341.815 85.9263Z" fill="#17FFE3"/>
<path d="M87.3501 696.147C86.4622 694.798 86.8486 692.921 88.197 692.033C107.315 679.444 112.635 653.606 100.046 634.488C99.1576 633.14 99.544 631.263 100.892 630.375C102.281 629.495 104.118 629.874 105.006 631.222C119.403 653.085 113.326 682.596 91.4551 697.034C90.1149 697.882 88.2779 697.503 87.3501 696.147ZM14.1107 681.067C-0.286454 659.204 5.78992 629.692 27.6613 615.255C29.0496 614.375 30.8866 614.754 31.7745 616.102C32.6542 617.49 32.276 619.327 30.9276 620.215C11.8094 632.805 6.48947 658.642 19.0791 677.761C19.967 679.109 19.5805 680.986 18.2321 681.874C16.8356 682.793 14.9986 682.415 14.1107 681.067ZM78.5976 682.855C77.7097 681.507 78.0961 679.63 79.4445 678.742C91.2429 670.973 94.5237 655.039 86.7543 643.241C85.8746 641.852 86.2528 640.015 87.6012 639.127C88.9895 638.248 90.8265 638.626 91.7144 639.974C101.291 654.518 97.2459 674.165 82.7026 683.742C81.3625 684.59 79.5255 684.212 78.5976 682.855ZM27.362 672.306C17.785 657.763 21.8223 638.155 36.3738 628.538C37.7621 627.658 39.5991 628.037 40.487 629.385C41.4066 630.782 41.0284 632.619 39.6401 633.498C27.8417 641.268 24.561 657.201 32.3304 669C33.2582 670.356 32.8718 672.233 31.4835 673.113C30.1668 674.049 28.2899 673.663 27.362 672.306ZM70.1071 669.91C69.1792 668.553 69.5657 666.676 70.954 665.796C75.6252 662.72 76.9243 656.411 73.8483 651.739C72.9204 650.383 73.3069 648.506 74.6952 647.626C76.0436 646.738 77.9205 647.125 78.8084 648.473C83.692 655.889 81.6282 665.913 74.2121 670.796C72.8637 671.684 71.0267 671.306 70.1071 669.91ZM40.3161 663.776C35.4325 656.36 37.4964 646.336 44.9125 641.452C46.3008 640.573 48.1378 640.951 49.0257 642.299C49.9136 643.648 49.5272 645.525 48.1788 646.413C43.5076 649.489 42.2085 655.798 45.2845 660.469C46.2042 661.866 45.786 663.695 44.4376 664.583C43.0328 665.542 41.1958 665.164 40.3161 663.776ZM58.5462 663.991C54.2732 663.111 51.5143 658.921 52.3941 654.648C53.2739 650.376 57.4635 647.617 61.7365 648.496C66.0094 649.376 68.7684 653.566 67.8886 657.839C67.0487 662.12 62.8191 664.871 58.5462 663.991ZM60.5442 654.287C59.466 654.065 58.4465 654.771 58.2327 655.809C58.0107 656.887 58.7166 657.907 59.7549 658.121C60.8331 658.343 61.8925 657.645 62.1063 656.607C62.3201 655.568 61.6224 654.509 60.5442 654.287Z" fill="#17FFE3"/>
<path d="M652.433 649.529C651.119 649.938 649.71 649.197 649.301 647.884C647.927 643.465 643.23 640.996 638.811 642.37L603.148 653.461C598.729 654.835 596.26 659.532 597.634 663.951C598.043 665.265 597.302 666.674 595.989 667.083C594.675 667.491 593.266 666.751 592.857 665.437C590.666 658.391 594.623 650.899 601.646 648.715L617.101 643.909L606.626 610.228L597.358 613.111C585.534 616.788 572.938 610.147 569.269 598.347L546.723 525.851C543.046 514.027 549.686 501.431 561.486 497.761L584.059 490.742C595.883 487.064 608.479 493.705 612.149 505.505L629.494 561.28C629.903 562.594 629.162 564.003 627.849 564.412C626.535 564.82 625.126 564.08 624.717 562.766L623.283 558.156L605.225 563.772C603.911 564.18 602.502 563.44 602.094 562.126C601.685 560.812 602.426 559.403 603.739 558.994L621.798 553.378L618.819 543.8L600.761 549.416C599.447 549.824 598.038 549.084 597.629 547.77C597.22 546.456 597.961 545.047 599.275 544.638L617.333 539.022L614.354 529.444L596.296 535.06C594.982 535.468 593.573 534.728 593.164 533.414C592.756 532.1 593.497 530.691 594.81 530.282L612.869 524.666L609.89 515.088L591.831 520.704C590.518 521.112 589.109 520.372 588.7 519.058C588.291 517.744 589.032 516.335 590.346 515.926L608.404 510.311L607.357 506.943C605.091 499.657 598.454 494.91 591.227 494.669L594.317 504.606C594.726 505.919 593.985 507.328 592.672 507.737C591.358 508.146 589.949 507.405 589.54 506.091L586.168 495.247C585.953 495.314 585.714 495.388 585.499 495.455L576.589 498.225L579.961 509.07C580.37 510.384 579.629 511.793 578.316 512.202C577.002 512.61 575.593 511.87 575.184 510.556L571.812 499.711L562.95 502.467C562.735 502.534 562.496 502.608 562.281 502.675L565.653 513.52C566.062 514.833 565.321 516.243 564.008 516.651C562.694 517.06 561.285 516.319 560.876 515.005L557.786 505.069C551.97 509.366 549.196 517.04 551.462 524.325L552.509 527.693L570.568 522.077C571.881 521.669 573.291 522.409 573.699 523.723C574.108 525.037 573.367 526.446 572.053 526.855L553.995 532.471L556.974 542.049L575.032 536.433C576.346 536.025 577.755 536.765 578.164 538.079C578.572 539.393 577.832 540.802 576.518 541.211L558.459 546.826L561.438 556.405L579.497 550.789C580.81 550.381 582.22 551.121 582.628 552.435C583.037 553.749 582.296 555.158 580.982 555.566L562.924 561.182L565.903 570.761L583.961 565.145C585.275 564.736 586.684 565.477 587.093 566.791C587.501 568.105 586.761 569.514 585.447 569.922L567.388 575.538L574.022 596.869C576.882 606.066 586.684 611.217 595.88 608.357L618.453 601.337C627.052 598.663 632.258 589.709 630.315 580.935C630.026 579.584 630.916 578.233 632.219 577.959C633.57 577.67 634.906 578.512 635.195 579.862C637.68 591.14 630.974 602.683 619.939 606.114L611.411 608.766L621.885 642.447L637.34 637.641C644.387 635.449 651.878 639.407 654.062 646.429C654.487 647.712 653.747 649.121 652.433 649.529Z" fill="white"/>
<path d="M606.351 594.936C600.833 596.652 594.922 593.565 593.199 588.024C591.483 582.506 594.569 576.595 600.111 574.871C604.865 573.393 609.917 575.489 612.31 579.644C616.049 578.612 625.709 575.136 631.951 564.629C636.612 556.787 634.943 548.557 633.716 544.694C633.293 544.852 632.847 545.017 632.417 545.151C631.103 545.559 629.694 544.819 629.285 543.505L617.593 505.907C617.184 504.593 617.925 503.184 619.239 502.776C619.525 502.687 619.836 502.59 620.13 502.525C614.758 489.211 599.033 472.174 568.817 481.571C538.576 490.975 535.318 513.942 538.445 527.954C538.915 527.782 539.361 527.617 539.839 527.468C541.153 527.059 542.562 527.8 542.97 529.114L554.663 566.711C555.071 568.025 554.331 569.434 553.017 569.843C541.336 573.476 528.873 566.925 525.24 555.245C522.284 545.738 526.063 535.734 533.878 530.37C528.533 510.236 536.692 486.348 567.315 476.825C597.866 467.324 618.119 482.245 625.169 501.796C634.858 501.533 643.951 507.691 646.967 517.389C649.939 526.944 646.087 537.049 638.178 542.364C639.719 546.731 642.224 557.059 636.204 567.184C629.085 579.169 618.386 583.177 613.669 584.435C613.914 589.1 610.985 593.495 606.351 594.936ZM601.597 579.649C598.706 580.547 597.077 583.648 597.976 586.538C598.875 589.428 601.975 591.058 604.865 590.159C607.779 589.252 609.385 586.16 608.486 583.269C607.587 580.379 604.487 578.75 601.597 579.649ZM623.172 507.001L633.268 539.463C640.841 535.851 644.824 527.093 642.262 518.852C639.833 511.041 632.296 506.181 624.474 506.806C624.059 506.988 623.583 507.057 623.172 507.001ZM537.98 533.705C531.097 537.6 527.605 545.917 530.049 553.775C532.612 562.016 540.859 566.97 549.146 565.65L539.043 533.164C538.748 533.309 538.428 533.46 538.14 533.629C538.092 533.644 538.02 533.666 537.98 533.705Z" fill="#5BD9E4"/>
<path d="M801.217 701.025C842.975 692.539 883.892 719.592 892.381 761.38C892.682 763.106 891.633 764.723 889.944 765.081C888.255 765.438 886.601 764.333 886.243 762.644C878.443 724.267 840.861 699.391 802.485 707.192C800.796 707.549 799.142 706.444 798.784 704.755C798.435 702.883 799.645 701.338 801.217 701.025ZM804.617 717.721C837.182 711.114 869.047 732.218 875.684 764.78C875.955 766.509 874.936 768.123 873.247 768.48C871.558 768.837 869.904 767.732 869.547 766.043C863.625 736.859 835.068 717.966 805.884 723.888C804.195 724.246 802.541 723.14 802.184 721.451C801.834 719.579 803.048 718.064 804.617 717.721ZM807.953 734.152C831.472 729.375 854.477 744.597 859.253 768.116C859.558 769.872 858.505 771.459 856.817 771.817C855.128 772.174 853.474 771.069 853.116 769.38C849.025 749.242 829.325 736.201 809.187 740.293C807.495 740.62 805.844 739.544 805.487 737.856C805.167 735.98 806.381 734.465 807.953 734.152Z" fill="#9F51ED"/>
<path d="M639.443 210.813C633.503 207.786 631.038 201.167 633.622 196.092C634.933 193.535 637.305 191.727 640.281 191.015C643.12 190.35 646.174 190.877 648.952 192.163C650.218 192.803 650.703 194.336 650.063 195.603C649.423 196.87 648.021 197.516 646.623 196.716C644.92 195.88 643.114 195.604 641.457 195.992C639.954 196.34 638.783 197.214 638.173 198.419C636.726 201.252 638.748 204.739 641.749 206.268C645.049 207.962 648.866 207.206 650.199 204.565C650.199 204.565 650.207 204.549 650.214 204.534L670.676 165.294C671.249 164.204 672.522 163.666 673.694 164.032L706.339 174.137C707.067 174.36 707.644 174.891 707.932 175.585C708.22 176.278 708.196 177.066 707.849 177.734L687.771 217.162C686.46 219.719 684.088 221.527 681.112 222.239C678.265 222.919 675.265 222.514 672.441 221.091C666.485 218.056 664.035 211.445 666.619 206.37C667.93 203.813 670.302 202.005 673.279 201.293C676.118 200.628 679.233 201.108 681.949 202.441C683.215 203.081 683.701 204.614 683.061 205.881C682.42 207.148 680.827 207.757 679.621 206.994C677.933 206.128 676.111 205.882 674.455 206.27C672.952 206.618 671.781 207.492 671.171 208.697C669.716 211.546 671.761 215.024 674.754 216.53C676.411 217.343 678.264 217.642 679.92 217.254C681.423 216.906 682.587 216.048 683.197 214.843L701.958 178.14L674.24 169.556L654.766 206.899C652.332 211.667 645.828 213.944 639.443 210.813ZM675.952 180.662C674.847 180.12 674.257 178.84 674.645 177.621C675.055 176.28 676.495 175.519 677.836 175.929L692.748 180.499C694.065 180.879 694.856 182.333 694.438 183.69C694.02 185.047 692.589 185.793 691.248 185.383L676.336 180.812C676.198 180.783 676.075 180.723 675.952 180.662Z" fill="#04B05D"/>
<path d="M679.828 314.882C679.484 313.913 678.871 312.756 678.15 311.431C675.778 307.029 672.173 300.404 672.186 287.916C672.189 277.042 670.368 264.682 668.91 254.768C668.297 250.582 667.765 246.93 667.485 244.202C666.948 238.93 669.889 234.525 674.645 233.486C679.072 232.533 684.639 234.806 687.141 242.128L688.024 244.714C691.511 255.071 693.578 260.446 699.284 259.874C706.412 259.16 710.886 254.268 712.903 244.953C714.825 236.105 714.891 227.586 714.89 227.509C714.895 226.102 716.048 224.954 717.455 224.958C718.862 224.962 720.009 226.115 720.005 227.523C720 227.882 719.936 236.669 717.911 246.038C714.778 260.501 706.344 264.307 699.812 264.97C689.781 265.975 686.575 256.441 683.204 246.35L682.329 243.787C680.75 239.165 677.813 238.049 675.768 238.493C674.104 238.858 672.281 240.44 672.604 243.703C672.868 246.385 673.407 249.945 674.011 254.031C675.421 263.58 677.354 276.68 677.355 287.937C677.347 299.132 680.448 304.843 682.704 309.016C683.534 310.547 684.255 311.872 684.731 313.268C685.185 314.595 684.469 316.053 683.135 316.523C681.739 316.924 680.281 316.209 679.828 314.882ZM566.72 259.412C566.267 258.085 566.982 256.626 568.309 256.172C569.689 255.687 571.178 255.446 572.912 255.172C577.592 254.401 584.007 253.357 592.854 246.496C601.763 239.589 613.296 233.113 621.716 228.366C625.317 226.342 628.446 224.581 630.722 223.164C633.499 221.421 633.634 219.011 632.904 217.472C632.003 215.583 629.322 213.944 624.701 215.526L622.131 216.418C612.081 219.908 602.58 223.21 597.241 214.687C593.766 209.116 591.611 200.117 601.129 188.785C607.297 181.448 614.183 176.026 614.487 175.794C615.596 174.928 617.196 175.122 618.076 176.24C618.94 177.349 618.746 178.949 617.629 179.83C617.568 179.876 610.864 185.16 605.053 192.081C598.922 199.379 597.779 205.903 601.593 211.983C604.635 216.846 610.165 215.197 620.474 211.605L623.067 210.705C630.365 208.208 635.594 211.211 637.543 215.31C639.633 219.706 637.958 224.713 633.453 227.532C631.125 228.98 627.919 230.78 624.235 232.858C615.487 237.768 604.601 243.895 595.996 250.57C586.13 258.227 578.678 259.448 573.753 260.251C572.264 260.493 570.958 260.709 569.997 261.038C568.609 261.462 567.174 260.739 566.72 259.412ZM567.756 201.865C567.572 201.775 567.395 201.669 567.241 201.517C566.164 200.608 566.014 199.011 566.931 197.918C567.879 196.801 589.99 170.465 597.738 164.875C605.639 159.169 624.863 154.674 625.68 154.484C627.054 154.167 628.421 155.028 628.737 156.402C629.053 157.776 628.192 159.144 626.818 159.461C626.627 159.501 607.792 163.901 600.72 169.004C593.496 174.223 571.059 200.914 570.832 201.183C570.067 202.122 568.784 202.369 567.756 201.865ZM727.933 280.418C726.904 279.914 726.314 278.749 726.558 277.592C726.632 277.247 733.998 243.166 733.71 234.244C733.415 225.528 725.362 207.941 725.277 207.766C724.686 206.486 725.241 204.967 726.52 204.376C727.8 203.785 729.318 204.339 729.909 205.619C730.259 206.381 738.475 224.333 738.8 234.073C739.109 243.615 731.831 277.244 731.536 278.661C731.24 280.04 729.878 280.915 728.5 280.62C728.316 280.568 728.117 280.509 727.933 280.418Z" fill="#9A4AFF"/>
<path d="M663.825 296.463L593.49 261.969C592.216 261.345 591.707 259.819 592.332 258.545C592.957 257.27 594.483 256.761 595.741 257.378L666.092 291.879C667.365 292.504 667.874 294.03 667.256 295.289C666.631 296.563 665.099 297.088 663.825 296.463ZM631.722 272.986C628.116 271.217 626.63 266.832 628.392 263.239C630.162 259.631 634.531 258.136 638.138 259.904C641.744 261.673 643.23 266.059 641.468 269.651C639.698 273.26 635.329 274.755 631.722 272.986ZM635.894 264.48C634.819 263.953 633.515 264.399 632.988 265.474C632.461 266.549 632.899 267.868 633.974 268.395C635.048 268.922 636.352 268.476 636.886 267.386C637.414 266.311 636.968 265.007 635.894 264.48ZM663.223 269.312L615.325 245.822C614.052 245.197 613.543 243.672 614.168 242.397C614.786 241.138 616.318 240.614 617.577 241.231L665.49 264.728C666.764 265.353 667.288 266.886 666.67 268.145C666.03 269.412 664.497 269.936 663.223 269.312ZM610.084 209.576C608.81 208.952 608.302 207.426 608.919 206.167L652.495 117.313C655.1 112 661.551 109.793 666.862 112.397L737.212 146.898C742.522 149.502 744.727 155.954 742.121 161.267L698.621 249.968C698.003 251.227 696.463 251.767 695.205 251.149C693.931 250.525 693.407 248.992 694.032 247.717L737.532 159.017C738.895 156.237 737.754 152.859 734.961 151.489L664.595 116.98C661.817 115.618 658.439 116.761 657.068 119.556L613.5 208.395C612.875 209.669 611.342 210.193 610.084 209.576ZM724.489 168.067L657.868 135.395C656.594 134.77 656.07 133.237 656.688 131.978C657.313 130.704 658.838 130.194 660.112 130.819L726.733 163.491C728.007 164.116 728.53 165.649 727.913 166.908C727.295 168.167 725.763 168.692 724.489 168.067ZM701.633 146.154L689.187 140.05C687.913 139.425 687.405 137.9 688.022 136.641C688.647 135.366 690.18 134.842 691.438 135.459L703.885 141.563C705.158 142.187 705.682 143.72 705.057 144.995C704.44 146.254 702.907 146.778 701.633 146.154Z" fill="white"/>
</svg>
