<svg width="1038" height="1403" viewBox="0 0 1038 1403" fill="none" xmlns="http://www.w3.org/2000/svg">
<path d="M359.377 460.069C407.774 450.235 455.195 481.589 465.034 530.021C465.383 532.021 464.167 533.895 462.21 534.309C460.252 534.724 458.335 533.442 457.921 531.485C448.88 487.007 405.324 458.176 360.846 467.217C358.888 467.631 356.971 466.35 356.557 464.393C356.152 462.223 357.554 460.432 359.377 460.069ZM363.317 479.42C401.06 471.763 437.991 496.222 445.683 533.96C445.997 535.965 444.816 537.835 442.859 538.249C440.901 538.663 438.984 537.382 438.57 535.425C431.707 501.601 398.61 479.704 364.786 486.568C362.828 486.982 360.911 485.701 360.497 483.744C360.092 481.574 361.499 479.818 363.317 479.42ZM367.184 498.463C394.442 492.927 421.104 510.57 426.64 537.828C426.993 539.863 425.773 541.702 423.816 542.116C421.859 542.53 419.941 541.249 419.527 539.292C414.785 515.953 391.953 500.838 368.614 505.58C366.652 505.96 364.739 504.713 364.325 502.756C363.955 500.582 365.361 498.826 367.184 498.463Z" fill="#9F51ED"/>
<path d="M489.372 117.152C488.495 115.339 489.281 113.081 491.094 112.204C516.808 99.7686 527.628 68.6826 515.193 42.9689C514.316 41.1554 515.102 38.8972 516.915 38.0202C518.777 37.1598 520.987 37.9291 521.864 39.7427C536.085 69.1482 523.726 104.654 494.304 118.923C492.507 119.752 490.297 118.983 489.372 117.152ZM401.255 86.4814C387.034 57.0758 399.393 21.5696 428.815 7.30104C430.677 6.44073 432.887 7.21001 433.764 9.02357C434.624 10.8852 433.855 13.0953 432.041 13.9723C406.328 26.4074 395.508 57.4934 407.943 83.2071C408.82 85.0206 408.034 87.2788 406.22 88.1558C404.342 89.0642 402.132 88.2949 401.255 86.4814ZM480.727 99.2759C479.85 97.4624 480.636 95.2042 482.449 94.3272C498.318 86.6531 504.99 67.4826 497.316 51.614C496.456 49.7524 497.225 47.5423 499.039 46.6652C500.901 45.8049 503.111 46.5742 503.988 48.3878C513.447 67.9483 505.219 91.5871 485.659 101.047C483.862 101.876 481.652 101.106 480.727 99.2759ZM419.083 77.8196C409.624 58.259 417.835 34.6683 437.412 25.1608C439.274 24.3005 441.484 25.0698 442.361 26.8833C443.269 28.7616 442.5 30.9718 440.638 31.8321C424.77 39.5062 418.097 58.6766 425.771 74.5453C426.696 76.3755 425.91 78.6337 424.049 79.494C422.266 80.4358 420.008 79.6498 419.083 77.8196ZM472.349 81.8696C471.424 80.0393 472.21 77.7811 474.071 76.9208C480.354 73.8825 482.996 66.2912 479.958 60.0085C479.033 58.1782 479.819 55.92 481.681 55.0597C483.494 54.1827 485.752 54.9687 486.629 56.7822C491.453 66.7568 487.255 78.8164 477.281 83.6401C475.467 84.5172 473.257 83.7479 472.349 81.8696ZM436.506 69.3937C431.683 59.4192 435.88 47.3596 445.855 42.5359C447.716 41.6755 449.927 42.4448 450.804 44.2584C451.681 46.0719 450.895 48.3301 449.081 49.2072C442.798 52.2455 440.156 59.8368 443.194 66.1195C444.103 67.9978 443.285 70.1912 441.472 71.0682C439.577 72.0246 437.367 71.2554 436.506 69.3937ZM459.02 72.6515C453.879 70.862 451.154 65.2271 452.943 60.0861C454.733 54.9451 460.368 52.2201 465.509 54.0095C470.65 55.7989 473.375 61.4339 471.585 66.5749C469.844 71.7325 464.161 74.4409 459.02 72.6515ZM463.084 60.9762C461.787 60.5247 460.41 61.2305 459.975 62.4797C459.523 63.777 460.229 65.1539 461.478 65.5887C462.776 66.0402 464.201 65.3511 464.635 64.1019C465.07 62.8527 464.381 61.4278 463.084 60.9762Z" fill="#08C855"/>
</svg>
