<svg width="199" height="613" viewBox="0 0 199 613" fill="none" xmlns="http://www.w3.org/2000/svg">
<path d="M133.123 464.472C134.719 466.043 136.751 467.106 139.388 467.991C136.751 468.876 134.718 469.939 133.122 471.509C131.506 473.099 130.418 475.129 129.511 477.768C128.604 475.13 127.516 473.1 125.9 471.51C124.303 469.939 122.271 468.877 119.633 467.991C122.271 467.106 124.303 466.043 125.9 464.472C127.516 462.882 128.604 460.852 129.511 458.213C130.418 460.852 131.507 462.882 133.123 464.472Z" stroke="#511682" stroke-width="3"/>
<path d="M174.482 19.7794C176.079 21.3501 178.111 22.4128 180.748 23.2979C178.111 24.1831 176.078 25.2458 174.482 26.8165C172.866 28.4064 171.778 30.4365 170.871 33.0753C169.964 30.4367 168.876 28.4069 167.26 26.8171C165.663 25.2464 163.63 24.1837 160.993 23.2983C163.631 22.4131 165.663 21.3503 167.26 19.7794C168.876 18.1893 169.964 16.159 170.871 13.5198C171.778 16.159 172.866 18.1893 174.482 19.7794Z" stroke="#511682" stroke-width="3"/>
<path d="M205.195 597.044C204.256 596.494 203.929 595.244 204.48 594.306C212.279 580.993 207.786 563.789 194.473 555.989C193.534 555.439 193.208 554.189 193.758 553.25C194.335 552.305 195.558 551.985 196.497 552.535C211.721 561.455 216.853 581.105 207.94 596.356C207.383 597.268 206.16 597.587 205.195 597.044ZM156.428 609.779C141.204 600.86 136.072 581.21 144.985 565.959C145.562 565.013 146.785 564.694 147.724 565.244C148.67 565.82 148.989 567.044 148.439 567.983C140.639 581.296 145.132 598.499 158.445 606.299C159.384 606.849 159.71 608.099 159.16 609.038C158.591 610.01 157.367 610.33 156.428 609.779ZM195.939 591.622C195 591.072 194.674 589.822 195.224 588.883C200.037 580.667 197.267 570.058 189.051 565.245C188.105 564.668 187.786 563.445 188.336 562.506C188.912 561.56 190.136 561.24 191.075 561.791C201.202 567.724 204.618 580.806 198.685 590.933C198.128 591.846 196.905 592.165 195.939 591.622ZM161.824 600.531C151.697 594.598 148.288 581.542 154.214 571.388C154.79 570.442 156.014 570.123 156.952 570.673C157.925 571.243 158.244 572.466 157.668 573.412C152.854 581.628 155.625 592.237 163.841 597.05C164.806 597.594 165.133 598.843 164.556 599.789C164.04 600.748 162.79 601.074 161.824 600.531ZM186.945 586.33C185.98 585.787 185.653 584.537 186.23 583.591C188.136 580.339 187.039 576.137 183.786 574.232C182.82 573.689 182.494 572.439 183.071 571.493C183.621 570.554 184.87 570.228 185.809 570.778C190.974 573.803 192.717 580.477 189.691 585.642C189.141 586.581 187.918 586.9 186.945 586.33ZM167.109 591.51C161.945 588.485 160.202 581.811 163.227 576.647C163.804 575.701 165.027 575.381 165.966 575.931C166.905 576.481 167.232 577.731 166.681 578.67C164.776 581.923 165.873 586.124 169.126 588.03C170.098 588.6 170.391 589.83 169.841 590.769C169.278 591.768 168.055 592.087 167.109 591.51ZM178.192 586.202C175.347 586.945 172.429 585.236 171.686 582.39C170.943 579.545 172.652 576.628 175.498 575.885C178.343 575.142 181.26 576.851 182.003 579.696C182.773 582.534 181.037 585.459 178.192 586.202ZM176.505 579.74C175.787 579.928 175.381 580.659 175.561 581.35C175.749 582.068 176.48 582.474 177.171 582.293C177.889 582.106 178.321 581.368 178.141 580.677C177.96 579.985 177.222 579.553 176.505 579.74Z" fill="#9A4AFF"/>
</svg>
