<svg width="321" height="621" viewBox="0 0 321 621" fill="none" xmlns="http://www.w3.org/2000/svg">
<path d="M304.515 533.472C300.811 534.297 297.33 532.287 296.624 529.124C296.273 527.527 296.658 525.874 297.706 524.482C298.71 523.162 300.241 522.285 301.926 521.843C302.713 521.665 303.482 522.161 303.661 522.949C303.839 523.737 303.458 524.529 302.555 524.685C301.505 524.936 300.612 525.469 300.026 526.239C299.493 526.937 299.295 527.745 299.465 528.495C299.857 530.262 302.008 531.059 303.879 530.642C305.941 530.19 307.341 528.474 306.969 526.832C306.969 526.832 306.967 526.822 306.964 526.813L301.718 502.18C301.574 501.494 301.938 500.796 302.585 500.532L320.57 493.132C320.971 492.966 321.416 492.99 321.794 493.19C322.172 493.39 322.447 493.744 322.537 494.163L328.02 518.74C328.371 520.337 327.986 521.99 326.938 523.381C325.936 524.711 324.473 525.621 322.718 526.021C319.005 526.848 315.533 524.835 314.828 521.672C314.476 520.075 314.861 518.422 315.909 517.031C316.914 515.71 318.454 514.791 320.129 514.391C320.917 514.213 321.686 514.71 321.864 515.498C322.042 516.286 321.564 517.13 320.758 517.233C319.703 517.465 318.815 518.017 318.229 518.788C317.696 519.486 317.499 520.293 317.668 521.043C318.062 522.82 320.22 523.605 322.079 523.181C323.101 522.937 324.022 522.397 324.608 521.626C325.142 520.928 325.341 520.13 325.172 519.38L320.099 496.477L304.827 502.758L309.819 526.201C310.479 529.175 308.451 532.532 304.515 533.472ZM309.604 507.01C308.922 507.173 308.199 506.825 307.928 506.149C307.622 505.412 307.977 504.557 308.714 504.25L316.914 500.85C317.629 500.539 318.503 500.891 318.812 501.637C319.12 502.384 318.762 503.23 318.025 503.536L309.826 506.937C309.755 506.974 309.679 506.992 309.604 507.01Z" fill="#04B05D"/>
<path d="M359.957 564.493C359.455 564.193 358.766 563.907 357.97 563.587C355.333 562.516 351.35 560.916 346.829 555.432C342.889 550.66 337.61 545.898 333.376 542.076C331.59 540.461 330.033 539.052 328.921 537.957C326.775 535.838 326.468 532.84 328.178 530.66C329.775 528.637 333.042 527.616 336.793 529.922L338.118 530.736C343.402 534.016 346.258 535.626 348.554 533.306C351.422 530.409 351.612 526.641 349.121 521.823C346.756 517.245 343.697 513.483 343.669 513.449C343.161 512.83 343.251 511.908 343.869 511.4C344.488 510.892 345.41 510.982 345.918 511.601C346.046 511.761 349.203 515.639 351.711 520.484C355.579 527.965 353.258 532.692 350.633 535.351C346.596 539.427 341.733 536.407 336.596 533.201L335.283 532.394C332.915 530.939 331.222 531.513 330.486 532.45C329.888 533.213 329.662 534.568 330.986 535.883C332.074 536.963 333.601 538.33 335.347 539.904C339.427 543.582 345.024 548.629 349.104 553.568C353.159 558.483 356.59 559.864 359.093 560.877C360.011 561.248 360.808 561.568 361.523 562.008C362.203 562.426 362.418 563.325 362.003 564.015C361.536 564.697 360.637 564.911 359.957 564.493ZM290.224 581.156C289.544 580.738 289.329 579.839 289.747 579.159C290.177 578.446 290.743 577.8 291.404 577.052C293.178 575.017 295.614 572.233 297.009 566.016C298.413 559.756 301.126 552.734 303.1 547.599C303.946 545.406 304.681 543.499 305.165 542.053C305.752 540.281 304.938 539.175 304.059 538.764C302.979 538.262 301.209 538.515 299.755 540.884L298.951 542.207C295.806 547.381 292.835 552.274 287.403 550.47C283.859 549.285 279.651 546.118 279.719 537.696C279.766 532.241 280.822 527.366 280.871 527.154C281.044 526.372 281.816 525.878 282.607 526.049C283.389 526.222 283.884 526.995 283.713 527.786C283.703 527.828 282.677 532.576 282.636 537.72C282.591 543.144 284.455 546.421 288.332 547.706C291.429 548.737 293.258 546.009 296.479 540.696L297.291 539.361C299.587 535.62 302.97 535.042 305.311 536.134C307.821 537.305 308.901 540.109 307.947 542.979C307.45 544.458 306.696 546.41 305.833 548.657C303.775 553.982 301.219 560.617 299.864 566.665C298.311 573.6 295.483 576.837 293.614 578.975C293.048 579.621 292.554 580.189 292.251 580.682C291.796 581.371 290.904 581.574 290.224 581.156ZM269.819 555.532C269.705 555.559 269.589 555.577 269.467 555.566C268.665 555.558 268.02 554.911 268.026 554.099C268.037 553.266 268.192 533.696 269.565 528.435C270.963 523.067 277.768 514.126 278.058 513.747C278.546 513.11 279.458 512.992 280.094 513.481C280.731 513.969 280.849 514.881 280.361 515.518C280.292 515.605 273.623 524.363 272.37 529.165C271.092 534.074 270.923 553.917 270.921 554.118C270.926 554.807 270.453 555.38 269.819 555.532ZM368.57 531.935C367.936 532.087 367.255 531.789 366.943 531.193C366.85 531.015 357.728 513.392 354.367 509.582C351.078 505.865 341.17 501.068 341.069 501.022C340.346 500.674 340.039 499.807 340.386 499.084C340.734 498.36 341.6 498.053 342.324 498.401C342.753 498.608 352.865 503.507 356.539 507.662C360.133 511.737 369.13 529.13 369.514 529.858C369.884 530.571 369.604 531.448 368.892 531.818C368.793 531.862 368.684 531.908 368.57 531.935Z" fill="#9A4AFF"/>
<path d="M346.259 562.213L302.896 572.575C302.111 572.762 301.335 572.277 301.147 571.492C300.96 570.706 301.444 569.93 302.22 569.744L345.592 559.38C346.378 559.193 347.154 559.678 347.339 560.454C347.527 561.24 347.044 562.025 346.259 562.213ZM323.664 563.549C321.441 564.081 319.199 562.695 318.67 560.48C318.138 558.256 319.513 556.016 321.737 555.484C323.96 554.953 326.202 556.339 326.731 558.554C327.263 560.778 325.888 563.018 323.664 563.549ZM322.411 558.305C321.749 558.464 321.338 559.132 321.497 559.795C321.655 560.457 322.325 560.877 322.988 560.719C323.65 560.561 324.06 559.892 323.9 559.22C323.742 558.558 323.073 558.147 322.411 558.305ZM336.153 550.519L306.623 557.575C305.838 557.762 305.062 557.277 304.874 556.492C304.689 555.715 305.171 554.93 305.947 554.744L335.486 547.686C336.272 547.498 337.057 547.981 337.243 548.757C337.421 549.545 336.939 550.331 336.153 550.519ZM291.185 543.572C290.4 543.76 289.624 543.275 289.438 542.499L276.349 487.718C275.566 484.443 277.596 481.136 280.87 480.354L324.242 469.99C327.516 469.208 330.822 471.24 331.605 474.515L344.672 529.2C344.857 529.977 344.377 530.772 343.601 530.957C342.816 531.145 342.031 530.662 341.843 529.876L328.776 475.191C328.366 473.478 326.641 472.409 324.919 472.82L281.537 483.186C279.824 483.596 278.757 485.322 279.168 487.045L292.256 541.815C292.443 542.601 291.961 543.387 291.185 543.572ZM326.334 483.89L285.26 493.704C284.475 493.892 283.69 493.409 283.504 492.633C283.316 491.847 283.801 491.071 284.586 490.883L325.659 481.069C326.445 480.881 327.23 481.364 327.416 482.14C327.601 482.916 327.119 483.702 326.334 483.89ZM308.362 482.56L300.689 484.394C299.904 484.582 299.128 484.097 298.942 483.32C298.755 482.535 299.237 481.749 300.013 481.564L307.686 479.73C308.471 479.542 309.257 480.025 309.445 480.811C309.63 481.587 309.148 482.373 308.362 482.56Z" fill="white"/>
<path d="M295.224 92.5695C294.716 92.2225 294.58 91.5322 294.927 91.0234L305.078 76.1653C305.419 75.6666 306.119 75.5326 306.627 75.8796C307.145 76.2337 307.281 76.924 306.934 77.4328L296.776 92.3011C296.425 92.7927 295.732 92.9165 295.224 92.5695ZM280.547 81.542C280.039 81.1951 279.903 80.5047 280.25 79.9959L289.47 66.5015C289.81 66.0029 290.503 65.879 291.011 66.226C291.529 66.5801 291.666 67.2704 291.325 67.7691L282.106 81.2634C281.748 81.7652 281.055 81.889 280.547 81.542ZM273.819 75.1241C273.311 74.7771 273.164 74.0797 273.511 73.5709L281.034 62.5597C281.375 62.061 282.068 61.9372 282.586 62.2912C283.094 62.6382 283.23 63.3285 282.89 63.8272L275.36 74.8486C275.029 75.3544 274.337 75.4782 273.819 75.1241ZM293.673 86.7181C293.165 86.3712 293.028 85.6808 293.376 85.172L299.063 76.8474C299.404 76.3487 300.097 76.2249 300.605 76.5719C301.112 76.9189 301.259 77.6163 300.919 78.1149L295.231 86.4395C294.88 86.9311 294.181 87.0651 293.673 86.7181ZM301.489 91.521C300.981 91.1741 300.835 90.4767 301.175 89.978L306.369 82.376C306.71 81.8773 307.402 81.7535 307.921 82.1075C308.428 82.4545 308.565 83.1448 308.224 83.6435L303.037 91.2354C302.69 91.7442 301.997 91.868 301.489 91.521ZM286.576 80.8396C286.058 80.4855 285.921 79.7952 286.269 79.2864L291.004 72.356C291.344 71.8573 292.044 71.7233 292.562 72.0774C293.07 72.4244 293.207 73.1147 292.859 73.6235L288.124 80.5539C287.787 81.0698 287.094 81.1936 286.576 80.8396ZM279.754 74.5814C279.246 74.2344 279.109 73.5441 279.45 73.0454L282.697 68.2929C283.037 67.7942 283.73 67.6704 284.238 68.0174C284.746 68.3644 284.882 69.0547 284.542 69.5533L281.302 74.2957C280.954 74.8046 280.261 74.9284 279.754 74.5814ZM291.562 81.6636C291.054 81.3167 290.907 80.6193 291.255 80.1104L293.584 76.7012C293.925 76.2025 294.624 76.0685 295.142 76.4226C295.65 76.7696 295.787 77.4599 295.439 77.9687L293.11 81.378C292.773 81.8939 292.08 82.0177 291.562 81.6636Z" fill="#5BD9E4"/>
<path d="M301.731 105.076C299.554 103.588 298.981 100.644 300.434 98.5175L314.291 78.2352C315.751 76.0981 318.706 75.579 320.872 77.0589C323.048 78.546 323.628 81.4798 322.168 83.6169L308.311 103.899C306.858 106.026 303.907 106.563 301.731 105.076ZM319.627 78.8806C318.477 78.0946 316.918 78.3732 316.146 79.5028L302.29 99.7851C301.518 100.915 301.825 102.468 302.975 103.254C304.126 104.04 305.684 103.761 306.456 102.632L320.313 82.3494C321.085 81.2198 320.778 79.6666 319.627 78.8806ZM261.868 77.8413C259.702 76.3613 259.118 73.4102 260.571 71.2833L274.428 51.001C275.888 48.8639 278.832 48.3376 281.009 49.8247C283.186 51.3117 283.766 54.2456 282.305 56.3827L268.449 76.665C266.996 78.7919 264.045 79.3283 261.868 77.8413ZM279.764 51.6463C278.614 50.8603 277.055 51.1389 276.284 52.2685L262.427 72.5508C261.655 73.6804 261.962 75.2336 263.113 76.0196C264.263 76.8057 265.822 76.5271 266.593 75.3974L280.45 55.1151C281.222 53.9855 280.915 52.4323 279.764 51.6463ZM309.599 105.286C309.639 104.672 310.169 104.228 310.789 104.278C313.88 104.539 317.007 102.944 318.946 100.104L322.499 94.9039C324.439 92.0646 324.788 88.5715 323.422 85.7871C323.15 85.2282 323.37 84.5724 323.928 84.3119C324.486 84.0513 325.15 84.281 325.422 84.8399C327.146 88.3465 326.739 92.6808 324.355 96.1714L320.802 101.372C318.417 104.862 314.52 106.828 310.634 106.486C310.025 106.443 309.552 105.911 309.599 105.286ZM257.463 70.1594C255.738 66.6528 256.145 62.3186 258.53 58.8279L262.083 53.6276C264.468 50.137 268.365 48.1718 272.251 48.5134C272.871 48.5635 273.326 49.0985 273.286 49.7132C273.246 50.3278 272.715 50.7711 272.096 50.7211C269.005 50.4605 265.878 52.0558 263.938 54.8951L260.386 60.0955C258.446 62.9348 258.096 66.4279 259.463 69.2122C259.735 69.7711 259.515 70.4269 258.957 70.6875C258.409 70.9551 257.734 70.7183 257.463 70.1594ZM326.417 83.34L324.314 79.0076C324.145 78.6536 324.171 78.2381 324.393 77.9125C331.325 67.7662 329.568 50.6235 315.886 41.2763C302.205 31.9292 285.596 36.524 278.664 46.6702C278.449 46.9857 278.088 47.1574 277.718 47.1432L273.398 46.9683C273 46.9502 272.634 46.7297 272.437 46.3717C272.251 46.0208 272.256 45.5911 272.468 45.2584C272.816 44.7049 281.293 31.629 295.605 28.8384C303.675 27.2618 311.953 29.3199 320.204 34.9566C328.433 40.579 333.391 47.5636 334.929 55.7045C337.664 70.1711 328.716 83.0004 328.33 83.5429C328.098 83.8614 327.72 84.0362 327.325 83.9906C326.948 83.9418 326.596 83.7011 326.417 83.34ZM326.6 78.6437L327.536 80.5669C329.78 76.7263 334.752 66.6891 332.737 56.0427C331.311 48.5161 326.678 42.0364 318.966 36.768C311.244 31.4925 303.555 29.5526 296.087 31.0037C285.616 33.0451 278.275 41.2991 275.54 44.8344L277.149 44.904C284.883 34.2304 302.558 29.4985 317.12 39.4476C331.69 49.3865 333.721 67.5523 326.6 78.6437Z" fill="white"/>
</svg>
