<svg width="346" height="1278" viewBox="0 0 346 1278" fill="none" xmlns="http://www.w3.org/2000/svg">
<g opacity="0.4">
<g opacity="0.4">
<g filter="url(#filter0_d_6_231)">
<rect x="318.131" y="756.395" width="93.0035" height="93.0035" rx="46.5017" transform="rotate(-98.9977 318.131 756.395)" fill="#CB9FFF" fill-opacity="0.28" shape-rendering="crispEdges"/>
<rect x="320.21" y="753.535" width="88.0035" height="88.0035" rx="44.0017" transform="rotate(-98.9977 320.21 753.535)" stroke="#C173FF" stroke-width="5" shape-rendering="crispEdges"/>
</g>
<path d="M348.162 719.216L345.472 702.228L339.783 703.128L338.989 698.111C341.544 697.706 343.21 697.064 343.989 696.185C344.768 695.306 345.018 693.984 344.738 692.219L350.269 691.343L354.523 718.209L348.162 719.216ZM360.317 717.291L367.949 694.133L356.175 695.997L355.312 690.545L376.33 687.217L367.428 716.165L360.317 717.291Z" fill="#C47BFF"/>
</g>
<g opacity="0.4">
<g filter="url(#filter1_d_6_231)">
<rect x="282.73" y="415.402" width="93.0035" height="93.0035" rx="46.5017" transform="rotate(-98.9977 282.73 415.402)" fill="#CB9FFF" fill-opacity="0.28" shape-rendering="crispEdges"/>
<rect x="284.809" y="412.542" width="88.0035" height="88.0035" rx="44.0017" transform="rotate(-98.9977 284.809 412.542)" stroke="#C173FF" stroke-width="5" shape-rendering="crispEdges"/>
</g>
<path d="M323.931 376.454L321.241 359.466L315.552 360.367L314.757 355.349C317.312 354.945 318.979 354.303 319.758 353.423C320.536 352.544 320.786 351.222 320.507 349.458L326.038 348.582L330.292 375.447L323.931 376.454Z" fill="#C47BFF"/>
</g>
<g opacity="0.4">
<g filter="url(#filter2_d_6_231)">
<rect x="323.956" y="1227.76" width="93.0035" height="93.0035" rx="46.5017" transform="rotate(-98.9977 323.956 1227.76)" fill="#CB9FFF" fill-opacity="0.28" shape-rendering="crispEdges"/>
<rect x="326.035" y="1224.9" width="88.0035" height="88.0035" rx="44.0017" transform="rotate(-98.9977 326.035 1224.9)" stroke="#C173FF" stroke-width="5" shape-rendering="crispEdges"/>
</g>
</g>
<g opacity="0.4">
<g filter="url(#filter3_d_6_231)">
<rect x="319.809" y="1053.84" width="93.0035" height="93.0035" rx="46.5017" transform="rotate(-98.9977 319.809 1053.84)" fill="#CB9FFF" fill-opacity="0.28" shape-rendering="crispEdges"/>
<rect x="321.887" y="1050.98" width="88.0035" height="88.0035" rx="44.0017" transform="rotate(-98.9977 321.887 1050.98)" stroke="#C173FF" stroke-width="5" shape-rendering="crispEdges"/>
</g>
</g>
<g opacity="0.4">
<g filter="url(#filter4_d_6_231)">
<rect x="247.18" y="888.938" width="93.0035" height="93.0035" rx="46.5017" transform="rotate(-77.9065 247.18 888.938)" fill="#CB9FFF" fill-opacity="0.28" shape-rendering="crispEdges"/>
<rect x="250.148" y="887.018" width="88.0035" height="88.0035" rx="44.0017" transform="rotate(-77.9065 250.148 887.018)" stroke="#C173FF" stroke-width="5" shape-rendering="crispEdges"/>
</g>
<path d="M292.101 864.383L310.171 848.01L299.012 843.819L300.952 838.652L320.874 846.133L298.842 866.914L292.101 864.383Z" fill="#C47BFF"/>
</g>
<g opacity="0.4">
<g filter="url(#filter5_d_6_231)">
<rect x="278.23" y="130.394" width="93.0035" height="93.0035" rx="46.5017" transform="rotate(-83.2665 278.23 130.394)" fill="#CB9FFF" fill-opacity="0.28" shape-rendering="crispEdges"/>
<rect x="281.006" y="128.204" width="88.0035" height="88.0035" rx="44.0017" transform="rotate(-83.2665 281.006 128.204)" stroke="#C173FF" stroke-width="5" shape-rendering="crispEdges"/>
</g>
<path d="M306.587 98.613C306.972 95.3556 307.824 92.7979 309.145 90.9399C310.468 89.0554 312.451 87.6113 315.094 86.6076L319.691 84.8545C321.799 84.0562 322.961 82.7434 323.177 80.9161C323.293 79.9362 323.08 79.119 322.54 78.4645C322.029 77.7866 321.284 77.3898 320.304 77.2741C319.059 77.1272 318.044 77.4235 317.259 78.1632C316.503 78.8795 316.036 79.9924 315.858 81.5019L309.303 80.7281C309.647 77.815 310.862 75.5955 312.949 74.0696C315.065 72.5204 317.699 71.9318 320.851 72.3039C323.949 72.6697 326.288 73.6709 327.867 75.3073C329.449 76.9172 330.093 78.9669 329.799 81.4563C329.374 85.0579 327.263 87.5878 323.466 89.046L319.2 90.7174C317.96 91.2154 317.055 91.7128 316.487 92.2095C315.944 92.7094 315.486 93.4071 315.112 94.3028L327.863 95.8083L327.244 101.052L306.587 98.613ZM340.97 103.277C337.527 102.87 334.976 101.736 333.316 99.8757C331.682 98.018 331.046 95.5664 331.405 92.5209L337.88 93.2854C337.711 94.7155 337.952 95.8583 338.603 96.7138C339.28 97.5725 340.308 98.0831 341.685 98.2457C342.85 98.3833 343.814 98.1749 344.578 97.6206C345.368 97.0695 345.826 96.2642 345.951 95.2049C346.235 92.795 344.961 91.4227 342.127 91.0882L339.426 90.7693L340.007 85.8435L342.748 86.1671C345.291 86.4673 346.692 85.5183 346.951 83.3202C347.061 82.3933 346.83 81.6143 346.26 80.9831C345.69 80.3519 344.889 79.9754 343.856 79.8534C342.665 79.7127 341.684 79.946 340.914 80.5533C340.147 81.1341 339.694 82.0203 339.553 83.212L333.197 82.4616C333.503 79.8663 334.676 77.8968 336.714 76.5532C338.752 75.2096 341.374 74.727 344.578 75.1053C347.518 75.4524 349.795 76.406 351.41 77.9661C353.025 79.5262 353.696 81.4582 353.424 83.7622C353.061 86.8342 351.17 88.6383 347.75 89.1743C349.408 89.6922 350.646 90.5768 351.465 91.8281C352.31 93.0826 352.633 94.5573 352.433 96.2522C352.142 98.7151 350.939 100.6 348.825 101.908C346.74 103.193 344.121 103.649 340.97 103.277Z" fill="#C47BFF"/>
</g>
<g opacity="0.4">
<g filter="url(#filter6_d_6_231)">
<rect x="259.729" y="544.619" width="93.0035" height="93.0035" rx="46.5017" transform="rotate(-59.3066 259.729 544.619)" fill="#CB9FFF" fill-opacity="0.28" shape-rendering="crispEdges"/>
<rect x="263.155" y="543.745" width="88.0035" height="88.0035" rx="44.0017" transform="rotate(-59.3066 263.155 543.745)" stroke="#C173FF" stroke-width="5" shape-rendering="crispEdges"/>
</g>
<path d="M298.549 527.092C300.223 524.271 302.041 522.28 304.002 521.119C305.977 519.934 308.375 519.42 311.198 519.575L316.111 519.84C318.361 519.967 319.956 519.239 320.895 517.657C321.399 516.808 321.537 515.975 321.309 515.158C321.118 514.331 320.598 513.666 319.749 513.162C318.671 512.522 317.624 512.381 316.605 512.738C315.624 513.086 314.745 513.913 313.969 515.22L308.294 511.851C309.791 509.329 311.803 507.794 314.329 507.247C316.892 506.691 319.538 507.222 322.267 508.842C324.95 510.435 326.681 512.299 327.459 514.436C328.251 516.55 328.007 518.684 326.728 520.84C324.877 523.958 321.92 525.413 317.858 525.204L313.281 524.999C311.946 524.95 310.917 525.037 310.195 525.26C309.497 525.497 308.795 525.948 308.089 526.615L319.13 533.169L316.435 537.709L298.549 527.092ZM328.075 545.316C325.094 543.547 323.223 541.475 322.461 539.1C321.723 536.739 322.137 534.24 323.702 531.603L329.309 534.931C328.574 536.17 328.33 537.312 328.577 538.358C328.847 539.418 329.579 540.301 330.771 541.009C331.78 541.608 332.746 541.809 333.669 541.613C334.615 541.43 335.36 540.88 335.904 539.963C337.143 537.876 336.535 536.105 334.082 534.648L331.743 533.26L334.275 528.995L336.648 530.403C338.849 531.71 340.515 531.412 341.645 529.509C342.121 528.706 342.227 527.901 341.963 527.092C341.698 526.284 341.119 525.615 340.224 525.084C339.193 524.471 338.202 524.286 337.251 524.528C336.315 524.748 335.54 525.373 334.928 526.405L329.424 523.138C330.758 520.891 332.63 519.568 335.038 519.167C337.446 518.767 340.038 519.391 342.812 521.038C345.358 522.549 347.051 524.345 347.893 526.426C348.736 528.508 348.565 530.546 347.38 532.541C345.801 535.201 343.341 536.082 339.998 535.183C341.302 536.329 342.074 537.64 342.314 539.116C342.578 540.606 342.274 542.085 341.402 543.552C340.136 545.685 338.272 546.919 335.808 547.256C333.381 547.583 330.804 546.936 328.075 545.316Z" fill="#C47BFF"/>
</g>
<g filter="url(#filter7_d_6_231)">
<rect x="309.441" y="249.68" width="93.0035" height="93.0035" rx="46.5017" transform="rotate(-67.996 309.441 249.68)" fill="#CB9FFF" fill-opacity="0.28" shape-rendering="crispEdges"/>
<rect x="312.695" y="248.299" width="88.0035" height="88.0035" rx="44.0017" transform="rotate(-67.996 312.695 248.299)" stroke="#C173FF" stroke-width="5" shape-rendering="crispEdges"/>
</g>
<path d="M345.167 226.49C346.396 223.449 347.892 221.206 349.655 219.761C351.428 218.292 353.722 217.421 356.535 217.148L361.432 216.668C363.676 216.453 365.143 215.493 365.832 213.787C366.202 212.872 366.212 212.028 365.863 211.254C365.549 210.466 364.935 209.887 364.02 209.517C362.858 209.047 361.801 209.066 360.848 209.572C359.93 210.064 359.187 211.015 358.617 212.424L352.498 209.951C353.597 207.232 355.354 205.411 357.769 204.488C360.218 203.551 362.914 203.677 365.856 204.866C368.749 206.035 370.741 207.617 371.834 209.611C372.936 211.581 373.018 213.728 372.078 216.052C370.72 219.415 368.017 221.299 363.969 221.706L359.414 222.195C358.087 222.349 357.083 222.59 356.404 222.919C355.749 223.259 355.123 223.811 354.526 224.577L366.431 229.387L364.452 234.283L345.167 226.49ZM377.108 240.044C373.894 238.745 371.731 236.98 370.62 234.747C369.533 232.525 369.564 229.992 370.713 227.149L376.758 229.592C376.219 230.927 376.15 232.093 376.553 233.09C376.98 234.096 377.837 234.86 379.122 235.379C380.21 235.819 381.195 235.872 382.078 235.538C382.985 235.215 383.639 234.558 384.039 233.569C384.948 231.319 384.08 229.66 381.434 228.591L378.912 227.572L380.771 222.973L383.33 224.007C385.703 224.966 387.305 224.42 388.134 222.368C388.483 221.502 388.467 220.69 388.083 219.931C387.699 219.172 387.026 218.598 386.061 218.208C384.949 217.759 383.941 217.725 383.038 218.108C382.146 218.467 381.475 219.202 381.025 220.315L375.091 217.917C376.07 215.494 377.72 213.903 380.04 213.143C382.36 212.384 385.016 212.609 388.008 213.818C390.752 214.927 392.698 216.447 393.845 218.377C394.992 220.307 395.131 222.348 394.262 224.499C393.103 227.367 390.803 228.609 387.363 228.226C388.825 229.162 389.787 230.341 390.247 231.764C390.732 233.197 390.655 234.704 390.016 236.287C389.087 238.586 387.43 240.088 385.045 240.793C382.696 241.483 380.05 241.233 377.108 240.044Z" fill="#C47BFF"/>
</g>
<defs>
<filter id="filter0_d_6_231" x="281.28" y="627.684" width="151.017" height="151.017" filterUnits="userSpaceOnUse" color-interpolation-filters="sRGB">
<feFlood flood-opacity="0" result="BackgroundImageFix"/>
<feColorMatrix in="SourceAlpha" type="matrix" values="0 0 0 0 0 0 0 0 0 0 0 0 0 0 0 0 0 0 127 0" result="hardAlpha"/>
<feOffset/>
<feGaussianBlur stdDeviation="14.5"/>
<feComposite in2="hardAlpha" operator="out"/>
<feColorMatrix type="matrix" values="0 0 0 0 0.682353 0 0 0 0 0.407843 0 0 0 0 1 0 0 0 0.5 0"/>
<feBlend mode="normal" in2="BackgroundImageFix" result="effect1_dropShadow_6_231"/>
<feBlend mode="normal" in="SourceGraphic" in2="effect1_dropShadow_6_231" result="shape"/>
</filter>
<filter id="filter1_d_6_231" x="245.879" y="286.691" width="151.017" height="151.017" filterUnits="userSpaceOnUse" color-interpolation-filters="sRGB">
<feFlood flood-opacity="0" result="BackgroundImageFix"/>
<feColorMatrix in="SourceAlpha" type="matrix" values="0 0 0 0 0 0 0 0 0 0 0 0 0 0 0 0 0 0 127 0" result="hardAlpha"/>
<feOffset/>
<feGaussianBlur stdDeviation="14.5"/>
<feComposite in2="hardAlpha" operator="out"/>
<feColorMatrix type="matrix" values="0 0 0 0 0.682353 0 0 0 0 0.407843 0 0 0 0 1 0 0 0 0.5 0"/>
<feBlend mode="normal" in2="BackgroundImageFix" result="effect1_dropShadow_6_231"/>
<feBlend mode="normal" in="SourceGraphic" in2="effect1_dropShadow_6_231" result="shape"/>
</filter>
<filter id="filter2_d_6_231" x="287.105" y="1099.05" width="151.017" height="151.017" filterUnits="userSpaceOnUse" color-interpolation-filters="sRGB">
<feFlood flood-opacity="0" result="BackgroundImageFix"/>
<feColorMatrix in="SourceAlpha" type="matrix" values="0 0 0 0 0 0 0 0 0 0 0 0 0 0 0 0 0 0 127 0" result="hardAlpha"/>
<feOffset/>
<feGaussianBlur stdDeviation="14.5"/>
<feComposite in2="hardAlpha" operator="out"/>
<feColorMatrix type="matrix" values="0 0 0 0 0.682353 0 0 0 0 0.407843 0 0 0 0 1 0 0 0 0.5 0"/>
<feBlend mode="normal" in2="BackgroundImageFix" result="effect1_dropShadow_6_231"/>
<feBlend mode="normal" in="SourceGraphic" in2="effect1_dropShadow_6_231" result="shape"/>
</filter>
<filter id="filter3_d_6_231" x="282.957" y="925.126" width="151.017" height="151.017" filterUnits="userSpaceOnUse" color-interpolation-filters="sRGB">
<feFlood flood-opacity="0" result="BackgroundImageFix"/>
<feColorMatrix in="SourceAlpha" type="matrix" values="0 0 0 0 0 0 0 0 0 0 0 0 0 0 0 0 0 0 127 0" result="hardAlpha"/>
<feOffset/>
<feGaussianBlur stdDeviation="14.5"/>
<feComposite in2="hardAlpha" operator="out"/>
<feColorMatrix type="matrix" values="0 0 0 0 0.682353 0 0 0 0 0.407843 0 0 0 0 1 0 0 0 0.5 0"/>
<feBlend mode="normal" in2="BackgroundImageFix" result="effect1_dropShadow_6_231"/>
<feBlend mode="normal" in="SourceGraphic" in2="effect1_dropShadow_6_231" result="shape"/>
</filter>
<filter id="filter4_d_6_231" x="226.88" y="777.7" width="151.023" height="151.023" filterUnits="userSpaceOnUse" color-interpolation-filters="sRGB">
<feFlood flood-opacity="0" result="BackgroundImageFix"/>
<feColorMatrix in="SourceAlpha" type="matrix" values="0 0 0 0 0 0 0 0 0 0 0 0 0 0 0 0 0 0 127 0" result="hardAlpha"/>
<feOffset/>
<feGaussianBlur stdDeviation="14.5"/>
<feComposite in2="hardAlpha" operator="out"/>
<feColorMatrix type="matrix" values="0 0 0 0 0.682353 0 0 0 0 0.407843 0 0 0 0 1 0 0 0 0.5 0"/>
<feBlend mode="normal" in2="BackgroundImageFix" result="effect1_dropShadow_6_231"/>
<feBlend mode="normal" in="SourceGraphic" in2="effect1_dropShadow_6_231" result="shape"/>
</filter>
<filter id="filter5_d_6_231" x="254.357" y="14.1592" width="151.012" height="151.012" filterUnits="userSpaceOnUse" color-interpolation-filters="sRGB">
<feFlood flood-opacity="0" result="BackgroundImageFix"/>
<feColorMatrix in="SourceAlpha" type="matrix" values="0 0 0 0 0 0 0 0 0 0 0 0 0 0 0 0 0 0 127 0" result="hardAlpha"/>
<feOffset/>
<feGaussianBlur stdDeviation="14.5"/>
<feComposite in2="hardAlpha" operator="out"/>
<feColorMatrix type="matrix" values="0 0 0 0 0.682353 0 0 0 0 0.407843 0 0 0 0 1 0 0 0 0.5 0"/>
<feBlend mode="normal" in2="BackgroundImageFix" result="effect1_dropShadow_6_231"/>
<feBlend mode="normal" in="SourceGraphic" in2="effect1_dropShadow_6_231" result="shape"/>
</filter>
<filter id="filter6_d_6_231" x="247.944" y="452.859" width="151.018" height="151.018" filterUnits="userSpaceOnUse" color-interpolation-filters="sRGB">
<feFlood flood-opacity="0" result="BackgroundImageFix"/>
<feColorMatrix in="SourceAlpha" type="matrix" values="0 0 0 0 0 0 0 0 0 0 0 0 0 0 0 0 0 0 127 0" result="hardAlpha"/>
<feOffset/>
<feGaussianBlur stdDeviation="14.5"/>
<feComposite in2="hardAlpha" operator="out"/>
<feColorMatrix type="matrix" values="0 0 0 0 0.682353 0 0 0 0 0.407843 0 0 0 0 1 0 0 0 0.5 0"/>
<feBlend mode="normal" in2="BackgroundImageFix" result="effect1_dropShadow_6_231"/>
<feBlend mode="normal" in="SourceGraphic" in2="effect1_dropShadow_6_231" result="shape"/>
</filter>
<filter id="filter7_d_6_231" x="294.464" y="148.474" width="151.028" height="151.028" filterUnits="userSpaceOnUse" color-interpolation-filters="sRGB">
<feFlood flood-opacity="0" result="BackgroundImageFix"/>
<feColorMatrix in="SourceAlpha" type="matrix" values="0 0 0 0 0 0 0 0 0 0 0 0 0 0 0 0 0 0 127 0" result="hardAlpha"/>
<feOffset/>
<feGaussianBlur stdDeviation="14.5"/>
<feComposite in2="hardAlpha" operator="out"/>
<feColorMatrix type="matrix" values="0 0 0 0 0.682353 0 0 0 0 0.407843 0 0 0 0 1 0 0 0 0.5 0"/>
<feBlend mode="normal" in2="BackgroundImageFix" result="effect1_dropShadow_6_231"/>
<feBlend mode="normal" in="SourceGraphic" in2="effect1_dropShadow_6_231" result="shape"/>
</filter>
</defs>
</svg>
