<svg width="169" height="383" viewBox="0 0 169 383" fill="none" xmlns="http://www.w3.org/2000/svg">
<path d="M27.6331 339.18C26.997 339.509 26.214 339.268 25.8843 338.631L16.2555 320.023C15.9323 319.399 16.1811 318.608 16.8171 318.279C17.4662 317.943 18.2492 318.184 18.5789 318.821L28.2143 337.441C28.5245 338.072 28.2691 338.851 27.6331 339.18ZM8.22704 348.14C7.591 348.469 6.80799 348.228 6.47824 347.59L-2.26683 330.691C-2.58999 330.066 -2.33458 329.288 -1.69855 328.959C-1.04954 328.623 -0.266521 328.864 0.0566377 329.488L8.80171 346.388C9.11848 347.032 8.86307 347.81 8.22704 348.14ZM-2.06613 351.495C-2.70216 351.824 -3.49815 351.589 -3.82791 350.952L-10.9638 337.162C-11.2869 336.538 -11.0315 335.759 -10.3825 335.424C-9.74648 335.094 -8.96347 335.336 -8.64031 335.96L-1.49785 349.763C-1.16171 350.38 -1.41711 351.159 -2.06613 351.495ZM20.7782 337.541C20.1422 337.87 19.3592 337.629 19.0294 336.991L13.6347 326.566C13.3115 325.942 13.5669 325.163 14.203 324.834C14.839 324.505 15.635 324.739 15.9581 325.364L21.3529 335.789C21.6631 336.42 21.4143 337.212 20.7782 337.541ZM30.0164 332.179C29.3804 332.508 28.5844 332.273 28.2612 331.649L23.3347 322.128C23.0116 321.504 23.267 320.725 23.916 320.39C24.552 320.06 25.335 320.302 25.6582 320.926L30.5781 330.434C30.9079 331.071 30.6525 331.849 30.0164 332.179ZM10.8346 341.571C10.1856 341.907 9.4026 341.666 9.07284 341.029L4.5816 332.35C4.25844 331.725 4.50725 330.934 5.15627 330.598C5.7923 330.269 6.57531 330.51 6.90506 331.147L11.3963 339.826C11.739 340.457 11.4836 341.235 10.8346 341.571ZM0.65336 345.111C0.0173278 345.44 -0.765685 345.199 -1.08884 344.574L-4.16874 338.623C-4.4919 337.998 -4.2365 337.22 -3.60046 336.891C-2.96443 336.561 -2.18141 336.803 -1.85825 337.427L1.21505 343.366C1.54481 344.003 1.28939 344.782 0.65336 345.111ZM14.4315 336.915C13.7954 337.244 12.9994 337.01 12.6697 336.372L10.4603 332.103C10.1372 331.478 10.386 330.687 11.035 330.351C11.671 330.022 12.454 330.263 12.7838 330.9L14.9932 335.17C15.3359 335.8 15.0805 336.579 14.4315 336.915Z" fill="#5BD9E4"/>
<path d="M44.0448 339.412C41.319 340.823 37.9846 339.785 36.6062 337.122L23.4622 311.721C22.0772 309.045 23.1757 305.73 25.8886 304.326C28.6144 302.915 31.9422 303.94 33.3272 306.616L46.4712 332.017C47.8495 334.68 46.7707 338.002 44.0448 339.412ZM27.0691 306.607C25.6283 307.353 25.0536 309.104 25.7857 310.519L38.9297 335.919C39.6617 337.334 41.4235 337.876 42.8643 337.131C44.3051 336.385 44.8798 334.634 44.1477 333.219L31.0037 307.819C30.2717 306.404 28.5099 305.861 27.0691 306.607ZM-5.87724 365.245C-8.59011 366.649 -11.9375 365.618 -13.3159 362.955L-26.4598 337.554C-27.8448 334.878 -26.7593 331.569 -24.0335 330.159C-21.3076 328.748 -17.9798 329.773 -16.5949 332.449L-3.45088 357.85C-2.07251 360.514 -3.15139 363.835 -5.87724 365.245ZM-22.853 332.44C-24.2938 333.186 -24.8684 334.937 -24.1364 336.352L-10.9924 361.752C-10.2603 363.167 -8.49857 363.71 -7.05776 362.964C-5.61695 362.218 -5.04229 360.467 -5.77434 359.052L-18.9183 333.652C-19.6504 332.237 -21.4122 331.695 -22.853 332.44ZM48.6035 331.463C47.9954 331.083 47.834 330.294 48.2273 329.686C50.2002 326.662 50.2908 322.575 48.4508 319.02L45.0807 312.507C43.2407 308.951 39.8526 306.665 36.244 306.529C35.521 306.499 34.9701 305.912 35.0111 305.196C35.052 304.48 35.654 303.926 36.377 303.956C40.9235 304.123 45.1421 306.933 47.4042 311.305L50.7743 317.817C53.0364 322.189 52.9001 327.268 50.4047 331.064C50.0244 331.665 49.2182 331.856 48.6035 331.463ZM-16.184 365.521C-20.7304 365.354 -24.949 362.544 -27.2111 358.172L-30.5812 351.66C-32.8433 347.288 -32.7071 342.209 -30.2117 338.413C-29.8184 337.806 -29.0186 337.634 -28.4105 338.014C-27.8024 338.394 -27.6409 339.183 -28.0342 339.791C-30.0072 342.815 -30.0978 346.902 -28.2577 350.457L-24.8876 356.97C-23.0476 360.526 -19.6595 362.812 -16.051 362.948C-15.3279 362.978 -14.7771 363.566 -14.818 364.281C-14.8459 364.991 -15.4609 365.551 -16.184 365.521ZM35.3882 302.108L29.7863 301.872C29.3303 301.85 28.9184 301.595 28.7074 301.187C22.1321 288.48 3.58803 280.82 -13.5459 289.686C-30.6798 298.552 -35.1368 318.115 -28.5615 330.822C-28.3571 331.217 -28.3801 331.681 -28.5991 332.053L-31.1626 336.385C-31.401 336.783 -31.8291 337.037 -32.3045 337.04C-32.7668 337.037 -33.2047 336.795 -33.4288 336.394C-33.8043 335.732 -42.5298 319.824 -37.491 303.612C-34.6527 294.468 -27.9737 287.118 -17.6414 281.772C-7.33513 276.438 2.56164 275.211 11.7561 278.128C28.0959 283.31 36.3093 299.563 36.6525 300.258C36.8505 300.673 36.8211 301.157 36.5566 301.536C36.2985 301.896 35.8571 302.124 35.3882 302.108ZM30.6749 299.328L33.1632 299.43C30.4644 295.01 22.9193 284.373 10.8928 280.562C2.39012 277.869 -6.81022 279.043 -16.4675 284.04C-26.1378 289.044 -32.371 295.857 -35.0054 304.313C-38.692 316.174 -34.2828 328.256 -32.1679 333.011L-31.2081 331.399C-37.8819 317.58 -32.9767 296.849 -14.7394 287.411C3.49125 277.961 23.2354 285.906 30.6749 299.328Z" fill="white"/>
<path d="M51.6394 107.596C50.9301 107.961 50.0515 107.679 49.687 106.969C48.4609 104.583 45.5322 103.643 43.1462 104.869L23.8906 114.764C21.5046 115.99 20.5641 118.918 21.7902 121.304C22.1547 122.014 21.8725 122.892 21.1632 123.257C20.4538 123.621 19.5752 123.339 19.2107 122.63C17.2556 118.825 18.767 114.152 22.5588 112.204L30.9034 107.916L21.5587 89.7307L16.5546 92.3022C10.1704 95.5827 2.31488 93.0493 -0.959055 86.6781L-21.0732 47.5349C-24.3538 41.1508 -21.8204 33.2952 -15.4492 30.0213L-3.26126 23.7584C3.12288 20.4778 10.9784 23.0112 14.2524 29.3824L29.7274 59.4975C30.0919 60.2069 29.8097 61.0855 29.1004 61.45C28.391 61.8145 27.5124 61.5324 27.1479 60.823L25.8688 58.3339L16.1185 63.3442C15.4091 63.7087 14.5305 63.4265 14.166 62.7172C13.8015 62.0078 14.0837 61.1292 14.793 60.7647L24.5433 55.7544L21.8857 50.5826L12.1354 55.5929C11.4261 55.9574 10.5475 55.6753 10.1829 54.9659C9.81844 54.2566 10.1006 53.378 10.8099 53.0135L20.5603 48.0031L17.9027 42.8313L8.15235 47.8417C7.443 48.2062 6.56439 47.924 6.19988 47.2147C5.83537 46.5053 6.11752 45.6267 6.82686 45.2622L16.5772 40.2519L13.9196 35.0801L4.16927 40.0904C3.45992 40.4549 2.58131 40.1728 2.21681 39.4634C1.8523 38.7541 2.13444 37.8755 2.84379 37.511L12.5941 32.5006L11.6597 30.6821C9.6383 26.7485 5.37441 24.7008 1.22386 25.2848L3.98086 30.6501C4.34537 31.3594 4.06322 32.238 3.35387 32.6025C2.64452 32.967 1.76591 32.6849 1.40141 31.9756L-1.60744 26.1202C-1.72351 26.1798 -1.85249 26.2461 -1.96856 26.3058L-6.77924 28.7778L-3.7704 34.6331C-3.40589 35.3425 -3.68804 36.2211 -4.39738 36.5856C-5.10673 36.9501 -5.98534 36.668 -6.34985 35.9586L-9.35869 30.1033L-14.1436 32.562C-14.2597 32.6217 -14.3886 32.688 -14.5047 32.7476L-11.4959 38.603C-11.1313 39.3123 -11.4135 40.1909 -12.1228 40.5554C-12.8322 40.9199 -13.7108 40.6378 -14.0753 39.9284L-16.8323 34.5632C-19.7237 37.5977 -20.5413 42.2566 -18.5199 46.1903L-17.5855 48.0088L-7.83514 42.9985C-7.12579 42.6339 -6.24718 42.9161 -5.88267 43.6254C-5.51817 44.3348 -5.80031 45.2134 -6.50966 45.5779L-16.26 50.5882L-13.6024 55.76L-3.85207 50.7497C-3.14272 50.3852 -2.26411 50.6673 -1.8996 51.3767C-1.53509 52.086 -1.81724 52.9647 -2.52659 53.3292L-12.2769 58.3395L-9.61933 63.5113L0.131003 58.501C0.840353 58.1365 1.71896 58.4186 2.08347 59.1279C2.44798 59.8373 2.16583 60.7159 1.45648 61.0804L-8.29385 66.0907L-5.63626 71.2625L4.11408 66.2522C4.82343 65.8877 5.70204 66.1699 6.06654 66.8792C6.43105 67.5886 6.14891 68.4672 5.43956 68.8317L-4.31077 73.842L1.6075 85.3592C4.15905 90.3247 10.2703 92.2871 15.2357 89.7356L27.4236 83.4727C32.0666 81.0868 34.1446 75.4542 32.1589 70.6382C31.8589 69.8957 32.2321 69.0356 32.9488 68.7488C33.6912 68.4488 34.5381 68.7961 34.8382 69.5386C37.3838 75.7298 34.7076 82.9903 28.7491 86.0521L24.1448 88.4181L33.4894 106.603L41.834 102.315C45.6387 100.36 50.3117 101.872 52.2601 105.663C52.6309 106.353 52.3488 107.232 51.6394 107.596Z" fill="white"/>
<path d="M21.3214 81.0263C18.3421 82.5572 14.6586 81.3851 13.121 78.3929C11.5901 75.4137 12.7622 71.7301 15.7544 70.1926C18.3209 68.8737 21.4155 69.5659 23.1965 71.6994C25.2287 70.7366 30.3973 67.7872 32.9119 61.1641C34.7899 56.2211 33.0149 51.6881 31.9283 49.6054C31.7028 49.7375 31.4644 49.8764 31.2322 49.9957C30.5229 50.3602 29.6443 50.078 29.2798 49.3687L18.8482 29.0684C18.4837 28.359 18.7659 27.4804 19.4752 27.1159C19.63 27.0364 19.7977 26.9502 19.959 26.8836C15.562 19.8179 4.88175 11.6606 -11.4333 20.0442C-27.7612 28.4345 -27.3277 41.8735 -24.143 49.5622C-23.8916 49.4168 -23.6532 49.278 -23.3953 49.1454C-22.6859 48.7809 -21.8073 49.0631 -21.4428 49.7724L-11.0113 70.0727C-10.6468 70.782 -10.9289 71.6607 -11.6383 72.0252C-17.945 75.266 -25.7158 72.7706 -28.9566 66.4638C-31.5944 61.3307 -30.4358 55.2413 -26.5093 51.3977C-31.5719 40.4352 -29.2993 25.9806 -12.765 17.4843C3.73056 9.00785 16.7855 15.5047 22.7635 25.9642C28.27 24.8464 34.0771 27.4542 36.7678 32.6905C39.4188 37.8494 38.2285 44.004 34.2434 47.8288C35.5598 50.1684 38.0216 55.8158 35.5951 62.198C32.7277 69.7525 27.0189 73.1099 24.4509 74.2991C25.0572 76.9383 23.8235 79.7406 21.3214 81.0263ZM17.0798 72.772C15.5193 73.5739 14.8986 75.5069 15.7005 77.0674C16.5024 78.628 18.4353 79.2487 19.9959 78.4468C21.5694 77.6383 22.1772 75.712 21.3753 74.1514C20.5734 72.5908 18.6404 71.9701 17.0798 72.772ZM22.1435 29.1358L31.1501 46.6632C35.1139 43.8438 36.5135 38.4457 34.2271 33.9961C32.0599 29.7787 27.271 27.7563 22.8671 28.8944C22.6482 29.0394 22.3833 29.1267 22.1435 29.1358ZM-23.8339 52.8922C-27.3751 55.8042 -28.5381 60.9014 -26.3577 65.1446C-24.0712 69.5941 -18.8674 71.599 -14.2674 70.0178L-23.2807 52.4775C-23.4351 52.5895 -23.6024 52.7081 -23.7502 52.8329C-23.776 52.8462 -23.8147 52.8661 -23.8339 52.8922Z" fill="#5BD9E4"/>
</svg>
