<svg width="316" height="656" viewBox="0 0 316 656" fill="none" xmlns="http://www.w3.org/2000/svg">
<path d="M-1.62136 104.918C-4.29018 105.513 -6.79849 104.064 -7.30716 101.785C-7.56054 100.634 -7.283 99.4428 -6.52792 98.4403C-5.80398 97.4886 -4.70076 96.8572 -3.48686 96.5383C-2.91933 96.4099 -2.36532 96.7679 -2.23686 97.3357C-2.10839 97.9034 -2.38292 98.4738 -3.0336 98.586C-3.7904 98.7668 -4.43368 99.1513 -4.85598 99.7065C-5.24034 100.209 -5.38237 100.791 -5.26042 101.332C-4.97771 102.605 -3.42785 103.18 -2.07981 102.879C-0.593779 102.553 0.415352 101.317 0.14701 100.133C0.14701 100.133 0.145381 100.127 0.143751 100.12L-3.63652 82.369C-3.74024 81.8747 -3.47831 81.3722 -3.01216 81.1815L9.94817 75.8493C10.2368 75.7299 10.5579 75.7469 10.8302 75.8909C11.1025 76.035 11.3005 76.2905 11.3654 76.5923L15.3161 94.3023C15.5695 95.4531 15.2919 96.6443 14.5368 97.6468C13.8145 98.6053 12.7604 99.261 11.4958 99.5488C8.82015 100.145 6.31866 98.6948 5.80999 96.4151C5.55661 95.2643 5.83415 94.0731 6.58923 93.0707C7.31318 92.1189 8.4235 91.457 9.6303 91.1687C10.1978 91.0403 10.7518 91.3982 10.8803 91.966C11.0088 92.5338 10.6641 93.1425 10.0836 93.2164C9.32349 93.3835 8.68347 93.7816 8.26116 94.3368C7.87681 94.8397 7.73478 95.4216 7.85673 95.9621C8.14107 97.2426 9.69611 97.8084 11.0357 97.5027C11.7721 97.3268 12.4358 96.9374 12.8581 96.3822C13.2425 95.8794 13.3861 95.3043 13.2642 94.7638L9.60875 78.2595L-1.39642 82.7856L2.20057 99.6788C2.67665 101.822 1.21494 104.241 -1.62136 104.918ZM2.0457 85.8496C1.5548 85.9669 1.03369 85.7165 0.838074 85.2297C0.617415 84.6983 0.873724 84.0818 1.4048 83.8612L7.31313 81.4111C7.82893 81.1869 8.45883 81.4402 8.68112 81.9783C8.90341 82.5165 8.64548 83.1261 8.11441 83.3468L2.20607 85.7969C2.15478 85.8236 2.10024 85.8366 2.0457 85.8496Z" fill="#04B05D"/>
<path d="M38.33 127.272C37.9683 127.056 37.4723 126.85 36.8983 126.619C34.9985 125.847 32.1284 124.694 28.8705 120.743C26.0308 117.304 22.2269 113.872 19.1761 111.118C17.889 109.955 16.7671 108.939 15.9659 108.15C14.4191 106.623 14.1982 104.462 15.4302 102.892C16.581 101.434 18.935 100.699 21.6384 102.36L22.593 102.947C26.4011 105.311 28.4584 106.47 30.113 104.799C32.18 102.711 32.3169 99.996 30.5215 96.524C28.8178 93.2248 26.6133 90.514 26.5931 90.49C26.227 90.0439 26.2917 89.3794 26.7376 89.0133C27.1834 88.6472 27.8476 88.712 28.2136 89.1581C28.306 89.2731 30.581 92.068 32.3881 95.5588C35.1754 100.95 33.5029 104.356 31.6111 106.272C28.7022 109.21 25.1982 107.033 21.4967 104.723L20.5505 104.142C18.844 103.093 17.624 103.507 17.0934 104.182C16.6626 104.732 16.4995 105.708 17.4538 106.655C18.2381 107.434 19.3382 108.419 20.5967 109.553C23.5364 112.203 27.5694 115.84 30.5099 119.399C33.4319 122.941 35.9041 123.936 37.7073 124.666C38.3694 124.934 38.9434 125.164 39.4588 125.481C39.9487 125.782 40.1036 126.43 39.8043 126.927C39.4677 127.418 38.82 127.573 38.33 127.272ZM-11.9189 139.279C-12.4089 138.978 -12.5637 138.33 -12.2628 137.84C-11.9532 137.326 -11.5454 136.861 -11.0689 136.321C-9.7904 134.855 -8.03539 132.849 -7.03019 128.369C-6.01788 123.859 -4.06303 118.798 -2.64081 115.098C-2.03109 113.518 -1.50172 112.144 -1.15261 111.101C-0.729663 109.825 -1.31655 109.028 -1.94941 108.732C-2.72782 108.37 -4.00322 108.552 -5.05122 110.259L-5.63066 111.212C-7.89653 114.941 -10.0379 118.467 -13.9522 117.167C-16.5057 116.313 -19.5376 114.031 -19.4886 107.962C-19.4549 104.031 -18.6943 100.518 -18.6587 100.366C-18.5339 99.8021 -17.9776 99.4456 -17.4076 99.569C-16.8444 99.694 -16.4879 100.251 -16.6111 100.821C-16.6183 100.851 -17.3575 104.273 -17.3872 107.979C-17.419 111.888 -16.0764 114.249 -13.2821 115.175C-11.0505 115.918 -9.73286 113.952 -7.41155 110.124L-6.82692 109.162C-5.17192 106.466 -2.73448 106.05 -1.04739 106.836C0.761524 107.68 1.53982 109.701 0.851966 111.769C0.494104 112.835 -0.0491988 114.241 -0.671218 115.861C-2.15437 119.698 -3.99581 124.479 -4.97254 128.837C-6.0919 133.834 -8.12913 136.167 -9.47636 137.708C-9.88413 138.173 -10.2403 138.582 -10.4582 138.937C-10.7864 139.434 -11.4289 139.58 -11.9189 139.279ZM-26.6231 120.814C-26.7049 120.834 -26.7883 120.847 -26.8767 120.839C-27.4547 120.833 -27.9192 120.367 -27.9149 119.782C-27.907 119.182 -27.7955 105.08 -26.8059 101.288C-25.7985 97.4207 -20.8947 90.9779 -20.6861 90.7045C-20.3345 90.2456 -19.6773 90.1606 -19.2185 90.5125C-18.7596 90.8643 -18.6746 91.5218 -19.0262 91.9808C-19.0761 92.0432 -23.8817 98.3543 -24.7846 101.815C-25.7052 105.352 -25.8272 119.651 -25.8287 119.795C-25.8254 120.292 -26.1663 120.705 -26.6231 120.814ZM44.5367 103.811C44.0799 103.92 43.589 103.706 43.3639 103.276C43.2972 103.148 36.7239 90.4487 34.3021 87.7033C31.9323 85.0248 24.7927 81.5679 24.7199 81.5348C24.1988 81.2844 23.9774 80.6595 24.2277 80.1382C24.4779 79.617 25.1025 79.3956 25.6236 79.646C25.9332 79.7956 33.22 83.3254 35.8671 86.3199C38.457 89.2559 44.9401 101.789 45.217 102.314C45.4837 102.827 45.2817 103.46 44.7688 103.727C44.6971 103.758 44.6185 103.791 44.5367 103.811Z" fill="#9A4AFF"/>
<path d="M28.4594 125.629L-2.78767 133.095C-3.35356 133.231 -3.91276 132.881 -4.04804 132.315C-4.18333 131.749 -3.83409 131.189 -3.27502 131.056L27.9788 123.588C28.5447 123.453 29.1039 123.802 29.2376 124.361C29.3729 124.928 29.0253 125.494 28.4594 125.629ZM12.1775 126.592C10.5753 126.975 8.96008 125.976 8.57868 124.38C8.19565 122.777 9.18657 121.163 10.7888 120.78C12.391 120.397 14.0062 121.396 14.3876 122.992C14.7707 124.595 13.7797 126.209 12.1775 126.592ZM11.2745 122.813C10.7973 122.927 10.5015 123.409 10.6156 123.886C10.7297 124.364 11.2129 124.666 11.6902 124.552C12.1674 124.438 12.4631 123.957 12.3474 123.472C12.2333 122.995 11.7518 122.699 11.2745 122.813ZM21.1772 117.202L-0.101886 122.287C-0.667783 122.422 -1.22698 122.072 -1.36226 121.506C-1.49592 120.947 -1.14831 120.381 -0.589233 120.247L20.6967 115.161C21.2626 115.026 21.8286 115.373 21.9622 115.933C22.0907 116.501 21.7431 117.067 21.1772 117.202ZM-11.2266 112.196C-11.7925 112.332 -12.3517 111.982 -12.4853 111.423L-21.9177 71.9484C-22.4817 69.5883 -21.0187 67.2052 -18.6596 66.6416L12.5942 59.1734C14.9533 58.6097 17.3356 60.0739 17.8996 62.434L27.3157 101.84C27.4493 102.4 27.1033 102.972 26.5443 103.106C25.9784 103.241 25.4123 102.893 25.2771 102.327L15.861 62.9212C15.5659 61.6865 14.3225 60.9165 13.0816 61.213L-18.1791 68.6827C-19.4132 68.9776 -20.1826 70.2214 -19.886 71.4629L-10.4552 110.93C-10.3199 111.497 -10.6675 112.063 -11.2266 112.196ZM14.1011 69.1895L-15.496 76.2618C-16.0619 76.397 -16.6279 76.0491 -16.7616 75.4898C-16.8968 74.9236 -16.5476 74.3643 -15.9817 74.2291L13.6154 67.1568C14.1813 67.0216 14.7473 67.3695 14.8809 67.9288C15.0146 68.4881 14.667 69.0543 14.1011 69.1895ZM1.15124 68.2315L-4.37819 69.5528C-4.94408 69.688 -5.50328 69.3385 -5.63693 68.7792C-5.77222 68.213 -5.42462 67.6468 -4.86554 67.5132L0.663886 66.192C1.22978 66.0567 1.7958 66.4046 1.93108 66.9708C2.06473 67.5301 1.71713 68.0963 1.15124 68.2315Z" fill="white"/>
<path d="M-26.6352 551.346C-25.7095 551.881 -25.3811 553.107 -25.9156 554.032C-33.494 567.159 -28.9733 584.03 -15.8471 591.608C-14.9213 592.143 -14.5929 593.369 -15.1274 594.294C-15.688 595.227 -16.8875 595.549 -17.8133 595.014C-32.8241 586.347 -37.9876 567.077 -29.3281 552.04C-28.7866 551.14 -27.5871 550.819 -26.6352 551.346ZM21.1889 538.532C36.1998 547.199 41.3633 566.469 32.7037 581.506C32.1432 582.439 30.9437 582.76 30.0179 582.226C29.0851 581.665 28.7637 580.466 29.2982 579.54C36.8766 566.414 32.3559 549.542 19.2297 541.964C18.3039 541.429 17.9755 540.204 18.51 539.278C19.0636 538.319 20.2631 537.998 21.1889 538.532ZM-17.5097 556.615C-16.5839 557.15 -16.2555 558.375 -16.79 559.301C-21.4669 567.402 -18.679 577.806 -10.5784 582.483C-9.64566 583.043 -9.32425 584.243 -9.85875 585.169C-10.4193 586.102 -11.6188 586.423 -12.5446 585.888C-22.5298 580.124 -25.9675 567.294 -20.2026 557.309C-19.6611 556.409 -18.4615 556.088 -17.5097 556.615ZM15.9463 547.651C25.9315 553.416 29.3622 566.219 23.6043 576.23C23.0437 577.163 21.8442 577.485 20.9184 576.95C19.9596 576.396 19.6382 575.197 20.1987 574.264C24.8756 566.164 22.0877 555.759 13.9871 551.082C13.0353 550.555 12.7069 549.329 13.2675 548.396C13.7689 547.451 14.9945 547.123 15.9463 547.651ZM-8.64167 561.757C-7.68982 562.285 -7.36142 563.51 -7.92199 564.443C-9.77365 567.65 -8.66968 571.77 -5.46252 573.622C-4.51066 574.149 -4.18226 575.375 -4.74284 576.308C-5.27734 577.234 -6.50293 577.562 -7.42871 577.027C-12.5205 574.088 -14.2743 567.542 -11.3345 562.451C-10.8 561.525 -9.60052 561.204 -8.64167 561.757ZM10.8113 556.545C15.9031 559.484 17.6569 566.03 14.7172 571.121C14.1566 572.054 12.9571 572.376 12.0313 571.841C11.1055 571.307 10.7771 570.081 11.3116 569.155C13.1633 565.948 12.0593 561.828 8.85213 559.976C7.89329 559.423 7.59795 558.216 8.13245 557.29C8.67905 556.306 9.87858 555.984 10.8113 556.545ZM-0.0422924 561.829C2.74788 561.081 5.62441 562.742 6.37204 565.532C7.11966 568.322 5.4589 571.199 2.66872 571.946C-0.121452 572.694 -2.99799 571.033 -3.74561 568.243C-4.51932 565.46 -2.83247 562.576 -0.0422924 561.829ZM1.65559 568.165C2.35965 567.976 2.75354 567.256 2.57187 566.578C2.38322 565.874 1.66281 565.48 0.984819 565.662C0.280756 565.85 -0.139212 566.578 0.0424539 567.256C0.22412 567.934 0.951524 568.354 1.65559 568.165Z" fill="#08C855"/>
</svg>
