<svg width="346" height="1317" viewBox="0 0 346 1317" fill="none" xmlns="http://www.w3.org/2000/svg">
<g opacity="0.4">
<g opacity="0.4">
<g filter="url(#filter0_d_6_240)">
<rect x="-16.877" y="265.322" width="93.0035" height="93.0035" rx="46.5017" transform="rotate(-98.9977 -16.877 265.322)" fill="#CB9FFF" fill-opacity="0.28" shape-rendering="crispEdges"/>
<rect x="-14.7987" y="262.462" width="88.0035" height="88.0035" rx="44.0017" transform="rotate(-98.9977 -14.7987 262.462)" stroke="#C173FF" stroke-width="5" shape-rendering="crispEdges"/>
</g>
<path d="M13.1541 228.143L10.4641 211.154L4.775 212.055L3.98052 207.038C6.53535 206.633 8.20214 205.991 8.98087 205.112C9.75961 204.233 10.0093 202.911 9.72983 201.146L15.2609 200.27L19.5149 227.136L13.1541 228.143ZM25.3083 226.218L32.9403 203.06L21.167 204.924L20.3037 199.472L41.3219 196.144L32.4197 225.092L25.3083 226.218Z" fill="#C47BFF"/>
</g>
<g opacity="0.4">
<g filter="url(#filter1_d_6_240)">
<rect x="-25.5283" y="1090.38" width="93.0035" height="93.0035" rx="46.5017" transform="rotate(-98.9977 -25.5283 1090.38)" fill="#CB9FFF" fill-opacity="0.28" shape-rendering="crispEdges"/>
<rect x="-23.4501" y="1087.52" width="88.0035" height="88.0035" rx="44.0017" transform="rotate(-98.9977 -23.4501 1087.52)" stroke="#C173FF" stroke-width="5" shape-rendering="crispEdges"/>
</g>
<path d="M4.50274 1053.2L1.81274 1036.21L-3.87638 1037.11L-4.67087 1032.1C-2.11603 1031.69 -0.449245 1031.05 0.329489 1030.17C1.10822 1029.29 1.35788 1027.97 1.07845 1026.2L6.60954 1025.33L10.8635 1052.19L4.50274 1053.2ZM16.6569 1051.28L24.289 1028.12L12.5156 1029.98L11.6523 1024.53L32.6705 1021.2L23.7683 1050.15L16.6569 1051.28Z" fill="#C47BFF"/>
</g>
<g opacity="0.4">
<g filter="url(#filter2_d_6_240)">
<rect x="-63.5835" y="939.904" width="93.0035" height="93.0035" rx="46.5017" transform="rotate(-98.9977 -63.5835 939.904)" fill="#CB9FFF" fill-opacity="0.28" shape-rendering="crispEdges"/>
<rect x="-61.5052" y="937.044" width="88.0035" height="88.0035" rx="44.0017" transform="rotate(-98.9977 -61.5052 937.044)" stroke="#C173FF" stroke-width="5" shape-rendering="crispEdges"/>
</g>
<path d="M-43.129 904.241C-43.642 901.002 -43.5149 898.309 -42.7479 896.162C-41.9849 893.989 -40.4677 892.062 -38.1963 890.379L-34.2465 887.445C-32.4338 886.105 -31.6713 884.527 -31.9591 882.709C-32.1134 881.735 -32.5393 881.006 -33.2368 880.522C-33.9122 880.008 -34.7372 879.828 -35.7117 879.983C-36.9496 880.179 -37.8463 880.739 -38.4018 881.664C-38.9352 882.558 -39.083 883.756 -38.8453 885.258L-45.364 886.29C-45.8228 883.393 -45.2548 880.927 -43.66 878.892C-42.0431 876.827 -39.6674 875.547 -36.5332 875.05C-33.4516 874.562 -30.929 874.892 -28.9654 876.039C-27.006 877.16 -25.8303 878.958 -25.4383 881.434C-24.8711 885.016 -26.2173 888.023 -29.4769 890.456L-33.1294 893.222C-34.1882 894.037 -34.924 894.761 -35.3369 895.394C-35.7234 896.022 -35.9753 896.818 -36.0927 897.781L-23.4107 895.773L-22.585 900.988L-43.129 904.241ZM-8.76991 899.408C-12.1939 899.95 -14.9571 899.551 -17.0593 898.21C-19.1353 896.865 -20.413 894.677 -20.8926 891.649L-14.4529 890.629C-14.2277 892.051 -13.6858 893.086 -12.8274 893.733C-11.9427 894.376 -10.8155 894.589 -9.44587 894.372C-8.28698 894.188 -7.41518 893.726 -6.83047 892.986C-6.21942 892.241 -5.99731 891.342 -6.16413 890.288C-6.54365 887.892 -8.14252 886.916 -10.9607 887.362L-13.6473 887.788L-14.423 882.889L-11.697 882.457C-9.16846 882.057 -8.07729 880.764 -8.42344 878.578C-8.56941 877.656 -9.00225 876.968 -9.72195 876.515C-10.4417 876.062 -11.3151 875.917 -12.3423 876.08C-13.5275 876.267 -14.4083 876.758 -14.9847 877.551C-15.5653 878.318 -15.7617 879.294 -15.574 880.479L-21.8953 881.48C-22.304 878.899 -21.7095 876.685 -20.1119 874.84C-18.5142 872.994 -16.1219 871.818 -12.935 871.314C-10.0114 870.851 -7.56093 871.151 -5.58355 872.215C-3.60617 873.279 -2.43606 874.957 -2.07323 877.248C-1.58944 880.303 -2.92073 882.553 -6.06707 883.996C-4.33136 884.045 -2.89974 884.561 -1.77222 885.543C-0.618364 886.521 0.0920223 887.853 0.358937 889.539C0.746798 891.988 0.100317 894.129 -1.5805 895.961C-3.23916 897.763 -5.63562 898.912 -8.76991 899.408Z" fill="#C47BFF"/>
</g>
<g opacity="0.4">
<g filter="url(#filter3_d_6_240)">
<rect x="-21.6216" y="621.937" width="93.0035" height="93.0035" rx="46.5017" transform="rotate(-98.9977 -21.6216 621.937)" fill="#CB9FFF" fill-opacity="0.28" shape-rendering="crispEdges"/>
<rect x="-19.5433" y="619.076" width="88.0035" height="88.0035" rx="44.0017" transform="rotate(-98.9977 -19.5433 619.076)" stroke="#C173FF" stroke-width="5" shape-rendering="crispEdges"/>
</g>
<path d="M19.5789 582.989L16.8889 566.001L11.1998 566.901L10.4053 561.884C12.9602 561.479 14.6269 560.837 15.4057 559.958C16.1844 559.079 16.4341 557.757 16.1546 555.992L21.6857 555.116L25.9397 581.982L19.5789 582.989Z" fill="#C47BFF"/>
</g>
<g opacity="0.4">
<g filter="url(#filter4_d_6_240)">
<rect x="-43.9873" y="454.708" width="93.0035" height="93.0035" rx="46.5017" transform="rotate(-77.9065 -43.9873 454.708)" fill="#CB9FFF" fill-opacity="0.28" shape-rendering="crispEdges"/>
<rect x="-41.019" y="452.788" width="88.0035" height="88.0035" rx="44.0017" transform="rotate(-77.9065 -41.019 452.788)" stroke="#C173FF" stroke-width="5" shape-rendering="crispEdges"/>
</g>
<path d="M0.934151 430.153L19.0036 413.78L7.84456 409.589L9.78519 404.422L29.7068 411.903L7.67453 432.684L0.934151 430.153Z" fill="#C47BFF"/>
</g>
<g opacity="0.4">
<g filter="url(#filter5_d_6_240)">
<rect x="-61.7871" y="1258.93" width="93.0035" height="93.0035" rx="46.5017" transform="rotate(-77.9065 -61.7871 1258.93)" fill="#CB9FFF" fill-opacity="0.28" shape-rendering="crispEdges"/>
<rect x="-58.8189" y="1257.01" width="88.0035" height="88.0035" rx="44.0017" transform="rotate(-77.9065 -58.8189 1257.01)" stroke="#C173FF" stroke-width="5" shape-rendering="crispEdges"/>
</g>
<path d="M-16.8657 1234.38L1.20383 1218.01L-9.95525 1213.82L-8.01462 1208.65L11.907 1216.13L-10.1253 1236.91L-16.8657 1234.38Z" fill="#C47BFF"/>
</g>
<g opacity="0.4">
<g filter="url(#filter6_d_6_240)">
<rect x="-87.5591" y="101.524" width="93.0035" height="93.0035" rx="46.5017" transform="rotate(-67.996 -87.5591 101.524)" fill="#CB9FFF" fill-opacity="0.28" shape-rendering="crispEdges"/>
<rect x="-84.3046" y="100.143" width="88.0035" height="88.0035" rx="44.0017" transform="rotate(-67.996 -84.3046 100.143)" stroke="#C173FF" stroke-width="5" shape-rendering="crispEdges"/>
</g>
<path d="M-51.8326 78.3342C-50.6037 75.2932 -49.1077 73.0503 -47.3446 71.6056C-45.5716 70.1362 -43.2783 69.2653 -40.4646 68.993L-35.568 68.5127C-33.324 68.2978 -31.8573 67.3374 -31.1679 65.6314C-30.7983 64.7166 -30.7878 63.8723 -31.1367 63.0986C-31.4508 62.3101 -32.0653 61.7311 -32.9801 61.3614C-34.1421 60.8918 -35.1994 60.9103 -36.152 61.417C-37.0698 61.909 -37.8135 62.8596 -38.383 64.2689L-44.5022 61.796C-43.4032 59.0764 -41.6463 57.2553 -39.2314 56.3329C-36.7819 55.3957 -34.086 55.5216 -31.1438 56.7106C-28.2511 57.8796 -26.2586 59.4613 -25.1663 61.4559C-24.064 63.4257 -23.9825 65.5726 -24.9217 67.8967C-26.2805 71.2592 -28.9835 73.1437 -33.0306 73.5503L-37.5856 74.0393C-38.9133 74.1931 -39.9169 74.4346 -40.5965 74.764C-41.2513 75.1034 -41.8772 75.6558 -42.4741 76.4212L-30.5694 81.232L-32.5477 86.1274L-51.8326 78.3342ZM-19.8923 91.8887C-23.1064 90.5898 -25.2691 88.8243 -26.3803 86.592C-27.4669 84.3697 -27.4356 81.8369 -26.2866 78.9936L-20.2416 81.4365C-20.7811 82.7716 -20.8496 83.9375 -20.447 84.9343C-20.0198 85.941 -19.1633 86.7042 -17.8777 87.2237C-16.7898 87.6633 -15.8046 87.7163 -14.9219 87.3827C-14.0146 87.0591 -13.3611 86.4028 -12.9615 85.4138C-12.0523 83.1639 -12.9204 81.5044 -15.5659 80.4354L-18.0878 79.4163L-16.2294 74.8176L-13.6704 75.8517C-11.2969 76.8108 -9.69551 76.2644 -8.86624 74.2122C-8.51654 73.3469 -8.53348 72.5347 -8.91704 71.7757C-9.30061 71.0167 -9.97451 70.4424 -10.9388 70.0527C-12.0513 69.6031 -13.0589 69.5699 -13.9615 69.9529C-14.8542 70.3112 -15.5253 71.0467 -15.9749 72.1593L-21.9087 69.7614C-20.9295 67.3384 -19.2799 65.7473 -16.9597 64.9879C-14.6395 64.2286 -11.9836 64.4534 -8.99199 65.6623C-6.2476 66.7714 -4.30192 68.291 -3.15495 70.2214C-2.00799 72.1517 -1.86912 74.1924 -2.73836 76.3434C-3.89734 79.2114 -6.19695 80.4537 -9.63716 80.0701C-8.17471 81.0062 -7.21326 82.1857 -6.75281 83.6085C-6.26764 85.0413 -6.34477 86.5489 -6.98421 88.1313C-7.9134 90.4306 -9.57017 91.9326 -11.9545 92.6373C-14.3042 93.3272 -16.9501 93.0777 -19.8923 91.8887Z" fill="#C47BFF"/>
</g>
<g opacity="0.4">
<g filter="url(#filter7_d_6_240)">
<rect x="2.95264" y="812.649" width="93.0035" height="93.0035" rx="46.5017" transform="rotate(-107.668 2.95264 812.649)" fill="#CB9FFF" fill-opacity="0.28" shape-rendering="crispEdges"/>
<rect x="4.57598" y="809.508" width="88.0035" height="88.0035" rx="44.0017" transform="rotate(-107.668 4.57598 809.508)" stroke="#C173FF" stroke-width="5" shape-rendering="crispEdges"/>
</g>
<path d="M15.6476 771.992C14.6521 768.867 14.3717 766.185 14.8065 763.948C15.2332 761.685 16.4425 759.55 18.4343 757.545L21.8967 754.049C23.4867 752.451 24.0025 750.775 23.4441 749.022C23.1447 748.082 22.6137 747.426 21.8513 747.053C21.1061 746.646 20.2635 746.593 19.3234 746.892C18.1291 747.273 17.3272 747.962 16.9174 748.96C16.525 749.925 16.5594 751.131 17.0208 752.579L10.7321 754.583C9.8418 751.788 10.0316 749.264 11.3015 747.013C12.5887 744.728 14.7441 743.103 17.7678 742.14C20.7406 741.193 23.284 741.139 25.3981 741.977C27.504 742.789 28.9373 744.39 29.6981 746.778C30.7988 750.234 29.9213 753.41 27.0657 756.307L23.8718 759.591C22.9481 760.557 22.3298 761.383 22.017 762.071C21.7296 762.75 21.6005 763.575 21.6296 764.545L33.864 760.648L35.4665 765.679L15.6476 771.992ZM48.8855 762.035C45.5824 763.087 42.7906 763.108 40.5102 762.1C38.2552 761.083 36.6623 759.113 35.7316 756.191L41.9441 754.212C42.3811 755.584 43.0727 756.526 44.0189 757.036C44.9904 757.538 46.1368 757.579 47.4581 757.158C48.5761 756.802 49.3683 756.214 49.8347 755.393C50.3265 754.565 50.4105 753.643 50.0868 752.626C49.3503 750.314 47.6227 749.591 44.9039 750.457L42.3122 751.282L40.8069 746.556L43.4367 745.719C45.876 744.942 46.7597 743.499 46.088 741.39C45.8047 740.501 45.2732 739.886 44.4934 739.547C43.7137 739.208 42.8283 739.196 41.8374 739.511C40.694 739.876 39.8972 740.493 39.4469 741.364C38.9886 742.21 38.9416 743.204 39.3058 744.348L33.2077 746.29C32.4145 743.8 32.6685 741.522 33.9696 739.457C35.2708 737.391 37.4586 735.868 40.533 734.889C43.3534 733.991 45.8212 733.918 47.9363 734.672C50.0515 735.426 51.4611 736.908 52.1652 739.118C53.104 742.066 52.127 744.49 49.2342 746.391C50.9575 746.178 52.4505 746.472 53.7132 747.273C55.0013 748.066 55.9044 749.276 56.4223 750.902C57.175 753.265 56.8586 755.479 55.4732 757.543C54.1051 759.575 51.9092 761.072 48.8855 762.035Z" fill="#C47BFF"/>
</g>
<path d="M-49.5261 315.665C-48.2971 312.624 -46.8012 310.382 -45.0381 308.937C-43.2651 307.467 -40.9718 306.597 -38.1581 306.324L-33.2614 305.844C-31.0175 305.629 -29.5508 304.669 -28.8614 302.963C-28.4917 302.048 -28.4813 301.204 -28.8302 300.43C-29.1443 299.641 -29.7588 299.062 -30.6735 298.693C-31.8356 298.223 -32.8929 298.242 -33.8454 298.748C-34.7633 299.24 -35.507 300.191 -36.0765 301.6L-42.1957 299.127C-41.0967 296.408 -39.3397 294.587 -36.9249 293.664C-34.4753 292.727 -31.7795 292.853 -28.8373 294.042C-25.9445 295.211 -23.952 296.793 -22.8598 298.787C-21.7575 300.757 -21.676 302.904 -22.6151 305.228C-23.974 308.59 -26.6769 310.475 -30.7241 310.882L-35.2791 311.371C-36.6067 311.524 -37.6104 311.766 -38.2899 312.095C-38.9448 312.435 -39.5707 312.987 -40.1676 313.752L-28.2629 318.563L-30.2412 323.459L-49.5261 315.665ZM-17.5857 329.22C-20.7999 327.921 -22.9626 326.155 -24.0738 323.923C-25.1603 321.701 -25.1291 319.168 -23.9801 316.325L-17.935 318.768C-18.4745 320.103 -18.543 321.269 -18.1405 322.265C-17.7133 323.272 -16.8568 324.035 -15.5711 324.555C-14.4833 324.995 -13.498 325.048 -12.6154 324.714C-11.7081 324.39 -11.0546 323.734 -10.6549 322.745C-9.74572 320.495 -10.6139 318.836 -13.2594 317.767L-15.7812 316.748L-13.9229 312.149L-11.3639 313.183C-8.99037 314.142 -7.38897 313.596 -6.5597 311.543C-6.21001 310.678 -6.22694 309.866 -6.61051 309.107C-6.99407 308.348 -7.66798 307.774 -8.63222 307.384C-9.74481 306.934 -10.7524 306.901 -11.655 307.284C-12.5476 307.642 -13.2187 308.378 -13.6683 309.491L-19.6021 307.093C-18.623 304.67 -16.9733 303.078 -14.6532 302.319C-12.333 301.56 -9.67708 301.785 -6.68545 302.994C-3.94107 304.103 -1.99539 305.622 -0.848421 307.553C0.298547 309.483 0.437412 311.524 -0.431826 313.675C-1.59081 316.543 -3.89041 317.785 -7.33063 317.401C-5.86818 318.337 -4.90672 319.517 -4.44628 320.94C-3.9611 322.373 -4.03824 323.88 -4.67768 325.463C-5.60686 327.762 -7.26364 329.264 -9.64799 329.968C-11.9976 330.658 -14.6436 330.409 -17.5857 329.22Z" fill="#C47BFF"/>
</g>
<defs>
<filter id="filter0_d_6_240" x="-53.7286" y="136.611" width="151.017" height="151.017" filterUnits="userSpaceOnUse" color-interpolation-filters="sRGB">
<feFlood flood-opacity="0" result="BackgroundImageFix"/>
<feColorMatrix in="SourceAlpha" type="matrix" values="0 0 0 0 0 0 0 0 0 0 0 0 0 0 0 0 0 0 127 0" result="hardAlpha"/>
<feOffset/>
<feGaussianBlur stdDeviation="14.5"/>
<feComposite in2="hardAlpha" operator="out"/>
<feColorMatrix type="matrix" values="0 0 0 0 0.682353 0 0 0 0 0.407843 0 0 0 0 1 0 0 0 0.5 0"/>
<feBlend mode="normal" in2="BackgroundImageFix" result="effect1_dropShadow_6_240"/>
<feBlend mode="normal" in="SourceGraphic" in2="effect1_dropShadow_6_240" result="shape"/>
</filter>
<filter id="filter1_d_6_240" x="-62.38" y="961.669" width="151.017" height="151.017" filterUnits="userSpaceOnUse" color-interpolation-filters="sRGB">
<feFlood flood-opacity="0" result="BackgroundImageFix"/>
<feColorMatrix in="SourceAlpha" type="matrix" values="0 0 0 0 0 0 0 0 0 0 0 0 0 0 0 0 0 0 127 0" result="hardAlpha"/>
<feOffset/>
<feGaussianBlur stdDeviation="14.5"/>
<feComposite in2="hardAlpha" operator="out"/>
<feColorMatrix type="matrix" values="0 0 0 0 0.682353 0 0 0 0 0.407843 0 0 0 0 1 0 0 0 0.5 0"/>
<feBlend mode="normal" in2="BackgroundImageFix" result="effect1_dropShadow_6_240"/>
<feBlend mode="normal" in="SourceGraphic" in2="effect1_dropShadow_6_240" result="shape"/>
</filter>
<filter id="filter2_d_6_240" x="-100.435" y="811.193" width="151.017" height="151.017" filterUnits="userSpaceOnUse" color-interpolation-filters="sRGB">
<feFlood flood-opacity="0" result="BackgroundImageFix"/>
<feColorMatrix in="SourceAlpha" type="matrix" values="0 0 0 0 0 0 0 0 0 0 0 0 0 0 0 0 0 0 127 0" result="hardAlpha"/>
<feOffset/>
<feGaussianBlur stdDeviation="14.5"/>
<feComposite in2="hardAlpha" operator="out"/>
<feColorMatrix type="matrix" values="0 0 0 0 0.682353 0 0 0 0 0.407843 0 0 0 0 1 0 0 0 0.5 0"/>
<feBlend mode="normal" in2="BackgroundImageFix" result="effect1_dropShadow_6_240"/>
<feBlend mode="normal" in="SourceGraphic" in2="effect1_dropShadow_6_240" result="shape"/>
</filter>
<filter id="filter3_d_6_240" x="-58.4733" y="493.226" width="151.017" height="151.017" filterUnits="userSpaceOnUse" color-interpolation-filters="sRGB">
<feFlood flood-opacity="0" result="BackgroundImageFix"/>
<feColorMatrix in="SourceAlpha" type="matrix" values="0 0 0 0 0 0 0 0 0 0 0 0 0 0 0 0 0 0 127 0" result="hardAlpha"/>
<feOffset/>
<feGaussianBlur stdDeviation="14.5"/>
<feComposite in2="hardAlpha" operator="out"/>
<feColorMatrix type="matrix" values="0 0 0 0 0.682353 0 0 0 0 0.407843 0 0 0 0 1 0 0 0 0.5 0"/>
<feBlend mode="normal" in2="BackgroundImageFix" result="effect1_dropShadow_6_240"/>
<feBlend mode="normal" in="SourceGraphic" in2="effect1_dropShadow_6_240" result="shape"/>
</filter>
<filter id="filter4_d_6_240" x="-64.2865" y="343.47" width="151.023" height="151.023" filterUnits="userSpaceOnUse" color-interpolation-filters="sRGB">
<feFlood flood-opacity="0" result="BackgroundImageFix"/>
<feColorMatrix in="SourceAlpha" type="matrix" values="0 0 0 0 0 0 0 0 0 0 0 0 0 0 0 0 0 0 127 0" result="hardAlpha"/>
<feOffset/>
<feGaussianBlur stdDeviation="14.5"/>
<feComposite in2="hardAlpha" operator="out"/>
<feColorMatrix type="matrix" values="0 0 0 0 0.682353 0 0 0 0 0.407843 0 0 0 0 1 0 0 0 0.5 0"/>
<feBlend mode="normal" in2="BackgroundImageFix" result="effect1_dropShadow_6_240"/>
<feBlend mode="normal" in="SourceGraphic" in2="effect1_dropShadow_6_240" result="shape"/>
</filter>
<filter id="filter5_d_6_240" x="-82.0863" y="1147.7" width="151.023" height="151.023" filterUnits="userSpaceOnUse" color-interpolation-filters="sRGB">
<feFlood flood-opacity="0" result="BackgroundImageFix"/>
<feColorMatrix in="SourceAlpha" type="matrix" values="0 0 0 0 0 0 0 0 0 0 0 0 0 0 0 0 0 0 127 0" result="hardAlpha"/>
<feOffset/>
<feGaussianBlur stdDeviation="14.5"/>
<feComposite in2="hardAlpha" operator="out"/>
<feColorMatrix type="matrix" values="0 0 0 0 0.682353 0 0 0 0 0.407843 0 0 0 0 1 0 0 0 0.5 0"/>
<feBlend mode="normal" in2="BackgroundImageFix" result="effect1_dropShadow_6_240"/>
<feBlend mode="normal" in="SourceGraphic" in2="effect1_dropShadow_6_240" result="shape"/>
</filter>
<filter id="filter6_d_6_240" x="-102.536" y="0.318871" width="151.028" height="151.028" filterUnits="userSpaceOnUse" color-interpolation-filters="sRGB">
<feFlood flood-opacity="0" result="BackgroundImageFix"/>
<feColorMatrix in="SourceAlpha" type="matrix" values="0 0 0 0 0 0 0 0 0 0 0 0 0 0 0 0 0 0 127 0" result="hardAlpha"/>
<feOffset/>
<feGaussianBlur stdDeviation="14.5"/>
<feComposite in2="hardAlpha" operator="out"/>
<feColorMatrix type="matrix" values="0 0 0 0 0.682353 0 0 0 0 0.407843 0 0 0 0 1 0 0 0 0.5 0"/>
<feBlend mode="normal" in2="BackgroundImageFix" result="effect1_dropShadow_6_240"/>
<feBlend mode="normal" in="SourceGraphic" in2="effect1_dropShadow_6_240" result="shape"/>
</filter>
<filter id="filter7_d_6_240" x="-42.3663" y="678.713" width="151.028" height="151.028" filterUnits="userSpaceOnUse" color-interpolation-filters="sRGB">
<feFlood flood-opacity="0" result="BackgroundImageFix"/>
<feColorMatrix in="SourceAlpha" type="matrix" values="0 0 0 0 0 0 0 0 0 0 0 0 0 0 0 0 0 0 127 0" result="hardAlpha"/>
<feOffset/>
<feGaussianBlur stdDeviation="14.5"/>
<feComposite in2="hardAlpha" operator="out"/>
<feColorMatrix type="matrix" values="0 0 0 0 0.682353 0 0 0 0 0.407843 0 0 0 0 1 0 0 0 0.5 0"/>
<feBlend mode="normal" in2="BackgroundImageFix" result="effect1_dropShadow_6_240"/>
<feBlend mode="normal" in="SourceGraphic" in2="effect1_dropShadow_6_240" result="shape"/>
</filter>
</defs>
</svg>
