<svg width="241" height="814" viewBox="0 0 241 814" fill="none" xmlns="http://www.w3.org/2000/svg">
<path d="M258.211 83.1972C257.652 83.4863 256.965 83.2745 256.675 82.7147L248.216 66.3685C247.932 65.8199 248.151 65.1248 248.71 64.8357C249.28 64.5406 249.968 64.7525 250.257 65.3123L258.722 81.6697C258.994 82.2242 258.77 82.9081 258.211 83.1972ZM241.163 91.0679C240.605 91.3571 239.917 91.1452 239.627 90.5854L231.945 75.7395C231.661 75.1909 231.885 74.507 232.444 74.2179C233.014 73.9228 233.702 74.1346 233.986 74.6833L241.668 89.5292C241.946 90.0949 241.722 90.7788 241.163 91.0679ZM232.121 94.0154C231.562 94.3045 230.863 94.0986 230.573 93.5388L224.305 81.4247C224.021 80.8761 224.245 80.1922 224.815 79.8972C225.374 79.608 226.062 79.8198 226.346 80.3684L232.62 92.4938C232.916 93.0365 232.691 93.7204 232.121 94.0154ZM252.189 81.757C251.631 82.0462 250.943 81.8343 250.653 81.2745L245.914 72.1162C245.63 71.5675 245.854 70.8837 246.413 70.5945C246.972 70.3054 247.671 70.5113 247.955 71.0599L252.694 80.2183C252.967 80.7728 252.748 81.4679 252.189 81.757ZM260.305 77.0465C259.746 77.3356 259.047 77.1297 258.763 76.5811L254.435 68.2176C254.151 67.669 254.376 66.9852 254.946 66.6901C255.505 66.401 256.192 66.6128 256.476 67.1614L260.798 75.5137C261.088 76.0735 260.864 76.7573 260.305 77.0465ZM243.454 85.2979C242.884 85.5929 242.196 85.3811 241.906 84.8213L237.961 77.1968C237.677 76.6482 237.896 75.9531 238.466 75.6581C239.025 75.3689 239.712 75.5807 240.002 76.1405L243.948 83.7651C244.249 84.319 244.024 85.0028 243.454 85.2979ZM234.51 88.4074C233.951 88.6965 233.263 88.4847 232.98 87.9361L230.274 82.7075C229.99 82.1589 230.214 81.475 230.773 81.1859C231.332 80.8968 232.02 81.1086 232.304 81.6572L235.003 86.8746C235.293 87.4344 235.069 88.1182 234.51 88.4074ZM246.614 81.2072C246.055 81.4963 245.356 81.2904 245.066 80.7306L243.125 76.9799C242.841 76.4313 243.06 75.7363 243.63 75.4412C244.189 75.1521 244.877 75.3639 245.166 75.9237L247.107 79.6744C247.408 80.2283 247.184 80.9122 246.614 81.2072Z" fill="#5BD9E4"/>
<path d="M272.629 83.4014C270.234 84.6406 267.305 83.7291 266.094 81.3892L254.547 59.0754C253.331 56.7242 254.296 53.8119 256.679 52.5787C259.074 51.3395 261.997 52.2398 263.214 54.5909L274.76 76.9047C275.971 79.2447 275.023 82.1623 272.629 83.4014ZM257.716 54.5828C256.45 55.2377 255.945 56.7764 256.589 58.0192L268.135 80.333C268.778 81.5757 270.326 82.0523 271.592 81.3973C272.857 80.7424 273.362 79.2037 272.719 77.9609L261.172 55.6471C260.529 54.4044 258.982 53.9278 257.716 54.5828ZM228.773 106.095C226.39 107.329 223.45 106.423 222.239 104.083L210.692 81.7693C209.475 79.4182 210.429 76.5117 212.823 75.2726C215.218 74.0334 218.141 74.9337 219.358 77.2848L230.905 99.5986C232.116 101.939 231.168 104.856 228.773 106.095ZM213.861 77.2767C212.595 77.9316 212.09 79.4703 212.733 80.7131L224.28 103.027C224.923 104.27 226.471 104.746 227.736 104.091C229.002 103.436 229.507 101.898 228.864 100.655L217.317 78.341C216.674 77.0983 215.126 76.6217 213.861 77.2767ZM276.634 76.4179C276.099 76.084 275.958 75.3909 276.303 74.8573C278.036 72.2004 278.116 68.6107 276.499 65.487L273.539 59.7658C271.922 56.6421 268.946 54.6337 265.776 54.5141C265.141 54.4879 264.657 53.9718 264.693 53.3429C264.729 52.7139 265.258 52.2273 265.893 52.2535C269.887 52.401 273.593 54.8693 275.58 58.7095L278.54 64.4307C280.528 68.271 280.408 72.7331 278.216 76.0675C277.882 76.5953 277.174 76.7631 276.634 76.4179ZM219.719 106.338C215.725 106.19 212.019 103.722 210.032 99.8819L207.071 94.1607C205.084 90.3204 205.204 85.8583 207.396 82.5239C207.742 81.9902 208.444 81.8395 208.978 82.1734C209.513 82.5074 209.654 83.2005 209.309 83.7341C207.576 86.391 207.496 89.9807 209.113 93.1044L212.073 98.8256C213.69 101.949 216.666 103.958 219.836 104.077C220.471 104.104 220.955 104.62 220.919 105.249C220.895 105.872 220.354 106.364 219.719 106.338ZM265.024 50.6307L260.103 50.4236C259.702 50.4037 259.341 50.1794 259.155 49.8211C253.379 38.6586 237.088 31.9292 222.037 39.7181C206.985 47.5069 203.069 64.6923 208.846 75.8548C209.025 76.2019 209.005 76.6098 208.813 76.9364L206.561 80.7419C206.351 81.0915 205.975 81.3145 205.558 81.3177C205.151 81.315 204.767 81.1024 204.57 80.75C204.24 80.1685 196.575 66.1936 201.001 51.9516C203.495 43.9192 209.362 37.4622 218.439 32.7653C227.493 28.0802 236.187 27.002 244.264 29.5646C258.618 34.1165 265.833 48.3951 266.135 49.0056C266.309 49.3698 266.283 49.7948 266.051 50.1279C265.824 50.444 265.436 50.6446 265.024 50.6307ZM260.884 48.1886L263.069 48.2782C260.699 44.3951 254.07 35.0503 243.505 31.7029C236.036 29.3369 227.954 30.3681 219.47 34.7582C210.975 39.1542 205.499 45.1388 203.185 52.5676C199.946 62.987 203.82 73.6012 205.678 77.7781L206.521 76.3624C200.658 64.2227 204.967 46.0103 220.988 37.7199C237.003 29.4183 254.348 36.397 260.884 48.1886Z" fill="white"/>
<path d="M187.425 424.956C188.351 425.49 188.679 426.716 188.145 427.642C180.566 440.768 185.087 457.639 198.213 465.218C199.139 465.752 199.467 466.978 198.933 467.904C198.372 468.836 197.173 469.158 196.247 468.623C181.236 459.957 176.072 440.686 184.732 425.649C185.274 424.75 186.473 424.428 187.425 424.956ZM235.249 412.141C250.26 420.808 255.423 440.078 246.764 455.115C246.203 456.048 245.004 456.369 244.078 455.835C243.145 455.274 242.824 454.075 243.358 453.149C250.937 440.023 246.416 423.151 233.29 415.573C232.364 415.038 232.036 413.813 232.57 412.887C233.124 411.928 234.323 411.607 235.249 412.141ZM196.55 430.224C197.476 430.759 197.805 431.984 197.27 432.91C192.593 441.011 195.381 451.415 203.482 456.092C204.414 456.653 204.736 457.852 204.201 458.778C203.641 459.711 202.441 460.032 201.515 459.498C191.53 453.733 188.093 440.903 193.858 430.918C194.399 430.018 195.599 429.697 196.55 430.224ZM230.006 421.26C239.992 427.025 243.422 439.828 237.664 449.84C237.104 450.772 235.904 451.094 234.979 450.559C234.02 450.006 233.698 448.806 234.259 447.873C238.936 439.773 236.148 429.368 228.047 424.691C227.095 424.164 226.767 422.938 227.328 422.006C227.829 421.061 229.055 420.732 230.006 421.26ZM205.418 435.366C206.37 435.894 206.699 437.119 206.138 438.052C204.286 441.259 205.39 445.379 208.598 447.231C209.549 447.759 209.878 448.984 209.317 449.917C208.783 450.843 207.557 451.171 206.631 450.637C201.54 447.697 199.786 441.152 202.726 436.06C203.26 435.134 204.46 434.813 205.418 435.366ZM224.871 430.154C229.963 433.094 231.717 439.639 228.777 444.731C228.217 445.663 227.017 445.985 226.091 445.45C225.166 444.916 224.837 443.69 225.372 442.764C227.223 439.557 226.119 435.437 222.912 433.586C221.953 433.032 221.658 431.826 222.193 430.9C222.739 429.915 223.939 429.593 224.871 430.154ZM214.018 435.438C216.808 434.69 219.685 436.351 220.432 439.141C221.18 441.931 219.519 444.808 216.729 445.555C213.939 446.303 211.062 444.642 210.315 441.852C209.541 439.069 211.228 436.185 214.018 435.438ZM215.716 441.774C216.42 441.586 216.814 440.865 216.632 440.187C216.443 439.483 215.723 439.089 215.045 439.271C214.341 439.46 213.921 440.187 214.103 440.865C214.284 441.543 215.012 441.963 215.716 441.774Z" fill="#08C855"/>
<path d="M236.748 718.133C236.789 718.546 236.644 718.969 236.323 719.272C235.77 719.793 234.901 719.766 234.379 719.214C221.053 705.006 220.369 692.37 220.347 691.824C220.311 691.067 220.901 690.427 221.659 690.4C222.415 690.365 223.042 690.98 223.09 691.703C223.103 691.833 223.805 703.919 236.39 717.335C236.6 717.56 236.719 717.85 236.748 718.133ZM230.817 731.01C230.859 731.423 230.714 731.847 230.392 732.149C229.84 732.67 228.971 732.644 228.449 732.091C218.169 721.182 204.914 726.351 204.78 726.405C204.081 726.688 203.279 726.352 202.995 725.645C202.703 724.938 203.056 724.143 203.755 723.86C203.904 723.796 218.898 717.952 230.451 730.213C230.669 730.429 230.788 730.719 230.817 731.01ZM224.635 686.184C224.481 686.682 224.069 687.059 223.546 687.144L218.604 687.994L216.495 692.547C216.273 693.019 215.805 693.328 215.283 693.34C214.761 693.351 214.275 693.065 214.032 692.607L211.696 688.166L206.715 687.572C206.194 687.51 205.758 687.162 205.585 686.664C205.411 686.158 205.537 685.622 205.9 685.242L209.405 681.652L208.435 676.73C208.333 676.2 208.535 675.689 208.944 675.37C209.362 675.05 209.921 675.002 210.386 675.233L214.885 677.454L219.267 675.009C219.723 674.751 220.281 674.776 220.712 675.076C221.142 675.368 221.375 675.892 221.296 676.407L220.569 681.37L224.249 684.784C224.645 685.145 224.789 685.686 224.635 686.184ZM215.177 688.87L216.419 686.186C216.606 685.775 216.986 685.483 217.428 685.414L220.346 684.916L218.173 682.903C217.839 682.593 217.679 682.143 217.75 681.703L218.174 678.774L215.589 680.22C215.194 680.439 214.721 680.454 214.308 680.25L211.658 678.939L212.229 681.842C212.324 682.298 212.181 682.746 211.862 683.072L209.794 685.185L212.731 685.535C213.178 685.589 213.573 685.859 213.786 686.263L215.177 688.87ZM201.724 730.891C201.579 731.396 201.167 731.773 200.653 731.865L196.696 732.591L195.046 736.264C194.833 736.744 194.365 737.052 193.844 737.072C193.323 737.092 192.829 736.815 192.586 736.349L190.676 732.805L186.674 732.366C186.154 732.312 185.71 731.964 185.538 731.474C185.359 730.994 185.474 730.434 185.837 730.054L188.61 727.151L187.788 723.211C187.68 722.707 187.872 722.173 188.289 721.853C188.698 721.533 189.256 721.469 189.729 721.699L193.355 723.444L196.849 721.448C197.305 721.19 197.863 721.207 198.301 721.498C198.731 721.79 198.97 722.289 198.892 722.82L198.354 726.807L201.332 729.508C201.727 729.86 201.871 730.402 201.724 730.891ZM193.688 732.599L194.497 730.809C194.685 730.398 195.056 730.107 195.505 730.021L197.44 729.671L195.991 728.353C195.65 728.052 195.49 727.602 195.552 727.155L195.813 725.207L194.113 726.18C193.719 726.407 193.246 726.422 192.834 726.227L191.064 725.375L191.462 727.297C191.555 727.737 191.422 728.2 191.111 728.526L189.758 729.946L191.709 730.158C192.156 730.211 192.55 730.474 192.77 730.869L193.688 732.599ZM189.258 708.829C189.28 709.048 189.247 709.28 189.162 709.493C188.965 709.979 188.508 710.303 187.98 710.34L185.811 710.484L184.708 712.353C184.443 712.805 183.945 713.06 183.418 713.023C182.899 712.985 182.448 712.646 182.253 712.167L181.444 710.148L179.328 709.674C178.818 709.562 178.419 709.169 178.294 708.658C178.171 708.163 178.344 707.615 178.752 707.279L180.418 705.885L180.217 703.722C180.165 703.204 180.416 702.697 180.863 702.423C181.309 702.149 181.873 702.149 182.311 702.432L184.152 703.588L186.15 702.724C186.628 702.521 187.184 702.604 187.586 702.939C187.989 703.283 188.157 703.814 188.027 704.318L187.495 706.423L188.928 708.061C189.113 708.28 189.231 708.554 189.258 708.829ZM183.762 708.565L183.818 708.47C184.048 708.078 184.457 707.833 184.911 707.795L185.025 707.792L184.952 707.71C184.655 707.363 184.544 706.908 184.655 706.472L184.685 706.363L184.583 706.406C184.168 706.587 183.69 706.545 183.306 706.306L183.21 706.25L183.222 706.363C183.267 706.808 183.082 707.252 182.735 707.54L182.635 707.599L182.743 707.621C183.186 707.716 183.553 708.03 183.718 708.447L183.762 708.565Z" fill="#9A4AFF"/>
<path d="M266.945 756.576C266.589 756.939 266.064 757.081 265.575 756.934L228.621 746.144C227.889 745.932 227.477 745.172 227.689 744.439C227.902 743.707 228.662 743.295 229.394 743.507L263.853 753.56L252.738 719.499C252.503 718.787 252.89 718.004 253.618 717.767C254.338 717.531 255.114 717.927 255.35 718.647L267.27 755.178C267.422 755.71 267.286 756.231 266.945 756.576ZM257.994 701.711C257.755 702.176 257.277 702.47 256.754 702.465L255.182 702.444L254.281 703.728C253.981 704.159 253.463 704.374 252.948 704.295C252.433 704.216 252.003 703.843 251.855 703.343L251.385 701.845L249.892 701.382C249.394 701.228 249.023 700.799 248.939 700.284C248.871 699.776 249.072 699.249 249.5 698.952L250.782 698.047L250.763 696.479C250.759 695.956 251.046 695.477 251.513 695.242C251.98 695.007 252.54 695.049 252.957 695.367L254.212 696.303L255.698 695.802C256.774 695.44 257.801 696.465 257.435 697.54L256.931 699.03L257.867 700.285C258.185 700.686 258.233 701.245 257.994 701.711ZM253.626 699.984C253.77 699.871 253.941 699.781 254.116 699.73C254.049 699.557 254.022 699.372 254.028 699.183C253.841 699.194 253.658 699.163 253.48 699.099C253.432 699.276 253.343 699.448 253.227 699.591C253.393 699.697 253.529 699.83 253.626 699.984ZM258.548 741.961C258.624 742.714 258.071 743.391 257.318 743.467L240.378 745.173C239.626 745.248 238.949 744.695 238.873 743.943C238.797 743.19 239.342 742.514 240.103 742.437L257.043 740.731C257.796 740.655 258.473 741.208 258.548 741.961ZM254.286 729.751C254.361 730.503 253.808 731.18 253.055 731.256L249.227 731.642C248.474 731.718 247.797 731.164 247.722 730.412C247.646 729.659 248.191 728.983 248.952 728.906L252.78 728.521C253.533 728.445 254.21 728.998 254.286 729.751ZM250.989 720.722C249.56 725.207 246.477 729.908 242.307 733.966C238.138 738.024 233.359 740.982 228.838 742.288C224.024 743.68 220.021 743.061 217.567 740.537C214.996 737.893 214.575 733.472 216.403 728.407C216.658 727.694 217.447 727.329 218.16 727.584C218.873 727.848 219.246 728.628 218.982 729.341C217.525 733.379 217.727 736.76 219.533 738.622C221.247 740.379 224.276 740.744 228.081 739.642C232.172 738.453 236.551 735.739 240.4 731.991C244.249 728.243 247.087 723.943 248.378 719.881C249.576 716.114 249.295 713.076 247.58 711.311C246.522 710.224 244.97 709.669 242.968 709.675C242.208 709.678 241.605 709.051 241.595 708.3C241.592 707.54 242.209 706.93 242.969 706.927C245.699 706.922 247.977 707.78 249.554 709.396C252.401 712.338 252.238 716.802 250.989 720.722ZM240.047 685.139C239.893 685.637 239.455 686 238.94 686.076L237.256 686.328L236.511 687.858C236.281 688.331 235.804 688.624 235.281 688.628C234.758 688.631 234.278 688.336 234.043 687.869L233.285 686.351L231.602 686.112C231.088 686.041 230.65 685.677 230.495 685.185C230.339 684.694 230.463 684.142 230.835 683.778L232.048 682.585L231.756 680.905C231.665 680.407 231.881 679.871 232.299 679.559C232.718 679.255 233.285 679.206 233.743 679.446L235.26 680.225L236.766 679.428C237.767 678.894 238.948 679.748 238.767 680.87L238.486 682.541L239.709 683.726C240.073 684.098 240.21 684.648 240.047 685.139ZM235.27 684.222C235.422 684.027 235.629 683.884 235.857 683.795C235.722 683.588 235.641 683.359 235.632 683.107C235.393 683.171 235.148 683.172 234.904 683.106C234.897 683.352 234.814 683.59 234.68 683.799C234.917 683.882 235.12 684.025 235.27 684.222ZM236.097 710.375C236.153 710.933 235.866 711.485 235.336 711.743L234.737 712.049C234.061 712.403 233.234 712.143 232.88 711.467C232.526 710.792 232.786 709.964 233.461 709.61L234.122 709.274C234.808 708.943 235.629 709.22 235.96 709.906C236.033 710.062 236.082 710.221 236.097 710.375ZM228.782 716.074L227.906 715.009L228.744 716.102C228.163 716.586 227.275 716.536 226.784 715.965C226.292 715.385 226.339 714.554 226.911 714.063L227.915 715.017L228.782 716.074ZM223.762 720.545C223.797 720.893 223.702 721.246 223.47 721.539L223.036 722.098C222.573 722.7 221.71 722.82 221.108 722.357C220.505 721.895 220.395 721.039 220.848 720.429L221.319 719.826C221.791 719.231 222.656 719.136 223.251 719.607C223.553 719.846 223.727 720.189 223.762 720.545ZM208.268 715.499C208.289 715.71 208.263 715.933 208.177 716.138C207.989 716.623 207.541 716.962 207.014 717.007L206.317 717.069L205.969 717.677C205.712 718.128 205.216 718.398 204.698 718.369C204.172 718.34 203.714 718.01 203.51 717.532L203.241 716.888L202.557 716.753C202.048 716.649 201.632 716.257 201.508 715.755C201.377 715.261 201.542 714.713 201.941 714.37L202.468 713.917L202.389 713.222C202.27 712.686 202.572 712.198 203.017 711.907C203.455 711.626 204.018 711.619 204.471 711.892L205.072 712.256L205.705 711.964C206.182 711.752 206.737 711.827 207.138 712.155C207.54 712.49 207.724 713.02 207.604 713.53L207.443 714.209L207.912 714.726C208.121 714.934 208.24 715.216 208.268 715.499Z" fill="#5BD9E4"/>
<path d="M235.547 710.43C235.58 710.762 235.409 711.098 235.09 711.253L234.483 711.559C234.079 711.771 233.581 711.617 233.369 711.213C233.165 710.809 233.311 710.312 233.715 710.099L234.36 709.773C234.766 709.577 235.264 709.739 235.461 710.152C235.512 710.246 235.537 710.333 235.547 710.43Z" fill="#83ECF6"/>
<path d="M228.428 715.652C228.081 715.941 227.508 715.933 227.221 715.594C226.932 715.247 226.917 714.774 227.264 714.486L227.801 715.11L227.31 714.449L227.915 715.017L228.428 715.652Z" fill="#83ECF6"/>
<path d="M223.211 720.601C223.232 720.803 223.18 721.021 223.034 721.199L222.593 721.767C222.319 722.13 221.802 722.198 221.439 721.924C221.077 721.65 221.008 721.133 221.282 720.771L221.746 720.176C222.029 719.821 222.546 719.76 222.902 720.043C223.087 720.18 223.189 720.382 223.211 720.601Z" fill="#83ECF6"/>
<path d="M239.531 684.971C239.43 685.267 239.174 685.489 238.868 685.536L236.903 685.824L236.028 687.613C235.893 687.896 235.6 688.073 235.29 688.071C234.979 688.07 234.691 687.895 234.549 687.615L233.666 685.831L231.701 685.555C231.386 685.513 231.135 685.293 231.032 685.001C230.935 684.692 231.017 684.373 231.241 684.154L232.662 682.76L232.317 680.8C232.271 680.502 232.386 680.18 232.644 679.991C232.895 679.802 233.237 679.784 233.513 679.928L235.273 680.846L236.826 680.027C237.196 679.81 237.49 679.723 237.791 679.873C238.092 680.022 238.306 680.353 238.235 680.785L237.901 682.748L239.324 684.133C239.533 684.341 239.623 684.667 239.531 684.971ZM235.273 685.392L235.605 684.712C235.728 684.471 235.956 684.301 236.222 684.258L236.963 684.15L236.42 683.625C236.22 683.432 236.136 683.163 236.183 682.896L236.304 682.156L235.637 682.51C235.396 682.632 235.11 682.636 234.869 682.514L234.204 682.164L234.336 682.902C234.386 683.159 234.292 683.438 234.098 683.629L233.563 684.158L234.309 684.262C234.575 684.301 234.812 684.465 234.934 684.706L235.273 685.392Z" fill="#83ECF6"/>
<path d="M207.725 715.554C207.739 715.684 207.719 715.816 207.674 715.935C207.564 716.224 207.291 716.432 206.974 716.455L205.993 716.538L205.507 717.396C205.355 717.673 205.06 717.825 204.74 717.809C204.427 717.791 204.154 717.598 204.027 717.308L203.641 716.399L202.682 716.209C202.373 716.15 202.129 715.913 202.049 715.611C201.978 715.307 202.068 714.987 202.309 714.783L203.053 714.136L202.947 713.158C202.896 712.901 203.056 712.542 203.325 712.367C203.586 712.202 203.929 712.192 204.198 712.353L205.043 712.865L205.723 712.551C205.85 712.44 206.007 712.367 206.193 712.348C206.654 712.302 207.098 712.65 207.095 713.108C207.108 713.237 207.106 713.303 207.083 713.395L206.861 714.358L207.523 715.084C207.635 715.22 207.708 715.384 207.725 715.554Z" fill="#83ECF6"/>
<path d="M235.005 710.485C235.016 710.599 234.962 710.71 234.853 710.762C234.642 710.865 234.44 710.967 234.231 711.078C234.099 711.149 233.929 711.092 233.859 710.96C233.788 710.829 233.837 710.66 233.977 710.589C234.186 710.478 234.397 710.375 234.607 710.272C234.739 710.201 234.908 710.258 234.98 710.398C234.99 710.421 235.001 710.453 235.005 710.485Z" fill="#D7FCFF"/>
<path d="M222.67 720.655C222.676 720.72 222.659 720.795 222.616 720.857C222.464 721.052 222.312 721.247 222.167 721.433C222.074 721.557 221.904 721.574 221.781 721.489C221.665 721.394 221.639 721.217 221.725 721.102C221.877 720.907 222.029 720.711 222.181 720.516C222.276 720.4 222.445 720.375 222.569 720.469C222.631 720.512 222.662 720.582 222.67 720.655Z" fill="#FFDAFD"/>
<path d="M239.007 684.802C238.976 684.904 238.886 684.978 238.789 684.988L236.533 685.321L235.529 687.368C235.482 687.463 235.389 687.521 235.283 687.524C235.177 687.526 235.081 687.462 235.039 687.369L234.024 685.329L231.768 685.008C231.66 684.995 231.579 684.921 231.545 684.826C231.51 684.715 231.54 684.614 231.615 684.541L233.245 682.946L232.855 680.705C232.829 680.609 232.875 680.498 232.959 680.441C233.043 680.375 233.157 680.372 233.252 680.42L235.271 681.475L237.219 680.445C237.367 680.373 237.446 680.341 237.558 680.395C237.644 680.443 237.711 680.543 237.686 680.692L237.307 682.938L238.946 684.522C239.012 684.606 239.03 684.71 239.007 684.802ZM235.284 686.633L236.104 684.956C236.145 684.878 236.221 684.821 236.309 684.804L238.154 684.529L236.813 683.233C236.749 683.166 236.716 683.079 236.739 682.987L237.045 681.149L235.399 682.018C235.322 682.059 235.224 682.06 235.146 682.019L233.489 681.156L233.814 682.995C233.839 683.083 233.799 683.177 233.732 683.241L232.4 684.544L234.249 684.807C234.341 684.823 234.411 684.873 234.453 684.959L235.284 686.633Z" fill="#D7FBFF"/>
<path d="M207.175 715.61C207.179 715.65 207.176 715.7 207.155 715.735C207.116 715.837 207.025 715.903 206.919 715.906L205.647 716.017L205.015 717.127C204.959 717.223 204.866 717.273 204.759 717.268C204.652 717.262 204.564 717.197 204.522 717.104L204.027 715.927L202.775 715.669C202.674 715.646 202.593 715.573 202.567 715.469C202.533 715.374 202.57 715.256 202.653 715.191L203.616 714.358L203.471 713.089C203.461 712.984 203.509 712.889 203.593 712.831C203.685 712.773 203.791 712.771 203.887 712.826L204.975 713.485L206.061 712.992C206.107 712.954 206.162 712.932 206.218 712.927C206.372 712.911 206.506 713.02 206.521 713.174C206.521 713.174 206.522 713.182 206.523 713.19C206.526 713.223 206.521 713.248 206.516 713.281L206.232 714.52L207.087 715.464C207.148 715.498 207.17 715.553 207.175 715.61ZM204.824 716.37L205.247 715.624C205.289 715.547 205.373 715.489 205.463 715.488L206.322 715.418L205.743 714.781C205.679 714.714 205.661 714.618 205.677 714.535L205.871 713.697L205.089 714.054C205.004 714.095 204.913 714.088 204.834 714.039L204.095 713.598L204.19 714.455C204.199 714.544 204.166 714.629 204.099 714.693L203.445 715.258L204.288 715.435C204.38 715.45 204.452 715.516 204.484 715.595L204.824 716.37Z" fill="#D7FBFF"/>
<path d="M260.38 747.075C260.456 747.827 259.903 748.505 259.15 748.58L254.537 749.045C253.784 749.121 253.107 748.568 253.031 747.815C252.955 747.062 253.509 746.385 254.261 746.309L258.875 745.845C259.627 745.769 260.304 746.322 260.38 747.075ZM256.517 736.075C256.592 736.82 256.055 737.495 255.303 737.579L243.152 738.934C242.4 739.017 241.715 738.473 241.632 737.721C241.632 737.721 241.631 737.713 241.63 737.705C241.555 736.961 242.092 736.285 242.844 736.201L254.995 734.847C255.747 734.763 256.432 735.307 256.516 736.059C256.516 736.067 256.517 736.075 256.517 736.075ZM243.788 716.591C243.836 717.076 243.625 717.572 243.197 717.868C242.57 718.3 241.711 718.133 241.288 717.505C231.904 703.725 236.842 692.354 237.056 691.883C237.362 691.19 238.182 690.887 238.867 691.194C239.552 691.501 239.871 692.311 239.556 693.005C239.37 693.424 235.071 703.505 243.552 715.96C243.694 716.151 243.766 716.372 243.788 716.591ZM231.377 722.762C231.423 723.224 231.234 723.701 230.839 723.994C230.23 724.448 229.368 724.33 228.915 723.73C215.903 706.547 192.927 707.095 192.699 707.101C191.941 707.129 191.318 706.464 191.281 705.773C191.254 705.015 191.852 704.382 192.61 704.355C193.612 704.32 217.249 703.762 231.111 722.07C231.263 722.283 231.353 722.52 231.377 722.762ZM213.713 744.474C213.739 744.733 213.691 744.991 213.569 745.232C213.329 745.698 212.852 745.991 212.328 745.987L210.855 745.971L210.012 747.176C209.712 747.607 209.194 747.823 208.679 747.744C208.164 747.665 207.735 747.299 207.578 746.8L207.143 745.397L205.742 744.966C205.244 744.811 204.875 744.391 204.79 743.876C204.715 743.369 204.923 742.841 205.35 742.536L206.548 741.68L206.522 740.211C206.511 739.689 206.806 739.209 207.264 738.967C207.731 738.732 208.291 738.774 208.706 739.083L209.89 739.961L211.281 739.486C211.771 739.314 212.323 739.438 212.695 739.81C213.067 740.173 213.196 740.724 213.025 741.215L212.561 742.611L213.447 743.781C213.598 743.986 213.688 744.223 213.713 744.474ZM209.345 743.483C209.46 743.398 209.592 743.335 209.727 743.289C209.68 743.155 209.658 743.018 209.66 742.871C209.513 742.869 209.372 742.851 209.237 742.807C209.193 742.942 209.124 743.072 209.046 743.186C209.16 743.264 209.26 743.361 209.345 743.483ZM205.255 694.914C205.135 695.425 204.733 695.817 204.23 695.933L202.336 696.369L201.618 698.166C201.429 698.651 200.972 698.984 200.454 699.028C199.935 699.072 199.434 698.811 199.169 698.364L198.175 696.698L196.241 696.574C195.723 696.544 195.265 696.215 195.061 695.728C194.865 695.249 194.948 694.693 195.293 694.299L196.568 692.838L196.093 690.964C195.959 690.446 196.135 689.922 196.534 689.579C196.933 689.236 197.489 689.156 197.968 689.361L199.745 690.122L201.381 689.083C201.828 688.809 202.383 688.802 202.836 689.075C203.281 689.349 203.528 689.856 203.489 690.366L203.316 692.297L204.806 693.537C205.2 693.873 205.376 694.411 205.255 694.914ZM200.095 694.575C200.266 694.239 200.559 693.989 200.908 693.88C200.645 693.621 200.494 693.26 200.497 692.883C200.163 693.056 199.782 693.086 199.426 692.967C199.488 693.337 199.395 693.714 199.18 694.013C199.546 694.075 199.877 694.278 200.095 694.575Z" fill="white"/>
<path d="M204.718 694.788C204.642 695.09 204.404 695.327 204.101 695.398L201.927 695.895L201.105 697.965C200.988 698.254 200.713 698.454 200.406 698.485C200.089 698.508 199.795 698.35 199.63 698.089L198.489 696.176L196.267 696.032C195.955 696.014 195.681 695.813 195.562 695.523C195.443 695.232 195.499 694.899 195.705 694.666L197.171 692.99L196.618 690.83C196.547 690.534 196.645 690.206 196.878 690.002C197.119 689.798 197.449 689.749 197.74 689.875L199.79 690.747L201.481 689.678C201.817 689.44 202.091 689.322 202.422 689.444C202.753 689.566 202.971 689.863 202.937 690.332L202.735 692.552L204.448 693.974C204.688 694.17 204.787 694.495 204.718 694.788ZM200.193 695.808L200.559 694.889C200.656 694.642 200.874 694.448 201.138 694.389L202.105 694.169L201.346 693.534C201.14 693.358 201.032 693.091 201.054 692.827L201.142 691.837L200.305 692.371C200.075 692.517 199.79 692.538 199.543 692.432L198.629 692.042L198.873 693.006C198.932 693.27 198.87 693.546 198.695 693.752L198.042 694.496L199.029 694.56C199.301 694.582 199.545 694.729 199.683 694.96L200.193 695.808Z" fill="white"/>
<path d="M213.17 744.528C213.185 744.682 213.16 744.84 213.085 744.987C212.941 745.263 212.656 745.439 212.345 745.437L210.586 745.418L209.57 746.861C209.391 747.116 209.078 747.246 208.771 747.203C208.455 747.153 208.204 746.933 208.108 746.632L207.579 744.952L205.9 744.435C205.597 744.343 205.375 744.087 205.328 743.781C205.287 743.458 205.404 743.16 205.664 742.979L207.098 741.96L207.069 740.205C207.061 739.887 207.236 739.599 207.516 739.457C207.796 739.314 208.134 739.337 208.382 739.525L209.795 740.568L211.226 740.081C211.34 739.996 211.481 739.94 211.635 739.925C212.096 739.878 212.492 740.239 212.537 740.684C212.537 740.848 212.537 740.93 212.5 741.048L211.94 742.715L212.998 744.121C213.099 744.233 213.155 744.383 213.17 744.528ZM209.182 744.546L209.482 744.115C209.639 743.895 209.896 743.763 210.166 743.768L210.69 743.773L210.378 743.354C210.218 743.142 210.172 742.852 210.253 742.598L210.416 742.108L209.926 742.28C209.674 742.371 209.383 742.326 209.17 742.16L208.747 741.851L208.758 742.373C208.761 742.642 208.632 742.901 208.41 743.054L207.983 743.358L208.481 743.513C208.742 743.593 208.942 743.793 209.026 744.055L209.182 744.546Z" fill="#E6E7E8"/>
<path d="M242.694 716.701C242.704 716.798 242.664 716.892 242.572 716.95C242.442 717.037 242.275 717.005 242.189 716.882C233.151 703.608 237.995 692.443 238.049 692.332C238.117 692.194 238.274 692.129 238.412 692.197C238.549 692.265 238.607 692.431 238.546 692.56C238.5 692.67 233.776 703.562 242.641 716.583C242.677 716.613 242.689 716.652 242.694 716.701Z" fill="white"/>
</svg>
