<svg width="180" height="430" viewBox="0 0 180 430" fill="none" xmlns="http://www.w3.org/2000/svg">
<path d="M28.7808 21.366C30.3771 22.9367 32.4091 23.9995 35.0461 24.8846C32.4089 25.7697 30.3767 26.8325 28.7802 28.4032C27.1642 29.9931 26.0759 32.0232 25.1691 34.6619C24.2623 32.0234 23.174 29.9936 21.558 28.4038C19.9613 26.8331 17.9288 25.7703 15.2913 24.885C17.9288 23.9998 19.9614 22.937 21.558 21.3661C23.1742 19.776 24.2626 17.7457 25.1694 15.1065C26.0765 17.7456 27.1648 19.776 28.7808 21.366Z" stroke="#511682" stroke-width="3"/>
<path d="M28.3989 397.208C27.5957 396.941 27.1542 396.079 27.422 395.274L35.2397 371.776C35.5021 370.987 36.3773 370.546 37.1805 370.813C38.0001 371.086 38.4416 371.948 38.1739 372.752L30.3508 396.267C30.072 397.05 29.2021 397.475 28.3989 397.208ZM4.80897 388.162C4.00576 387.895 3.56427 387.033 3.832 386.228L10.9323 364.887C11.1946 364.098 12.0645 363.673 12.8677 363.94C13.6873 364.212 14.1288 365.074 13.8664 365.863L6.76617 387.205C6.48204 388.004 5.61218 388.429 4.80897 388.162ZM-6.52032 382.212C-7.32352 381.945 -7.78141 381.078 -7.51368 380.273L-1.71996 362.858C-1.45758 362.07 -0.587716 361.644 0.231884 361.917C1.03509 362.184 1.47659 363.046 1.21421 363.835L-4.58487 381.265C-4.83085 382.059 -5.70072 382.485 -6.52032 382.212ZM24.1347 390.051C23.3315 389.784 22.89 388.922 23.1577 388.117L27.5378 374.952C27.8002 374.163 28.67 373.738 29.4733 374.005C30.2765 374.272 30.7343 375.139 30.472 375.928L26.0919 389.094C25.8131 389.877 24.9379 390.319 24.1347 390.051ZM36.2936 393.453C35.4904 393.186 35.0325 392.318 35.2949 391.53L39.2948 379.507C39.5572 378.718 40.427 378.293 41.2466 378.565C42.0499 378.833 42.4913 379.695 42.229 380.483L38.2344 392.49C37.9667 393.295 37.0968 393.72 36.2936 393.453ZM12.5216 384.954C11.702 384.682 11.2605 383.82 11.5282 383.015L15.1747 372.054C15.4371 371.266 16.3123 370.824 17.1319 371.097C17.9352 371.364 18.3766 372.226 18.1089 373.031L14.4624 383.991C14.2111 384.801 13.3412 385.227 12.5216 384.954ZM1.12838 379.251C0.325174 378.984 -0.11632 378.122 0.146057 377.333L2.64667 369.817C2.90905 369.028 3.77892 368.603 4.58212 368.87C5.38533 369.137 5.82683 369.999 5.56445 370.788L3.06919 378.288C2.80146 379.093 1.93159 379.518 1.12838 379.251ZM19.431 384.16C18.6278 383.893 18.1699 383.026 18.4377 382.221L20.2315 376.829C20.4938 376.041 21.3691 375.599 22.1887 375.872C22.9919 376.139 23.4334 377.001 23.1656 377.805L21.3718 383.197C21.1205 384.007 20.2506 384.433 19.431 384.16Z" fill="#5BD9E4"/>
<path d="M41.7359 411.298C38.2936 410.153 36.4226 406.474 37.5417 403.11L48.2135 371.033C49.338 367.653 53.0513 365.85 56.4773 366.99C59.9196 368.135 61.7959 371.798 60.6714 375.178L49.9996 407.255C48.8805 410.619 45.1782 412.444 41.7359 411.298ZM55.5188 369.871C53.6993 369.265 51.7421 370.223 51.1477 372.01L40.4759 404.086C39.8815 405.873 40.8749 407.812 42.6944 408.417C44.5139 409.023 46.4711 408.065 47.0655 406.279L57.7373 374.202C58.3316 372.415 57.3383 370.476 55.5188 369.871ZM-21.3077 390.324C-24.7336 389.184 -26.621 385.499 -25.5019 382.136L-14.8301 350.059C-13.7056 346.679 -10.0087 344.87 -6.56637 346.015C-3.12405 347.161 -1.2477 350.824 -2.37217 354.204L-13.044 386.28C-14.1631 389.644 -17.8654 391.469 -21.3077 390.324ZM-7.52485 348.896C-9.34436 348.291 -11.3016 349.249 -11.8959 351.035L-22.5677 383.112C-23.1621 384.898 -22.1687 386.838 -20.3492 387.443C-18.5297 388.048 -16.5725 387.091 -15.9781 385.304L-5.30634 353.227C-4.71198 351.441 -5.70534 349.502 -7.52485 348.896ZM52.2272 408.604C52.0477 407.775 52.5827 406.988 53.4214 406.82C57.6097 405.997 61.1449 402.704 62.6388 398.214L65.375 389.989C66.869 385.499 66.0111 380.744 63.1508 377.576C62.5798 376.939 62.6231 375.988 63.2631 375.432C63.9032 374.877 64.8687 374.93 65.4397 375.567C69.0466 379.555 70.1458 385.445 68.3092 390.965L65.573 399.19C63.7363 404.71 59.3225 408.783 54.0503 409.8C53.228 409.973 52.4014 409.448 52.2272 408.604ZM-30.0406 381.823C-33.6475 377.835 -34.7468 371.945 -32.9101 366.425L-30.1739 358.2C-28.3373 352.68 -23.9235 348.607 -18.6513 347.59C-17.8126 347.422 -17.0077 347.958 -16.8282 348.786C-16.6486 349.615 -17.1837 350.402 -18.0224 350.57C-22.2106 351.393 -25.7458 354.686 -27.2398 359.177L-29.976 367.401C-31.4699 371.891 -30.6121 376.646 -27.7518 379.814C-27.1808 380.451 -27.224 381.402 -27.8641 381.958C-28.4877 382.519 -29.4696 382.46 -30.0406 381.823ZM66.1887 373.206L61.7689 368.268C61.412 367.863 61.2886 367.303 61.46 366.788C66.7985 350.742 57.994 328.721 36.3566 321.522C14.7191 314.324 -5.52294 326.681 -10.8615 342.727C-11.0275 343.226 -11.4397 343.59 -11.9352 343.711L-17.7176 345.112C-18.2512 345.238 -18.8193 345.085 -19.2143 344.685C-19.593 344.291 -19.7491 343.721 -19.5942 343.201C-19.3432 342.337 -13.0667 321.829 4.81782 312.728C14.9016 307.591 26.6338 307.186 39.6818 311.527C52.697 315.858 61.8974 323.227 67.009 333.418C76.0951 351.529 69.1034 371.888 68.7978 372.751C68.6101 373.261 68.1761 373.635 67.6368 373.724C67.1193 373.802 66.562 373.616 66.1887 373.206ZM64.6562 366.922L66.6217 369.113C68.1396 363.183 70.9261 348.021 64.2359 334.695C59.5052 325.273 50.9243 318.45 38.7287 314.392C26.5166 310.329 15.6074 310.668 6.27376 315.411C-6.81072 322.069 -13.4069 335.767 -15.6895 341.479L-13.5333 340.962C-7.33383 323.915 14.2679 310.974 37.2986 318.636C60.3348 326.282 69.8885 349.553 64.6562 366.922Z" fill="white"/>
</svg>
