<svg width="2516" height="2592" viewBox="0 0 2516 2592" fill="none" xmlns="http://www.w3.org/2000/svg">
<path d="M1305.48 612.17C1342.83 595.318 1386.96 611.969 1403.83 649.346C1404.48 650.9 1403.84 652.64 1402.33 653.335C1400.82 654.03 1399.04 653.346 1398.34 651.838C1382.85 617.513 1342.31 602.193 1307.99 617.683C1306.48 618.378 1304.69 617.694 1304 616.187C1303.27 614.506 1304.08 612.799 1305.48 612.17ZM1312.23 627.103C1341.36 613.97 1375.73 626.971 1388.9 656.09C1389.52 657.655 1388.91 659.385 1387.4 660.079C1385.89 660.774 1384.1 660.09 1383.41 658.583C1371.64 632.478 1340.84 620.845 1314.73 632.616C1313.22 633.311 1311.44 632.627 1310.74 631.119C1310.02 629.438 1310.83 627.759 1312.23 627.103ZM1318.86 641.799C1339.89 632.31 1364.71 641.683 1374.2 662.72C1374.86 664.301 1374.21 666.014 1372.7 666.709C1371.19 667.404 1369.41 666.719 1368.71 665.212C1360.59 647.2 1339.33 639.168 1321.32 647.295C1319.81 647.962 1318.03 647.305 1317.33 645.798C1316.63 644.107 1317.45 642.428 1318.86 641.799Z" fill="#17FFE3"/>
<path d="M1297.35 2145.04C1295.56 2144.45 1294.57 2142.52 1295.17 2140.73L1312.62 2088.29C1313.2 2086.53 1315.16 2085.54 1316.95 2086.14C1318.78 2086.75 1319.76 2088.67 1319.16 2090.47L1301.71 2142.94C1301.08 2144.69 1299.14 2145.64 1297.35 2145.04ZM1244.71 2124.86C1242.92 2124.26 1241.93 2122.34 1242.53 2120.54L1258.37 2072.92C1258.96 2071.16 1260.9 2070.21 1262.69 2070.8C1264.52 2071.41 1265.51 2073.34 1264.92 2075.1L1249.08 2122.72C1248.44 2124.5 1246.5 2125.45 1244.71 2124.86ZM1219.43 2111.58C1217.64 2110.98 1216.61 2109.05 1217.21 2107.25L1230.14 2068.39C1230.73 2066.63 1232.67 2065.68 1234.5 2066.29C1236.29 2066.89 1237.27 2068.81 1236.69 2070.57L1223.75 2109.47C1223.2 2111.24 1221.26 2112.19 1219.43 2111.58ZM1287.84 2129.07C1286.04 2128.48 1285.06 2126.55 1285.66 2124.76L1295.43 2095.38C1296.02 2093.62 1297.96 2092.67 1299.75 2093.26C1301.54 2093.86 1302.56 2095.8 1301.98 2097.56L1292.2 2126.93C1291.58 2128.68 1289.63 2129.67 1287.84 2129.07ZM1314.97 2136.66C1313.18 2136.07 1312.15 2134.13 1312.74 2132.37L1321.67 2105.54C1322.25 2103.78 1324.19 2102.83 1326.02 2103.44C1327.81 2104.04 1328.8 2105.96 1328.21 2107.72L1319.3 2134.51C1318.7 2136.31 1316.76 2137.26 1314.97 2136.66ZM1261.92 2117.7C1260.09 2117.09 1259.11 2115.17 1259.7 2113.37L1267.84 2088.91C1268.43 2087.15 1270.38 2086.17 1272.21 2086.77C1274 2087.37 1274.99 2089.29 1274.39 2091.09L1266.25 2115.55C1265.69 2117.36 1263.75 2118.31 1261.92 2117.7ZM1236.5 2104.97C1234.7 2104.37 1233.72 2102.45 1234.3 2100.69L1239.88 2083.92C1240.47 2082.16 1242.41 2081.21 1244.2 2081.81C1246 2082.4 1246.98 2084.33 1246.4 2086.08L1240.83 2102.82C1240.23 2104.62 1238.29 2105.57 1236.5 2104.97ZM1277.34 2115.93C1275.55 2115.33 1274.53 2113.39 1275.12 2111.6L1279.13 2099.57C1279.71 2097.81 1281.66 2096.82 1283.49 2097.43C1285.29 2098.03 1286.27 2099.95 1285.67 2101.75L1281.67 2113.78C1281.11 2115.58 1279.17 2116.53 1277.34 2115.93Z" fill="#5BD9E4"/>
<path d="M1327.11 2176.48C1319.43 2173.93 1315.26 2165.72 1317.75 2158.21L1341.57 2086.63C1344.08 2079.09 1352.36 2075.07 1360.01 2077.61C1367.69 2080.17 1371.88 2088.34 1369.37 2095.88L1345.55 2167.46C1343.06 2174.97 1334.79 2179.04 1327.11 2176.48ZM1357.87 2084.04C1353.81 2082.69 1349.44 2084.82 1348.11 2088.81L1324.3 2160.39C1322.97 2164.38 1325.19 2168.71 1329.25 2170.06C1333.31 2171.41 1337.68 2169.27 1339 2165.28L1362.82 2093.7C1364.15 2089.72 1361.93 2085.39 1357.87 2084.04ZM1186.43 2129.68C1178.78 2127.14 1174.57 2118.91 1177.07 2111.41L1200.88 2039.83C1203.39 2032.29 1211.64 2028.25 1219.33 2030.81C1227.01 2033.36 1231.19 2041.54 1228.68 2049.08L1204.87 2120.66C1202.37 2128.16 1194.11 2132.24 1186.43 2129.68ZM1217.19 2037.23C1213.13 2035.88 1208.76 2038.02 1207.43 2042.01L1183.62 2113.59C1182.29 2117.57 1184.51 2121.9 1188.57 2123.25C1192.63 2124.6 1197 2122.47 1198.32 2118.48L1222.14 2046.9C1223.46 2042.91 1221.25 2038.59 1217.19 2037.23ZM1350.52 2170.47C1350.12 2168.62 1351.32 2166.87 1353.19 2166.49C1362.53 2164.65 1370.42 2157.31 1373.76 2147.29L1379.86 2128.93C1383.2 2118.91 1381.28 2108.3 1374.9 2101.23C1373.63 2099.81 1373.72 2097.69 1375.15 2096.45C1376.58 2095.21 1378.73 2095.33 1380.01 2096.75C1388.06 2105.65 1390.51 2118.79 1386.41 2131.11L1380.3 2149.46C1376.21 2161.78 1366.36 2170.87 1354.59 2173.14C1352.76 2173.53 1350.91 2172.36 1350.52 2170.47ZM1166.94 2110.71C1158.89 2101.81 1156.44 2088.67 1160.54 2076.35L1166.64 2058C1170.74 2045.68 1180.59 2036.59 1192.36 2034.32C1194.23 2033.94 1196.03 2035.14 1196.43 2036.99C1196.83 2038.84 1195.63 2040.59 1193.76 2040.97C1184.41 2042.81 1176.53 2050.15 1173.19 2060.17L1167.09 2078.53C1163.75 2088.55 1165.67 2099.16 1172.05 2106.23C1173.32 2107.65 1173.23 2109.77 1171.8 2111.01C1170.41 2112.26 1168.22 2112.13 1166.94 2110.71ZM1381.68 2091.48L1371.82 2080.46C1371.02 2079.56 1370.74 2078.31 1371.13 2077.16C1383.04 2041.35 1363.39 1992.21 1315.11 1976.15C1266.82 1960.08 1221.65 1987.66 1209.74 2023.47C1209.37 2024.58 1208.45 2025.39 1207.34 2025.66L1194.44 2028.79C1193.25 2029.07 1191.98 2028.73 1191.1 2027.84C1190.26 2026.96 1189.91 2025.69 1190.25 2024.52C1190.81 2022.6 1204.82 1976.83 1244.73 1956.52C1267.23 1945.06 1293.41 1944.16 1322.53 1953.85C1351.57 1963.51 1372.1 1979.95 1383.51 2002.7C1403.78 2043.11 1388.18 2088.54 1387.5 2090.47C1387.08 2091.6 1386.11 2092.44 1384.91 2092.64C1383.75 2092.81 1382.51 2092.4 1381.68 2091.48ZM1378.26 2077.46L1382.64 2082.35C1386.03 2069.11 1392.25 2035.28 1377.32 2005.54C1366.76 1984.52 1347.62 1969.29 1320.4 1960.24C1293.15 1951.17 1268.81 1951.93 1247.98 1962.51C1218.78 1977.37 1204.06 2007.94 1198.97 2020.68L1203.78 2019.53C1217.61 1981.49 1265.82 1952.61 1317.21 1969.71C1368.62 1986.77 1389.93 2038.7 1378.26 2077.46Z" fill="white"/>
<path d="M1370.69 213.173C1369.4 213.818 1367.83 213.296 1367.18 212.014C1365.01 207.7 1359.76 205.962 1355.44 208.131L1320.64 225.638C1316.32 227.807 1314.58 233.063 1316.75 237.376C1317.4 238.659 1316.88 240.236 1315.59 240.88C1314.31 241.525 1312.73 241.004 1312.09 239.722C1308.63 232.844 1311.42 224.457 1318.28 221.01L1333.36 213.423L1316.83 180.55L1307.78 185.099C1296.24 190.904 1282.15 186.221 1276.35 174.704L1240.77 103.944C1234.96 92.403 1239.64 78.3051 1251.16 72.5126L1273.19 61.4318C1284.73 55.6275 1298.83 60.3096 1304.62 71.8271L1332 126.267C1332.65 127.549 1332.13 129.126 1330.84 129.771C1329.56 130.416 1327.99 129.894 1327.34 128.612L1325.08 124.112L1307.45 132.977C1306.17 133.622 1304.59 133.1 1303.95 131.818C1303.3 130.536 1303.82 128.959 1305.11 128.314L1322.73 119.449L1318.03 110.1L1300.4 118.965C1299.12 119.61 1297.55 119.088 1296.9 117.806C1296.26 116.524 1296.78 114.947 1298.06 114.302L1315.69 105.437L1310.98 96.0881L1293.36 104.953C1292.07 105.598 1290.5 105.076 1289.85 103.794C1289.21 102.511 1289.73 100.935 1291.01 100.29L1308.64 91.4251L1303.94 82.0759L1286.31 90.9406C1285.03 91.5855 1283.45 91.064 1282.81 89.7817C1282.16 88.4993 1282.68 86.9225 1283.97 86.2776L1301.59 77.413L1299.94 74.1256C1296.36 67.0146 1288.72 63.2628 1281.24 64.249L1286.12 73.9479C1286.76 75.2302 1286.24 76.807 1284.96 77.4519C1283.68 78.0969 1282.1 77.5753 1281.46 76.293L1276.13 65.7082C1275.92 65.8137 1275.69 65.931 1275.48 66.0365L1266.78 70.4102L1272.11 80.9951C1272.75 82.2774 1272.23 83.8542 1270.95 84.4991C1269.67 85.144 1268.09 84.6225 1267.44 83.3402L1262.12 72.7553L1253.47 77.1056C1253.26 77.2111 1253.03 77.3283 1252.82 77.4339L1258.14 88.0187C1258.79 89.3011 1258.26 90.8779 1256.98 91.5228C1255.7 92.1677 1254.12 91.6462 1253.48 90.3639L1248.6 80.665C1243.35 86.081 1241.8 94.4528 1245.38 101.564L1247.03 104.851L1264.66 95.9865C1265.94 95.3416 1267.52 95.8631 1268.16 97.1454C1268.81 98.4277 1268.29 100.005 1267.01 100.649L1249.38 109.514L1254.08 118.863L1271.71 109.999C1272.99 109.354 1274.57 109.875 1275.21 111.158C1275.86 112.44 1275.34 114.017 1274.05 114.662L1256.43 123.526L1261.13 132.875L1278.75 124.011C1280.04 123.366 1281.61 123.887 1282.26 125.17C1282.9 126.452 1282.38 128.029 1281.1 128.674L1263.47 137.538L1268.18 146.888L1285.8 138.023C1287.08 137.378 1288.66 137.9 1289.31 139.182C1289.95 140.464 1289.43 142.041 1288.15 142.686L1270.52 151.551L1280.99 172.371C1285.51 181.347 1296.47 184.974 1305.45 180.46L1327.48 169.379C1335.88 165.158 1339.7 155.053 1336.21 146.355C1335.68 145.014 1336.36 143.472 1337.66 142.967C1339 142.438 1340.52 143.077 1341.04 144.418C1345.53 155.6 1340.6 168.625 1329.83 174.042L1321.5 178.228L1338.04 211.102L1353.12 203.515C1360 200.056 1368.39 202.849 1371.83 209.704C1372.49 210.951 1371.97 212.528 1370.69 213.173Z" fill="white"/>
<path d="M1313.93 164.858C1308.55 167.567 1301.94 165.4 1299.22 159.991C1296.51 154.605 1298.68 147.994 1304.09 145.274C1308.72 142.94 1314.28 144.235 1317.46 148.102C1321.13 146.401 1330.48 141.174 1335.1 129.294C1338.56 120.427 1335.44 112.241 1333.52 108.476C1333.11 108.71 1332.68 108.957 1332.26 109.168C1330.97 109.812 1329.4 109.291 1328.75 108.009L1310.3 71.3113C1309.65 70.029 1310.17 68.4522 1311.46 67.8073C1311.73 67.6666 1312.04 67.5141 1312.33 67.3967C1304.53 54.6118 1285.43 39.7643 1255.94 54.5973C1226.42 69.442 1226.99 93.6349 1232.6 107.522C1233.06 107.264 1233.49 107.018 1233.96 106.784C1235.24 106.139 1236.82 106.66 1237.46 107.942L1255.92 144.64C1256.56 145.922 1256.04 147.499 1254.76 148.144C1243.36 153.878 1229.41 149.265 1223.68 137.864C1219.01 128.585 1221.19 117.644 1228.32 110.788C1219.38 90.98 1223.69 65.0018 1253.58 49.9694C1283.4 34.9722 1306.8 46.8686 1317.39 65.7859C1327.32 63.8603 1337.73 68.6444 1342.49 78.1102C1347.18 87.4361 1344.94 98.4938 1337.71 105.315C1340.04 109.546 1344.38 119.748 1339.92 131.196C1334.64 144.747 1324.31 150.7 1319.67 152.8C1320.72 157.56 1318.46 162.583 1313.93 164.858ZM1306.43 149.937C1303.61 151.356 1302.46 154.825 1303.88 157.646C1305.3 160.467 1308.77 161.614 1311.59 160.195C1314.43 158.765 1315.56 155.307 1314.14 152.486C1312.72 149.665 1309.25 148.518 1306.43 149.937ZM1316.23 71.4842L1332.16 103.169C1339.34 98.1568 1341.94 88.4637 1337.9 80.4201C1334.06 72.7962 1325.48 69.0816 1317.53 71.061C1317.14 71.3186 1316.66 71.4715 1316.23 71.4842ZM1233.11 113.52C1226.69 118.705 1224.52 127.86 1228.38 135.531C1232.42 143.574 1241.75 147.264 1250.06 144.49L1234.11 112.782C1233.83 112.981 1233.53 113.192 1233.26 113.414C1233.21 113.438 1233.14 113.473 1233.11 113.52Z" fill="#5BD9E4"/>
<path d="M1168.29 2418.86C1232.77 2406.81 1295.09 2449.44 1307.15 2513.96C1307.57 2516.63 1305.91 2519.09 1303.31 2519.6C1300.7 2520.11 1298.18 2518.37 1297.67 2515.76C1286.59 2456.5 1229.35 2417.3 1170.09 2428.38C1167.49 2428.89 1164.97 2427.15 1164.46 2424.54C1163.96 2421.65 1165.86 2419.3 1168.29 2418.86ZM1173.12 2444.64C1223.4 2435.26 1271.94 2468.51 1281.37 2518.79C1281.74 2521.46 1280.13 2523.92 1277.53 2524.43C1274.92 2524.94 1272.4 2523.19 1271.89 2520.59C1263.48 2475.52 1219.98 2445.75 1174.92 2454.16C1172.31 2454.67 1169.79 2452.93 1169.28 2450.32C1168.79 2447.43 1170.7 2445.13 1173.12 2444.64ZM1177.86 2470.01C1214.17 2463.23 1249.21 2487.21 1256 2523.53C1256.42 2526.24 1254.76 2528.66 1252.16 2529.16C1249.55 2529.67 1247.03 2527.93 1246.52 2525.32C1240.71 2494.23 1210.7 2473.68 1179.61 2479.49C1176.99 2479.95 1174.48 2478.26 1173.97 2475.65C1173.53 2472.75 1175.43 2470.45 1177.86 2470.01Z" fill="#9F51ED"/>
</svg>
