<svg width="2461" height="2904" viewBox="0 0 2461 2904" fill="none" xmlns="http://www.w3.org/2000/svg">
<path d="M1411.52 2036.84C1410.08 2037.58 1408.3 2037.01 1407.56 2035.57C1405.07 2030.73 1399.13 2028.82 1394.29 2031.31L1355.23 2051.38C1350.39 2053.86 1348.48 2059.81 1350.97 2064.65C1351.71 2066.08 1351.14 2067.87 1349.7 2068.61C1348.26 2069.35 1346.48 2068.77 1345.74 2067.33C1341.77 2059.62 1344.84 2050.14 1352.53 2046.18L1369.46 2037.49L1350.5 2000.6L1340.35 2005.81C1327.4 2012.47 1311.46 2007.33 1304.82 1994.41L1264.02 1915.01C1257.37 1902.06 1262.51 1886.12 1275.43 1879.48L1300.15 1866.77C1313.1 1860.12 1329.04 1865.26 1335.68 1878.18L1367.07 1939.27C1367.81 1940.71 1367.24 1942.49 1365.8 1943.23C1364.36 1943.97 1362.58 1943.4 1361.84 1941.96L1359.24 1936.91L1339.46 1947.07C1338.03 1947.81 1336.24 1947.24 1335.5 1945.8C1334.76 1944.36 1335.34 1942.58 1336.78 1941.84L1356.55 1931.68L1351.16 1921.19L1331.39 1931.35C1329.95 1932.09 1328.16 1931.52 1327.42 1930.08C1326.69 1928.64 1327.26 1926.86 1328.7 1926.12L1348.47 1915.95L1343.08 1905.46L1323.31 1915.63C1321.87 1916.37 1320.08 1915.79 1319.34 1914.36C1318.61 1912.92 1319.18 1911.13 1320.62 1910.4L1340.4 1900.23L1335 1889.74L1315.23 1899.9C1313.79 1900.64 1312 1900.07 1311.27 1898.63C1310.53 1897.19 1311.1 1895.41 1312.54 1894.67L1332.32 1884.51L1330.42 1880.82C1326.32 1872.84 1317.67 1868.69 1309.25 1869.87L1314.84 1880.75C1315.58 1882.19 1315.01 1883.98 1313.57 1884.72C1312.13 1885.45 1310.35 1884.88 1309.61 1883.44L1303.51 1871.57C1303.27 1871.69 1303.01 1871.82 1302.78 1871.94L1293.02 1876.96L1299.12 1888.83C1299.86 1890.27 1299.29 1892.06 1297.85 1892.79C1296.41 1893.53 1294.63 1892.96 1293.89 1891.52L1287.78 1879.65L1278.08 1884.63C1277.84 1884.75 1277.58 1884.89 1277.35 1885.01L1283.45 1896.89C1284.19 1898.33 1283.62 1900.11 1282.18 1900.85C1280.74 1901.59 1278.96 1901.01 1278.22 1899.58L1272.62 1888.69C1266.76 1894.85 1265.1 1904.3 1269.2 1912.28L1271.1 1915.97L1290.88 1905.8C1292.31 1905.06 1294.1 1905.64 1294.84 1907.07C1295.58 1908.51 1295 1910.3 1293.56 1911.04L1273.79 1921.2L1279.18 1931.69L1298.95 1921.53C1300.39 1920.79 1302.18 1921.36 1302.92 1922.8C1303.65 1924.24 1303.08 1926.02 1301.64 1926.76L1281.87 1936.92L1287.26 1947.41L1307.03 1937.25C1308.47 1936.51 1310.26 1937.08 1310.99 1938.52C1311.73 1939.96 1311.16 1941.74 1309.72 1942.48L1289.94 1952.65L1295.34 1963.14L1315.11 1952.97C1316.55 1952.23 1318.34 1952.81 1319.07 1954.24C1319.81 1955.68 1319.24 1957.47 1317.8 1958.21L1298.02 1968.37L1310.03 1991.73C1315.21 2001.8 1327.6 2005.78 1337.67 2000.61L1362.4 1987.9C1371.82 1983.06 1376.03 1971.64 1372 1961.87C1371.39 1960.36 1372.15 1958.62 1373.6 1958.04C1375.11 1957.43 1376.83 1958.13 1377.44 1959.64C1382.6 1972.2 1377.17 1986.93 1365.09 1993.14L1355.75 1997.94L1374.7 2034.82L1391.63 2026.13C1399.35 2022.16 1408.82 2025.23 1412.78 2032.92C1413.53 2034.32 1412.96 2036.1 1411.52 2036.84Z" fill="white"/>
<path d="M1096.37 680.342C1094.88 681.111 1093.05 680.548 1092.28 679.058L1069.77 635.563C1069.02 634.103 1069.6 632.253 1071.09 631.484C1072.6 630.699 1074.43 631.263 1075.21 632.752L1097.73 676.277C1098.45 677.753 1097.86 679.573 1096.37 680.342ZM1051.01 701.285C1049.52 702.054 1047.69 701.491 1046.92 700.001L1026.48 660.498C1025.72 659.038 1026.32 657.218 1027.81 656.449C1029.32 655.664 1031.15 656.227 1031.91 657.687L1052.35 697.191C1053.09 698.696 1052.49 700.516 1051.01 701.285ZM1026.95 709.128C1025.46 709.897 1023.6 709.349 1022.83 707.86L1006.15 675.625C1005.39 674.166 1005.99 672.346 1007.51 671.561C1008.99 670.792 1010.82 671.355 1011.58 672.815L1028.28 705.079C1029.06 706.523 1028.46 708.343 1026.95 709.128ZM1080.35 676.51C1078.86 677.279 1077.03 676.715 1076.26 675.226L1063.65 650.857C1062.89 649.397 1063.49 647.577 1064.98 646.808C1066.46 646.038 1068.32 646.586 1069.08 648.046L1081.69 672.415C1082.41 673.891 1081.83 675.74 1080.35 676.51ZM1101.94 663.976C1100.45 664.745 1098.59 664.197 1097.84 662.737L1086.32 640.483C1085.57 639.023 1086.16 637.204 1087.68 636.418C1089.17 635.649 1091 636.213 1091.75 637.673L1103.25 659.897C1104.02 661.387 1103.43 663.206 1101.94 663.976ZM1057.1 685.932C1055.59 686.717 1053.76 686.153 1052.98 684.663L1042.49 664.375C1041.73 662.916 1042.31 661.066 1043.83 660.281C1045.32 659.512 1047.15 660.075 1047.92 661.565L1058.42 681.853C1059.22 683.327 1058.62 685.147 1057.1 685.932ZM1033.3 694.206C1031.82 694.975 1029.99 694.411 1029.23 692.952L1022.03 679.039C1021.28 677.579 1021.87 675.759 1023.36 674.99C1024.85 674.221 1026.68 674.784 1027.43 676.244L1034.62 690.127C1035.39 691.617 1034.79 693.436 1033.3 694.206ZM1065.51 675.047C1064.02 675.816 1062.16 675.268 1061.39 673.779L1056.23 663.799C1055.47 662.339 1056.05 660.489 1057.57 659.704C1059.06 658.935 1060.89 659.498 1061.66 660.988L1066.82 670.968C1067.62 672.442 1067.03 674.262 1065.51 675.047Z" fill="#5BD9E4"/>
<path d="M1134.73 680.885C1128.36 684.182 1120.57 681.757 1117.35 675.531L1086.62 616.156C1083.38 609.9 1085.95 602.151 1092.29 598.869C1098.66 595.572 1106.44 597.968 1109.68 604.224L1140.4 663.598C1143.63 669.824 1141.11 677.588 1134.73 680.885ZM1095.05 604.202C1091.68 605.945 1090.34 610.039 1092.05 613.346L1122.78 672.72C1124.49 676.027 1128.61 677.295 1131.97 675.553C1135.34 673.81 1136.69 669.715 1134.97 666.409L1104.25 607.034C1102.54 603.727 1098.42 602.459 1095.05 604.202ZM1018.04 741.271C1011.7 744.553 1003.87 742.143 1000.65 735.917L969.926 676.542C966.689 670.286 969.226 662.552 975.598 659.255C981.97 655.958 989.749 658.353 992.986 664.61L1023.71 723.984C1026.93 730.21 1024.41 737.974 1018.04 741.271ZM978.358 664.588C974.99 666.331 973.646 670.425 975.358 673.732L1006.08 733.106C1007.79 736.413 1011.91 737.681 1015.28 735.938C1018.65 734.196 1019.99 730.101 1018.28 726.794L987.555 667.42C985.844 664.113 981.726 662.845 978.358 664.588ZM1145.39 662.303C1143.97 661.414 1143.59 659.57 1144.51 658.15C1149.12 651.08 1149.33 641.529 1145.03 633.217L1137.15 617.993C1132.85 609.682 1124.93 604.338 1116.5 604.019C1114.81 603.95 1113.52 602.576 1113.62 600.903C1113.71 599.229 1115.12 597.935 1116.81 598.004C1127.44 598.397 1137.3 604.964 1142.59 615.183L1150.46 630.406C1155.75 640.625 1155.43 652.498 1149.6 661.371C1148.71 662.775 1146.83 663.221 1145.39 662.303ZM993.947 741.916C983.319 741.524 973.458 734.956 968.17 724.738L960.293 709.514C955.005 699.296 955.323 687.423 961.156 678.55C962.076 677.13 963.945 676.729 965.367 677.618C966.788 678.506 967.166 680.35 966.246 681.77C961.635 688.84 961.423 698.392 965.724 706.704L973.602 721.927C977.903 730.239 985.823 735.583 994.258 735.901C995.948 735.971 997.235 737.344 997.14 739.018C997.074 740.676 995.637 741.986 993.947 741.916ZM1114.5 593.686L1101.4 593.135C1100.34 593.082 1099.37 592.485 1098.88 591.532C1083.51 561.83 1040.16 543.924 1000.11 564.649C960.062 585.374 949.644 631.102 965.014 660.804C965.492 661.728 965.438 662.813 964.926 663.683L958.934 673.808C958.376 674.739 957.376 675.332 956.264 675.341C955.184 675.333 954.16 674.768 953.636 673.83C952.759 672.283 932.362 635.097 944.141 597.201C950.775 575.828 966.388 558.646 990.54 546.148C1014.63 533.682 1037.77 530.813 1059.26 537.631C1097.45 549.744 1116.65 587.737 1117.45 589.362C1117.92 590.331 1117.85 591.462 1117.23 592.348C1116.63 593.189 1115.59 593.723 1114.5 593.686ZM1103.48 587.188L1109.3 587.426C1102.99 577.094 1085.35 552.228 1057.24 543.321C1037.36 537.026 1015.86 539.77 993.284 551.451C970.679 563.148 956.109 579.073 949.951 598.84C941.333 626.565 951.64 654.808 956.584 665.922L958.827 662.155C943.227 629.853 954.693 581.392 997.323 559.332C1039.94 537.242 1086.09 555.812 1103.48 587.188Z" fill="white"/>
<path d="M1231.3 216.242L1176.97 245.048C1176.09 245.516 1174.98 245.174 1174.51 244.291C1174.04 243.408 1174.38 242.295 1175.26 241.827L1229.57 213.031C1230.46 212.563 1231.57 212.905 1232.04 213.788C1232.52 214.688 1232.18 215.774 1231.3 216.242Z" fill="white"/>
<path d="M1354.45 243.894L1210.82 320.051C1202.25 324.594 1191.6 321.322 1187.06 312.75L1146.43 236.128C1141.9 227.574 1145.15 216.907 1153.72 212.365L1297.35 136.208C1305.92 131.666 1316.57 134.938 1321.11 143.509L1361.75 220.148C1366.27 228.711 1363 239.361 1354.45 243.894ZM1156.57 217.733C1150.96 220.706 1148.82 227.7 1151.79 233.31L1192.43 309.949C1195.4 315.56 1202.37 317.7 1207.99 314.718L1351.62 238.561C1357.23 235.588 1359.37 228.621 1356.39 223.01L1315.75 146.354C1312.77 140.743 1305.8 138.585 1300.19 141.559L1156.56 217.715L1156.57 217.733ZM1308.8 243.477C1289.72 253.59 1265.96 246.289 1255.85 227.207C1245.73 208.125 1253.02 184.361 1272.09 174.249C1291.16 164.136 1314.92 171.437 1325.04 190.519C1335.16 209.601 1327.87 233.364 1308.8 243.477ZM1274.93 179.599C1258.81 188.143 1252.66 208.224 1261.21 224.362C1269.77 240.5 1289.85 246.67 1305.96 238.126C1322.09 229.574 1328.25 209.493 1319.69 193.354C1311.14 177.216 1291.06 171.047 1274.93 179.599ZM1298.26 223.598C1290.14 227.902 1280.02 224.793 1275.72 216.672C1271.41 208.551 1274.51 198.431 1282.63 194.127C1290.77 189.814 1300.87 192.932 1305.17 201.053C1309.48 209.175 1306.39 219.285 1298.26 223.598ZM1285.47 199.478C1280.29 202.221 1278.32 208.659 1281.06 213.836C1283.81 219.014 1290.25 220.992 1295.42 218.248C1300.6 215.504 1302.57 209.066 1299.82 203.889C1297.08 198.712 1290.64 196.734 1285.47 199.478Z" fill="#9A4AFF"/>
<path d="M1241.76 235.965L1187.43 264.771C1186.55 265.239 1185.43 264.897 1184.97 264.014C1184.5 263.131 1184.84 262.018 1185.72 261.55L1240.03 232.754C1240.91 232.286 1242.03 232.627 1242.49 233.51C1242.97 234.411 1242.64 235.497 1241.76 235.965Z" fill="white"/>
<path d="M1252.21 255.687L1197.89 284.493C1197 284.961 1195.89 284.619 1195.42 283.736C1194.95 282.853 1195.3 281.741 1196.18 281.273L1250.49 252.476C1251.37 252.008 1252.48 252.35 1252.95 253.233C1253.43 254.133 1253.1 255.219 1252.21 255.687Z" fill="white"/>
<path d="M1272.36 138.834L1154.55 138.916C1153.56 138.913 1152.73 138.109 1152.73 137.109C1152.73 136.092 1153.54 135.284 1154.56 135.295L1272.37 135.213C1273.37 135.216 1274.19 136.02 1274.19 137.02C1274.18 138.002 1273.36 138.837 1272.36 138.834Z" fill="white"/>
<path d="M1241.55 2612.62C1240.68 2612.45 1239.93 2611.88 1239.55 2611.01C1238.88 2609.51 1239.57 2607.67 1241.07 2606.89C1279.62 2587.08 1305.83 2593.33 1306.96 2593.62C1308.53 2594 1309.4 2595.65 1308.91 2597.29C1308.44 2598.93 1306.73 2599.89 1305.22 2599.55C1304.95 2599.5 1279.84 2593.63 1243.44 2612.34C1242.83 2612.65 1242.15 2612.73 1241.55 2612.62ZM1219.63 2592.08C1218.76 2591.92 1218.01 2591.35 1217.62 2590.48C1216.96 2588.98 1217.65 2587.13 1219.15 2586.36C1248.78 2571.04 1247.85 2539.55 1247.83 2539.23C1247.76 2537.56 1249.03 2536.05 1250.67 2535.88C1252.32 2535.69 1253.69 2536.93 1253.76 2538.59C1253.78 2538.95 1254.83 2574.57 1221.52 2591.78C1220.93 2592.12 1220.25 2592.19 1219.63 2592.08ZM1315.34 2606.23C1314.44 2605.59 1313.97 2604.48 1314.17 2603.31L1316.02 2592.23L1308.27 2584.94C1307.47 2584.18 1307.18 2582.99 1307.54 2581.87C1307.89 2580.74 1308.83 2579.88 1309.93 2579.64L1320.66 2577.36L1325.47 2567.07C1325.98 2566 1327 2565.28 1328.14 2565.21C1329.29 2565.15 1330.29 2565.75 1330.8 2566.75L1335.58 2576.44L1346.3 2577.37C1347.45 2577.47 1348.34 2578.22 1348.69 2579.29C1349.04 2580.37 1348.74 2581.6 1347.93 2582.45L1340.16 2590.71L1341.97 2601.57C1342.16 2602.71 1341.71 2603.88 1340.78 2604.62C1339.88 2605.36 1338.64 2605.54 1337.65 2605.06L1328.08 2600.48L1318.47 2606.26C1317.45 2606.88 1316.24 2606.86 1315.34 2606.23ZM1316.71 2584.37L1321.28 2588.66C1321.98 2589.31 1322.3 2590.3 1322.12 2591.29L1321.02 2597.83L1326.69 2594.42C1327.56 2593.89 1328.59 2593.83 1329.44 2594.24L1335.09 2596.94L1334.02 2590.53C1333.86 2589.55 1334.17 2588.53 1334.88 2587.77L1339.47 2582.91L1333.15 2582.36C1332.15 2582.28 1331.34 2581.7 1330.91 2580.82L1328.1 2575.11L1325.27 2581.18C1324.84 2582.1 1324 2582.78 1323.02 2582.99L1316.71 2584.37ZM1240.91 2529.96C1239.99 2529.34 1239.52 2528.23 1239.7 2527.08L1241.09 2518.17L1234.8 2512.4C1233.98 2511.66 1233.69 2510.47 1234.03 2509.34C1234.37 2508.21 1235.29 2507.33 1236.41 2507.09L1245.01 2505.17L1248.79 2496.89C1249.28 2495.81 1250.31 2495.07 1251.43 2495C1252.54 2494.91 1253.59 2495.5 1254.1 2496.51L1258.01 2504.21L1266.62 2504.86C1267.72 2504.93 1268.67 2505.67 1269.02 2506.76C1269.38 2507.83 1269.1 2509.06 1268.29 2509.93L1262.12 2516.61L1263.66 2525.3C1263.85 2526.44 1263.41 2527.62 1262.51 2528.38C1261.6 2529.12 1260.41 2529.32 1259.39 2528.83L1251.66 2525.25L1244.01 2529.96C1243.01 2530.59 1241.8 2530.57 1240.91 2529.96ZM1243.25 2511.74L1246.3 2514.56C1247.01 2515.21 1247.33 2516.18 1247.18 2517.2L1246.49 2521.55L1250.22 2519.25C1251.08 2518.71 1252.11 2518.64 1252.98 2519.04L1256.76 2520.79L1256.01 2516.56C1255.83 2515.58 1256.14 2514.56 1256.83 2513.8L1259.85 2510.54L1255.65 2510.22C1254.68 2510.15 1253.84 2509.58 1253.4 2508.72L1251.49 2504.96L1249.65 2509C1249.22 2509.92 1248.4 2510.6 1247.43 2510.83L1243.25 2511.74ZM1294.83 2516.78C1294.37 2516.69 1293.92 2516.48 1293.55 2516.17C1292.7 2515.45 1292.37 2514.27 1292.68 2513.12L1293.95 2508.4L1290.95 2504.9C1290.22 2504.06 1290.06 2502.84 1290.52 2501.73C1290.97 2500.65 1291.98 2499.89 1293.1 2499.77L1297.8 2499.27L1300.29 2495.04C1300.89 2494.01 1301.98 2493.4 1303.11 2493.44C1304.2 2493.48 1305.19 2494.19 1305.58 2495.27L1307.21 2499.68L1311.76 2500.57C1312.85 2500.77 1313.7 2501.62 1313.94 2502.74C1314.17 2503.86 1313.76 2505.07 1312.87 2505.83L1309.19 2509.06L1309.5 2513.86C1309.57 2515.01 1309 2516.15 1308.03 2516.8C1307.04 2517.45 1305.83 2517.48 1304.9 2516.9L1301 2514.48L1296.63 2516.54C1296.05 2516.8 1295.41 2516.89 1294.83 2516.78ZM1299.34 2505.19L1299.49 2505.37C1300.12 2506.1 1300.33 2507.12 1300.08 2508.12L1300 2508.36L1300.22 2508.26C1301.14 2507.83 1302.15 2507.87 1302.95 2508.38L1303.16 2508.51L1303.14 2508.26C1303.07 2507.27 1303.5 2506.27 1304.27 2505.59L1304.45 2505.42L1304.21 2505.38C1303.27 2505.2 1302.51 2504.54 1302.17 2503.62L1302.12 2503.37L1302 2503.59C1301.49 2504.48 1300.58 2505.07 1299.61 2505.17L1299.34 2505.19Z" fill="#9A4AFF"/>
<path d="M1141.48 2653.7C1141 2652.72 1141.09 2651.51 1141.74 2650.55L1190.42 2578.15C1191.38 2576.71 1193.23 2576.29 1194.56 2577.19C1195.9 2578.09 1196.19 2579.97 1195.23 2581.41L1149.85 2648.93L1227.21 2645.96C1228.83 2645.9 1230.15 2647.2 1230.1 2648.9C1230.06 2650.59 1228.69 2652 1227.06 2652.07L1144.09 2655.25C1142.89 2655.25 1141.93 2654.64 1141.48 2653.7ZM1259.62 2668.06C1258.84 2667.26 1258.59 2666.06 1258.98 2664.95L1260.16 2661.6L1258.2 2658.89C1257.54 2657.99 1257.47 2656.75 1258.01 2655.7C1258.54 2654.64 1259.61 2653.95 1260.73 2653.94L1264.12 2653.85L1266.14 2650.94C1266.82 2649.97 1267.96 2649.44 1269.07 2649.57C1270.15 2649.74 1271.08 2650.49 1271.37 2651.58L1272.29 2654.88L1275.49 2655.8C1276.56 2656.11 1277.33 2657.01 1277.47 2658.15C1277.61 2659.3 1277.12 2660.47 1276.17 2661.16L1273.36 2663.28L1273.3 2666.76C1273.26 2669.28 1270.43 2670.85 1268.51 2669.41L1265.84 2667.42L1262.61 2668.66C1261.57 2669.09 1260.39 2668.86 1259.62 2668.06ZM1266.29 2659.78C1266.42 2660.15 1266.48 2660.57 1266.45 2660.98C1266.85 2660.94 1267.25 2661 1267.63 2661.12C1267.74 2660.72 1267.94 2660.35 1268.2 2660C1267.87 2659.79 1267.58 2659.5 1267.38 2659.16C1267.04 2659.45 1266.67 2659.66 1266.29 2659.78ZM1177.29 2644.67C1175.71 2644.38 1174.73 2642.78 1175.12 2641.13L1183.9 2603.87C1184.29 2602.22 1185.9 2601.11 1187.49 2601.4C1189.07 2601.7 1190.06 2603.28 1189.66 2604.95L1180.89 2642.21C1180.5 2643.86 1178.88 2644.97 1177.29 2644.67ZM1205.23 2643.01C1203.64 2642.72 1202.66 2641.12 1203.05 2639.47L1205.04 2631.05C1205.43 2629.39 1207.04 2628.28 1208.63 2628.58C1210.22 2628.88 1211.2 2630.46 1210.8 2632.13L1208.82 2640.55C1208.43 2642.2 1206.82 2643.31 1205.23 2643.01ZM1225.99 2641.48C1217.89 2635.69 1210.56 2626.23 1205.31 2614.84C1200.07 2603.45 1197.5 2591.42 1198.11 2580.96C1198.76 2569.82 1202.91 2561.64 1209.82 2557.94C1217.06 2554.05 1226.37 2555.85 1235.35 2562.85C1236.62 2563.83 1236.79 2565.74 1235.76 2567.11C1234.71 2568.48 1232.85 2568.8 1231.59 2567.8C1224.42 2562.22 1217.4 2560.58 1212.3 2563.31C1207.49 2565.9 1204.55 2572.15 1204.04 2580.96C1203.51 2590.43 1205.86 2601.45 1210.71 2611.96C1215.55 2622.48 1222.25 2631.17 1229.59 2636.41C1236.39 2641.27 1242.78 2642.53 1247.61 2639.94C1250.58 2638.34 1252.84 2635.36 1254.27 2631.08C1254.82 2629.45 1256.53 2628.54 1258.06 2628.98C1259.61 2629.44 1260.41 2631.13 1259.86 2632.76C1257.9 2638.6 1254.51 2642.94 1250.08 2645.33C1242.03 2649.62 1233.06 2646.54 1225.99 2641.48ZM1306.32 2639.81C1305.42 2639.18 1305 2638.02 1305.22 2636.87L1305.92 2633.12L1303.35 2630.59C1302.55 2629.81 1302.3 2628.61 1302.67 2627.49C1303.04 2626.37 1303.99 2625.53 1305.11 2625.31L1308.74 2624.62L1310.45 2621.16C1310.96 2620.11 1312.02 2619.4 1313.14 2619.36C1314.25 2619.33 1315.28 2619.93 1315.75 2620.95L1317.31 2624.27L1320.93 2624.67C1322.01 2624.78 1322.95 2625.57 1323.28 2626.65C1323.6 2627.74 1323.29 2628.98 1322.47 2629.81L1319.78 2632.58L1320.32 2636.28C1320.68 2638.75 1318.09 2640.75 1315.94 2639.68L1312.74 2638.06L1309.44 2639.95C1308.42 2640.5 1307.2 2640.46 1306.32 2639.81ZM1311.64 2630.16C1311.93 2630.6 1312.07 2631.13 1312.09 2631.67C1312.61 2631.51 1313.13 2631.48 1313.65 2631.61C1313.69 2631.06 1313.87 2630.54 1314.18 2630.06C1313.68 2629.89 1313.26 2629.57 1312.93 2629.16C1312.59 2629.61 1312.15 2629.96 1311.64 2630.16ZM1257.82 2615.96C1256.64 2615.74 1255.72 2614.79 1255.58 2613.5L1255.39 2612.03C1255.16 2610.37 1256.29 2608.76 1257.92 2608.42C1259.55 2608.07 1261.05 2609.13 1261.28 2610.79L1261.49 2612.41C1261.66 2614.08 1260.5 2615.67 1258.87 2615.95C1258.5 2616.02 1258.14 2616.02 1257.82 2615.96ZM1251.51 2596.84L1254.31 2595.62L1251.48 2596.75C1250.91 2595.21 1251.65 2593.34 1253.17 2592.64C1254.71 2591.94 1256.37 2592.55 1256.95 2594.07L1254.28 2595.64L1251.51 2596.84ZM1246.04 2583.39C1245.3 2583.25 1244.65 2582.83 1244.22 2582.15L1243.4 2580.88C1242.51 2579.53 1242.89 2577.61 1244.27 2576.6C1245.64 2575.6 1247.46 2575.88 1248.38 2577.23L1249.27 2578.6C1250.14 2579.97 1249.7 2581.88 1248.31 2582.86C1247.61 2583.36 1246.79 2583.53 1246.04 2583.39ZM1267.51 2553.34C1267.06 2553.26 1266.63 2553.07 1266.27 2552.76C1265.42 2552.06 1265.06 2550.9 1265.35 2549.74L1265.72 2548.21L1264.74 2547.1C1264.01 2546.28 1263.81 2545.05 1264.25 2543.96C1264.69 2542.85 1265.69 2542.07 1266.81 2541.93L1268.32 2541.75L1269.09 2540.37C1269.67 2539.34 1270.76 2538.7 1271.88 2538.74C1272.98 2538.76 1273.97 2539.45 1274.38 2540.51L1274.92 2541.91L1276.39 2542.17C1277.57 2542.24 1278.35 2543.18 1278.62 2544.31C1278.87 2545.42 1278.48 2546.63 1277.6 2547.43L1276.42 2548.49L1276.56 2550.02C1276.64 2551.17 1276.09 2552.31 1275.13 2552.97C1274.16 2553.62 1272.95 2553.69 1272 2553.13L1270.73 2552.37L1269.34 2553.05C1268.77 2553.37 1268.11 2553.46 1267.51 2553.34Z" fill="#5BD9E4"/>
<path d="M1258.1 2614.75C1257.4 2614.62 1256.84 2614.05 1256.76 2613.27L1256.57 2611.79C1256.43 2610.8 1257.11 2609.83 1258.08 2609.62C1259.05 2609.43 1259.96 2610.04 1260.1 2611.04L1260.3 2612.62C1260.4 2613.6 1259.71 2614.57 1258.73 2614.74C1258.5 2614.79 1258.31 2614.79 1258.1 2614.75Z" fill="#83ECF6"/>
<path d="M1252.62 2596.35C1252.28 2595.43 1252.71 2594.21 1253.61 2593.8C1254.53 2593.4 1255.5 2593.65 1255.84 2594.57L1254.18 2595.34L1255.88 2594.69L1254.28 2595.64L1252.62 2596.35Z" fill="#83ECF6"/>
<path d="M1246.32 2582.17C1245.89 2582.09 1245.49 2581.85 1245.23 2581.43L1244.39 2580.14C1243.85 2579.33 1244.09 2578.19 1244.91 2577.58C1245.73 2576.97 1246.83 2577.14 1247.37 2577.95L1248.24 2579.3C1248.76 2580.12 1248.51 2581.27 1247.68 2581.85C1247.27 2582.17 1246.78 2582.26 1246.32 2582.17Z" fill="#83ECF6"/>
<path d="M1307.04 2638.81C1306.51 2638.41 1306.24 2637.73 1306.37 2637.05L1307.2 2632.67L1304.19 2629.71C1303.71 2629.25 1303.57 2628.52 1303.79 2627.85C1304.02 2627.19 1304.59 2626.68 1305.26 2626.55L1309.53 2625.75L1311.51 2621.72C1311.82 2621.07 1312.45 2620.67 1313.12 2620.62C1313.82 2620.61 1314.41 2620.98 1314.69 2621.59L1316.5 2625.48L1320.74 2625.94C1321.38 2626.02 1321.95 2626.46 1322.15 2627.13C1322.36 2627.78 1322.15 2628.52 1321.65 2629.03L1318.51 2632.23L1319.06 2636.05C1319.23 2636.97 1319.19 2637.65 1318.67 2638.2C1318.15 2638.76 1317.32 2639.01 1316.5 2638.6L1312.74 2636.68L1308.89 2638.88C1308.32 2639.2 1307.59 2639.19 1307.04 2638.81ZM1309.26 2629.45L1310.4 2630.58C1310.81 2630.99 1310.99 2631.58 1310.88 2632.17L1310.56 2633.82L1312.03 2632.98C1312.56 2632.67 1313.17 2632.66 1313.68 2632.92L1315.1 2633.63L1314.86 2631.99C1314.79 2631.4 1314.99 2630.79 1315.41 2630.35L1316.6 2629.14L1315 2628.97C1314.45 2628.92 1313.95 2628.55 1313.7 2628.02L1313.01 2626.55L1312.26 2628.08C1311.99 2628.63 1311.48 2629.03 1310.9 2629.15L1309.26 2629.45Z" fill="#83ECF6"/>
<path d="M1267.79 2552.15C1267.52 2552.1 1267.26 2551.98 1267.05 2551.81C1266.54 2551.4 1266.32 2550.69 1266.5 2549.99L1267.04 2547.85L1265.64 2546.28C1265.19 2545.79 1265.09 2545.07 1265.36 2544.39C1265.62 2543.73 1266.21 2543.27 1266.89 2543.17L1269.02 2542.9L1270.1 2540.97C1270.44 2540.35 1271.1 2539.97 1271.78 2539.98C1272.45 2540.01 1273.03 2540.4 1273.27 2541.04L1274.05 2543.03L1276.12 2543.4C1276.68 2543.45 1277.3 2544.01 1277.46 2544.69C1277.6 2545.35 1277.38 2546.09 1276.85 2546.56L1275.2 2548.06L1275.35 2549.7C1275.48 2550.04 1275.52 2550.42 1275.42 2550.83C1275.18 2551.85 1274.15 2552.58 1273.22 2552.3C1272.95 2552.24 1272.82 2552.2 1272.65 2552.1L1270.85 2551.03L1268.89 2552C1268.53 2552.16 1268.15 2552.22 1267.79 2552.15Z" fill="#83ECF6"/>
<path d="M1258.38 2613.56C1258.14 2613.51 1257.95 2613.33 1257.93 2613.07C1257.87 2612.55 1257.81 2612.06 1257.73 2611.54C1257.69 2611.22 1257.92 2610.89 1258.24 2610.82C1258.56 2610.75 1258.87 2610.96 1258.91 2611.3C1258.99 2611.81 1259.05 2612.33 1259.1 2612.84C1259.15 2613.16 1258.91 2613.49 1258.58 2613.56C1258.52 2613.57 1258.45 2613.57 1258.38 2613.56Z" fill="#D7FCFF"/>
<path d="M1246.6 2580.98C1246.46 2580.96 1246.32 2580.87 1246.23 2580.75C1245.94 2580.3 1245.65 2579.86 1245.38 2579.43C1245.2 2579.16 1245.28 2578.78 1245.55 2578.57C1245.82 2578.38 1246.2 2578.44 1246.37 2578.69C1246.66 2579.14 1246.95 2579.58 1247.24 2580.02C1247.4 2580.3 1247.33 2580.67 1247.05 2580.88C1246.92 2580.99 1246.75 2581.01 1246.6 2580.98Z" fill="#FFDAFD"/>
<path d="M1307.76 2637.79C1307.58 2637.67 1307.49 2637.43 1307.54 2637.21L1308.49 2632.19L1305.05 2628.79C1304.89 2628.63 1304.84 2628.4 1304.91 2628.17C1304.98 2627.94 1305.18 2627.78 1305.41 2627.74L1310.29 2626.82L1312.57 2622.19C1312.68 2621.97 1312.89 2621.84 1313.11 2621.83C1313.36 2621.82 1313.54 2621.95 1313.64 2622.15L1315.7 2626.61L1320.55 2627.14C1320.76 2627.15 1320.95 2627.31 1321.01 2627.53C1321.08 2627.75 1321.01 2627.99 1320.84 2628.17L1317.23 2631.84L1317.92 2636.63C1317.96 2636.99 1317.97 2637.18 1317.78 2637.39C1317.62 2637.54 1317.37 2637.62 1317.08 2637.48L1312.78 2635.3L1308.37 2637.83C1308.16 2637.92 1307.93 2637.9 1307.76 2637.79ZM1306.73 2628.72L1309.55 2631.49C1309.67 2631.63 1309.74 2631.83 1309.71 2632.03L1308.93 2636.14L1312.54 2634.06C1312.72 2633.97 1312.92 2633.95 1313.09 2634.05L1316.61 2635.83L1316.03 2631.78C1316.01 2631.59 1316.08 2631.38 1316.22 2631.24L1319.17 2628.22L1315.19 2627.79C1315 2627.8 1314.83 2627.65 1314.75 2627.47L1313.06 2623.83L1311.19 2627.62C1311.09 2627.81 1310.94 2627.93 1310.73 2627.96L1306.73 2628.72Z" fill="#D7FBFF"/>
<path d="M1268.07 2550.94C1267.99 2550.92 1267.89 2550.89 1267.83 2550.82C1267.65 2550.68 1267.59 2550.44 1267.66 2550.21L1268.35 2547.42L1266.55 2545.39C1266.39 2545.22 1266.36 2544.99 1266.45 2544.76C1266.54 2544.54 1266.73 2544.39 1266.95 2544.36L1269.7 2544.02L1271.14 2541.5C1271.25 2541.3 1271.46 2541.17 1271.69 2541.17C1271.91 2541.16 1272.12 2541.31 1272.2 2541.53L1273.2 2544.09L1275.88 2544.56C1276.1 2544.6 1276.26 2544.76 1276.32 2544.98C1276.37 2545.21 1276.3 2545.44 1276.12 2545.61L1273.99 2547.53L1274.21 2550.16C1274.25 2550.28 1274.26 2550.41 1274.23 2550.53C1274.15 2550.87 1273.83 2551.09 1273.5 2551.03C1273.5 2551.03 1273.49 2551.03 1273.47 2551.02C1273.4 2551.01 1273.35 2550.98 1273.29 2550.95L1270.98 2549.59L1268.44 2550.84C1268.32 2550.95 1268.19 2550.96 1268.07 2550.94ZM1268.23 2545.45L1269.44 2546.81C1269.57 2546.95 1269.62 2547.16 1269.56 2547.35L1269.08 2549.23L1270.8 2548.38C1270.98 2548.29 1271.19 2548.31 1271.35 2548.39L1272.91 2549.32L1272.75 2547.43C1272.73 2547.22 1272.81 2547.03 1272.96 2546.89L1274.39 2545.58L1272.58 2545.26C1272.39 2545.23 1272.24 2545.11 1272.16 2544.92L1271.49 2543.18L1270.52 2544.88C1270.42 2545.06 1270.23 2545.17 1270.05 2545.2L1268.23 2545.45Z" fill="#D7FBFF"/>
<path d="M1165.56 2645.47C1163.98 2645.17 1163 2643.57 1163.39 2641.92L1165.78 2631.77C1166.17 2630.12 1167.78 2629.01 1169.37 2629.31C1170.96 2629.6 1171.94 2631.2 1171.55 2632.85L1169.15 2643C1168.77 2644.66 1167.15 2645.77 1165.56 2645.47ZM1190.74 2643.92C1189.17 2643.63 1188.19 2642.07 1188.56 2640.41L1194.59 2613.61C1194.96 2611.95 1196.57 2610.82 1198.16 2611.1C1198.16 2611.1 1198.17 2611.1 1198.19 2611.11C1199.76 2611.4 1200.75 2612.96 1200.37 2614.62L1194.34 2641.42C1193.97 2643.08 1192.37 2644.21 1190.78 2643.93C1190.76 2643.93 1190.74 2643.92 1190.74 2643.92ZM1239.6 2628.61C1238.58 2628.41 1237.73 2627.66 1237.43 2626.56C1237.01 2624.96 1237.97 2623.23 1239.55 2622.71C1274.38 2611.06 1293.96 2628.55 1294.76 2629.3C1295.95 2630.38 1295.97 2632.32 1294.85 2633.59C1293.73 2634.87 1291.85 2635.06 1290.67 2633.96C1289.95 2633.3 1272.54 2617.96 1241.06 2628.49C1240.57 2628.68 1240.07 2628.69 1239.6 2628.61ZM1236.02 2598.31C1235.04 2598.13 1234.21 2597.43 1233.9 2596.41C1233.42 2594.83 1234.28 2593.06 1235.83 2592.46C1280.21 2575.13 1295.71 2525.68 1295.86 2525.19C1296.35 2523.55 1298.15 2522.62 1299.59 2522.97C1301.15 2523.37 1302 2525.04 1301.51 2526.67C1300.86 2528.84 1284.9 2579.71 1237.62 2598.16C1237.07 2598.36 1236.53 2598.41 1236.02 2598.31ZM1204.6 2547.3C1204.05 2547.19 1203.56 2546.93 1203.16 2546.52C1202.39 2545.73 1202.13 2544.53 1202.52 2543.41L1203.62 2540.27L1201.77 2537.73C1201.12 2536.83 1201.05 2535.59 1201.58 2534.54C1202.12 2533.49 1203.17 2532.79 1204.3 2532.76L1207.47 2532.69L1209.36 2529.96C1210.04 2528.99 1211.16 2528.45 1212.27 2528.59C1213.36 2528.73 1214.28 2529.5 1214.59 2530.6L1215.47 2533.68L1218.48 2534.53C1219.55 2534.82 1220.31 2535.74 1220.47 2536.87C1220.61 2538.01 1220.12 2539.18 1219.19 2539.88L1216.55 2541.88L1216.51 2545.14C1216.51 2546.29 1215.85 2547.4 1214.83 2547.97C1213.82 2548.54 1212.61 2548.48 1211.73 2547.81L1209.22 2545.97L1206.2 2547.15C1205.67 2547.35 1205.13 2547.39 1204.6 2547.3ZM1209.77 2538.56C1209.87 2538.86 1209.9 2539.18 1209.89 2539.5C1210.2 2539.48 1210.49 2539.52 1210.79 2539.61C1210.9 2539.3 1211.04 2539.01 1211.23 2538.74C1210.99 2538.57 1210.77 2538.34 1210.6 2538.1C1210.35 2538.3 1210.09 2538.45 1209.77 2538.56ZM1311.58 2559.47C1310.63 2558.9 1310.12 2557.8 1310.25 2556.65L1310.73 2552.34L1307.6 2549.71C1306.74 2549.01 1306.4 2547.83 1306.68 2546.69C1306.97 2545.56 1307.86 2544.65 1308.96 2544.35L1313.07 2543.24L1314.72 2539.19C1315.16 2538.1 1316.16 2537.32 1317.3 2537.18C1318.42 2537.05 1319.49 2537.57 1320.04 2538.55L1322.09 2542.17L1326.25 2542.29C1327.4 2542.32 1328.34 2543.02 1328.75 2544.08C1329.16 2545.14 1328.92 2546.38 1328.16 2547.28L1325.32 2550.61L1326.25 2554.75C1326.49 2555.87 1326.1 2557.06 1325.22 2557.86C1324.34 2558.64 1323.13 2558.86 1322.12 2558.47L1318.31 2556.92L1314.71 2559.35C1313.74 2559.99 1312.52 2560.03 1311.58 2559.47ZM1316.01 2548.64C1316.57 2549.21 1316.86 2550 1316.83 2550.81C1317.55 2550.4 1318.39 2550.3 1319.16 2550.54C1319.05 2549.72 1319.26 2548.88 1319.76 2548.2C1318.97 2548.1 1318.26 2547.67 1317.81 2547.03C1317.42 2547.78 1316.77 2548.36 1316.01 2548.64Z" fill="white"/>
<path d="M1312.23 2558.4C1311.67 2558.05 1311.36 2557.4 1311.43 2556.71L1311.99 2551.76L1308.38 2548.74C1307.87 2548.31 1307.66 2547.6 1307.82 2546.92C1308 2546.23 1308.54 2545.7 1309.19 2545.51L1313.91 2544.24L1315.81 2539.57C1316.07 2538.92 1316.68 2538.45 1317.35 2538.38C1318.03 2538.3 1318.67 2538.62 1318.99 2539.2L1321.35 2543.36L1326.14 2543.5C1326.79 2543.53 1327.39 2543.94 1327.64 2544.56C1327.88 2545.2 1327.74 2545.94 1327.27 2546.48L1324.02 2550.33L1324.97 2554.6C1325.21 2555.46 1325.25 2556.12 1324.77 2556.75C1324.28 2557.39 1323.52 2557.67 1322.59 2557.31L1318.21 2555.52L1314.08 2558.32C1313.51 2558.71 1312.77 2558.72 1312.23 2558.4ZM1313.42 2548.1L1315.03 2549.45C1315.46 2549.81 1315.7 2550.39 1315.63 2550.99L1315.38 2553.19L1317.22 2551.96C1317.73 2551.62 1318.35 2551.55 1318.87 2551.76L1320.82 2552.56L1320.34 2550.44C1320.21 2549.86 1320.37 2549.24 1320.77 2548.77L1322.22 2547.06L1320.08 2546.99C1319.5 2546.96 1318.98 2546.66 1318.69 2546.15L1317.65 2544.31L1316.81 2546.38C1316.56 2546.95 1316.09 2547.38 1315.52 2547.53L1313.42 2548.1Z" fill="white"/>
<path d="M1204.88 2546.1C1204.56 2546.04 1204.25 2545.89 1204.01 2545.64C1203.55 2545.16 1203.4 2544.45 1203.63 2543.78L1204.94 2540.03L1202.73 2536.98C1202.34 2536.45 1202.31 2535.69 1202.62 2535.07C1202.95 2534.42 1203.58 2534.02 1204.26 2534L1208.06 2533.89L1210.33 2530.62C1210.73 2530.03 1211.41 2529.71 1212.07 2529.79C1212.76 2529.9 1213.28 2530.34 1213.46 2531L1214.5 2534.69L1218.09 2535.7C1218.74 2535.88 1219.2 2536.43 1219.29 2537.11C1219.38 2537.8 1219.09 2538.51 1218.53 2538.92L1215.38 2541.3L1215.34 2544.66C1215.43 2544.96 1215.44 2545.29 1215.36 2545.63C1215.12 2546.65 1214.1 2547.27 1213.16 2547.1C1212.83 2547 1212.66 2546.95 1212.45 2546.8L1209.46 2544.58L1205.83 2545.98C1205.53 2546.13 1205.19 2546.16 1204.88 2546.1ZM1207.73 2537.57L1208.39 2538.47C1208.72 2538.94 1208.81 2539.57 1208.6 2540.15L1208.21 2541.26L1209.29 2540.85C1209.84 2540.64 1210.46 2540.72 1210.92 2541.04L1211.8 2541.69L1211.8 2540.54C1211.8 2539.95 1212.1 2539.35 1212.59 2539L1213.53 2538.28L1212.46 2537.99C1211.91 2537.83 1211.47 2537.39 1211.32 2536.83L1211.01 2535.73L1210.34 2536.7C1209.99 2537.21 1209.43 2537.51 1208.84 2537.53L1207.73 2537.57Z" fill="#E6E7E8"/>
<path d="M1240.17 2626.2C1239.97 2626.16 1239.8 2626.02 1239.75 2625.79C1239.67 2625.46 1239.86 2625.12 1240.17 2625.01C1273.72 2613.8 1292.94 2630.97 1293.13 2631.15C1293.36 2631.38 1293.38 2631.75 1293.14 2632.01C1292.9 2632.26 1292.52 2632.28 1292.31 2632.07C1292.11 2631.91 1273.36 2615.16 1240.45 2626.16C1240.36 2626.22 1240.27 2626.22 1240.17 2626.2Z" fill="white"/>
<path d="M1205.17 2544.89C1205.06 2544.87 1204.95 2544.81 1204.88 2544.74C1204.72 2544.59 1204.67 2544.33 1204.76 2544.13L1206.28 2539.77L1203.73 2536.22C1203.6 2536.05 1203.59 2535.79 1203.69 2535.58C1203.79 2535.38 1204 2535.23 1204.24 2535.22L1208.67 2535.1L1211.31 2531.29C1211.45 2531.09 1211.67 2530.98 1211.89 2531.01C1212.12 2531.01 1212.29 2531.19 1212.35 2531.41L1213.56 2535.71L1217.74 2536.88C1217.96 2536.94 1218.11 2537.12 1218.13 2537.34C1218.17 2537.57 1218.06 2537.81 1217.88 2537.95L1214.22 2540.72L1214.17 2545.07C1214.2 2545.17 1214.21 2545.29 1214.19 2545.39C1214.11 2545.73 1213.83 2546 1213.45 2545.89C1213.37 2545.83 1213.28 2545.84 1213.2 2545.78L1209.73 2543.2L1205.52 2544.83C1205.38 2544.89 1205.27 2544.91 1205.17 2544.89ZM1205.38 2536.4L1207.43 2539.22C1207.54 2539.37 1207.57 2539.58 1207.49 2539.77L1206.28 2543.26L1209.65 2541.96C1209.83 2541.88 1210.03 2541.92 1210.19 2542.02L1212.96 2544.09L1213 2540.45C1213.01 2540.25 1213.09 2540.06 1213.26 2539.94L1216.19 2537.72L1212.85 2536.78C1212.67 2536.73 1212.52 2536.59 1212.48 2536.39L1211.5 2532.96L1209.4 2536C1209.29 2536.17 1209.08 2536.28 1208.9 2536.28L1205.38 2536.4Z" fill="white"/>
<path d="M1260.21 2667.34C1259.76 2666.86 1259.6 2666.14 1259.83 2665.46L1261.23 2661.52L1258.92 2658.3C1258.53 2657.77 1258.49 2657.02 1258.8 2656.39C1259.13 2655.76 1259.76 2655.34 1260.44 2655.34L1264.45 2655.23L1266.85 2651.78C1267.26 2651.19 1267.94 2650.89 1268.6 2650.95C1269.25 2651.06 1269.8 2651.51 1269.99 2652.16L1271.08 2656.07L1274.87 2657.15C1275.51 2657.32 1275.98 2657.88 1276.07 2658.56C1276.16 2659.25 1275.85 2659.95 1275.29 2660.37L1271.95 2662.88L1271.89 2666.46C1271.94 2667.4 1271.75 2668.18 1271.1 2668.63C1270.5 2669.02 1269.72 2669.12 1269 2668.59L1265.85 2666.25L1262.01 2667.73C1261.39 2667.95 1260.68 2667.79 1260.21 2667.34ZM1263.91 2658.89L1264.69 2659.96C1265.03 2660.43 1265.11 2661.06 1264.91 2661.64L1264.44 2662.94L1265.71 2662.46C1266.28 2662.25 1266.86 2662.32 1267.34 2662.65L1268.4 2663.44L1268.42 2662.07C1268.42 2661.48 1268.72 2660.88 1269.21 2660.53L1270.32 2659.68L1269.05 2659.31C1268.5 2659.15 1268.07 2658.72 1267.92 2658.15L1267.55 2656.85L1266.74 2658C1266.39 2658.51 1265.84 2658.82 1265.24 2658.84L1263.91 2658.89Z" fill="#83ECF6"/>
<path d="M1261.08 2666.44C1260.93 2666.28 1260.87 2666.05 1260.96 2665.82L1262.57 2661.25L1259.9 2657.54C1259.77 2657.36 1259.76 2657.1 1259.86 2656.9C1259.96 2656.69 1260.17 2656.55 1260.41 2656.54L1265.03 2656.42L1267.81 2652.42C1267.94 2652.23 1268.18 2652.12 1268.39 2652.14C1268.64 2652.23 1268.79 2652.33 1268.85 2652.54L1270.1 2657.04L1274.5 2658.29C1274.71 2658.35 1274.87 2658.52 1274.9 2658.75C1274.94 2658.98 1274.83 2659.22 1274.64 2659.35L1270.79 2662.24L1270.72 2666.82C1270.72 2667.19 1270.68 2667.38 1270.45 2667.53C1270.26 2667.66 1269.98 2667.7 1269.75 2667.53L1266.12 2664.82L1261.69 2666.52C1261.48 2666.64 1261.24 2666.6 1261.08 2666.44ZM1261.55 2657.72L1263.71 2660.72C1263.82 2660.88 1263.86 2661.09 1263.78 2661.28L1262.48 2664.97L1266.06 2663.6C1266.24 2663.52 1266.45 2663.56 1266.6 2663.66L1269.54 2665.85L1269.59 2661.99C1269.61 2661.79 1269.69 2661.6 1269.86 2661.47L1272.98 2659.13L1269.44 2658.14C1269.25 2658.08 1269.11 2657.94 1269.06 2657.75L1268.05 2654.12L1265.81 2657.35C1265.7 2657.51 1265.51 2657.62 1265.32 2657.62L1261.55 2657.72Z" fill="#D7FCFF"/>
<path d="M1350.02 1982.94C1343.98 1986.05 1336.5 1983.67 1333.38 1977.6C1330.28 1971.56 1332.66 1964.08 1338.73 1960.97C1343.93 1958.29 1350.21 1959.69 1353.82 1964.02C1357.94 1962.07 1368.43 1956.09 1373.53 1942.65C1377.34 1932.62 1373.74 1923.43 1371.53 1919.2C1371.08 1919.47 1370.59 1919.75 1370.12 1920C1368.68 1920.74 1366.9 1920.16 1366.16 1918.72L1345 1877.55C1344.26 1876.11 1344.84 1874.32 1346.27 1873.59C1346.59 1873.42 1346.93 1873.25 1347.26 1873.11C1338.34 1858.78 1316.67 1842.23 1283.58 1859.24C1250.46 1876.26 1251.34 1903.52 1257.8 1919.12C1258.31 1918.82 1258.79 1918.54 1259.31 1918.27C1260.75 1917.53 1262.53 1918.1 1263.27 1919.54L1284.43 1960.72C1285.17 1962.16 1284.6 1963.94 1283.16 1964.68C1270.37 1971.26 1254.6 1966.2 1248.03 1953.4C1242.68 1942.99 1245.03 1930.64 1253 1922.84C1242.73 1900.6 1247.34 1871.28 1280.88 1854.05C1314.34 1836.85 1340.82 1850.03 1352.94 1871.25C1364.11 1868.98 1375.89 1874.27 1381.35 1884.89C1386.73 1895.36 1384.31 1907.84 1376.23 1915.6C1378.9 1920.35 1383.89 1931.8 1378.97 1944.75C1373.16 1960.07 1361.58 1966.88 1356.37 1969.3C1357.6 1974.65 1355.09 1980.33 1350.02 1982.94ZM1341.42 1966.2C1338.25 1967.82 1336.99 1971.75 1338.62 1974.91C1340.24 1978.08 1344.16 1979.34 1347.33 1977.71C1350.52 1976.07 1351.75 1972.16 1350.13 1969C1348.5 1965.83 1344.58 1964.57 1341.42 1966.2ZM1351.69 1877.68L1369.96 1913.24C1378 1907.52 1380.84 1896.57 1376.2 1887.54C1371.8 1878.99 1362.09 1874.88 1353.15 1877.19C1352.71 1877.49 1352.17 1877.66 1351.69 1877.68ZM1258.42 1925.87C1251.24 1931.78 1248.88 1942.12 1253.3 1950.73C1257.94 1959.75 1268.5 1963.82 1277.83 1960.61L1259.54 1925.03C1259.23 1925.26 1258.89 1925.5 1258.59 1925.75C1258.54 1925.78 1258.46 1925.82 1258.42 1925.87Z" fill="#5BD9E4"/>
</svg>
