<svg width="2121" height="2134" viewBox="0 0 2121 2134" fill="none" xmlns="http://www.w3.org/2000/svg">
<g opacity="0.35">
<g opacity="0.35">
<g filter="url(#filter0_d_2_369)">
<rect x="967.328" y="718.624" width="174.621" height="174.621" rx="87.3103" transform="rotate(-113.931 967.328 718.624)" fill="#CB9FFF" fill-opacity="0.28" shape-rendering="crispEdges"/>
<rect x="969.108" y="714.005" width="167.621" height="167.621" rx="83.8103" transform="rotate(-113.931 969.108 714.005)" stroke="#C173FF" stroke-width="7" shape-rendering="crispEdges"/>
</g>
<path d="M985.401 639.188C983.072 633.942 982.073 629.331 982.402 625.356C982.712 621.338 984.408 617.394 987.49 613.525L992.846 606.783C995.307 603.699 995.884 600.686 994.578 597.743C993.877 596.165 992.828 595.124 991.431 594.621C990.057 594.056 988.581 594.124 987.003 594.825C984.998 595.714 983.735 597.066 983.212 598.881C982.714 600.634 983.004 602.726 984.083 605.157L973.526 609.842C971.444 605.15 971.292 600.725 973.071 596.565C974.874 592.345 978.314 589.108 983.39 586.855C988.38 584.641 992.794 584.06 996.632 585.114C1000.45 586.126 1003.25 588.636 1005.03 592.646C1007.6 598.447 1006.68 604.139 1002.27 609.723L997.34 616.046C995.917 617.903 994.999 619.459 994.586 620.714C994.216 621.951 994.149 623.41 994.385 625.092L1014.92 615.978L1018.67 624.423L985.401 639.188ZM1041.32 615.522C1035.77 617.982 1030.92 618.553 1026.76 617.233C1022.65 615.895 1019.5 612.773 1017.32 607.868L1027.75 603.24C1028.77 605.543 1030.16 607.048 1031.9 607.755C1033.68 608.443 1035.69 608.295 1037.9 607.311C1039.78 606.478 1041.05 605.303 1041.7 603.787C1042.4 602.253 1042.37 600.632 1041.61 598.926C1039.89 595.044 1036.75 594.116 1032.18 596.142L1027.83 598.072L1024.31 590.139L1028.73 588.179C1032.82 586.362 1034.08 583.683 1032.51 580.143C1031.85 578.65 1030.81 577.683 1029.39 577.241C1027.96 576.8 1026.42 576.948 1024.76 577.687C1022.84 578.539 1021.57 579.765 1020.95 581.366C1020.32 582.925 1020.43 584.664 1021.28 586.583L1011.04 591.126C1009.19 586.946 1009.19 582.935 1011.06 579.093C1012.93 575.252 1016.45 572.186 1021.61 569.895C1026.34 567.794 1030.62 567.197 1034.44 568.104C1038.27 569.011 1041 571.32 1042.65 575.031C1044.84 579.979 1043.61 584.383 1038.94 588.242C1041.9 587.542 1044.55 587.769 1046.9 588.922C1049.29 590.055 1051.09 591.987 1052.3 594.717C1054.06 598.684 1053.94 602.595 1051.92 606.451C1049.93 610.245 1046.39 613.269 1041.32 615.522Z" fill="#C47BFF"/>
</g>
<g opacity="0.35">
<g filter="url(#filter1_d_2_369)">
<rect x="1078.25" y="266.745" width="174.621" height="174.621" rx="87.3103" transform="rotate(-98.9977 1078.25 266.745)" fill="#CB9FFF" fill-opacity="0.28" shape-rendering="crispEdges"/>
<rect x="1081.16" y="262.741" width="167.621" height="167.621" rx="83.8103" transform="rotate(-98.9977 1081.16 262.741)" stroke="#C173FF" stroke-width="7" shape-rendering="crispEdges"/>
</g>
<path d="M1140.87 194.421L1154.23 153.894L1133.62 157.156L1132.11 147.615L1168.89 141.791L1153.31 192.451L1140.87 194.421Z" fill="#C47BFF"/>
</g>
<g opacity="0.35">
<g filter="url(#filter2_d_2_369)">
<rect x="1101.1" y="1007.55" width="174.621" height="174.621" rx="87.3103" transform="rotate(-127.741 1101.1 1007.55)" fill="#CB9FFF" fill-opacity="0.28" shape-rendering="crispEdges"/>
<rect x="1101.73" y="1002.64" width="167.621" height="167.621" rx="83.8103" transform="rotate(-127.741 1101.73 1002.64)" stroke="#C173FF" stroke-width="7" shape-rendering="crispEdges"/>
</g>
<path d="M1131.76 906.598L1113.33 882.795L1105.36 888.965L1099.92 881.935C1103.5 879.164 1105.52 876.777 1105.97 874.772C1106.43 872.768 1105.7 870.529 1103.78 868.057L1111.53 862.058L1140.67 899.699L1131.76 906.598Z" fill="#C47BFF"/>
</g>
<path d="M981.735 1992.63C989.002 1999.78 998.599 2004.33 1011.78 2008.25C998.599 2012.17 989 2016.71 981.732 2023.86C974.404 2031.07 969.764 2040.62 965.755 2053.74C961.747 2040.62 957.107 2031.08 949.779 2023.87C942.51 2016.72 932.91 2012.17 919.725 2008.25C932.91 2004.33 942.51 1999.78 949.779 1992.63C957.108 1985.42 961.748 1975.88 965.756 1962.75C969.767 1975.88 974.406 1985.42 981.735 1992.63Z" stroke="#511682" stroke-width="9"/>
<g filter="url(#filter3_d_2_369)">
<rect x="1321" y="688.476" width="174.621" height="174.621" rx="87.3103" transform="rotate(-127.741 1321 688.476)" fill="#CB9FFF" fill-opacity="0.28" shape-rendering="crispEdges"/>
<rect x="1321.63" y="683.566" width="167.621" height="167.621" rx="83.8103" transform="rotate(-127.741 1321.63 683.566)" stroke="#C173FF" stroke-width="7" shape-rendering="crispEdges"/>
</g>
<path d="M1351.66 587.524L1333.23 563.721L1325.26 569.891L1319.82 562.861C1323.4 560.09 1325.42 557.703 1325.87 555.698C1326.32 553.694 1325.6 551.455 1323.68 548.983L1331.43 542.984L1360.57 580.626L1351.66 587.524Z" fill="#C47BFF"/>
</g>
<defs>
<filter id="filter0_d_2_369" x="895.385" y="487.071" width="232.664" height="232.664" filterUnits="userSpaceOnUse" color-interpolation-filters="sRGB">
<feFlood flood-opacity="0" result="BackgroundImageFix"/>
<feColorMatrix in="SourceAlpha" type="matrix" values="0 0 0 0 0 0 0 0 0 0 0 0 0 0 0 0 0 0 127 0" result="hardAlpha"/>
<feOffset/>
<feGaussianBlur stdDeviation="14.5"/>
<feComposite in2="hardAlpha" operator="out"/>
<feColorMatrix type="matrix" values="0 0 0 0 0.682353 0 0 0 0 0.407843 0 0 0 0 1 0 0 0 0.5 0"/>
<feBlend mode="normal" in2="BackgroundImageFix" result="effect1_dropShadow_2_369"/>
<feBlend mode="normal" in="SourceGraphic" in2="effect1_dropShadow_2_369" result="shape"/>
</filter>
<filter id="filter1_d_2_369" x="1034.5" y="50.5314" width="232.646" height="232.646" filterUnits="userSpaceOnUse" color-interpolation-filters="sRGB">
<feFlood flood-opacity="0" result="BackgroundImageFix"/>
<feColorMatrix in="SourceAlpha" type="matrix" values="0 0 0 0 0 0 0 0 0 0 0 0 0 0 0 0 0 0 127 0" result="hardAlpha"/>
<feOffset/>
<feGaussianBlur stdDeviation="14.5"/>
<feComposite in2="hardAlpha" operator="out"/>
<feColorMatrix type="matrix" values="0 0 0 0 0.682353 0 0 0 0 0.407843 0 0 0 0 1 0 0 0 0.5 0"/>
<feBlend mode="normal" in2="BackgroundImageFix" result="effect1_dropShadow_2_369"/>
<feBlend mode="normal" in="SourceGraphic" in2="effect1_dropShadow_2_369" result="shape"/>
</filter>
<filter id="filter2_d_2_369" x="1000.39" y="768.75" width="232.629" height="232.629" filterUnits="userSpaceOnUse" color-interpolation-filters="sRGB">
<feFlood flood-opacity="0" result="BackgroundImageFix"/>
<feColorMatrix in="SourceAlpha" type="matrix" values="0 0 0 0 0 0 0 0 0 0 0 0 0 0 0 0 0 0 127 0" result="hardAlpha"/>
<feOffset/>
<feGaussianBlur stdDeviation="14.5"/>
<feComposite in2="hardAlpha" operator="out"/>
<feColorMatrix type="matrix" values="0 0 0 0 0.682353 0 0 0 0 0.407843 0 0 0 0 1 0 0 0 0.5 0"/>
<feBlend mode="normal" in2="BackgroundImageFix" result="effect1_dropShadow_2_369"/>
<feBlend mode="normal" in="SourceGraphic" in2="effect1_dropShadow_2_369" result="shape"/>
</filter>
<filter id="filter3_d_2_369" x="1220.29" y="449.676" width="232.629" height="232.629" filterUnits="userSpaceOnUse" color-interpolation-filters="sRGB">
<feFlood flood-opacity="0" result="BackgroundImageFix"/>
<feColorMatrix in="SourceAlpha" type="matrix" values="0 0 0 0 0 0 0 0 0 0 0 0 0 0 0 0 0 0 127 0" result="hardAlpha"/>
<feOffset/>
<feGaussianBlur stdDeviation="14.5"/>
<feComposite in2="hardAlpha" operator="out"/>
<feColorMatrix type="matrix" values="0 0 0 0 0.682353 0 0 0 0 0.407843 0 0 0 0 1 0 0 0 0.5 0"/>
<feBlend mode="normal" in2="BackgroundImageFix" result="effect1_dropShadow_2_369"/>
<feBlend mode="normal" in="SourceGraphic" in2="effect1_dropShadow_2_369" result="shape"/>
</filter>
</defs>
</svg>
