<svg width="64" height="38" viewBox="0 0 64 38" fill="none" xmlns="http://www.w3.org/2000/svg">
<path d="M2.60156 16.7258C1.22085 16.7258 0.101563 17.8451 0.101562 19.2258C0.101562 20.6065 1.22085 21.7258 2.60156 21.7258L2.60156 16.7258ZM62.6511 20.9936C63.6274 20.0173 63.6274 18.4344 62.6511 17.4581L46.7412 1.54816C45.7649 0.571854 44.1819 0.571853 43.2056 1.54816C42.2293 2.52447 42.2293 4.10739 43.2056 5.0837L57.3478 19.2258L43.2056 33.368C42.2293 34.3443 42.2293 35.9272 43.2056 36.9035C44.1819 37.8798 45.7649 37.8798 46.7412 36.9035L62.6511 20.9936ZM2.60156 21.7258L60.8833 21.7258L60.8833 16.7258L2.60156 16.7258L2.60156 21.7258Z" fill="#06B34B"/>
</svg>
