<svg width="561" height="275" viewBox="0 0 561 275" fill="none" xmlns="http://www.w3.org/2000/svg">
<g filter="url(#filter0_f_84_21)">
<path d="M7.15939 223.23H6.15939V224.23H7.15939V223.23ZM7.15939 13.23V12.23H6.15939V13.23H7.15939ZM135.559 13.23H136.559V12.23H135.559V13.23ZM135.559 54.03V55.03H136.559V54.03H135.559ZM55.7594 54.03V53.03H54.7594V54.03H55.7594ZM55.7594 110.73H54.7594V111.73H55.7594V110.73ZM135.559 110.73H136.559V109.73H135.559V110.73ZM135.559 150.63V151.63H136.559V150.63H135.559ZM55.7594 150.63V149.63H54.7594V150.63H55.7594ZM55.7594 223.23V224.23H56.7594V223.23H55.7594ZM8.15939 223.23V13.23H6.15939V223.23H8.15939ZM7.15939 14.23H135.559V12.23H7.15939V14.23ZM134.559 13.23V54.03H136.559V13.23H134.559ZM135.559 53.03H55.7594V55.03H135.559V53.03ZM54.7594 54.03V110.73H56.7594V54.03H54.7594ZM55.7594 111.73H135.559V109.73H55.7594V111.73ZM134.559 110.73V150.63H136.559V110.73H134.559ZM135.559 149.63H55.7594V151.63H135.559V149.63ZM54.7594 150.63V223.23H56.7594V150.63H54.7594ZM55.7594 222.23H7.15939V224.23H55.7594V222.23ZM278.688 223.23L277.725 223.502L277.931 224.23H278.688V223.23ZM271.488 197.73L272.45 197.458L272.244 196.73H271.488V197.73ZM197.088 197.73V196.73H196.331L196.125 197.458L197.088 197.73ZM189.888 223.23V224.23H190.644L190.85 223.502L189.888 223.23ZM138.588 223.23L137.64 222.909L137.193 224.23H138.588V223.23ZM209.688 13.23V12.23H208.97L208.74 12.9093L209.688 13.23ZM258.588 13.23L259.534 12.9081L259.304 12.23H258.588V13.23ZM329.988 223.23V224.23H331.384L330.934 222.908L329.988 223.23ZM207.888 159.63L206.925 159.358L206.565 160.63H207.888V159.63ZM260.688 159.63V160.63H262.01L261.65 159.358L260.688 159.63ZM234.288 66.33L235.25 66.0577L234.288 62.6571L233.325 66.0577L234.288 66.33ZM279.65 222.958L272.45 197.458L270.525 198.002L277.725 223.502L279.65 222.958ZM271.488 196.73H197.088V198.73H271.488V196.73ZM196.125 197.458L188.925 222.958L190.85 223.502L198.05 198.002L196.125 197.458ZM189.888 222.23H138.588V224.23H189.888V222.23ZM139.535 223.551L210.635 13.5507L208.74 12.9093L137.64 222.909L139.535 223.551ZM209.688 14.23H258.588V12.23H209.688V14.23ZM257.641 13.5519L329.041 223.552L330.934 222.908L259.534 12.9081L257.641 13.5519ZM329.988 222.23H278.688V224.23H329.988V222.23ZM207.888 160.63H260.688V158.63H207.888V160.63ZM261.65 159.358L235.25 66.0577L233.325 66.6022L259.725 159.902L261.65 159.358ZM233.325 66.0577L206.925 159.358L208.85 159.902L235.25 66.6022L233.325 66.0577ZM537.337 178.23L536.479 177.715L536.475 177.723L537.337 178.23ZM492.637 218.43L492.22 217.521L491.08 218.043L491.843 219.038L492.637 218.43ZM513.337 245.43L513.789 246.322L514.863 245.777L514.13 244.822L513.337 245.43ZM470.737 267.03L469.938 267.632L470.442 268.3L471.189 267.922L470.737 267.03ZM442.237 229.23L443.035 228.628L442.735 228.23H442.237V229.23ZM359.737 197.13L359.01 197.817L359.013 197.82L359.737 197.13ZM359.737 39.63L360.461 40.32L360.464 40.3166L359.737 39.63ZM522.937 39.63L522.21 40.3166L522.213 40.32L522.937 39.63ZM486.337 166.53L485.573 165.884L485.572 165.885L486.337 166.53ZM486.337 70.23L485.568 70.869L485.573 70.8754L485.578 70.8817L486.337 70.23ZM395.737 70.23L394.973 69.584L394.972 69.5851L395.737 70.23ZM379.837 118.23L380.837 118.24L380.837 118.23L380.837 118.22L379.837 118.23ZM395.737 166.53L394.968 167.169L394.973 167.175L394.978 167.182L395.737 166.53ZM552.537 118.23C552.537 140.058 547.181 159.879 536.479 177.715L538.194 178.744C549.092 160.581 554.537 140.402 554.537 118.23H552.537ZM536.475 177.723C525.98 195.544 511.236 208.805 492.22 217.521L493.053 219.339C512.437 210.455 527.493 196.916 538.198 178.737L536.475 177.723ZM491.843 219.038L512.543 246.038L514.13 244.822L493.43 217.822L491.843 219.038ZM512.885 244.538L470.285 266.138L471.189 267.922L513.789 246.322L512.885 244.538ZM471.535 266.428L443.035 228.628L441.438 229.832L469.938 267.632L471.535 266.428ZM442.237 228.23H441.337V230.23H442.237V228.23ZM441.337 228.23C407.565 228.23 380.643 217.612 360.461 196.44L359.013 197.82C379.63 219.448 407.108 230.23 441.337 230.23V228.23ZM360.464 196.443C340.247 175.038 330.137 148.987 330.137 118.23H328.137C328.137 149.473 338.426 176.022 359.01 197.817L360.464 196.443ZM330.137 118.23C330.137 87.4731 340.247 61.5243 360.461 40.32L359.013 38.94C338.426 60.5357 328.137 86.9868 328.137 118.23H330.137ZM360.464 40.3166C380.647 18.9462 407.568 8.22997 441.337 8.22997V6.22997C407.105 6.22997 379.627 17.1137 359.01 38.9433L360.464 40.3166ZM441.337 8.22997C475.105 8.22997 502.027 18.9462 522.21 40.3166L523.664 38.9433C503.047 17.1137 475.568 6.22997 441.337 6.22997V8.22997ZM522.213 40.32C542.426 61.5243 552.537 87.4731 552.537 118.23H554.537C554.537 86.9868 544.247 60.5357 523.661 38.94L522.213 40.32ZM441.337 186.73C460.783 186.73 476.082 180.234 487.101 167.175L485.572 165.885C474.991 178.426 460.29 184.73 441.337 184.73V186.73ZM487.1 167.176C498.272 153.972 503.837 137.634 503.837 118.23H501.837C501.837 137.226 496.401 153.088 485.573 165.884L487.1 167.176ZM503.837 118.23C503.837 98.8258 498.272 82.5845 487.095 69.5782L485.578 70.8817C496.401 83.4755 501.837 99.2341 501.837 118.23H503.837ZM487.106 69.5909C476.089 56.3295 460.789 49.73 441.337 49.73V51.73C460.285 51.73 474.985 58.1304 485.568 70.869L487.106 69.5909ZM441.337 49.73C421.688 49.73 406.191 56.3267 394.973 69.584L396.5 70.8759C407.282 58.1332 422.185 51.73 441.337 51.73V49.73ZM394.972 69.5851C383.995 82.5948 378.635 98.8381 378.837 118.24L380.837 118.22C380.639 99.2219 385.878 83.4651 396.501 70.8748L394.972 69.5851ZM378.837 118.22C378.635 137.622 383.996 153.962 394.968 167.169L396.506 165.891C385.878 153.098 380.639 137.238 380.837 118.24L378.837 118.22ZM394.978 167.182C406.198 180.237 421.694 186.73 441.337 186.73V184.73C422.18 184.73 407.276 178.423 396.495 165.878L394.978 167.182Z" fill="#D96DFF"/>
</g>
<defs>
<filter id="filter0_f_84_21" x="0.15918" y="0.22998" width="560.378" height="273.8" filterUnits="userSpaceOnUse" color-interpolation-filters="sRGB">
<feFlood flood-opacity="0" result="BackgroundImageFix"/>
<feBlend mode="normal" in="SourceGraphic" in2="BackgroundImageFix" result="shape"/>
<feGaussianBlur stdDeviation="3.5" result="effect1_foregroundBlur_84_21"/>
</filter>
</defs>
</svg>
