<svg width="260" height="43" viewBox="0 0 260 43" fill="none" xmlns="http://www.w3.org/2000/svg">
<mask id="mask0_5_3" style="mask-type:luminance" maskUnits="userSpaceOnUse" x="0" y="0" width="260" height="43">
<path d="M0 1.14538e-05H260V42.7304H0V1.14538e-05Z" fill="white"/>
</mask>
<g mask="url(#mask0_5_3)">
<path d="M23.0211 10.4857V21.589V21.5949L23.0199 21.5968C23.0154 22.078 22.6238 22.4663 22.1415 22.4663H20.8171C20.751 22.4663 20.6978 22.5195 20.6978 22.5856V31.8939C21.0247 31.9249 21.3556 31.9401 21.6924 31.9401C27.639 31.9401 32.4603 27.1193 32.4603 21.1717C32.4603 15.6756 28.3415 11.1402 23.0211 10.4857ZM22.8022 27.0459C22.0577 27.0459 21.4561 26.444 21.4561 25.7007C21.4561 24.9573 22.0577 24.3546 22.8022 24.3546C23.545 24.3546 24.1477 24.9573 24.1477 25.7007C24.1477 26.444 23.545 27.0459 22.8022 27.0459ZM25.958 27.0459C25.2158 27.0459 24.6134 26.444 24.6134 25.7007C24.6134 24.9573 25.2158 24.3546 25.958 24.3546C26.7011 24.3546 27.305 24.9573 27.305 25.7007C27.305 26.444 26.7011 27.0459 25.958 27.0459ZM29.1139 27.0459C28.3702 27.0459 27.7673 26.444 27.7673 25.7007C27.7673 24.9573 28.3702 24.3546 29.1139 24.3546C29.8562 24.3546 30.4592 24.9573 30.4592 25.7007C30.4592 26.444 29.8562 27.0459 29.1139 27.0459Z" fill="white"/>
<path d="M21.6922 10.4048C15.7448 10.4048 10.9235 15.2256 10.9235 21.1715C10.9235 26.3347 14.5566 30.647 19.4035 31.6957V22.0331H19.4044C19.4142 21.5671 19.7856 21.1909 20.2488 21.1729L20.2496 21.1715H20.6981H21.6078C21.6722 21.1715 21.7237 21.1226 21.7265 21.0593L21.7282 10.4062L21.6922 10.4048ZM19.6281 19.2841C18.8852 19.2841 18.2825 18.6808 18.2825 17.938C18.2825 17.1952 18.8852 16.5922 19.6281 16.5922C20.372 16.5922 20.9747 17.1952 20.9747 17.938C20.9747 18.6808 20.372 19.2841 19.6281 19.2841Z" fill="white"/>
<path d="M136.346 16.3252V20.3888H130.891V16.3252H128.201V27.0542H130.891V22.7182H136.346V27.0542H139.037V16.3252H136.346Z" fill="white"/>
<path d="M91.5652 17.5216C91.1164 16.5477 90.22 16.0694 89.3579 16.0694H89.3576H89.3562C88.4926 16.0694 87.5967 16.5477 87.148 17.5216L82.7509 27.0545H85.6114L86.5697 24.7889H92.1437L93.1029 27.0545H95.9622L91.5652 17.5216ZM87.4814 22.642L89.1378 18.7455C89.1888 18.6237 89.2839 18.5925 89.3562 18.5925H89.3573C89.4288 18.5925 89.5244 18.6237 89.5762 18.7455L91.2321 22.642H87.4814Z" fill="white"/>
<path d="M59.5674 14.3825C58.308 14.3825 57.5049 15.053 56.909 16.4039L53.4025 24.4784L49.8944 16.4039C49.2992 15.053 48.4962 14.3825 47.2354 14.3825C46.0578 14.3825 44.8403 15.2252 44.8403 17.0575V27.0544H47.5269V17.3321L51.055 25.3374C51.5283 26.4565 52.2914 27.1596 53.4011 27.1596H53.4025H53.4034C54.5125 27.1596 55.2748 26.4565 55.7497 25.3374L59.277 17.3321V27.0544H61.9638V17.0575C61.9638 15.2252 60.7446 14.3825 59.5674 14.3825Z" fill="white"/>
<path d="M66.6727 24.7872C66.5432 24.7872 66.4417 24.6817 66.4417 24.5554V22.6417H73.1457V20.4546H66.4417V18.8224C66.4417 18.6986 66.5432 18.5922 66.6727 18.5922H73.3021V16.3249H65.3505C64.4194 16.3249 63.7501 17.1046 63.7501 17.9251V25.4543C63.7501 26.2765 64.4194 27.0545 65.3505 27.0545H73.3021V24.7872H66.6727Z" fill="white"/>
<path d="M77.8644 27.0544V18.8223C77.8644 18.6988 77.9662 18.5927 78.0962 18.5927H84.7262V16.3254H76.7735C75.8419 16.3254 75.1733 17.1045 75.1733 17.925V27.0544H77.8644Z" fill="white"/>
<path d="M126.421 21.6722C126.42 17.9139 124.806 16.162 120.734 16.162H119.793C115.72 16.162 114.106 17.9139 114.104 21.6722V21.6772C114.104 25.3756 115.753 27.1592 119.817 27.1592H120.71C124.771 27.1592 126.421 25.3756 126.421 21.6772V21.6722ZM120.693 24.9381H119.833C117.589 24.9381 116.723 23.9291 116.723 21.6823V21.6747C116.723 19.4921 117.485 18.4201 119.833 18.4201H120.693C122.974 18.4201 123.802 19.4921 123.802 21.6722V21.6823C123.802 23.9291 122.919 24.9381 120.693 24.9381Z" fill="white"/>
<path d="M106.604 14.6352H101.279C97.3062 14.6352 95.717 16.6448 95.717 20.1504C95.717 20.6985 95.7493 21.2053 95.8284 21.6721C96.2491 24.1538 97.7088 25.6791 101.429 25.6791H102.599V27.0545H105.284V25.6791H106.454C110.175 25.6791 111.633 24.1538 112.054 21.6721C112.133 21.2053 112.165 20.6985 112.165 20.1504C112.165 16.6448 110.577 14.6352 106.604 14.6352ZM102.599 23.4144H101.368C99.5479 23.4144 98.8923 22.7348 98.4913 21.6721C98.3368 21.2627 98.3377 20.7436 98.3377 20.1547C98.3377 17.866 99.3962 16.8975 100.946 16.8975H102.599V23.4144ZM109.391 21.6721C108.99 22.7348 108.335 23.4144 106.515 23.4144H105.284V16.8975H106.937C108.487 16.8975 109.544 17.866 109.544 20.1547C109.544 20.7436 109.546 21.2627 109.391 21.6721Z" fill="white"/>
<path d="M152.159 31.8978H151.416V10.4046H152.159V31.8978Z" fill="white"/>
<path d="M165.197 27.5716V30.9515H164.546V26.9883H167.479V30.9515H166.828V27.5716H165.197Z" fill="white"/>
<path d="M170.157 30.4647C170.368 30.4647 170.558 30.4231 170.726 30.3401C170.894 30.2571 171.037 30.146 171.156 30.0061C171.275 29.8666 171.366 29.707 171.428 29.5278C171.49 29.3485 171.521 29.1626 171.521 28.9701C171.521 28.7776 171.49 28.5916 171.428 28.4124C171.366 28.2332 171.275 28.0736 171.156 27.9338C171.037 27.7942 170.894 27.6828 170.726 27.5998C170.558 27.5171 170.368 27.4754 170.157 27.4754C169.945 27.4754 169.756 27.5171 169.588 27.5998C169.42 27.6828 169.277 27.7942 169.158 27.9338C169.039 28.0736 168.948 28.2332 168.886 28.4124C168.824 28.5916 168.793 28.7776 168.793 28.9701C168.793 29.1626 168.824 29.3485 168.886 29.5278C168.948 29.707 169.039 29.8666 169.158 30.0061C169.277 30.146 169.42 30.2571 169.588 30.3401C169.756 30.4231 169.945 30.4647 170.157 30.4647ZM170.157 31.048C169.84 31.048 169.554 30.9904 169.299 30.8753C169.045 30.7602 168.829 30.6063 168.654 30.4138C168.478 30.2214 168.343 29.9996 168.249 29.7484C168.155 29.4974 168.108 29.238 168.108 28.9701C168.108 28.7019 168.155 28.4425 168.249 28.1915C168.343 27.9406 168.478 27.7188 168.654 27.5264C168.829 27.3339 169.045 27.18 169.299 27.0649C169.554 26.9498 169.84 26.8922 170.157 26.8922C170.474 26.8922 170.76 26.9498 171.015 27.0649C171.27 27.18 171.485 27.3339 171.66 27.5264C171.836 27.7188 171.971 27.9406 172.065 28.1915C172.159 28.4425 172.207 28.7019 172.207 28.9701C172.207 29.238 172.159 29.4974 172.065 29.7484C171.971 29.9996 171.836 30.2214 171.66 30.4138C171.485 30.6063 171.27 30.7602 171.015 30.8753C170.76 30.9904 170.474 31.048 170.157 31.048Z" fill="white"/>
<path d="M178.015 29.6777C177.97 29.8702 177.893 30.0494 177.783 30.2157C177.674 30.3817 177.538 30.5269 177.376 30.6516C177.213 30.7762 177.026 30.8733 176.815 30.9431C176.604 31.0129 176.377 31.048 176.136 31.048C175.811 31.048 175.52 30.9912 175.264 30.8781C175.007 30.7647 174.789 30.6128 174.61 30.4223C174.43 30.2318 174.293 30.0109 174.197 29.7599C174.1 29.5089 174.052 29.2439 174.052 28.9645C174.052 28.6963 174.098 28.4377 174.191 28.1887C174.283 27.9394 174.417 27.7188 174.593 27.5264C174.768 27.3336 174.98 27.18 175.227 27.0649C175.474 26.9498 175.755 26.8922 176.068 26.8922C176.362 26.8922 176.623 26.9327 176.852 27.014C177.08 27.095 177.276 27.2045 177.438 27.3424C177.6 27.4802 177.73 27.6423 177.826 27.8291C177.922 28.016 177.985 28.2171 178.015 28.4321H177.33C177.308 28.2962 177.263 28.1699 177.197 28.0528C177.131 27.9358 177.048 27.8348 176.948 27.7498C176.848 27.6651 176.731 27.5981 176.597 27.5489C176.463 27.4999 176.315 27.4754 176.153 27.4754C175.926 27.4754 175.723 27.5171 175.544 27.5998C175.365 27.6828 175.215 27.7934 175.094 27.931C174.973 28.0689 174.881 28.2276 174.816 28.4068C174.752 28.586 174.72 28.7717 174.72 28.9645C174.72 29.1682 174.753 29.3606 174.819 29.5418C174.885 29.7231 174.982 29.8826 175.108 30.0202C175.235 30.1581 175.391 30.2667 175.578 30.3457C175.765 30.4251 175.979 30.4647 176.221 30.4647C176.334 30.4647 176.448 30.4451 176.563 30.4054C176.678 30.3657 176.785 30.3108 176.883 30.2411C176.981 30.1713 177.067 30.0883 177.141 29.992C177.214 29.8958 177.268 29.7909 177.302 29.6777H178.015Z" fill="white"/>
<path d="M179.289 28.5454H179.351C179.468 28.5454 179.579 28.5105 179.683 28.4407C179.786 28.3709 179.884 28.2603 179.974 28.1095L180.286 27.5943C180.395 27.4092 180.524 27.2575 180.674 27.1385C180.823 27.0195 181.001 26.9601 181.208 26.9601H181.441V27.5434H181.327C181.244 27.5434 181.158 27.5631 181.07 27.6028C180.981 27.6424 180.901 27.7246 180.829 27.849L180.58 28.2851C180.501 28.4283 180.401 28.5521 180.28 28.6559C180.159 28.7598 180.018 28.8304 179.855 28.8681L181.565 30.9517H180.733L179.289 29.0833V30.9517H178.638V26.9885H179.289V28.5454Z" fill="white"/>
<path d="M183.688 30.4647C183.9 30.4647 184.089 30.4231 184.257 30.3401C184.425 30.2571 184.569 30.146 184.688 30.0061C184.807 29.8666 184.897 29.707 184.959 29.5278C185.022 29.3485 185.053 29.1626 185.053 28.9701C185.053 28.7776 185.022 28.5916 184.959 28.4124C184.897 28.2332 184.807 28.0736 184.688 27.9338C184.569 27.7942 184.425 27.6828 184.257 27.5998C184.089 27.5171 183.9 27.4754 183.688 27.4754C183.477 27.4754 183.287 27.5171 183.119 27.5998C182.951 27.6828 182.808 27.7942 182.689 27.9338C182.57 28.0736 182.48 28.2332 182.417 28.4124C182.355 28.5916 182.324 28.7776 182.324 28.9701C182.324 29.1626 182.355 29.3485 182.417 29.5278C182.48 29.707 182.57 29.8666 182.689 30.0061C182.808 30.146 182.951 30.2571 183.119 30.3401C183.287 30.4231 183.477 30.4647 183.688 30.4647ZM183.688 31.048C183.371 31.048 183.085 30.9904 182.831 30.8753C182.576 30.7602 182.361 30.6063 182.185 30.4138C182.01 30.2214 181.875 29.9996 181.78 29.7484C181.686 29.4974 181.639 29.238 181.639 28.9701C181.639 28.7019 181.686 28.4425 181.78 28.1915C181.875 27.9406 182.01 27.7188 182.185 27.5264C182.361 27.3339 182.576 27.18 182.831 27.0649C183.085 26.9498 183.371 26.8922 183.688 26.8922C184.005 26.8922 184.291 26.9498 184.546 27.0649C184.801 27.18 185.016 27.3339 185.191 27.5264C185.367 27.7188 185.502 27.9406 185.596 28.1915C185.691 28.4425 185.738 28.7019 185.738 28.9701C185.738 29.238 185.691 29.4974 185.596 29.7484C185.502 29.9996 185.367 30.2214 185.191 30.4138C185.016 30.6063 184.801 30.7602 184.546 30.8753C184.291 30.9904 184.005 31.048 183.688 31.048Z" fill="white"/>
<path d="M187.787 29.1795C187.901 29.1795 188.003 29.1578 188.096 29.1145C188.188 29.0709 188.267 29.0124 188.331 28.9389C188.395 28.8652 188.445 28.7802 188.481 28.684C188.517 28.5878 188.535 28.4851 188.535 28.3756C188.535 28.2662 188.517 28.1632 188.481 28.067C188.445 27.9707 188.395 27.8858 188.331 27.8123C188.267 27.7386 188.188 27.6801 188.096 27.6367C188.003 27.5934 187.901 27.5717 187.787 27.5717H187.017V29.1795H187.787ZM186.366 26.9885H187.787C187.999 26.9885 188.19 27.0253 188.362 27.0988C188.534 27.1725 188.681 27.2735 188.804 27.4018C188.926 27.5301 189.021 27.6781 189.087 27.8461C189.153 28.0141 189.186 28.1908 189.186 28.3756C189.186 28.5644 189.153 28.7417 189.087 28.9077C189.021 29.0737 188.926 29.2212 188.804 29.3495C188.681 29.4778 188.534 29.5788 188.362 29.6522C188.19 29.7259 187.999 29.7628 187.787 29.7628H187.017V30.9516H186.366V26.9885Z" fill="white"/>
<path d="M191.592 30.4647C191.803 30.4647 191.993 30.4231 192.161 30.3401C192.329 30.2571 192.472 30.146 192.591 30.0061C192.71 29.8666 192.801 29.707 192.863 29.5278C192.925 29.3485 192.956 29.1626 192.956 28.9701C192.956 28.7776 192.925 28.5916 192.863 28.4124C192.801 28.2332 192.71 28.0736 192.591 27.9338C192.472 27.7942 192.329 27.6828 192.161 27.5998C191.993 27.5171 191.803 27.4754 191.592 27.4754C191.38 27.4754 191.191 27.5171 191.023 27.5998C190.855 27.6828 190.712 27.7942 190.593 27.9338C190.474 28.0736 190.383 28.2332 190.321 28.4124C190.259 28.5916 190.228 28.7776 190.228 28.9701C190.228 29.1626 190.259 29.3485 190.321 29.5278C190.383 29.707 190.474 29.8666 190.593 30.0061C190.712 30.146 190.855 30.2571 191.023 30.3401C191.191 30.4231 191.38 30.4647 191.592 30.4647ZM191.592 31.048C191.275 31.048 190.989 30.9904 190.734 30.8753C190.479 30.7602 190.264 30.6063 190.089 30.4138C189.913 30.2214 189.778 29.9996 189.684 29.7484C189.59 29.4974 189.543 29.238 189.543 28.9701C189.543 28.7019 189.59 28.4425 189.684 28.1915C189.778 27.9406 189.913 27.7188 190.089 27.5264C190.264 27.3339 190.479 27.18 190.734 27.0649C190.989 26.9498 191.275 26.8922 191.592 26.8922C191.909 26.8922 192.195 26.9498 192.45 27.0649C192.705 27.18 192.92 27.3339 193.095 27.5264C193.271 27.7188 193.406 27.9406 193.5 28.1915C193.594 28.4425 193.642 28.7019 193.642 28.9701C193.642 29.238 193.594 29.4974 193.5 29.7484C193.406 29.9996 193.271 30.2214 193.095 30.4138C192.92 30.6063 192.705 30.7602 192.45 30.8753C192.195 30.9904 191.909 31.048 191.592 31.048Z" fill="white"/>
<path d="M198.035 29.6777C197.99 29.8702 197.912 30.0494 197.803 30.2157C197.693 30.3817 197.557 30.5269 197.395 30.6516C197.233 30.7762 197.046 30.8733 196.835 30.9431C196.623 31.0129 196.397 31.048 196.155 31.048C195.831 31.048 195.54 30.9912 195.283 30.8781C195.027 30.7647 194.809 30.6128 194.629 30.4223C194.45 30.2318 194.312 30.0109 194.216 29.7599C194.12 29.5089 194.072 29.2439 194.072 28.9645C194.072 28.6963 194.118 28.4377 194.211 28.1887C194.303 27.9394 194.437 27.7188 194.612 27.5264C194.788 27.3336 194.999 27.18 195.247 27.0649C195.494 26.9498 195.774 26.8922 196.087 26.8922C196.382 26.8922 196.643 26.9327 196.871 27.014C197.1 27.095 197.295 27.2045 197.458 27.3424C197.62 27.4802 197.749 27.6423 197.845 27.8291C197.942 28.016 198.005 28.2171 198.035 28.4321H197.35C197.327 28.2962 197.283 28.1699 197.217 28.0528C197.151 27.9358 197.068 27.8348 196.968 27.7498C196.868 27.6651 196.75 27.5981 196.617 27.5489C196.483 27.4999 196.334 27.4754 196.172 27.4754C195.946 27.4754 195.743 27.5171 195.564 27.5998C195.384 27.6828 195.234 27.7934 195.113 27.931C194.993 28.0689 194.9 28.2276 194.836 28.4068C194.772 28.586 194.74 28.7717 194.74 28.9645C194.74 29.1682 194.773 29.3606 194.839 29.5418C194.905 29.7231 195.001 29.8826 195.128 30.0202C195.254 30.1581 195.411 30.2667 195.598 30.3457C195.785 30.4251 195.999 30.4647 196.24 30.4647C196.353 30.4647 196.467 30.4451 196.583 30.4054C196.698 30.3657 196.804 30.3108 196.902 30.2411C197.001 30.1713 197.086 30.0883 197.16 29.992C197.234 29.8958 197.288 29.7909 197.321 29.6777H198.035Z" fill="white"/>
<path d="M199.026 27.5716H198.046V26.9883H200.662V27.5716H199.677V30.9515H199.026V27.5716Z" fill="white"/>
<path d="M203.413 28.2113L201.783 30.6798V30.9516H201.132V26.9885H201.783V29.7288L203.413 27.2603V26.9885H204.065V30.9516H203.413V28.2113Z" fill="white"/>
<path d="M208.582 28.1971L206.951 30.6656V30.9374H206.3V26.9743H206.951V29.7146L208.582 27.2461V26.9743H209.233V30.9374H208.582V28.1971Z" fill="white"/>
<path d="M212.126 27.5574V30.9373H211.475V26.9742H214.408V30.9373H213.757V27.5574H212.126Z" fill="white"/>
<path d="M217.086 30.4506C217.297 30.4506 217.487 30.4089 217.655 30.3259C217.823 30.2429 217.966 30.1318 218.085 29.9919C218.204 29.8524 218.295 29.6928 218.357 29.5136C218.419 29.3344 218.45 29.1484 218.45 28.9559C218.45 28.7634 218.419 28.5775 218.357 28.3982C218.295 28.219 218.204 28.0595 218.085 27.9196C217.966 27.78 217.823 27.6686 217.655 27.5856C217.487 27.5029 217.297 27.4613 217.086 27.4613C216.874 27.4613 216.685 27.5029 216.517 27.5856C216.349 27.6686 216.205 27.78 216.087 27.9196C215.968 28.0595 215.877 28.219 215.815 28.3982C215.752 28.5775 215.721 28.7634 215.721 28.9559C215.721 29.1484 215.752 29.3344 215.815 29.5136C215.877 29.6928 215.968 29.8524 216.087 29.9919C216.205 30.1318 216.349 30.2429 216.517 30.3259C216.685 30.4089 216.874 30.4506 217.086 30.4506ZM217.086 31.0338C216.769 31.0338 216.483 30.9762 216.228 30.8611C215.973 30.746 215.758 30.5921 215.583 30.3996C215.407 30.2072 215.272 29.9854 215.178 29.7342C215.083 29.4832 215.036 29.2238 215.036 28.9559C215.036 28.6878 215.083 28.4283 215.178 28.1773C215.272 27.9264 215.407 27.7046 215.583 27.5122C215.758 27.3197 215.973 27.1658 216.228 27.0507C216.483 26.9356 216.769 26.878 217.086 26.878C217.403 26.878 217.689 26.9356 217.943 27.0507C218.198 27.1658 218.414 27.3197 218.589 27.5122C218.765 27.7046 218.9 27.9264 218.994 28.1773C219.088 28.4283 219.135 28.6878 219.135 28.9559C219.135 29.2238 219.088 29.4832 218.994 29.7342C218.9 29.9854 218.765 30.2072 218.589 30.3996C218.414 30.5921 218.198 30.746 217.943 30.8611C217.689 30.9762 217.403 31.0338 217.086 31.0338Z" fill="white"/>
<path d="M220.415 28.5312H220.477C220.594 28.5312 220.704 28.4963 220.808 28.4265C220.912 28.3567 221.009 28.2461 221.1 28.0953L221.411 27.5801C221.521 27.395 221.65 27.2433 221.799 27.1243C221.948 27.0053 222.126 26.9459 222.334 26.9459H222.566V27.5292H222.453C222.37 27.5292 222.284 27.5489 222.195 27.5886C222.107 27.6282 222.027 27.7104 221.955 27.8348L221.706 28.2709C221.626 28.4141 221.526 28.5379 221.406 28.6417C221.285 28.7456 221.143 28.8162 220.981 28.8539L222.691 30.9375H221.859L220.415 29.0692V30.9375H219.764V26.9743H220.415V28.5312Z" fill="white"/>
<path d="M224.61 29.1654C224.723 29.1654 224.826 29.1437 224.919 29.1004C225.011 29.0567 225.09 28.9982 225.154 28.9248C225.218 28.8511 225.268 28.7661 225.304 28.6699C225.339 28.5736 225.357 28.4709 225.357 28.3615C225.357 28.252 225.339 28.149 225.304 28.0528C225.268 27.9566 225.218 27.8716 225.154 27.7982C225.09 27.7244 225.011 27.6659 224.919 27.6226C224.826 27.5793 224.723 27.5576 224.61 27.5576H223.84V29.1654H224.61ZM223.189 26.9743H224.61C224.821 26.9743 225.013 27.0112 225.185 27.0846C225.357 27.1583 225.504 27.2593 225.626 27.3876C225.749 27.5159 225.843 27.6639 225.909 27.8319C225.975 27.9999 226.008 28.1766 226.008 28.3615C226.008 28.5503 225.975 28.7275 225.909 28.8935C225.843 29.0596 225.749 29.207 225.626 29.3353C225.504 29.4636 225.357 29.5646 225.185 29.6381C225.013 29.7118 224.821 29.7486 224.61 29.7486H223.84V30.9374H223.189V26.9743Z" fill="white"/>
<path d="M229.371 26.9744H230.023V30.9375H229.371V26.9744ZM227.214 29.2163V30.3598H227.928C228.082 30.3598 228.206 30.3044 228.299 30.193C228.391 30.0816 228.437 29.9465 228.437 29.7881C228.437 29.6297 228.391 29.4946 228.299 29.3832C228.206 29.2721 228.082 29.2163 227.928 29.2163H227.214ZM227.214 26.9744V28.6387H227.928C228.101 28.6387 228.26 28.6699 228.403 28.7321C228.547 28.7946 228.669 28.8776 228.772 28.9814C228.873 29.0852 228.952 29.2068 229.006 29.3466C229.061 29.4862 229.088 29.6333 229.088 29.7881C229.088 29.9428 229.061 30.09 229.006 30.2296C228.952 30.3694 228.873 30.4921 228.772 30.5979C228.669 30.7034 228.547 30.7864 228.403 30.8469C228.26 30.9074 228.101 30.9375 227.928 30.9375H226.563V26.9744H227.214Z" fill="white"/>
<path d="M231.472 27.5574H230.492V26.9742H233.108V27.5574H232.123V30.9373H231.472V27.5574Z" fill="white"/>
<path d="M235.86 28.1971L234.229 30.6656V30.9374H233.578V26.9743H234.229V29.7146L235.86 27.2461V26.9743H236.511V30.9374H235.86V28.1971Z" fill="white"/>
<path d="M240.689 30.4506C240.9 30.4506 241.09 30.4089 241.258 30.3259C241.426 30.2429 241.569 30.1318 241.688 29.9919C241.807 29.8524 241.898 29.6928 241.96 29.5136C242.023 29.3344 242.053 29.1484 242.053 28.9559C242.053 28.7634 242.023 28.5775 241.96 28.3982C241.898 28.219 241.807 28.0595 241.688 27.9196C241.569 27.78 241.426 27.6686 241.258 27.5856C241.09 27.5029 240.9 27.4613 240.689 27.4613C240.477 27.4613 240.288 27.5029 240.12 27.5856C239.952 27.6686 239.809 27.78 239.69 27.9196C239.571 28.0595 239.48 28.219 239.418 28.3982C239.356 28.5775 239.325 28.7634 239.325 28.9559C239.325 29.1484 239.356 29.3344 239.418 29.5136C239.48 29.6928 239.571 29.8524 239.69 29.9919C239.809 30.1318 239.952 30.2429 240.12 30.3259C240.288 30.4089 240.477 30.4506 240.689 30.4506ZM240.689 31.0338C240.398 31.0338 240.136 30.9866 239.902 30.892C239.668 30.7978 239.464 30.6695 239.291 30.5071C239.117 30.3448 238.976 30.156 238.869 29.941C238.761 29.7257 238.69 29.4992 238.656 29.2615H237.988V30.9373H237.337V26.9742H237.988V28.6785H238.656C238.687 28.4368 238.755 28.2075 238.86 27.9905C238.966 27.7736 239.106 27.5828 239.279 27.4188C239.453 27.2544 239.659 27.1233 239.896 27.0251C240.134 26.9272 240.398 26.878 240.689 26.878C241.006 26.878 241.292 26.9356 241.547 27.0507C241.802 27.1658 242.017 27.3197 242.192 27.5122C242.368 27.7046 242.503 27.9264 242.597 28.1773C242.691 28.4283 242.739 28.6878 242.739 28.9559C242.739 29.2238 242.691 29.4832 242.597 29.7342C242.503 29.9854 242.368 30.2072 242.192 30.3996C242.017 30.5921 241.802 30.746 241.547 30.8611C241.292 30.9762 241.006 31.0338 240.689 31.0338Z" fill="white"/>
<path d="M231.11 11.3456C228.805 11.3456 226.936 13.2147 226.936 15.5203C226.936 17.8259 228.805 19.6947 231.11 19.6947C233.416 19.6947 235.285 17.8259 235.285 15.5203C235.285 13.2147 233.416 11.3456 231.11 11.3456ZM231.11 13.6717C232.13 13.6717 232.959 14.5009 232.959 15.5203C232.959 16.5394 232.13 17.3686 231.11 17.3686C230.091 17.3686 229.262 16.5394 229.262 15.5203C229.262 14.5009 230.091 13.6717 231.11 13.6717Z" fill="white"/>
<path d="M235.274 24.2527H226.983V21.971H235.274V24.2527Z" fill="white"/>
<path d="M214.954 11.3456H217.927L222.478 19.6857V11.3866H225.272V24.2563H222.314L217.765 16.101V24.2563H214.954V11.3456Z" fill="white"/>
<path d="M242.473 24.2563H239.679V11.3455H242.473V24.2563Z" fill="white"/>
<path d="M239.681 11.737C239.681 12.943 238.558 14.1684 237.353 14.1684L236.764 14.1569V16.7083H237.353C240.083 16.7083 242.088 13.5958 242.088 11.737H239.681Z" fill="white"/>
<path d="M167.334 14.8599L166.02 11.3517H164.546V16.2926H165.788V13.2504L166.83 16.2926H167.838L168.851 13.2718V16.2926H170.083V11.3517H168.646L167.334 14.8599Z" fill="white"/>
<path d="M173.456 15.2964C172.576 15.2964 172.103 14.62 172.11 13.8189C172.103 13.0176 172.576 12.3414 173.456 12.3414C174.33 12.3414 174.802 13.0176 174.802 13.8189C174.802 14.62 174.33 15.2964 173.456 15.2964ZM173.456 11.2103C171.797 11.2103 170.816 12.4174 170.816 13.8223C170.816 15.2269 171.797 16.434 173.456 16.434C175.115 16.434 176.096 15.2269 176.096 13.8223C176.096 12.4174 175.115 11.2103 173.456 11.2103Z" fill="white"/>
<path d="M178.845 15.4H178.095V14.2208H178.845C179.187 14.2208 179.408 14.4754 179.408 14.8035C179.408 15.1389 179.187 15.4 178.845 15.4ZM179.196 13.3634H178.095V12.3412H180.212V11.3516H176.859V16.2928H179.196C180.057 16.2928 180.643 15.6293 180.643 14.8103C180.643 14.0058 180.064 13.3634 179.196 13.3634Z" fill="white"/>
<path d="M184.441 11.5279L182.733 14.2668V11.3515H181.502V16.2927H182.733V16.1162L184.441 13.3776V16.2927H185.676V11.3515H184.441V11.5279Z" fill="white"/>
<path d="M187.144 14.274C187.144 15.0432 186.933 15.3609 186.544 15.3609H186.368V16.3561H186.791C187.695 16.3561 188.379 15.7351 188.379 14.2669V12.3412H189.692V16.2928H190.925V11.3516H187.144V14.274Z" fill="white"/>
<path d="M193.775 15.3941H193.019V14.2266H193.775C194.114 14.2266 194.333 14.4787 194.333 14.8037C194.333 15.1419 194.114 15.3941 193.775 15.3941ZM194.078 13.3282H193.019V11.3516H191.784V16.2928H194.078C194.946 16.2928 195.567 15.6149 195.567 14.8105C195.567 13.9987 194.953 13.3282 194.078 13.3282Z" fill="white"/>
<path d="M199.317 13.3492H197.608V11.3515H196.375V16.2927H197.608V14.3304H199.317V16.2927H200.558V11.3515H199.317V13.3492Z" fill="white"/>
<path d="M205.691 16.2926H206.926V11.3514H205.691V16.2926Z" fill="white"/>
<path d="M203.539 15.3941H202.783V14.2266H203.539C203.877 14.2266 204.096 14.4787 204.096 14.8037C204.096 15.1419 203.877 15.3941 203.539 15.3941ZM203.842 13.3282H202.783V11.3516H201.548V16.2928H203.842C204.71 16.2928 205.331 15.6149 205.331 14.8105C205.331 13.9987 204.717 13.3282 203.842 13.3282Z" fill="white"/>
<path d="M210.852 10.3917H209.147V11.0411H210.852V10.3917Z" fill="white"/>
<path d="M210.859 11.3516V11.519L209.151 14.2579V11.3516H207.916V16.2928H209.151V16.0986L210.859 13.3597V16.2928H212.096V11.3516H210.859Z" fill="white"/>
<path d="M172.08 24.2395H173.628V19.3076H175.751V24.2395H177.292V18.0723H172.08V24.2395Z" fill="white"/>
<path d="M178.527 24.2395H182.405V23.0062H180.061V21.7946H182.405V20.5591H180.061V19.3028H182.405V18.0723H178.527V24.2395Z" fill="white"/>
<path d="M186.186 21.3001H185.27V19.3029H186.186C186.723 19.3029 187.11 19.7238 187.11 20.3015C187.11 20.8791 186.723 21.3001 186.186 21.3001ZM186.468 18.0724H183.729V24.2396H185.27V22.5302H186.468C187.746 22.5302 188.679 21.5963 188.679 20.3015C188.679 19.0063 187.755 18.0724 186.468 18.0724Z" fill="white"/>
<path d="M190.848 22.2625L191.592 19.6317L192.336 22.2625H190.848ZM190.768 18.0723L188.68 24.2395H190.288L190.499 23.4907H192.684L192.896 24.2395H194.506L192.409 18.0723H190.768Z" fill="white"/>
<path d="M194.274 19.3074H195.908V24.2393H197.45V19.3074H199.084V18.0725H194.274V19.3074Z" fill="white"/>
<path d="M209.734 21.3149H208.804V19.2879H209.734C210.278 19.2879 210.672 19.7151 210.672 20.3014C210.672 20.8878 210.278 21.3149 209.734 21.3149ZM210.002 18.0724H207.263V24.2395H208.804V22.5302H210.002C211.28 22.5302 212.214 21.5963 212.214 20.3014C212.214 19.0063 211.289 18.0724 210.002 18.0724Z" fill="white"/>
<path d="M167.705 22.9954C166.607 22.9954 166.017 22.1513 166.025 21.1516C166.017 20.1516 166.607 19.3075 167.705 19.3075C168.795 19.3075 169.385 20.1516 169.385 21.1516C169.385 22.1513 168.795 22.9954 167.705 22.9954ZM167.705 17.8961C165.635 17.8961 164.41 19.4026 164.41 21.1555C164.41 22.9088 165.635 24.4149 167.705 24.4149C169.775 24.4149 170.999 22.9088 170.999 21.1555C170.999 19.4026 169.775 17.8961 167.705 17.8961Z" fill="white"/>
<path d="M202.878 22.9958C201.779 22.9958 201.189 22.1517 201.198 21.152C201.189 20.152 201.779 19.3078 202.878 19.3078C203.968 19.3078 204.557 20.152 204.557 21.152C204.557 22.1517 203.968 22.9958 202.878 22.9958ZM202.878 17.8965C200.807 17.8965 199.583 19.4029 199.583 21.1559C199.583 22.9091 200.807 24.4153 202.878 24.4153C204.948 24.4153 206.172 22.9091 206.172 21.1559C206.172 19.4029 204.948 17.8965 202.878 17.8965Z" fill="white"/>
</g>
</svg>
