<svg width="954" height="128" viewBox="0 0 954 128" fill="none" xmlns="http://www.w3.org/2000/svg">
<g filter="url(#filter0_ddd_84_30)">
<path d="M44.8919 64.9256V60.9256H36.6646L41.746 67.3961L44.8919 64.9256ZM75.4719 103.866V107.866H83.6991L78.6178 101.395L75.4719 103.866ZM54.3519 103.866L51.1148 106.215L52.3126 107.866H54.3519V103.866ZM28.7219 68.5556L31.959 66.2059L24.7219 56.2355V68.5556H28.7219ZM28.7219 103.866V107.866H32.7219V103.866H28.7219ZM10.9019 103.866H6.90188V107.866H10.9019V103.866ZM10.9019 26.8656V22.8656H6.90188V26.8656H10.9019ZM28.7219 26.8656H32.7219V22.8656H28.7219V26.8656ZM28.7219 58.8756H24.7219V62.8756H28.7219V58.8756ZM36.7519 54.6956L33.3764 52.5494L33.3318 52.6196L33.2902 52.6915L36.7519 54.6956ZM48.0819 36.8756L51.4574 39.0218L51.4675 39.0058L51.4775 38.9898L48.0819 36.8756ZM55.3419 28.7356L57.4894 32.1102L57.5253 32.0874L57.5607 32.0638L55.3419 28.7356ZM71.6219 26.3156H75.6219V22.3156H71.6219V26.3156ZM71.6219 41.9356V45.9356H75.6219V41.9356H71.6219ZM60.5119 47.7656L57.1451 45.6058L57.1324 45.6256L57.1199 45.6456L60.5119 47.7656ZM52.2619 60.9656L48.8699 58.8456L48.7939 58.9673L48.7267 59.094L52.2619 60.9656ZM49.4019 63.9356L51.2734 67.4708L51.3527 67.4288L51.43 67.3833L49.4019 63.9356ZM41.746 67.3961L72.326 106.336L78.6178 101.395L48.0378 62.4551L41.746 67.3961ZM75.4719 99.8656H54.3519V107.866H75.4719V99.8656ZM57.589 101.516L31.959 66.2059L25.4848 70.9053L51.1148 106.215L57.589 101.516ZM24.7219 68.5556V103.866H32.7219V68.5556H24.7219ZM28.7219 99.8656H10.9019V107.866H28.7219V99.8656ZM14.9019 103.866V26.8656H6.90188V103.866H14.9019ZM10.9019 30.8656H28.7219V22.8656H10.9019V30.8656ZM24.7219 26.8656V58.8756H32.7219V26.8656H24.7219ZM28.7219 62.8756H30.7019V54.8756H28.7219V62.8756ZM30.7019 62.8756C35.0155 62.8756 38.1543 60.2567 40.2136 56.6997L33.2902 52.6915C32.1228 54.7079 31.2283 54.8756 30.7019 54.8756V62.8756ZM40.1274 56.8418L51.4574 39.0218L44.7064 34.7294L33.3764 52.5494L40.1274 56.8418ZM51.4775 38.9898C53.749 35.3415 55.7875 33.1933 57.4894 32.1102L53.1944 25.3609C50.0563 27.3579 47.2547 30.6363 44.6863 34.7614L51.4775 38.9898ZM57.5607 32.0638C59.1965 30.9733 61.3535 30.3156 64.2519 30.3156V22.3156C60.1102 22.3156 56.3273 23.2713 53.1231 25.4074L57.5607 32.0638ZM64.2519 30.3156H71.6219V22.3156H64.2519V30.3156ZM67.6219 26.3156V41.9356H75.6219V26.3156H67.6219ZM71.6219 37.9356H67.9919V45.9356H71.6219V37.9356ZM67.9919 37.9356C63.302 37.9356 59.7667 41.5191 57.1451 45.6058L63.8787 49.9254C66.2437 46.2387 67.6951 45.9356 67.9919 45.9356V37.9356ZM57.1199 45.6456L48.8699 58.8456L55.6539 63.0856L63.9039 49.8856L57.1199 45.6456ZM48.7267 59.094C48.4225 59.6686 47.9989 60.1202 47.3738 60.4879L51.43 67.3833C53.2982 66.2844 54.7812 64.7559 55.797 62.8372L48.7267 59.094ZM47.5303 60.4004C46.7444 60.8165 46.1732 60.9256 45.7719 60.9256V68.9256C47.7172 68.9256 49.566 68.3747 51.2734 67.4708L47.5303 60.4004ZM45.7719 60.9256H44.8919V68.9256H45.7719V60.9256ZM129.154 103.866L125.304 104.953L126.127 107.866H129.154V103.866ZM126.514 94.5156L130.363 93.4287L129.541 90.5156H126.514V94.5156ZM99.2336 94.5156V90.5156H96.2066L95.3841 93.4287L99.2336 94.5156ZM96.5936 103.866V107.866H99.6206L100.443 104.953L96.5936 103.866ZM77.7836 103.866L73.9949 102.583L72.2063 107.866H77.7836V103.866ZM103.854 26.8656V22.8656H100.985L100.065 25.5828L103.854 26.8656ZM121.784 26.8656L125.571 25.578L124.648 22.8656H121.784V26.8656ZM147.964 103.866V107.866H153.548L151.751 102.578L147.964 103.866ZM103.194 80.5456L99.3447 79.4565L97.9047 84.5456H103.194V80.5456ZM122.554 80.5456V84.5456H127.842L126.402 79.4565L122.554 80.5456ZM112.874 46.3356L116.722 45.2465L112.874 31.6442L109.025 45.2465L112.874 46.3356ZM133.003 102.779L130.363 93.4287L122.664 95.6025L125.304 104.953L133.003 102.779ZM126.514 90.5156H99.2336V98.5156H126.514V90.5156ZM95.3841 93.4287L92.7441 102.779L100.443 104.953L103.083 95.6025L95.3841 93.4287ZM96.5936 99.8656H77.7836V107.866H96.5936V99.8656ZM81.5723 105.148L107.642 28.1484L100.065 25.5828L73.9949 102.583L81.5723 105.148ZM103.854 30.8656H121.784V22.8656H103.854V30.8656ZM117.997 28.1532L144.177 105.153L151.751 102.578L125.571 25.578L117.997 28.1532ZM147.964 99.8656H129.154V107.866H147.964V99.8656ZM103.194 84.5456H122.554V76.5456H103.194V84.5456ZM126.402 79.4565L116.722 45.2465L109.025 47.4247L118.705 81.6347L126.402 79.4565ZM109.025 45.2465L99.3447 79.4565L107.042 81.6347L116.722 47.4247L109.025 45.2465ZM231.028 64.9256V60.9256H222.801L227.882 67.3961L231.028 64.9256ZM261.608 103.866V107.866H269.835L264.754 101.395L261.608 103.866ZM240.488 103.866L237.251 106.215L238.449 107.866H240.488V103.866ZM214.858 68.5556L218.095 66.2059L210.858 56.2355V68.5556H214.858ZM214.858 103.866V107.866H218.858V103.866H214.858ZM197.038 103.866H193.038V107.866H197.038V103.866ZM197.038 68.5556H201.038V56.2355L193.801 66.2059L197.038 68.5556ZM171.408 103.866V107.866H173.447L174.645 106.215L171.408 103.866ZM150.288 103.866L147.142 101.395L142.061 107.866H150.288V103.866ZM180.868 64.9256L184.014 67.3961L189.095 60.9256H180.868V64.9256ZM176.358 63.9356L174.33 67.3833L174.407 67.4288L174.487 67.4708L176.358 63.9356ZM173.498 60.9656L177.033 59.094L176.966 58.9673L176.89 58.8456L173.498 60.9656ZM165.248 47.7656L168.64 45.6456L168.628 45.6256L168.615 45.6058L165.248 47.7656ZM154.138 41.9356H150.138V45.9356H154.138V41.9356ZM154.138 26.3156V22.3156H150.138V26.3156H154.138ZM170.418 28.7356L168.199 32.0638L168.235 32.0874L168.271 32.1102L170.418 28.7356ZM177.678 36.8756L174.283 38.9898L174.293 39.0058L174.303 39.0218L177.678 36.8756ZM189.008 54.6956L192.47 52.6915L192.428 52.6196L192.384 52.5494L189.008 54.6956ZM197.038 58.8756V62.8756H201.038V58.8756H197.038ZM197.038 26.8656V22.8656H193.038V26.8656H197.038ZM214.858 26.8656H218.858V22.8656H214.858V26.8656ZM214.858 58.8756H210.858V62.8756H214.858V58.8756ZM222.888 54.6956L219.513 52.5494L219.468 52.6196L219.427 52.6915L222.888 54.6956ZM234.218 36.8756L237.594 39.0218L237.604 39.0058L237.614 38.9898L234.218 36.8756ZM241.478 28.7356L243.626 32.1102L243.662 32.0874L243.697 32.0638L241.478 28.7356ZM257.758 26.3156H261.758V22.3156H257.758V26.3156ZM257.758 41.9356V45.9356H261.758V41.9356H257.758ZM246.648 47.7656L243.281 45.6058L243.269 45.6256L243.256 45.6456L246.648 47.7656ZM238.398 60.9656L235.006 58.8456L234.93 58.9673L234.863 59.094L238.398 60.9656ZM235.538 63.9356L237.41 67.4708L237.489 67.4288L237.566 67.3833L235.538 63.9356ZM227.882 67.3961L258.462 106.336L264.754 101.395L234.174 62.4551L227.882 67.3961ZM261.608 99.8656H240.488V107.866H261.608V99.8656ZM243.725 101.516L218.095 66.2059L211.621 70.9053L237.251 106.215L243.725 101.516ZM210.858 68.5556V103.866H218.858V68.5556H210.858ZM214.858 99.8656H197.038V107.866H214.858V99.8656ZM201.038 103.866V68.5556H193.038V103.866H201.038ZM193.801 66.2059L168.171 101.516L174.645 106.215L200.275 70.9053L193.801 66.2059ZM171.408 99.8656H150.288V107.866H171.408V99.8656ZM153.434 106.336L184.014 67.3961L177.722 62.4551L147.142 101.395L153.434 106.336ZM180.868 60.9256H179.988V68.9256H180.868V60.9256ZM179.988 60.9256C179.587 60.9256 179.016 60.8165 178.23 60.4004L174.487 67.4708C176.194 68.3747 178.043 68.9256 179.988 68.9256V60.9256ZM178.386 60.4879C177.761 60.1202 177.338 59.6686 177.033 59.094L169.963 62.8372C170.979 64.7559 172.462 66.2844 174.33 67.3833L178.386 60.4879ZM176.89 58.8456L168.64 45.6456L161.856 49.8856L170.106 63.0856L176.89 58.8456ZM168.615 45.6058C165.993 41.5191 162.458 37.9356 157.768 37.9356V45.9356C158.065 45.9356 159.516 46.2387 161.881 49.9254L168.615 45.6058ZM157.768 37.9356H154.138V45.9356H157.768V37.9356ZM158.138 41.9356V26.3156H150.138V41.9356H158.138ZM154.138 30.3156H161.508V22.3156H154.138V30.3156ZM161.508 30.3156C164.407 30.3156 166.564 30.9733 168.199 32.0638L172.637 25.4074C169.433 23.2713 165.65 22.3156 161.508 22.3156V30.3156ZM168.271 32.1102C169.973 33.1933 172.011 35.3415 174.283 38.9898L181.074 34.7614C178.505 30.6363 175.704 27.3579 172.566 25.361L168.271 32.1102ZM174.303 39.0218L185.633 56.8418L192.384 52.5494L181.054 34.7294L174.303 39.0218ZM185.546 56.6997C187.606 60.2567 190.745 62.8756 195.058 62.8756V54.8756C194.532 54.8756 193.637 54.7079 192.47 52.6915L185.546 56.6997ZM195.058 62.8756H197.038V54.8756H195.058V62.8756ZM201.038 58.8756V26.8656H193.038V58.8756H201.038ZM197.038 30.8656H214.858V22.8656H197.038V30.8656ZM210.858 26.8656V58.8756H218.858V26.8656H210.858ZM214.858 62.8756H216.838V54.8756H214.858V62.8756ZM216.838 62.8756C221.152 62.8756 224.291 60.2567 226.35 56.6997L219.427 52.6915C218.259 54.7079 217.365 54.8756 216.838 54.8756V62.8756ZM226.264 56.8418L237.594 39.0218L230.843 34.7294L219.513 52.5494L226.264 56.8418ZM237.614 38.9898C239.885 35.3415 241.924 33.1933 243.626 32.1102L239.331 25.361C236.193 27.3579 233.391 30.6363 230.823 34.7614L237.614 38.9898ZM243.697 32.0638C245.333 30.9733 247.49 30.3156 250.388 30.3156V22.3156C246.247 22.3156 242.464 23.2713 239.259 25.4074L243.697 32.0638ZM250.388 30.3156H257.758V22.3156H250.388V30.3156ZM253.758 26.3156V41.9356H261.758V26.3156H253.758ZM257.758 37.9356H254.128V45.9356H257.758V37.9356ZM254.128 37.9356C249.438 37.9356 245.903 41.5191 243.281 45.6058L250.015 49.9254C252.38 46.2387 253.831 45.9356 254.128 45.9356V37.9356ZM243.256 45.6456L235.006 58.8456L241.79 63.0856L250.04 49.8856L243.256 45.6456ZM234.863 59.094C234.559 59.6686 234.135 60.1202 233.51 60.4879L237.566 67.3833C239.435 66.2844 240.918 64.7559 241.933 62.8372L234.863 59.094ZM233.667 60.4004C232.881 60.8165 232.31 60.9256 231.908 60.9256V68.9256C233.854 68.9256 235.702 68.3747 237.41 67.4708L233.667 60.4004ZM231.908 60.9256H231.028V68.9256H231.908V60.9256ZM329.513 89.0156H325.513V93.0156H329.513V89.0156ZM335.453 89.0156H339.453V85.0156H335.453V89.0156ZM335.453 117.066V121.066H339.453V117.066H335.453ZM319.063 117.066H315.063V121.066H319.063V117.066ZM319.063 103.866H323.063V99.8656H319.063V103.866ZM281.223 103.866V99.8656H277.223V103.866H281.223ZM281.223 117.066V121.066H285.223V117.066H281.223ZM264.393 117.066H260.393V121.066H264.393V117.066ZM264.393 89.0156V85.0156H260.393V89.0156H264.393ZM276.053 26.8656V22.8656H272.053V26.8656H276.053ZM329.513 26.8656H333.513V22.8656H329.513V26.8656ZM293.103 41.8256V37.8256H289.103V41.8256H293.103ZM289.583 89.0156L285.984 87.2705L283.199 93.0156H289.583V89.0156ZM312.573 89.0156V93.0156H316.573V89.0156H312.573ZM312.573 41.8256H316.573V37.8256H312.573V41.8256ZM329.513 93.0156H335.453V85.0156H329.513V93.0156ZM331.453 89.0156V117.066H339.453V89.0156H331.453ZM335.453 113.066H319.063V121.066H335.453V113.066ZM323.063 117.066V103.866H315.063V117.066H323.063ZM319.063 99.8656H281.223V107.866H319.063V99.8656ZM277.223 103.866V117.066H285.223V103.866H277.223ZM281.223 113.066H264.393V121.066H281.223V113.066ZM268.393 117.066V89.0156H260.393V117.066H268.393ZM264.393 93.0156H268.793V85.0156H264.393V93.0156ZM268.793 93.0156C270.811 93.0156 272.727 92.4272 274.375 91.1873C275.972 89.9851 277.099 88.3371 277.896 86.5381C279.448 83.033 280.053 78.2604 280.053 72.6256H272.053C272.053 77.9175 271.449 81.3398 270.581 83.2981C270.168 84.2308 269.782 84.6315 269.565 84.7951C269.397 84.9211 269.196 85.0156 268.793 85.0156V93.0156ZM280.053 72.6256V26.8656H272.053V72.6256H280.053ZM276.053 30.8656H329.513V22.8656H276.053V30.8656ZM325.513 26.8656V89.0156H333.513V26.8656H325.513ZM289.103 41.8256V71.7456H297.103V41.8256H289.103ZM289.103 71.7456C289.103 77.9566 288.011 83.0893 285.984 87.2705L293.183 90.7607C295.849 85.2619 297.103 78.8813 297.103 71.7456H289.103ZM289.583 93.0156H312.573V85.0156H289.583V93.0156ZM316.573 89.0156V41.8256H308.573V89.0156H316.573ZM312.573 37.8256H293.103V45.8256H312.573V37.8256ZM345.951 103.866H341.951V107.866H345.951V103.866ZM345.951 26.8656V22.8656H341.951V26.8656H345.951ZM363.771 26.8656H367.771V22.8656H363.771V26.8656ZM363.771 57.6656H359.771V61.6656H363.771V57.6656ZM396.881 64.3756L394.006 67.1565L394.017 67.1686L394.029 67.1806L396.881 64.3756ZM396.881 97.1556L399.732 99.9606L399.744 99.949L399.755 99.9373L396.881 97.1556ZM409.091 103.866H405.091V107.866H409.091V103.866ZM409.091 26.8656V22.8656H405.091V26.8656H409.091ZM426.911 26.8656H430.911V22.8656H426.911V26.8656ZM426.911 103.866V107.866H430.911V103.866H426.911ZM363.771 90.4456H359.771V94.4456H363.771V90.4456ZM383.021 87.6956L385.964 90.4038L385.964 90.4038L383.021 87.6956ZM383.021 73.8356L380.077 76.5438L380.077 76.5438L383.021 73.8356ZM363.771 71.0856V67.0856H359.771V71.0856H363.771ZM349.951 103.866V26.8656H341.951V103.866H349.951ZM345.951 30.8656H363.771V22.8656H345.951V30.8656ZM359.771 26.8656V57.6656H367.771V26.8656H359.771ZM363.771 61.6656H380.271V53.6656H363.771V61.6656ZM380.271 61.6656C386.034 61.6656 390.5 63.5321 394.006 67.1565L399.756 61.5947C394.608 56.2724 388 53.6656 380.271 53.6656V61.6656ZM394.029 67.1806C397.67 70.8823 399.481 75.3283 399.481 80.7656H407.481C407.481 73.2962 404.891 66.8156 399.732 61.5706L394.029 67.1806ZM399.481 80.7656C399.481 86.1171 397.678 90.5802 394.006 94.3739L399.755 99.9373C404.884 94.6376 407.481 88.1741 407.481 80.7656H399.481ZM394.029 94.3506C390.432 98.0071 385.947 99.8656 380.271 99.8656V107.866C387.941 107.866 394.529 105.251 399.732 99.9606L394.029 94.3506ZM380.271 99.8656H345.951V107.866H380.271V99.8656ZM413.091 103.866V26.8656H405.091V103.866H413.091ZM409.091 30.8656H426.911V22.8656H409.091V30.8656ZM422.911 26.8656V103.866H430.911V26.8656H422.911ZM426.911 99.8656H409.091V107.866H426.911V99.8656ZM363.771 94.4456H376.311V86.4456H363.771V94.4456ZM376.311 94.4456C380.069 94.4456 383.426 93.1628 385.964 90.4038L380.077 84.9874C379.242 85.8951 378.126 86.4456 376.311 86.4456V94.4456ZM385.964 90.4038C388.431 87.7228 389.551 84.3597 389.551 80.6556H381.551C381.551 82.6715 380.984 84.0017 380.077 84.9874L385.964 90.4038ZM389.551 80.6556C389.551 77.0363 388.394 73.7677 385.964 71.1274L380.077 76.5438C381.021 77.5702 381.551 78.8482 381.551 80.6556H389.551ZM385.964 71.1274C383.426 68.3684 380.069 67.0856 376.311 67.0856V75.0856C378.126 75.0856 379.242 75.6361 380.077 76.5438L385.964 71.1274ZM376.311 67.0856H363.771V75.0856H376.311V67.0856ZM359.771 71.0856V90.4456H367.771V71.0856H359.771ZM487.528 21.0356L485.295 17.7172L485.28 17.7273L485.265 17.7375L487.528 21.0356ZM459.038 21.0356L456.775 24.3337L456.79 24.3439L456.805 24.354L459.038 21.0356ZM452.988 10.8056V6.8056H448.703L448.998 11.0808L452.988 10.8056ZM463.438 10.8056L467.366 10.0502L466.742 6.8056H463.438V10.8056ZM483.238 10.8056V6.8056H479.934L479.31 10.0502L483.238 10.8056ZM493.688 10.8056L497.679 11.0808L497.974 6.8056H493.688V10.8056ZM486.318 55.9056H490.318V41.934L482.924 53.7887L486.318 55.9056ZM459.698 98.5856L456.304 96.4688L455.698 97.4404V98.5856H459.698ZM459.698 103.866V107.866H463.698V103.866H459.698ZM441.878 103.866H437.878V107.866H441.878V103.866ZM441.878 26.8656V22.8656H437.878V26.8656H441.878ZM459.698 26.8656H463.698V22.8656H459.698V26.8656ZM459.698 74.8256H455.698V88.7972L463.092 76.9425L459.698 74.8256ZM486.318 32.1456L489.712 34.2624L490.318 33.2908V32.1456H486.318ZM486.318 26.8656V22.8656H482.318V26.8656H486.318ZM504.138 26.8656H508.138V22.8656H504.138V26.8656ZM504.138 103.866V107.866H508.138V103.866H504.138ZM486.318 103.866H482.318V107.866H486.318V103.866ZM485.265 17.7375C482.347 19.7405 478.462 20.8856 473.338 20.8856V28.8856C479.655 28.8856 485.23 27.4641 489.792 24.3337L485.265 17.7375ZM473.338 20.8856C468.219 20.8856 464.28 19.7418 461.272 17.7172L456.805 24.354C461.424 27.4627 467.018 28.8856 473.338 28.8856V20.8856ZM461.302 17.7375C458.495 15.811 457.182 13.4782 456.979 10.5304L448.998 11.0808C449.381 16.6397 452.102 21.1268 456.775 24.3337L461.302 17.7375ZM452.988 14.8056H463.438V6.8056H452.988V14.8056ZM459.51 11.561C460.091 14.5824 461.786 17.0128 464.462 18.5591C466.964 20.0043 470.05 20.5256 473.338 20.5256V12.5256C470.76 12.5256 469.263 12.0936 468.465 11.6321C467.841 11.2718 467.519 10.8421 467.366 10.0502L459.51 11.561ZM473.338 20.5256C476.627 20.5256 479.713 20.0043 482.215 18.5591C484.891 17.0128 486.585 14.5824 487.166 11.561L479.31 10.0502C479.158 10.8421 478.836 11.2718 478.212 11.6321C477.414 12.0936 475.916 12.5256 473.338 12.5256V20.5256ZM483.238 14.8056H493.688V6.8056H483.238V14.8056ZM489.698 10.5304C489.497 13.4458 488.177 15.7775 485.295 17.7172L489.762 24.3539C494.507 21.1603 497.293 16.6721 497.679 11.0808L489.698 10.5304ZM482.924 53.7887L456.304 96.4688L463.092 100.702L489.712 58.0224L482.924 53.7887ZM455.698 98.5856V103.866H463.698V98.5856H455.698ZM459.698 99.8656H441.878V107.866H459.698V99.8656ZM445.878 103.866V26.8656H437.878V103.866H445.878ZM441.878 30.8656H459.698V22.8656H441.878V30.8656ZM455.698 26.8656V74.8256H463.698V26.8656H455.698ZM463.092 76.9425L489.712 34.2624L482.924 30.0287L456.304 72.7088L463.092 76.9425ZM490.318 32.1456V26.8656H482.318V32.1456H490.318ZM486.318 30.8656H504.138V22.8656H486.318V30.8656ZM500.138 26.8656V103.866H508.138V26.8656H500.138ZM504.138 99.8656H486.318V107.866H504.138V99.8656ZM490.318 103.866V55.9056H482.318V103.866H490.318ZM560.053 78.6756H564.053V74.6756H560.053V78.6756ZM563.133 88.0256L560.209 90.7549L560.256 90.8053L560.304 90.854L563.133 88.0256ZM579.743 88.3556L576.862 85.581L576.859 85.5832L579.743 88.3556ZM579.853 73.5056L577.085 76.3936L577.115 76.4217L577.145 76.4493L579.853 73.5056ZM563.573 70.9756H559.573V74.9756H563.573V70.9756ZM563.573 57.4456V53.4456H559.573V57.4456H563.573ZM579.193 41.2756L576.423 44.1611L576.423 44.1612L579.193 41.2756ZM563.683 41.6056L560.906 38.7262L560.88 38.7515L560.854 38.7772L563.683 41.6056ZM560.713 49.8556V53.8556H564.713V49.8556H560.713ZM542.453 49.8556H538.453V53.8556H542.453V49.8556ZM549.713 32.0356L552.497 34.9072L552.498 34.9065L549.713 32.0356ZM592.063 30.3856L589.823 33.7L589.839 33.7104L589.854 33.7207L592.063 30.3856ZM596.353 57.9956L593.251 55.4705L593.233 55.4925L593.215 55.5147L596.353 57.9956ZM587.333 64.0456L586.363 60.165L586.52 67.9621L587.333 64.0456ZM597.123 70.2056L593.999 72.7044L594.013 72.7215L594.027 72.7385L597.123 70.2056ZM592.943 99.5756L590.502 96.4067L590.491 96.4147L590.481 96.4228L592.943 99.5756ZM549.493 98.5856L546.748 101.495L546.758 101.505L546.769 101.515L549.493 98.5856ZM541.683 78.6756V74.6756H537.683V78.6756H541.683ZM556.053 78.6756C556.053 83.3703 557.256 87.5918 560.209 90.7549L566.057 85.2963C564.903 84.0594 564.053 82.0476 564.053 78.6756H556.053ZM560.304 90.854C563.355 93.9042 567.405 95.2156 571.933 95.2156V87.2156C568.98 87.2156 567.164 86.4003 565.961 85.1972L560.304 90.854ZM571.933 95.2156C576.078 95.2156 579.844 94.021 582.626 91.128L576.859 85.5832C575.975 86.5035 574.534 87.2156 571.933 87.2156V95.2156ZM582.624 91.1302C585.28 88.372 586.603 84.9439 586.603 81.0956H578.603C578.603 82.9673 578.019 84.3792 576.862 85.581L582.624 91.1302ZM586.603 81.0956C586.603 77.016 585.479 73.2462 582.561 70.5619L577.145 76.4493C577.894 77.1383 578.603 78.4285 578.603 81.0956H586.603ZM582.62 70.6176C579.737 67.8539 575.47 66.9756 570.943 66.9756V74.9756C574.775 74.9756 576.449 75.784 577.085 76.3936L582.62 70.6176ZM570.943 66.9756H563.573V74.9756H570.943V66.9756ZM567.573 70.9756V57.4456H559.573V70.9756H567.573ZM563.573 61.4456H570.943V53.4456H563.573V61.4456ZM570.943 61.4456C575.091 61.4456 578.948 60.5667 581.801 58.1133C584.769 55.5607 585.943 51.9262 585.943 47.9856H577.943C577.943 50.3517 577.283 51.4472 576.585 52.0479C575.771 52.7478 574.128 53.4456 570.943 53.4456V61.4456ZM585.943 47.9856C585.943 44.2653 584.639 40.9594 581.963 38.39L576.423 44.1612C577.413 45.1118 577.943 46.2793 577.943 47.9856H585.943ZM581.963 38.3901C579.251 35.7863 575.77 34.6356 571.933 34.6356V42.6356C574.109 42.6356 575.468 43.2449 576.423 44.1611L581.963 38.3901ZM571.933 34.6356C567.68 34.6356 563.855 35.8826 560.906 38.7262L566.459 44.485C567.617 43.3686 569.293 42.6356 571.933 42.6356V34.6356ZM560.854 38.7772C557.943 41.6887 556.713 45.5623 556.713 49.8556H564.713C564.713 47.1089 565.463 45.4825 566.511 44.434L560.854 38.7772ZM560.713 45.8556H542.453V53.8556H560.713V45.8556ZM546.453 49.8556C546.453 43.6716 548.49 38.7935 552.497 34.9072L546.928 29.164C541.256 34.6643 538.453 41.6662 538.453 49.8556H546.453ZM552.498 34.9065C556.408 31.1131 562.503 28.8856 571.493 28.8856V20.8856C561.27 20.8856 552.844 23.4247 546.928 29.1646L552.498 34.9065ZM571.493 28.8856C579.193 28.8856 585.214 30.5855 589.823 33.7L594.302 27.0712C588.058 22.8524 580.366 20.8856 571.493 20.8856V28.8856ZM589.854 33.7207C594.006 36.4695 596.203 40.5846 596.203 46.7756H604.203C604.203 38.2999 600.973 31.4884 594.271 27.0505L589.854 33.7207ZM596.203 46.7756C596.203 50.2459 595.198 53.0784 593.251 55.4705L599.455 60.5207C602.641 56.6062 604.203 51.9586 604.203 46.7756H596.203ZM593.215 55.5147C591.207 58.0539 588.932 59.5226 586.363 60.165L588.303 67.9262C592.773 66.8086 596.512 64.244 599.49 60.4765L593.215 55.5147ZM586.52 67.9621C589.433 68.5668 591.9 70.0808 593.999 72.7044L600.246 67.7068C597.065 63.7304 593.006 61.1377 588.146 60.1291L586.52 67.9621ZM594.027 72.7385C595.982 75.1277 597.083 78.2533 597.083 82.4156H605.083C605.083 76.7513 603.544 71.7369 600.219 67.6726L594.027 72.7385ZM597.083 82.4156C597.083 88.5209 594.879 93.0351 590.502 96.4067L595.384 102.745C601.86 97.7561 605.083 90.8303 605.083 82.4156H597.083ZM590.481 96.4228C585.975 99.9413 580.079 101.846 572.483 101.846V109.846C581.46 109.846 589.204 107.57 595.405 102.728L590.481 96.4228ZM572.483 101.846C562.946 101.846 556.42 99.564 552.216 95.6559L546.769 101.515C552.979 107.287 561.779 109.846 572.483 109.846V101.846ZM552.238 95.6764C547.968 91.6466 545.683 86.1358 545.683 78.6756H537.683C537.683 87.9354 540.605 95.6979 546.748 101.495L552.238 95.6764ZM541.683 82.6756H560.053V74.6756H541.683V82.6756ZM654.154 64.4856L653.394 60.5585L653.775 68.4676L654.154 64.4856ZM665.484 69.9856L662.525 72.6763L662.557 72.7115L662.589 72.7459L665.484 69.9856ZM612.464 103.866H608.464V107.866H612.464V103.866ZM612.464 26.8656V22.8656H608.464V26.8656H612.464ZM662.184 32.2556L659.654 35.3537L659.682 35.3767L659.711 35.3991L662.184 32.2556ZM664.934 58.7656L667.908 61.4415L667.924 61.4232L667.94 61.4048L664.934 58.7656ZM630.284 39.7356V35.7356H626.284V39.7356H630.284ZM630.284 58.4356H626.284V62.4356H630.284V58.4356ZM648.104 56.0156L650.688 59.0692L650.698 59.0606L648.104 56.0156ZM648.214 42.2656L645.564 45.2616L645.597 45.2907L645.631 45.3191L648.214 42.2656ZM649.204 87.6956L651.917 90.6348L651.947 90.6072L651.977 90.5789L649.204 87.6956ZM649.094 73.3956L646.381 76.3348L646.44 76.3889L646.501 76.4406L649.094 73.3956ZM630.284 70.7556V66.7556H626.284V70.7556H630.284ZM630.284 90.3356H626.284V94.3356H630.284V90.3356ZM653.775 68.4676C657.474 68.8198 660.306 70.2363 662.525 72.6763L668.444 67.2949C664.796 63.2816 660.075 61.0314 654.534 60.5036L653.775 68.4676ZM662.589 72.7459C664.752 75.0141 665.994 78.1336 665.994 82.5256H673.994C673.994 76.5043 672.23 71.2638 668.379 67.2253L662.589 72.7459ZM665.994 82.5256C665.994 88.1383 664.175 92.1755 660.775 95.1228L666.014 101.168C671.413 96.489 673.994 90.1129 673.994 82.5256H665.994ZM660.775 95.1228C657.302 98.1321 652.322 99.8656 645.354 99.8656V107.866C653.64 107.866 660.686 105.786 666.014 101.168L660.775 95.1228ZM645.354 99.8656H612.464V107.866H645.354V99.8656ZM616.464 103.866V26.8656H608.464V103.866H616.464ZM612.464 30.8656H644.144V22.8656H612.464V30.8656ZM644.144 30.8656C651.165 30.8656 656.18 32.5165 659.654 35.3537L664.715 29.1575C659.389 24.8081 652.377 22.8656 644.144 22.8656V30.8656ZM659.711 35.3991C663.12 38.0817 664.894 41.7451 664.894 46.8856H672.894C672.894 39.5594 670.195 33.4695 664.658 29.1121L659.711 35.3991ZM664.894 46.8856C664.894 51.0584 663.79 54.0061 661.929 56.1264L667.94 61.4048C671.358 57.5118 672.894 52.5395 672.894 46.8856H664.894ZM661.961 56.0897C660 58.2691 657.24 59.8141 653.394 60.5585L654.914 68.4127C660.162 67.3971 664.589 65.1288 667.908 61.4415L661.961 56.0897ZM640.184 35.7356H630.284V43.7356H640.184V35.7356ZM626.284 39.7356V58.4356H634.284V39.7356H626.284ZM630.284 62.4356H640.184V54.4356H630.284V62.4356ZM640.184 62.4356C644.171 62.4356 647.84 61.4788 650.688 59.0691L645.521 52.9621C644.555 53.779 642.945 54.4356 640.184 54.4356V62.4356ZM650.698 59.0606C653.691 56.5115 655.074 53.0232 655.074 49.0856H647.074C647.074 51.0147 646.478 52.1464 645.511 52.9706L650.698 59.0606ZM655.074 49.0856C655.074 45.203 653.763 41.7209 650.798 39.2121L645.631 45.3191C646.479 46.0369 647.074 47.1015 647.074 49.0856H655.074ZM650.865 39.2696C648.002 36.7373 644.259 35.7356 640.184 35.7356V43.7356C643.003 43.7356 644.613 44.4206 645.564 45.2616L650.865 39.2696ZM641.394 94.3356C645.416 94.3356 649.087 93.2475 651.917 90.6348L646.491 84.7564C645.508 85.6637 643.972 86.3356 641.394 86.3356V94.3356ZM651.977 90.5789C654.817 87.8482 656.064 84.2314 656.064 80.2156H648.064C648.064 82.5065 647.405 83.8763 646.432 84.8123L651.977 90.5789ZM656.064 80.2156C656.064 76.3153 654.656 72.8787 651.688 70.3506L646.501 76.4406C647.493 77.2858 648.064 78.3959 648.064 80.2156H656.064ZM651.807 70.4564C648.993 67.8586 645.371 66.7556 641.394 66.7556V74.7556C643.871 74.7556 645.382 75.4126 646.381 76.3348L651.807 70.4564ZM641.394 66.7556H630.284V74.7556H641.394V66.7556ZM626.284 70.7556V90.3356H634.284V70.7556H626.284ZM630.284 94.3356H641.394V86.3356H630.284V94.3356ZM718.945 26.8656V22.8656H716.399L715.322 25.1719L718.945 26.8656ZM738.635 26.8656L742.219 28.6422L745.083 22.8656H738.635V26.8656ZM700.465 103.866V107.866H702.947L704.049 105.642L700.465 103.866ZM680.665 103.866L677.077 102.099L674.237 107.866H680.665V103.866ZM694.965 74.8256L698.554 76.5927L699.49 74.6907L698.442 72.8479L694.965 74.8256ZM667.685 26.8656V22.8656H660.808L664.208 28.8433L667.685 26.8656ZM688.365 26.8656L691.885 24.9654L690.751 22.8656H688.365V26.8656ZM704.755 57.2256L701.235 59.1258L705.012 66.1221L708.379 58.9193L704.755 57.2256ZM718.945 30.8656H738.635V22.8656H718.945V30.8656ZM735.051 25.089L696.881 102.089L704.049 105.642L742.219 28.6422L735.051 25.089ZM700.465 99.8656H680.665V107.866H700.465V99.8656ZM684.254 105.633L698.554 76.5927L691.377 73.0585L677.077 102.099L684.254 105.633ZM698.442 72.8479L671.162 24.8879L664.208 28.8433L691.488 76.8033L698.442 72.8479ZM667.685 30.8656H688.365V22.8656H667.685V30.8656ZM684.845 28.7658L701.235 59.1258L708.275 55.3254L691.885 24.9654L684.845 28.7658ZM708.379 58.9193L722.569 28.5593L715.322 25.1719L701.132 55.5319L708.379 58.9193ZM779.919 103.866H775.919V107.866H779.919V103.866ZM779.919 78.4556H783.919V71.7073L777.999 74.9466L779.919 78.4556ZM746.919 74.8256L744.022 77.5842L744.033 77.5958L744.044 77.6073L746.919 74.8256ZM740.319 26.8656V22.8656H736.319V26.8656H740.319ZM758.139 26.8656H762.139V22.8656H758.139V26.8656ZM779.919 65.0356L782.418 68.1591L783.919 66.9581V65.0356H779.919ZM779.919 26.8656V22.8656H775.919V26.8656H779.919ZM797.629 26.8656H801.629V22.8656H797.629V26.8656ZM797.629 103.866V107.866H801.629V103.866H797.629ZM783.919 103.866V78.4556H775.919V103.866H783.919ZM777.999 74.9466C774.919 76.6314 770.421 77.6456 764.189 77.6456V85.6456C771.156 85.6456 777.145 84.5331 781.839 81.9646L777.999 74.9466ZM764.189 77.6456C758.011 77.6456 753.343 75.7117 749.793 72.0439L744.044 77.6073C749.295 83.0328 756.14 85.6456 764.189 85.6456V77.6456ZM749.815 72.067C746.176 68.2453 744.319 63.5364 744.319 57.6656H736.319C736.319 65.4348 738.862 72.1659 744.022 77.5842L749.815 72.067ZM744.319 57.6656V26.8656H736.319V57.6656H744.319ZM740.319 30.8656H758.139V22.8656H740.319V30.8656ZM754.139 26.8656V53.4856H762.139V26.8656H754.139ZM754.139 53.4856C754.139 58.6831 755.223 63.3269 758.081 66.7097C761.048 70.2217 765.322 71.6756 770.129 71.6756V63.6756C766.942 63.6756 765.221 62.7645 764.192 61.5465C763.053 60.1993 762.139 57.7481 762.139 53.4856H754.139ZM770.129 71.6756C774.902 71.6756 779.217 70.7199 782.418 68.1591L777.42 61.9121C776.221 62.8713 774.009 63.6756 770.129 63.6756V71.6756ZM783.919 65.0356V26.8656H775.919V65.0356H783.919ZM779.919 30.8656H797.629V22.8656H779.919V30.8656ZM793.629 26.8656V103.866H801.629V26.8656H793.629ZM797.629 99.8656H779.919V107.866H797.629V99.8656ZM857.139 55.9056H861.139V41.934L853.745 53.7887L857.139 55.9056ZM830.519 98.5856L827.125 96.4688L826.519 97.4404V98.5856H830.519ZM830.519 103.866V107.866H834.519V103.866H830.519ZM812.699 103.866H808.699V107.866H812.699V103.866ZM812.699 26.8656V22.8656H808.699V26.8656H812.699ZM830.519 26.8656H834.519V22.8656H830.519V26.8656ZM830.519 74.8256H826.519V88.7972L833.913 76.9425L830.519 74.8256ZM857.139 32.1456L860.533 34.2624L861.139 33.2908V32.1456H857.139ZM857.139 26.8656V22.8656H853.139V26.8656H857.139ZM874.959 26.8656H878.959V22.8656H874.959V26.8656ZM874.959 103.866V107.866H878.959V103.866H874.959ZM857.139 103.866H853.139V107.866H857.139V103.866ZM853.745 53.7887L827.125 96.4688L833.913 100.702L860.533 58.0224L853.745 53.7887ZM826.519 98.5856V103.866H834.519V98.5856H826.519ZM830.519 99.8656H812.699V107.866H830.519V99.8656ZM816.699 103.866V26.8656H808.699V103.866H816.699ZM812.699 30.8656H830.519V22.8656H812.699V30.8656ZM826.519 26.8656V74.8256H834.519V26.8656H826.519ZM833.913 76.9425L860.533 34.2624L853.745 30.0287L827.125 72.7088L833.913 76.9425ZM861.139 32.1456V26.8656H853.139V32.1456H861.139ZM857.139 30.8656H874.959V22.8656H857.139V30.8656ZM870.959 26.8656V103.866H878.959V26.8656H870.959ZM874.959 99.8656H857.139V107.866H874.959V99.8656ZM861.139 103.866V55.9056H853.139V103.866H861.139ZM904.125 103.866H900.125V107.866H904.125V103.866ZM904.125 42.7056H908.125V38.7056H904.125V42.7056ZM883.005 42.7056H879.005V46.7056H883.005V42.7056ZM883.005 26.8656V22.8656H879.005V26.8656H883.005ZM943.065 26.8656H947.065V22.8656H943.065V26.8656ZM943.065 42.7056V46.7056H947.065V42.7056H943.065ZM921.835 42.7056V38.7056H917.835V42.7056H921.835ZM921.835 103.866V107.866H925.835V103.866H921.835ZM908.125 103.866V42.7056H900.125V103.866H908.125ZM904.125 38.7056H883.005V46.7056H904.125V38.7056ZM887.005 42.7056V26.8656H879.005V42.7056H887.005ZM883.005 30.8656H943.065V22.8656H883.005V30.8656ZM939.065 26.8656V42.7056H947.065V26.8656H939.065ZM943.065 38.7056H921.835V46.7056H943.065V38.7056ZM917.835 42.7056V103.866H925.835V42.7056H917.835ZM921.835 99.8656H904.125V107.866H921.835V99.8656Z" fill="#04E05C"/>
</g>
<defs>
<filter id="filter0_ddd_84_30" x="0.901855" y="0.805603" width="952.164" height="126.26" filterUnits="userSpaceOnUse" color-interpolation-filters="sRGB">
<feFlood flood-opacity="0" result="BackgroundImageFix"/>
<feColorMatrix in="SourceAlpha" type="matrix" values="0 0 0 0 0 0 0 0 0 0 0 0 0 0 0 0 0 0 127 0" result="hardAlpha"/>
<feOffset dy="-1"/>
<feGaussianBlur stdDeviation="4.5"/>
<feComposite in2="hardAlpha" operator="out"/>
<feColorMatrix type="matrix" values="0 0 0 0 0.0509804 0 0 0 0 1 0 0 0 0 0.317647 0 0 0 1 0"/>
<feBlend mode="normal" in2="BackgroundImageFix" result="effect1_dropShadow_84_30"/>
<feColorMatrix in="SourceAlpha" type="matrix" values="0 0 0 0 0 0 0 0 0 0 0 0 0 0 0 0 0 0 127 0" result="hardAlpha"/>
<feOffset/>
<feGaussianBlur stdDeviation="5"/>
<feComposite in2="hardAlpha" operator="out"/>
<feColorMatrix type="matrix" values="0 0 0 0 0.0509804 0 0 0 0 1 0 0 0 0 0.317647 0 0 0 0.7 0"/>
<feBlend mode="normal" in2="effect1_dropShadow_84_30" result="effect2_dropShadow_84_30"/>
<feColorMatrix in="SourceAlpha" type="matrix" values="0 0 0 0 0 0 0 0 0 0 0 0 0 0 0 0 0 0 127 0" result="hardAlpha"/>
<feOffset/>
<feGaussianBlur stdDeviation="2.5"/>
<feComposite in2="hardAlpha" operator="out"/>
<feColorMatrix type="matrix" values="0 0 0 0 0.0509804 0 0 0 0 1 0 0 0 0 0.317647 0 0 0 0.4 0"/>
<feBlend mode="normal" in2="effect2_dropShadow_84_30" result="effect3_dropShadow_84_30"/>
<feBlend mode="normal" in="SourceGraphic" in2="effect3_dropShadow_84_30" result="shape"/>
</filter>
</defs>
</svg>
