<svg width="346" height="4792" viewBox="0 0 346 4792" fill="none" xmlns="http://www.w3.org/2000/svg">
<g clip-path="url(#clip0_1_2)">
<rect width="346" height="4792" fill="white"/>
<path d="M-362.769 0H708.768V1111.89H-362.769V0Z" fill="url(#paint0_radial_1_2)"/>
<path d="M699.211 2223.78L-372.325 2223.78L-372.325 1111.89L699.211 1111.89L699.211 2223.78Z" fill="url(#paint1_radial_1_2)"/>
<path d="M-362.769 2223.78H708.768L708.768 3335.67H-362.769L-362.769 2223.78Z" fill="url(#paint2_radial_1_2)"/>
<path d="M-362.769 3333.22H708.768V4232.53H-362.769L-362.769 3333.22Z" fill="url(#paint3_radial_1_2)"/>
<path d="M708.769 4840.94L-362.768 4840.94L-362.768 3422.53L708.769 3422.53L708.769 4840.94Z" fill="url(#paint4_radial_1_2)"/>
<g opacity="0.4">
<path d="M-49.5261 2206.67C-48.2971 2203.62 -46.8012 2201.38 -45.0381 2199.94C-43.2651 2198.47 -40.9718 2197.6 -38.1581 2197.32L-33.2614 2196.84C-31.0175 2196.63 -29.5508 2195.67 -28.8614 2193.96C-28.4917 2193.05 -28.4813 2192.2 -28.8302 2191.43C-29.1443 2190.64 -29.7588 2190.06 -30.6735 2189.69C-31.8356 2189.22 -32.8929 2189.24 -33.8454 2189.75C-34.7633 2190.24 -35.507 2191.19 -36.0765 2192.6L-42.1957 2190.13C-41.0967 2187.41 -39.3397 2185.59 -36.9249 2184.66C-34.4753 2183.73 -31.7795 2183.85 -28.8373 2185.04C-25.9445 2186.21 -23.952 2187.79 -22.8598 2189.79C-21.7575 2191.76 -21.676 2193.9 -22.6151 2196.23C-23.974 2199.59 -26.6769 2201.47 -30.7241 2201.88L-35.2791 2202.37C-36.6067 2202.52 -37.6104 2202.77 -38.2899 2203.1C-38.9448 2203.43 -39.5707 2203.99 -40.1676 2204.75L-28.2629 2209.56L-30.2412 2214.46L-49.5261 2206.67ZM-17.5857 2220.22C-20.7999 2218.92 -22.9626 2217.16 -24.0738 2214.92C-25.1603 2212.7 -25.1291 2210.17 -23.9801 2207.32L-17.935 2209.77C-18.4745 2211.1 -18.543 2212.27 -18.1405 2213.27C-17.7133 2214.27 -16.8568 2215.04 -15.5711 2215.55C-14.4833 2215.99 -13.498 2216.05 -12.6154 2215.71C-11.7081 2215.39 -11.0546 2214.73 -10.6549 2213.75C-9.74572 2211.5 -10.6139 2209.84 -13.2594 2208.77L-15.7812 2207.75L-13.9229 2203.15L-11.3639 2204.18C-8.99037 2205.14 -7.38897 2204.6 -6.5597 2202.54C-6.21001 2201.68 -6.22694 2200.87 -6.61051 2200.11C-6.99407 2199.35 -7.66798 2198.77 -8.63222 2198.38C-9.74481 2197.93 -10.7524 2197.9 -11.655 2198.28C-12.5476 2198.64 -13.2187 2199.38 -13.6683 2200.49L-19.6021 2198.09C-18.623 2195.67 -16.9733 2194.08 -14.6532 2193.32C-12.333 2192.56 -9.67708 2192.78 -6.68545 2193.99C-3.94107 2195.1 -1.99539 2196.62 -0.848421 2198.55C0.298547 2200.48 0.437412 2202.52 -0.431826 2204.67C-1.59081 2207.54 -3.89041 2208.78 -7.33063 2208.4C-5.86818 2209.34 -4.90672 2210.52 -4.44628 2211.94C-3.9611 2213.37 -4.03824 2214.88 -4.67768 2216.46C-5.60686 2218.76 -7.26364 2220.26 -9.64799 2220.97C-11.9976 2221.66 -14.6436 2221.41 -17.5857 2220.22Z" fill="#C47BFF"/>
</g>
</g>
<defs>
<radialGradient id="paint0_radial_1_2" cx="0" cy="0" r="1" gradientUnits="userSpaceOnUse" gradientTransform="translate(173 571.928) rotate(90) scale(800.283 771.238)">
<stop stop-color="#58118F"/>
<stop offset="0.40321" stop-color="#1A0A33"/>
<stop offset="0.82813"/>
</radialGradient>
<radialGradient id="paint1_radial_1_2" cx="0" cy="0" r="1" gradientUnits="userSpaceOnUse" gradientTransform="translate(163.443 1651.85) rotate(-90) scale(800.283 771.238)">
<stop stop-color="#58118F"/>
<stop offset="0.40321" stop-color="#1A0A33"/>
<stop offset="0.82813"/>
</radialGradient>
<radialGradient id="paint2_radial_1_2" cx="0" cy="0" r="1" gradientUnits="userSpaceOnUse" gradientTransform="translate(172.999 2795.71) rotate(90) scale(800.283 771.238)">
<stop stop-color="#58118F"/>
<stop offset="0.40321" stop-color="#1A0A33"/>
<stop offset="0.82813"/>
</radialGradient>
<radialGradient id="paint3_radial_1_2" cx="0" cy="0" r="1" gradientUnits="userSpaceOnUse" gradientTransform="translate(173 3795.8) rotate(90) scale(647.278 771.238)">
<stop stop-color="#58118F"/>
<stop offset="0.40321" stop-color="#1A0A33"/>
<stop offset="0.82813"/>
</radialGradient>
<radialGradient id="paint4_radial_1_2" cx="0" cy="0" r="1" gradientUnits="userSpaceOnUse" gradientTransform="translate(173 4111.35) rotate(-90) scale(1020.9 771.238)">
<stop stop-color="#58118F"/>
<stop offset="0.40321" stop-color="#1A0A33"/>
<stop offset="0.82813"/>
</radialGradient>
<clipPath id="clip0_1_2">
<rect width="346" height="4792" fill="white"/>
</clipPath>
</defs>
</svg>
