<svg width="267" height="267" viewBox="0 0 267 267" fill="none" xmlns="http://www.w3.org/2000/svg">
<g clip-path="url(#clip0_1_2)">
<g clip-path="url(#clip1_1_2)">
<path d="M120.684 26.7H112.14V35.244H120.684V26.7Z" fill="white"/>
<path d="M129.228 26.7H120.684V35.244H129.228V26.7Z" fill="white"/>
<path d="M137.772 26.7H129.228V35.244H137.772V26.7Z" fill="white"/>
<path d="M163.404 26.7H154.86V35.244H163.404V26.7Z" fill="white"/>
<path d="M103.596 35.244H95.052V43.788H103.596V35.244Z" fill="white"/>
<path d="M129.228 35.244H120.684V43.788H129.228V35.244Z" fill="white"/>
<path d="M146.316 35.244H137.772V43.788H146.316V35.244Z" fill="white"/>
<path d="M154.86 35.244H146.316V43.788H154.86V35.244Z" fill="white"/>
<path d="M163.404 35.244H154.86V43.788H163.404V35.244Z" fill="white"/>
<path d="M171.948 35.244H163.404V43.788H171.948V35.244Z" fill="white"/>
<path d="M103.596 43.788H95.052V52.332H103.596V43.788Z" fill="white"/>
<path d="M112.14 43.788H103.596V52.332H112.14V43.788Z" fill="white"/>
<path d="M120.684 43.788H112.14V52.332H120.684V43.788Z" fill="white"/>
<path d="M163.404 43.788H154.86V52.332H163.404V43.788Z" fill="white"/>
<path d="M120.684 52.332H112.14V60.876H120.684V52.332Z" fill="white"/>
<path d="M129.228 52.332H120.684V60.876H129.228V52.332Z" fill="white"/>
<path d="M137.772 52.332H129.228V60.876H137.772V52.332Z" fill="white"/>
<path d="M146.316 52.332H137.772V60.876H146.316V52.332Z" fill="white"/>
<path d="M163.404 52.332H154.86V60.876H163.404V52.332Z" fill="white"/>
<path d="M171.948 52.332H163.404V60.876H171.948V52.332Z" fill="white"/>
<path d="M103.596 60.876H95.052V69.42H103.596V60.876Z" fill="white"/>
<path d="M120.684 60.876H112.14V69.42H120.684V60.876Z" fill="white"/>
<path d="M129.228 60.876H120.684V69.42H129.228V60.876Z" fill="white"/>
<path d="M146.316 60.876H137.772V69.42H146.316V60.876Z" fill="white"/>
<path d="M171.948 60.876H163.404V69.42H171.948V60.876Z" fill="white"/>
<path d="M103.596 69.42H95.052V77.964H103.596V69.42Z" fill="white"/>
<path d="M120.684 69.42H112.14V77.964H120.684V69.42Z" fill="white"/>
<path d="M129.228 69.42H120.684V77.964H129.228V69.42Z" fill="white"/>
<path d="M137.772 69.42H129.228V77.964H137.772V69.42Z" fill="white"/>
<path d="M163.404 69.42H154.86V77.964H163.404V69.42Z" fill="white"/>
<path d="M103.596 77.964H95.052V86.508H103.596V77.964Z" fill="white"/>
<path d="M120.684 77.964H112.14V86.508H120.684V77.964Z" fill="white"/>
<path d="M137.772 77.964H129.228V86.508H137.772V77.964Z" fill="white"/>
<path d="M154.86 77.964H146.316V86.508H154.86V77.964Z" fill="white"/>
<path d="M171.948 77.964H163.404V86.508H171.948V77.964Z" fill="white"/>
<path d="M103.596 86.508H95.052V95.052H103.596V86.508Z" fill="white"/>
<path d="M112.14 86.508H103.596V95.052H112.14V86.508Z" fill="white"/>
<path d="M129.228 86.508H120.684V95.052H129.228V86.508Z" fill="white"/>
<path d="M137.772 86.508H129.228V95.052H137.772V86.508Z" fill="white"/>
<path d="M35.244 95.052H26.7V103.596H35.244V95.052Z" fill="white"/>
<path d="M43.788 95.052H35.244V103.596H43.788V95.052Z" fill="white"/>
<path d="M60.876 95.052H52.332V103.596H60.876V95.052Z" fill="white"/>
<path d="M86.508 95.052H77.964V103.596H86.508V95.052Z" fill="white"/>
<path d="M95.052 95.052H86.508V103.596H95.052V95.052Z" fill="white"/>
<path d="M129.228 95.052H120.684V103.596H129.228V95.052Z" fill="white"/>
<path d="M146.316 95.052H137.772V103.596H146.316V95.052Z" fill="white"/>
<path d="M154.86 95.052H146.316V103.596H154.86V95.052Z" fill="white"/>
<path d="M189.036 95.052H180.492V103.596H189.036V95.052Z" fill="white"/>
<path d="M197.58 95.052H189.036V103.596H197.58V95.052Z" fill="white"/>
<path d="M206.124 95.052H197.58V103.596H206.124V95.052Z" fill="white"/>
<path d="M223.212 95.052H214.668V103.596H223.212V95.052Z" fill="white"/>
<path d="M231.756 95.052H223.212V103.596H231.756V95.052Z" fill="white"/>
<path d="M35.244 103.596H26.7V112.14H35.244V103.596Z" fill="white"/>
<path d="M43.788 103.596H35.244V112.14H43.788V103.596Z" fill="white"/>
<path d="M95.052 103.596H86.508V112.14H95.052V103.596Z" fill="white"/>
<path d="M103.596 103.596H95.052V112.14H103.596V103.596Z" fill="white"/>
<path d="M112.14 103.596H103.596V112.14H112.14V103.596Z" fill="white"/>
<path d="M137.772 103.596H129.228V112.14H137.772V103.596Z" fill="white"/>
<path d="M146.316 103.596H137.772V112.14H146.316V103.596Z" fill="white"/>
<path d="M163.404 103.596H154.86V112.14H163.404V103.596Z" fill="white"/>
<path d="M171.948 103.596H163.404V112.14H171.948V103.596Z" fill="white"/>
<path d="M189.036 103.596H180.492V112.14H189.036V103.596Z" fill="white"/>
<path d="M206.124 103.596H197.58V112.14H206.124V103.596Z" fill="white"/>
<path d="M231.756 103.596H223.212V112.14H231.756V103.596Z" fill="white"/>
<path d="M43.788 112.14H35.244V120.684H43.788V112.14Z" fill="white"/>
<path d="M52.332 112.14H43.788V120.684H52.332V112.14Z" fill="white"/>
<path d="M60.876 112.14H52.332V120.684H60.876V112.14Z" fill="white"/>
<path d="M77.964 112.14H69.42V120.684H77.964V112.14Z" fill="white"/>
<path d="M86.508 112.14H77.964V120.684H86.508V112.14Z" fill="white"/>
<path d="M103.596 112.14H95.052V120.684H103.596V112.14Z" fill="white"/>
<path d="M129.228 112.14H120.684V120.684H129.228V112.14Z" fill="white"/>
<path d="M137.772 112.14H129.228V120.684H137.772V112.14Z" fill="white"/>
<path d="M163.404 112.14H154.86V120.684H163.404V112.14Z" fill="white"/>
<path d="M180.492 112.14H171.948V120.684H180.492V112.14Z" fill="white"/>
<path d="M189.036 112.14H180.492V120.684H189.036V112.14Z" fill="white"/>
<path d="M197.58 112.14H189.036V120.684H197.58V112.14Z" fill="white"/>
<path d="M214.668 112.14H206.124V120.684H214.668V112.14Z" fill="white"/>
<path d="M223.212 112.14H214.668V120.684H223.212V112.14Z" fill="white"/>
<path d="M69.42 120.684H60.876V129.228H69.42V120.684Z" fill="white"/>
<path d="M77.964 120.684H69.42V129.228H77.964V120.684Z" fill="white"/>
<path d="M95.052 120.684H86.508V129.228H95.052V120.684Z" fill="white"/>
<path d="M103.596 120.684H95.052V129.228H103.596V120.684Z" fill="white"/>
<path d="M112.14 120.684H103.596V129.228H112.14V120.684Z" fill="white"/>
<path d="M129.228 120.684H120.684V129.228H129.228V120.684Z" fill="white"/>
<path d="M137.772 120.684H129.228V129.228H137.772V120.684Z" fill="white"/>
<path d="M154.86 120.684H146.316V129.228H154.86V120.684Z" fill="white"/>
<path d="M171.948 120.684H163.404V129.228H171.948V120.684Z" fill="white"/>
<path d="M180.492 120.684H171.948V129.228H180.492V120.684Z" fill="white"/>
<path d="M189.036 120.684H180.492V129.228H189.036V120.684Z" fill="white"/>
<path d="M197.58 120.684H189.036V129.228H197.58V120.684Z" fill="white"/>
<path d="M206.124 120.684H197.58V129.228H206.124V120.684Z" fill="white"/>
<path d="M240.3 120.684H231.756V129.228H240.3V120.684Z" fill="white"/>
<path d="M35.244 129.228H26.7V137.772H35.244V129.228Z" fill="white"/>
<path d="M60.876 129.228H52.332V137.772H60.876V129.228Z" fill="white"/>
<path d="M77.964 129.228H69.42V137.772H77.964V129.228Z" fill="white"/>
<path d="M86.508 129.228H77.964V137.772H86.508V129.228Z" fill="white"/>
<path d="M95.052 129.228H86.508V137.772H95.052V129.228Z" fill="white"/>
<path d="M103.596 129.228H95.052V137.772H103.596V129.228Z" fill="white"/>
<path d="M120.684 129.228H112.14V137.772H120.684V129.228Z" fill="white"/>
<path d="M146.316 129.228H137.772V137.772H146.316V129.228Z" fill="white"/>
<path d="M180.492 129.228H171.948V137.772H180.492V129.228Z" fill="white"/>
<path d="M189.036 129.228H180.492V137.772H189.036V129.228Z" fill="white"/>
<path d="M197.58 129.228H189.036V137.772H197.58V129.228Z" fill="white"/>
<path d="M223.212 129.228H214.668V137.772H223.212V129.228Z" fill="white"/>
<path d="M231.756 129.228H223.212V137.772H231.756V129.228Z" fill="white"/>
<path d="M240.3 129.228H231.756V137.772H240.3V129.228Z" fill="white"/>
<path d="M43.788 137.772H35.244V146.316H43.788V137.772Z" fill="white"/>
<path d="M60.876 137.772H52.332V146.316H60.876V137.772Z" fill="white"/>
<path d="M69.42 137.772H60.876V146.316H69.42V137.772Z" fill="white"/>
<path d="M95.052 137.772H86.508V146.316H95.052V137.772Z" fill="white"/>
<path d="M112.14 137.772H103.596V146.316H112.14V137.772Z" fill="white"/>
<path d="M120.684 137.772H112.14V146.316H120.684V137.772Z" fill="white"/>
<path d="M137.772 137.772H129.228V146.316H137.772V137.772Z" fill="white"/>
<path d="M154.86 137.772H146.316V146.316H154.86V137.772Z" fill="white"/>
<path d="M180.492 137.772H171.948V146.316H180.492V137.772Z" fill="white"/>
<path d="M197.58 137.772H189.036V146.316H197.58V137.772Z" fill="white"/>
<path d="M206.124 137.772H197.58V146.316H206.124V137.772Z" fill="white"/>
<path d="M223.212 137.772H214.668V146.316H223.212V137.772Z" fill="white"/>
<path d="M231.756 137.772H223.212V146.316H231.756V137.772Z" fill="white"/>
<path d="M240.3 137.772H231.756V146.316H240.3V137.772Z" fill="white"/>
<path d="M35.244 146.316H26.7V154.86H35.244V146.316Z" fill="white"/>
<path d="M52.332 146.316H43.788V154.86H52.332V146.316Z" fill="white"/>
<path d="M60.876 146.316H52.332V154.86H60.876V146.316Z" fill="white"/>
<path d="M77.964 146.316H69.42V154.86H77.964V146.316Z" fill="white"/>
<path d="M86.508 146.316H77.964V154.86H86.508V146.316Z" fill="white"/>
<path d="M95.052 146.316H86.508V154.86H95.052V146.316Z" fill="white"/>
<path d="M129.228 146.316H120.684V154.86H129.228V146.316Z" fill="white"/>
<path d="M137.772 146.316H129.228V154.86H137.772V146.316Z" fill="white"/>
<path d="M146.316 146.316H137.772V154.86H146.316V146.316Z" fill="white"/>
<path d="M154.86 146.316H146.316V154.86H154.86V146.316Z" fill="white"/>
<path d="M163.404 146.316H154.86V154.86H163.404V146.316Z" fill="white"/>
<path d="M171.948 146.316H163.404V154.86H171.948V146.316Z" fill="white"/>
<path d="M180.492 146.316H171.948V154.86H180.492V146.316Z" fill="white"/>
<path d="M189.036 146.316H180.492V154.86H189.036V146.316Z" fill="white"/>
<path d="M206.124 146.316H197.58V154.86H206.124V146.316Z" fill="white"/>
<path d="M214.668 146.316H206.124V154.86H214.668V146.316Z" fill="white"/>
<path d="M43.788 154.86H35.244V163.404H43.788V154.86Z" fill="white"/>
<path d="M95.052 154.86H86.508V163.404H95.052V154.86Z" fill="white"/>
<path d="M137.772 154.86H129.228V163.404H137.772V154.86Z" fill="white"/>
<path d="M180.492 154.86H171.948V163.404H180.492V154.86Z" fill="white"/>
<path d="M189.036 154.86H180.492V163.404H189.036V154.86Z" fill="white"/>
<path d="M197.58 154.86H189.036V163.404H197.58V154.86Z" fill="white"/>
<path d="M35.244 163.404H26.7V171.948H35.244V163.404Z" fill="white"/>
<path d="M43.788 163.404H35.244V171.948H43.788V163.404Z" fill="white"/>
<path d="M52.332 163.404H43.788V171.948H52.332V163.404Z" fill="white"/>
<path d="M60.876 163.404H52.332V171.948H60.876V163.404Z" fill="white"/>
<path d="M69.42 163.404H60.876V171.948H69.42V163.404Z" fill="white"/>
<path d="M86.508 163.404H77.964V171.948H86.508V163.404Z" fill="white"/>
<path d="M103.596 163.404H95.052V171.948H103.596V163.404Z" fill="white"/>
<path d="M112.14 163.404H103.596V171.948H112.14V163.404Z" fill="white"/>
<path d="M137.772 163.404H129.228V171.948H137.772V163.404Z" fill="white"/>
<path d="M171.948 163.404H163.404V171.948H171.948V163.404Z" fill="white"/>
<path d="M180.492 163.404H171.948V171.948H180.492V163.404Z" fill="white"/>
<path d="M189.036 163.404H180.492V171.948H189.036V163.404Z" fill="white"/>
<path d="M197.58 163.404H189.036V171.948H197.58V163.404Z" fill="white"/>
<path d="M206.124 163.404H197.58V171.948H206.124V163.404Z" fill="white"/>
<path d="M240.3 163.404H231.756V171.948H240.3V163.404Z" fill="white"/>
<path d="M103.596 171.948H95.052V180.492H103.596V171.948Z" fill="white"/>
<path d="M112.14 171.948H103.596V180.492H112.14V171.948Z" fill="white"/>
<path d="M129.228 171.948H120.684V180.492H129.228V171.948Z" fill="white"/>
<path d="M137.772 171.948H129.228V180.492H137.772V171.948Z" fill="white"/>
<path d="M146.316 171.948H137.772V180.492H146.316V171.948Z" fill="white"/>
<path d="M154.86 171.948H146.316V180.492H154.86V171.948Z" fill="white"/>
<path d="M171.948 171.948H163.404V180.492H171.948V171.948Z" fill="white"/>
<path d="M206.124 171.948H197.58V180.492H206.124V171.948Z" fill="white"/>
<path d="M103.596 180.492H95.052V189.036H103.596V180.492Z" fill="white"/>
<path d="M120.684 180.492H112.14V189.036H120.684V180.492Z" fill="white"/>
<path d="M129.228 180.492H120.684V189.036H129.228V180.492Z" fill="white"/>
<path d="M137.772 180.492H129.228V189.036H137.772V180.492Z" fill="white"/>
<path d="M171.948 180.492H163.404V189.036H171.948V180.492Z" fill="white"/>
<path d="M189.036 180.492H180.492V189.036H189.036V180.492Z" fill="white"/>
<path d="M206.124 180.492H197.58V189.036H206.124V180.492Z" fill="white"/>
<path d="M214.668 180.492H206.124V189.036H214.668V180.492Z" fill="white"/>
<path d="M231.756 180.492H223.212V189.036H231.756V180.492Z" fill="white"/>
<path d="M240.3 180.492H231.756V189.036H240.3V180.492Z" fill="white"/>
<path d="M112.14 189.036H103.596V197.58H112.14V189.036Z" fill="white"/>
<path d="M120.684 189.036H112.14V197.58H120.684V189.036Z" fill="white"/>
<path d="M137.772 189.036H129.228V197.58H137.772V189.036Z" fill="white"/>
<path d="M146.316 189.036H137.772V197.58H146.316V189.036Z" fill="white"/>
<path d="M154.86 189.036H146.316V197.58H154.86V189.036Z" fill="white"/>
<path d="M171.948 189.036H163.404V197.58H171.948V189.036Z" fill="white"/>
<path d="M206.124 189.036H197.58V197.58H206.124V189.036Z" fill="white"/>
<path d="M214.668 189.036H206.124V197.58H214.668V189.036Z" fill="white"/>
<path d="M223.212 189.036H214.668V197.58H223.212V189.036Z" fill="white"/>
<path d="M231.756 189.036H223.212V197.58H231.756V189.036Z" fill="white"/>
<path d="M240.3 189.036H231.756V197.58H240.3V189.036Z" fill="white"/>
<path d="M120.684 197.58H112.14V206.124H120.684V197.58Z" fill="white"/>
<path d="M129.228 197.58H120.684V206.124H129.228V197.58Z" fill="white"/>
<path d="M146.316 197.58H137.772V206.124H146.316V197.58Z" fill="white"/>
<path d="M154.86 197.58H146.316V206.124H154.86V197.58Z" fill="white"/>
<path d="M171.948 197.58H163.404V206.124H171.948V197.58Z" fill="white"/>
<path d="M180.492 197.58H171.948V206.124H180.492V197.58Z" fill="white"/>
<path d="M189.036 197.58H180.492V206.124H189.036V197.58Z" fill="white"/>
<path d="M197.58 197.58H189.036V206.124H197.58V197.58Z" fill="white"/>
<path d="M206.124 197.58H197.58V206.124H206.124V197.58Z" fill="white"/>
<path d="M223.212 197.58H214.668V206.124H223.212V197.58Z" fill="white"/>
<path d="M231.756 197.58H223.212V206.124H231.756V197.58Z" fill="white"/>
<path d="M103.596 206.124H95.052V214.668H103.596V206.124Z" fill="white"/>
<path d="M120.684 206.124H112.14V214.668H120.684V206.124Z" fill="white"/>
<path d="M129.228 206.124H120.684V214.668H129.228V206.124Z" fill="white"/>
<path d="M146.316 206.124H137.772V214.668H146.316V206.124Z" fill="white"/>
<path d="M154.86 206.124H146.316V214.668H154.86V206.124Z" fill="white"/>
<path d="M163.404 206.124H154.86V214.668H163.404V206.124Z" fill="white"/>
<path d="M171.948 206.124H163.404V214.668H171.948V206.124Z" fill="white"/>
<path d="M189.036 206.124H180.492V214.668H189.036V206.124Z" fill="white"/>
<path d="M197.58 206.124H189.036V214.668H197.58V206.124Z" fill="white"/>
<path d="M206.124 206.124H197.58V214.668H206.124V206.124Z" fill="white"/>
<path d="M112.14 214.668H103.596V223.212H112.14V214.668Z" fill="white"/>
<path d="M129.228 214.668H120.684V223.212H129.228V214.668Z" fill="white"/>
<path d="M137.772 214.668H129.228V223.212H137.772V214.668Z" fill="white"/>
<path d="M163.404 214.668H154.86V223.212H163.404V214.668Z" fill="white"/>
<path d="M197.58 214.668H189.036V223.212H197.58V214.668Z" fill="white"/>
<path d="M214.668 214.668H206.124V223.212H214.668V214.668Z" fill="white"/>
<path d="M223.212 214.668H214.668V223.212H223.212V214.668Z" fill="white"/>
<path d="M240.3 214.668H231.756V223.212H240.3V214.668Z" fill="white"/>
<path d="M103.596 223.212H95.052V231.756H103.596V223.212Z" fill="white"/>
<path d="M112.14 223.212H103.596V231.756H112.14V223.212Z" fill="white"/>
<path d="M129.228 223.212H120.684V231.756H129.228V223.212Z" fill="white"/>
<path d="M137.772 223.212H129.228V231.756H137.772V223.212Z" fill="white"/>
<path d="M146.316 223.212H137.772V231.756H146.316V223.212Z" fill="white"/>
<path d="M154.86 223.212H146.316V231.756H154.86V223.212Z" fill="white"/>
<path d="M180.492 223.212H171.948V231.756H180.492V223.212Z" fill="white"/>
<path d="M214.668 223.212H206.124V231.756H214.668V223.212Z" fill="white"/>
<path d="M231.756 223.212H223.212V231.756H231.756V223.212Z" fill="white"/>
<path d="M240.3 223.212H231.756V231.756H240.3V223.212Z" fill="white"/>
<path d="M103.596 231.756H95.052V240.3H103.596V231.756Z" fill="white"/>
<path d="M112.14 231.756H103.596V240.3H112.14V231.756Z" fill="white"/>
<path d="M137.772 231.756H129.228V240.3H137.772V231.756Z" fill="white"/>
<path d="M146.316 231.756H137.772V240.3H146.316V231.756Z" fill="white"/>
<path d="M154.86 231.756H146.316V240.3H154.86V231.756Z" fill="white"/>
<path d="M163.404 231.756H154.86V240.3H163.404V231.756Z" fill="white"/>
<path d="M206.124 231.756H197.58V240.3H206.124V231.756Z" fill="white"/>
<path d="M214.668 231.756H206.124V240.3H214.668V231.756Z" fill="white"/>
<path d="M231.756 231.756H223.212V240.3H231.756V231.756Z" fill="white"/>
<path d="M240.3 231.756H231.756V240.3H240.3V231.756Z" fill="white"/>
<g clip-path="url(#clip2_1_2)">
<path d="M28.5114 26.6915C27.5118 26.6915 26.6915 27.5117 26.6915 28.5114V35.2441V43.7881V52.3321V60.8761V69.4201V77.9641V84.6967C26.6915 85.6964 27.5032 86.5166 28.5114 86.5166H84.6968C85.6964 86.5166 86.5166 85.7049 86.5166 84.6967V77.9641V69.4201V60.8761V52.3321V43.7881V35.2441V28.5114C86.5166 27.5117 85.705 26.6915 84.6968 26.6915H28.5114ZM77.9641 43.7881V52.3321V60.8761V69.4201V76.9217C77.9641 77.5027 77.4942 77.9641 76.9217 77.9641H36.2865C35.7055 77.9641 35.2441 77.4941 35.2441 76.9217V69.4201V60.8761V52.3321V43.7881V36.2864C35.2441 35.7054 35.714 35.2441 36.2865 35.2441H76.9217C77.5027 35.2441 77.9641 35.714 77.9641 36.2864V43.7881Z" fill="white"/>
</g>
<path d="M69.42 60.876V52.332V45.5993C69.42 44.5997 68.6083 43.7795 67.6001 43.7795H45.5993C44.5997 43.7795 43.7794 44.5911 43.7794 45.5993V52.332V60.876V67.6087C43.7794 68.6083 44.5911 69.4285 45.5993 69.4285H67.6001C68.5998 69.4285 69.42 68.6169 69.42 67.6087V60.876Z" fill="white"/>
<g clip-path="url(#clip3_1_2)">
<path d="M182.303 26.6915C181.304 26.6915 180.484 27.5117 180.484 28.5114V35.2441V43.7881V52.3321V60.8761V69.4201V77.9641V84.6967C180.484 85.6964 181.295 86.5166 182.303 86.5166H238.489C239.488 86.5166 240.309 85.7049 240.309 84.6967V77.9641V69.4201V60.8761V52.3321V43.7881V35.2441V28.5114C240.309 27.5117 239.497 26.6915 238.489 26.6915H182.303ZM231.756 43.7881V52.3321V60.8761V69.4201V76.9217C231.756 77.5027 231.286 77.9641 230.714 77.9641H190.078C189.497 77.9641 189.036 77.4941 189.036 76.9217V69.4201V60.8761V52.3321V43.7881V36.2864C189.036 35.7054 189.506 35.2441 190.078 35.2441H230.714C231.295 35.2441 231.756 35.714 231.756 36.2864V43.7881Z" fill="white"/>
</g>
<path d="M223.212 60.876V52.332V45.5993C223.212 44.5997 222.4 43.7795 221.392 43.7795H199.391C198.392 43.7795 197.571 44.5911 197.571 45.5993V52.332V60.876V67.6087C197.571 68.6083 198.383 69.4285 199.391 69.4285H221.392C222.392 69.4285 223.212 68.6169 223.212 67.6087V60.876Z" fill="white"/>
<g clip-path="url(#clip4_1_2)">
<path d="M28.5114 180.484C27.5118 180.484 26.6915 181.304 26.6915 182.303V189.036V197.58V206.124V214.668V223.212V231.756V238.489C26.6915 239.488 27.5032 240.309 28.5114 240.309H84.6968C85.6964 240.309 86.5166 239.497 86.5166 238.489V231.756V223.212V214.668V206.124V197.58V189.036V182.303C86.5166 181.304 85.705 180.484 84.6968 180.484H28.5114ZM77.9641 197.58V206.124V214.668V223.212V230.714C77.9641 231.295 77.4942 231.756 76.9217 231.756H36.2865C35.7055 231.756 35.2441 231.286 35.2441 230.714V223.212V214.668V206.124V197.58V190.078C35.2441 189.497 35.714 189.036 36.2865 189.036H76.9217C77.5027 189.036 77.9641 189.506 77.9641 190.078V197.58Z" fill="white"/>
</g>
<path d="M69.42 214.668V206.124V199.391C69.42 198.392 68.6083 197.571 67.6001 197.571H45.5993C44.5997 197.571 43.7794 198.383 43.7794 199.391V206.124V214.668V221.401C43.7794 222.4 44.5911 223.221 45.5993 223.221H67.6001C68.5998 223.221 69.42 222.409 69.42 221.401V214.668Z" fill="white"/>
</g>
</g>
<defs>
<clipPath id="clip0_1_2">
<rect width="267" height="267" fill="white"/>
</clipPath>
<clipPath id="clip1_1_2">
<rect width="267" height="267" fill="white"/>
</clipPath>
<clipPath id="clip2_1_2">
<rect width="59.808" height="59.808" fill="white" transform="translate(26.7 26.7)"/>
</clipPath>
<clipPath id="clip3_1_2">
<rect width="59.808" height="59.808" fill="white" transform="translate(180.492 26.7)"/>
</clipPath>
<clipPath id="clip4_1_2">
<rect width="59.808" height="59.808" fill="white" transform="translate(26.7 180.492)"/>
</clipPath>
</defs>
</svg>
