<?xml version="1.0" encoding="UTF-8" standalone="no"?>
<svg
   xmlns:dc="http://purl.org/dc/elements/1.1/"
   xmlns:cc="http://creativecommons.org/ns#"
   xmlns:rdf="http://www.w3.org/1999/02/22-rdf-syntax-ns#"
   xmlns:svg="http://www.w3.org/2000/svg"
   xmlns="http://www.w3.org/2000/svg"
   viewBox="0 0 1232.0547 202.48534"
   height="202.48534"
   width="1232.0547"
   xml:space="preserve"
   id="svg2"
   version="1.1"><metadata
     id="metadata8"><rdf:RDF><cc:Work
         rdf:about=""><dc:format>image/svg+xml</dc:format><dc:type
           rdf:resource="http://purl.org/dc/dcmitype/StillImage" /></cc:Work></rdf:RDF></metadata><defs
     id="defs6"><clipPath
       id="clipPath18"
       clipPathUnits="userSpaceOnUse"><path
         id="path16"
         d="M 0,151.864 H 924.041 V 0 H 0 Z" /></clipPath></defs><g
     transform="matrix(1.3333333,0,0,-1.3333333,0,202.48533)"
     id="g10"><g
       id="g12"><g
         clip-path="url(#clipPath18)"
         id="g14"><g
           transform="translate(81.817,114.5978)"
           id="g20"><path
             id="path22"
             style="fill:#00b944;fill-opacity:1;fill-rule:nonzero;stroke:none"
             d="m 0,0 v -39.461 -0.021 l -0.004,-0.007 c -0.016,-1.71 -1.408,-3.09 -3.122,-3.09 h -4.707 c -0.235,0 -0.424,-0.189 -0.424,-0.424 v -33.082 c 1.162,-0.11 2.338,-0.164 3.535,-0.164 21.134,0 38.269,17.133 38.269,38.271 C 33.547,-18.445 18.909,-2.326 0,0 m -0.778,-58.855 c -2.646,0 -4.784,2.139 -4.784,4.781 0,2.642 2.138,4.784 4.784,4.784 2.64,0 4.782,-2.142 4.782,-4.784 0,-2.642 -2.142,-4.781 -4.782,-4.781 m 11.216,0 c -2.638,0 -4.779,2.139 -4.779,4.781 0,2.642 2.141,4.784 4.779,4.784 2.641,0 4.787,-2.142 4.787,-4.784 0,-2.642 -2.146,-4.781 -4.787,-4.781 m 11.216,0 c -2.643,0 -4.786,2.139 -4.786,4.781 0,2.642 2.143,4.784 4.786,4.784 2.638,0 4.781,-2.142 4.781,-4.784 0,-2.642 -2.143,-4.781 -4.781,-4.781" /></g><g
           transform="translate(77.0942,114.8854)"
           id="g24"><path
             id="path26"
             style="fill:#00b944;fill-opacity:1;fill-rule:nonzero;stroke:none"
             d="m 0,0 c -21.137,0 -38.272,-17.133 -38.272,-38.265 0,-18.35 12.912,-33.676 30.138,-37.403 v 34.341 h 0.003 c 0.035,1.656 1.355,2.993 3.001,3.057 l 0.003,0.005 h 1.594 3.233 c 0.229,0 0.412,0.174 0.422,0.399 l 0.006,37.861 z m -7.336,-31.557 c -2.64,0 -4.782,2.144 -4.782,4.784 0,2.64 2.142,4.783 4.782,4.783 2.644,0 4.786,-2.143 4.786,-4.783 0,-2.64 -2.142,-4.784 -4.786,-4.784" /></g><g
           transform="translate(484.5756,93.8443)"
           id="g28"><path
             id="path30"
             style="fill:#00b944;fill-opacity:1;fill-rule:nonzero;stroke:none"
             d="M 0,0 V -14.442 H -19.388 V 0 h -9.562 v -38.131 h 9.562 v 15.41 H 0 v -15.41 H 9.561 L 9.561,0 Z" /></g><g
           transform="translate(325.4232,89.5923)"
           id="g32"><path
             id="path34"
             style="fill:#00b944;fill-opacity:1;fill-rule:nonzero;stroke:none"
             d="m 0,0 c -1.595,3.461 -4.781,5.161 -7.845,5.161 h -0.001 -0.001 -0.004 c -3.069,0 -6.253,-1.7 -7.848,-5.161 l -15.627,-33.88 h 10.166 l 3.406,8.052 h 19.81 l 3.409,-8.052 h 10.162 z m -14.514,-18.198 5.887,13.848 c 0.181,0.433 0.519,0.544 0.776,0.544 h 0.004 0.001 c 0.254,0 0.593,-0.111 0.777,-0.544 l 5.885,-13.848 z" /></g><g
           transform="translate(211.7027,100.7487)"
           id="g36"><path
             id="path38"
             style="fill:#00b944;fill-opacity:1;fill-rule:nonzero;stroke:none"
             d="M 0,0 C -4.476,0 -7.33,-2.383 -9.448,-7.184 L -21.91,-35.881 -34.378,-7.184 C -36.493,-2.383 -39.347,0 -43.828,0 -48.013,0 -52.34,-2.995 -52.34,-9.507 v -35.529 h 9.548 v 34.553 l 12.539,-28.451 c 1.682,-3.977 4.394,-6.476 8.338,-6.476 h 0.005 0.003 c 3.942,0 6.651,2.499 8.339,6.476 l 12.536,28.451 V -45.036 H 8.517 V -9.507 C 8.517,-2.995 4.184,0 0,0" /></g><g
           transform="translate(236.955,63.7702)"
           id="g40"><path
             id="path42"
             style="fill:#00b944;fill-opacity:1;fill-rule:nonzero;stroke:none"
             d="m 0,0 c -0.46,0 -0.821,0.375 -0.821,0.824 v 6.801 h 23.826 v 7.773 H -0.821 v 5.801 c 0,0.44 0.361,0.818 0.821,0.818 h 23.561 v 8.058 h -28.26 c -3.309,0 -5.688,-2.771 -5.688,-5.687 V -2.371 c 0,-2.922 2.379,-5.687 5.688,-5.687 h 28.26 V 0 Z" /></g><g
           transform="translate(276.7303,55.7125)"
           id="g44"><path
             id="path46"
             style="fill:#00b944;fill-opacity:1;fill-rule:nonzero;stroke:none"
             d="m 0,0 v 29.257 c 0,0.439 0.362,0.816 0.824,0.816 h 23.563 v 8.058 H -3.877 c -3.311,0 -5.687,-2.769 -5.687,-5.685 V 0 Z" /></g><g
           transform="translate(449.3021,74.8411)"
           id="g48"><path
             id="path50"
             style="fill:#00b944;fill-opacity:1;fill-rule:nonzero;stroke:none"
             d="m 0,0 c -0.005,13.357 -5.741,19.583 -20.214,19.583 h -3.344 C -38.033,19.583 -43.769,13.357 -43.775,0 v -0.018 c 0,-13.144 5.859,-19.483 20.303,-19.483 h 3.172 c 14.436,0 20.3,6.339 20.3,19.483 z m -20.358,-11.607 h -3.058 c -7.973,0 -11.053,3.586 -11.053,11.571 v 0.027 c 0,7.757 2.709,11.567 11.053,11.567 h 3.058 c 8.107,0 11.049,-3.81 11.049,-11.558 v -0.036 c 0,-7.985 -3.138,-11.571 -11.049,-11.571" /></g><g
           transform="translate(378.8696,99.8503)"
           id="g52"><path
             id="path54"
             style="fill:#00b944;fill-opacity:1;fill-rule:nonzero;stroke:none"
             d="m 0,0 h -18.925 c -14.118,0 -19.766,-7.142 -19.766,-19.601 0,-1.948 0.115,-3.749 0.396,-5.408 1.495,-8.82 6.683,-14.241 19.905,-14.241 h 4.159 v -4.888 h 9.541 v 4.888 h 4.157 c 13.225,0 18.409,5.421 19.905,14.241 0.28,1.659 0.395,3.46 0.395,5.408 C 19.767,-7.142 14.122,0 0,0 m -14.231,-31.201 h -4.377 c -6.468,0 -8.798,2.415 -10.223,6.192 -0.549,1.455 -0.546,3.3 -0.546,5.393 0,8.134 3.762,11.576 9.271,11.576 h 5.875 z m 24.139,6.192 C 8.481,-28.786 6.155,-31.201 -0.314,-31.201 H -4.69 V -8.04 h 5.876 c 5.506,0 9.266,-3.442 9.266,-11.576 0,-2.093 0.004,-3.938 -0.544,-5.393" /></g><path
           id="path56"
           style="fill:#00b944;fill-opacity:1;fill-rule:nonzero;stroke:none"
           d="m 540.775,38.499 h -2.641 v 76.387 h 2.641 z" /><g
           transform="translate(587.1124,53.8744)"
           id="g58"><path
             id="path60"
             style="fill:#00b944;fill-opacity:1;fill-rule:nonzero;stroke:none"
             d="M 0,0 V -12.012 H -2.314 V 2.073 H 8.109 V -12.012 H 5.795 V 0 Z" /></g><g
           transform="translate(604.7389,43.5922)"
           id="g62"><path
             id="path64"
             style="fill:#00b944;fill-opacity:1;fill-rule:nonzero;stroke:none"
             d="m 0,0 c 0.751,0 1.425,0.148 2.022,0.443 0.597,0.295 1.107,0.69 1.529,1.187 0.423,0.496 0.745,1.063 0.966,1.7 0.222,0.637 0.332,1.298 0.332,1.982 0,0.684 -0.11,1.345 -0.332,1.982 C 4.296,7.931 3.974,8.498 3.551,8.995 3.129,9.491 2.619,9.887 2.022,10.182 1.425,10.476 0.751,10.624 0,10.624 c -0.752,0 -1.426,-0.148 -2.022,-0.442 C -2.619,9.887 -3.129,9.491 -3.551,8.995 -3.974,8.498 -4.296,7.931 -4.517,7.294 -4.739,6.657 -4.849,5.996 -4.849,5.312 c 0,-0.684 0.11,-1.345 0.332,-1.982 0.221,-0.637 0.543,-1.204 0.966,-1.7 C -3.129,1.133 -2.619,0.738 -2.022,0.443 -1.426,0.148 -0.752,0 0,0 m 0,-2.073 c -1.127,0 -2.143,0.205 -3.048,0.614 -0.906,0.409 -1.671,0.956 -2.294,1.64 -0.624,0.684 -1.104,1.472 -1.439,2.365 -0.336,0.892 -0.503,1.814 -0.503,2.766 0,0.953 0.167,1.875 0.503,2.767 0.335,0.892 0.815,1.68 1.439,2.364 0.623,0.684 1.388,1.231 2.294,1.64 0.905,0.409 1.921,0.614 3.048,0.614 1.127,0 2.143,-0.205 3.048,-0.614 0.906,-0.409 1.671,-0.956 2.294,-1.64 C 5.966,9.759 6.446,8.971 6.781,8.079 7.116,7.187 7.284,6.265 7.284,5.312 7.284,4.36 7.116,3.438 6.781,2.546 6.446,1.653 5.966,0.865 5.342,0.181 4.719,-0.503 3.954,-1.05 3.048,-1.459 2.143,-1.868 1.127,-2.073 0,-2.073" /></g><g
           transform="translate(632.6675,46.3892)"
           id="g66"><path
             id="path68"
             style="fill:#00b944;fill-opacity:1;fill-rule:nonzero;stroke:none"
             d="m 0,0 c -0.161,-0.684 -0.436,-1.321 -0.825,-1.912 -0.389,-0.59 -0.872,-1.106 -1.449,-1.549 -0.577,-0.443 -1.241,-0.788 -1.992,-1.036 -0.751,-0.248 -1.556,-0.373 -2.415,-0.373 -1.153,0 -2.186,0.202 -3.098,0.604 -0.912,0.403 -1.687,0.943 -2.324,1.62 -0.638,0.677 -1.127,1.462 -1.469,2.354 -0.342,0.892 -0.513,1.834 -0.513,2.827 0,0.953 0.164,1.872 0.493,2.757 0.328,0.886 0.805,1.67 1.428,2.354 0.624,0.685 1.375,1.231 2.254,1.64 0.878,0.409 1.875,0.614 2.988,0.614 1.046,0 1.975,-0.144 2.787,-0.433 C -3.323,9.179 -2.629,8.79 -2.052,8.3 -1.476,7.81 -1.016,7.234 -0.674,6.57 -0.332,5.906 -0.108,5.191 0,4.427 h -2.435 c -0.08,0.483 -0.238,0.932 -0.473,1.348 -0.235,0.416 -0.53,0.775 -0.885,1.077 -0.356,0.301 -0.772,0.539 -1.247,0.714 -0.477,0.174 -1.004,0.261 -1.58,0.261 -0.805,0 -1.526,-0.148 -2.163,-0.442 -0.638,-0.295 -1.171,-0.688 -1.6,-1.177 -0.429,-0.49 -0.758,-1.054 -0.986,-1.691 -0.228,-0.637 -0.342,-1.297 -0.342,-1.982 0,-0.724 0.117,-1.408 0.352,-2.052 0.235,-0.644 0.577,-1.211 1.026,-1.7 0.45,-0.49 1.007,-0.876 1.671,-1.157 0.664,-0.282 1.425,-0.423 2.284,-0.423 0.402,0 0.807,0.07 1.217,0.211 0.409,0.141 0.788,0.336 1.136,0.584 0.349,0.248 0.654,0.543 0.916,0.885 0.262,0.342 0.453,0.715 0.573,1.117 z" /></g><g
           transform="translate(637.1945,50.4137)"
           id="g70"><path
             id="path72"
             style="fill:#00b944;fill-opacity:1;fill-rule:nonzero;stroke:none"
             d="M 0,0 H 0.221 C 0.637,0 1.029,0.124 1.398,0.372 1.767,0.62 2.113,1.013 2.435,1.549 L 3.541,3.38 C 3.93,4.038 4.39,4.577 4.92,5 5.45,5.423 6.083,5.634 6.821,5.634 H 7.646 V 3.561 H 7.244 C 6.949,3.561 6.643,3.491 6.328,3.35 6.013,3.209 5.728,2.917 5.473,2.475 L 4.588,0.925 C 4.306,0.416 3.95,-0.024 3.521,-0.393 3.092,-0.762 2.589,-1.013 2.012,-1.147 L 8.089,-8.552 H 5.131 L 0,-1.912 v -6.64 H -2.314 V 5.533 l 2.314,0 z" /></g><g
           transform="translate(652.8292,43.5922)"
           id="g74"><path
             id="path76"
             style="fill:#00b944;fill-opacity:1;fill-rule:nonzero;stroke:none"
             d="m 0,0 c 0.751,0 1.425,0.148 2.022,0.443 0.597,0.295 1.107,0.69 1.529,1.187 0.423,0.496 0.745,1.063 0.966,1.7 0.222,0.637 0.332,1.298 0.332,1.982 0,0.684 -0.11,1.345 -0.332,1.982 C 4.296,7.931 3.974,8.498 3.551,8.995 3.129,9.491 2.619,9.887 2.022,10.182 1.425,10.476 0.751,10.624 0,10.624 c -0.752,0 -1.426,-0.148 -2.022,-0.442 C -2.619,9.887 -3.129,9.491 -3.551,8.995 -3.974,8.498 -4.296,7.931 -4.517,7.294 -4.739,6.657 -4.849,5.996 -4.849,5.312 c 0,-0.684 0.11,-1.345 0.332,-1.982 0.221,-0.637 0.543,-1.204 0.966,-1.7 C -3.129,1.133 -2.619,0.738 -2.022,0.443 -1.426,0.148 -0.752,0 0,0 m 0,-2.073 c -1.127,0 -2.143,0.205 -3.048,0.614 -0.906,0.409 -1.671,0.956 -2.294,1.64 -0.624,0.684 -1.104,1.472 -1.439,2.365 -0.336,0.892 -0.503,1.814 -0.503,2.766 0,0.953 0.167,1.875 0.503,2.767 0.335,0.892 0.815,1.68 1.439,2.364 0.623,0.684 1.388,1.231 2.294,1.64 0.905,0.409 1.921,0.614 3.048,0.614 1.127,0 2.143,-0.205 3.048,-0.614 0.906,-0.409 1.671,-0.956 2.294,-1.64 C 5.966,9.759 6.446,8.971 6.781,8.079 7.116,7.187 7.284,6.265 7.284,5.312 7.284,4.36 7.116,3.438 6.781,2.546 6.446,1.653 5.966,0.865 5.342,0.181 4.719,-0.503 3.954,-1.05 3.048,-1.459 2.143,-1.868 1.127,-2.073 0,-2.073" /></g><g
           transform="translate(667.397,48.1599)"
           id="g78"><path
             id="path80"
             style="fill:#00b944;fill-opacity:1;fill-rule:nonzero;stroke:none"
             d="M 0,0 C 0.403,0 0.768,0.077 1.097,0.231 1.425,0.386 1.704,0.594 1.932,0.855 2.16,1.117 2.337,1.419 2.465,1.761 2.592,2.103 2.656,2.468 2.656,2.857 2.656,3.246 2.592,3.612 2.465,3.954 2.337,4.296 2.16,4.598 1.932,4.859 1.704,5.121 1.425,5.329 1.097,5.483 0.768,5.637 0.403,5.714 0,5.714 H -2.737 V 0 Z M -5.05,7.787 H 0 C 0.751,7.787 1.432,7.656 2.042,7.395 2.653,7.133 3.176,6.774 3.612,6.318 4.048,5.862 4.383,5.336 4.618,4.739 4.852,4.142 4.97,3.514 4.97,2.857 4.97,2.186 4.852,1.556 4.618,0.966 4.383,0.376 4.048,-0.148 3.612,-0.604 3.176,-1.06 2.653,-1.419 2.042,-1.68 1.432,-1.942 0.751,-2.073 0,-2.073 H -2.737 V -6.298 H -5.05 Z" /></g><g
           transform="translate(680.9188,43.5922)"
           id="g82"><path
             id="path84"
             style="fill:#00b944;fill-opacity:1;fill-rule:nonzero;stroke:none"
             d="m 0,0 c 0.751,0 1.425,0.148 2.022,0.443 0.597,0.295 1.107,0.69 1.529,1.187 0.423,0.496 0.745,1.063 0.966,1.7 0.222,0.637 0.332,1.298 0.332,1.982 0,0.684 -0.11,1.345 -0.332,1.982 C 4.296,7.931 3.974,8.498 3.551,8.995 3.129,9.491 2.619,9.887 2.022,10.182 1.425,10.476 0.751,10.624 0,10.624 c -0.752,0 -1.426,-0.148 -2.022,-0.442 C -2.619,9.887 -3.129,9.491 -3.551,8.995 -3.974,8.498 -4.296,7.931 -4.517,7.294 -4.739,6.657 -4.849,5.996 -4.849,5.312 c 0,-0.684 0.11,-1.345 0.332,-1.982 0.221,-0.637 0.543,-1.204 0.966,-1.7 C -3.129,1.133 -2.619,0.738 -2.022,0.443 -1.426,0.148 -0.752,0 0,0 m 0,-2.073 c -1.127,0 -2.143,0.205 -3.048,0.614 -0.906,0.409 -1.671,0.956 -2.294,1.64 -0.624,0.684 -1.104,1.472 -1.439,2.365 -0.336,0.892 -0.503,1.814 -0.503,2.766 0,0.953 0.167,1.875 0.503,2.767 0.335,0.892 0.815,1.68 1.439,2.364 0.623,0.684 1.388,1.231 2.294,1.64 0.905,0.409 1.921,0.614 3.048,0.614 1.127,0 2.143,-0.205 3.048,-0.614 0.906,-0.409 1.671,-0.956 2.294,-1.64 C 5.966,9.759 6.446,8.971 6.781,8.079 7.116,7.187 7.284,6.265 7.284,5.312 7.284,4.36 7.116,3.438 6.781,2.546 6.446,1.653 5.966,0.865 5.342,0.181 4.719,-0.503 3.954,-1.05 3.048,-1.459 2.143,-1.868 1.127,-2.073 0,-2.073" /></g><g
           transform="translate(703.817,46.3892)"
           id="g86"><path
             id="path88"
             style="fill:#00b944;fill-opacity:1;fill-rule:nonzero;stroke:none"
             d="m 0,0 c -0.161,-0.684 -0.436,-1.321 -0.825,-1.912 -0.389,-0.59 -0.872,-1.106 -1.449,-1.549 -0.577,-0.443 -1.241,-0.788 -1.992,-1.036 -0.751,-0.248 -1.556,-0.373 -2.415,-0.373 -1.153,0 -2.186,0.202 -3.098,0.604 -0.912,0.403 -1.687,0.943 -2.324,1.62 -0.638,0.677 -1.127,1.462 -1.469,2.354 -0.342,0.892 -0.513,1.834 -0.513,2.827 0,0.953 0.164,1.872 0.493,2.757 0.328,0.886 0.805,1.67 1.428,2.354 0.624,0.685 1.375,1.231 2.254,1.64 0.878,0.409 1.875,0.614 2.988,0.614 1.046,0 1.975,-0.144 2.787,-0.433 C -3.323,9.179 -2.629,8.79 -2.052,8.3 -1.476,7.81 -1.016,7.234 -0.674,6.57 -0.332,5.906 -0.108,5.191 0,4.427 h -2.435 c -0.08,0.483 -0.238,0.932 -0.473,1.348 -0.235,0.416 -0.53,0.775 -0.885,1.077 -0.356,0.301 -0.772,0.539 -1.247,0.714 -0.477,0.174 -1.004,0.261 -1.58,0.261 -0.805,0 -1.526,-0.148 -2.163,-0.442 -0.638,-0.295 -1.171,-0.688 -1.6,-1.177 -0.429,-0.49 -0.758,-1.054 -0.986,-1.691 -0.228,-0.637 -0.342,-1.297 -0.342,-1.982 0,-0.724 0.117,-1.408 0.352,-2.052 0.235,-0.644 0.577,-1.211 1.026,-1.7 0.45,-0.49 1.007,-0.876 1.671,-1.157 0.664,-0.282 1.425,-0.423 2.284,-0.423 0.402,0 0.807,0.07 1.217,0.211 0.409,0.141 0.788,0.336 1.136,0.584 0.349,0.248 0.654,0.543 0.916,0.885 0.262,0.342 0.453,0.715 0.573,1.117 z" /></g><g
           transform="translate(707.3381,53.8744)"
           id="g90"><path
             id="path92"
             style="fill:#00b944;fill-opacity:1;fill-rule:nonzero;stroke:none"
             d="M 0,0 H -3.481 V 2.073 H 5.815 V 0 H 2.314 V -12.012 H 0 Z" /></g><g
           transform="translate(722.9321,51.6009)"
           id="g94"><path
             id="path96"
             style="fill:#00b944;fill-opacity:1;fill-rule:nonzero;stroke:none"
             d="M 0,0 -5.795,-8.773 V -9.739 H -8.109 V 4.346 h 2.314 V -5.393 L 0,3.38 V 4.346 H 2.314 V -9.739 H 0 Z" /></g><g
           transform="translate(741.3014,51.6513)"
           id="g98"><path
             id="path100"
             style="fill:#00b944;fill-opacity:1;fill-rule:nonzero;stroke:none"
             d="M 0,0 -5.795,-8.773 V -9.739 H -8.109 V 4.346 h 2.314 V -5.393 L 0,3.38 V 4.346 H 2.314 V -9.739 H 0 Z" /></g><g
           transform="translate(753.8975,53.9248)"
           id="g102"><path
             id="path104"
             style="fill:#00b944;fill-opacity:1;fill-rule:nonzero;stroke:none"
             d="M 0,0 V -12.012 H -2.314 V 2.073 H 8.109 V -12.012 H 5.795 V 0 Z" /></g><g
           transform="translate(771.5239,43.6426)"
           id="g106"><path
             id="path108"
             style="fill:#00b944;fill-opacity:1;fill-rule:nonzero;stroke:none"
             d="m 0,0 c 0.751,0 1.425,0.148 2.022,0.443 0.597,0.295 1.107,0.69 1.529,1.187 0.423,0.496 0.745,1.063 0.966,1.7 0.222,0.637 0.332,1.298 0.332,1.982 0,0.684 -0.11,1.345 -0.332,1.982 C 4.296,7.931 3.974,8.498 3.551,8.995 3.129,9.491 2.619,9.887 2.022,10.182 1.425,10.476 0.751,10.624 0,10.624 c -0.752,0 -1.426,-0.148 -2.022,-0.442 C -2.619,9.887 -3.129,9.491 -3.551,8.995 -3.974,8.498 -4.296,7.931 -4.517,7.294 -4.739,6.657 -4.849,5.996 -4.849,5.312 c 0,-0.684 0.11,-1.345 0.332,-1.982 0.221,-0.637 0.543,-1.204 0.966,-1.7 C -3.129,1.133 -2.619,0.738 -2.022,0.443 -1.426,0.148 -0.752,0 0,0 m 0,-2.073 c -1.127,0 -2.143,0.205 -3.048,0.614 -0.906,0.409 -1.671,0.956 -2.294,1.64 -0.624,0.684 -1.104,1.472 -1.439,2.365 -0.336,0.892 -0.503,1.814 -0.503,2.766 0,0.953 0.167,1.875 0.503,2.767 0.335,0.892 0.815,1.68 1.439,2.364 0.623,0.684 1.388,1.231 2.294,1.64 0.905,0.409 1.921,0.614 3.048,0.614 1.127,0 2.143,-0.205 3.048,-0.614 0.906,-0.409 1.671,-0.956 2.294,-1.64 C 5.966,9.759 6.446,8.971 6.781,8.079 7.116,7.187 7.284,6.265 7.284,5.312 7.284,4.36 7.116,3.438 6.781,2.546 6.446,1.653 5.966,0.865 5.342,0.181 4.719,-0.503 3.954,-1.05 3.048,-1.459 2.143,-1.868 1.127,-2.073 0,-2.073" /></g><g
           transform="translate(783.3551,50.4642)"
           id="g110"><path
             id="path112"
             style="fill:#00b944;fill-opacity:1;fill-rule:nonzero;stroke:none"
             d="M 0,0 H 0.221 C 0.637,0 1.029,0.124 1.398,0.372 1.767,0.62 2.113,1.013 2.435,1.549 L 3.541,3.38 C 3.93,4.038 4.39,4.577 4.92,5 5.45,5.423 6.083,5.634 6.821,5.634 H 7.646 V 3.561 H 7.244 C 6.949,3.561 6.643,3.491 6.328,3.35 6.013,3.209 5.728,2.917 5.473,2.475 L 4.588,0.925 C 4.306,0.416 3.95,-0.024 3.521,-0.393 3.092,-0.762 2.589,-1.013 2.012,-1.147 L 8.089,-8.552 H 5.131 L 0,-1.912 v -6.64 H -2.314 V 5.533 l 2.314,0 z" /></g><g
           transform="translate(798.265,48.2103)"
           id="g114"><path
             id="path116"
             style="fill:#00b944;fill-opacity:1;fill-rule:nonzero;stroke:none"
             d="M 0,0 C 0.403,0 0.768,0.077 1.097,0.231 1.425,0.386 1.704,0.594 1.932,0.855 2.16,1.117 2.337,1.419 2.465,1.761 2.592,2.103 2.656,2.468 2.656,2.857 2.656,3.246 2.592,3.612 2.465,3.954 2.337,4.296 2.16,4.598 1.932,4.859 1.704,5.121 1.425,5.329 1.097,5.483 0.768,5.637 0.403,5.714 0,5.714 H -2.737 V 0 Z M -5.05,7.787 H 0 C 0.751,7.787 1.432,7.656 2.043,7.395 2.653,7.133 3.176,6.774 3.612,6.318 4.048,5.862 4.383,5.336 4.618,4.739 4.852,4.142 4.97,3.514 4.97,2.857 4.97,2.186 4.852,1.556 4.618,0.966 4.383,0.376 4.048,-0.148 3.612,-0.604 3.176,-1.06 2.653,-1.419 2.043,-1.68 1.432,-1.942 0.751,-2.073 0,-2.073 H -2.737 V -6.298 H -5.05 Z" /></g><path
           id="path118"
           style="fill:#00b944;fill-opacity:1;fill-rule:nonzero;stroke:none"
           d="m 815.187,55.997 h 2.314 V 41.912 h -2.314 z m -7.666,-7.968 v -4.064 h 2.535 c 0.55,0 0.989,0.197 1.318,0.593 0.329,0.396 0.493,0.876 0.493,1.439 0,0.563 -0.164,1.043 -0.493,1.439 -0.329,0.395 -0.768,0.593 -1.318,0.593 z m 0,7.968 v -5.915 h 2.535 c 0.617,0 1.181,-0.111 1.69,-0.332 0.51,-0.222 0.946,-0.517 1.309,-0.886 0.362,-0.369 0.64,-0.801 0.834,-1.298 0.195,-0.496 0.292,-1.019 0.292,-1.569 0,-0.55 -0.097,-1.073 -0.292,-1.569 -0.194,-0.497 -0.472,-0.933 -0.834,-1.309 -0.363,-0.375 -0.799,-0.67 -1.309,-0.885 -0.509,-0.215 -1.073,-0.322 -1.69,-0.322 h -4.849 v 14.085 z" /><g
           transform="translate(822.6522,53.9248)"
           id="g120"><path
             id="path122"
             style="fill:#00b944;fill-opacity:1;fill-rule:nonzero;stroke:none"
             d="M 0,0 H -3.481 V 2.073 H 5.815 V 0 H 2.314 V -12.012 H 0 Z" /></g><g
           transform="translate(838.2462,51.6513)"
           id="g124"><path
             id="path126"
             style="fill:#00b944;fill-opacity:1;fill-rule:nonzero;stroke:none"
             d="M 0,0 -5.795,-8.773 V -9.739 H -8.109 V 4.346 h 2.314 V -5.393 L 0,3.38 V 4.346 H 2.314 V -9.739 H 0 Z" /></g><g
           transform="translate(855.41,43.6426)"
           id="g128"><path
             id="path130"
             style="fill:#00b944;fill-opacity:1;fill-rule:nonzero;stroke:none"
             d="m 0,0 c 0.751,0 1.425,0.148 2.022,0.443 0.597,0.295 1.107,0.69 1.529,1.187 0.423,0.496 0.745,1.063 0.966,1.7 0.222,0.637 0.332,1.298 0.332,1.982 0,0.684 -0.11,1.345 -0.332,1.982 C 4.296,7.931 3.974,8.498 3.551,8.995 3.129,9.491 2.619,9.887 2.022,10.182 1.425,10.476 0.751,10.624 0,10.624 c -0.752,0 -1.426,-0.148 -2.022,-0.442 C -2.619,9.887 -3.129,9.491 -3.551,8.995 -3.974,8.498 -4.296,7.931 -4.517,7.294 -4.739,6.657 -4.849,5.996 -4.849,5.312 c 0,-0.684 0.11,-1.345 0.332,-1.982 0.221,-0.637 0.543,-1.204 0.966,-1.7 C -3.129,1.133 -2.619,0.738 -2.022,0.443 -1.426,0.148 -0.752,0 0,0 m 0,-2.073 c -1.033,0 -1.965,0.168 -2.797,0.504 -0.832,0.335 -1.556,0.791 -2.173,1.368 -0.617,0.577 -1.117,1.248 -1.499,2.012 -0.383,0.765 -0.634,1.57 -0.755,2.415 H -9.598 V -1.73 h -2.314 v 14.085 h 2.314 V 6.298 h 2.374 c 0.107,0.859 0.349,1.674 0.725,2.445 0.375,0.771 0.872,1.449 1.489,2.032 0.617,0.584 1.348,1.05 2.193,1.399 0.845,0.348 1.784,0.523 2.817,0.523 1.127,0 2.143,-0.205 3.048,-0.614 0.906,-0.409 1.671,-0.956 2.294,-1.64 C 5.966,9.759 6.446,8.971 6.781,8.079 7.116,7.187 7.284,6.265 7.284,5.312 7.284,4.36 7.116,3.438 6.781,2.546 6.446,1.653 5.966,0.865 5.342,0.181 4.719,-0.503 3.954,-1.05 3.048,-1.459 2.143,-1.868 1.127,-2.073 0,-2.073" /></g><g
           transform="translate(821.3676,111.5419)"
           id="g132"><path
             id="path134"
             style="fill:#00b944;fill-opacity:1;fill-rule:nonzero;stroke:none"
             d="m 0,0 c -8.194,0 -14.836,-6.643 -14.836,-14.837 0,-8.194 6.642,-14.836 14.836,-14.836 8.194,0 14.837,6.642 14.837,14.836 C 14.837,-6.643 8.194,0 0,0 m 0,-8.267 c 3.623,0 6.57,-2.947 6.57,-6.57 0,-3.622 -2.947,-6.569 -6.57,-6.569 -3.622,0 -6.569,2.947 -6.569,6.569 0,3.623 2.947,6.57 6.569,6.57" /></g><path
           id="path136"
           style="fill:#00b944;fill-opacity:1;fill-rule:nonzero;stroke:none"
           d="m 836.164,65.67 h -29.466 v 8.109 h 29.466 z" /><g
           transform="translate(763.9478,111.5419)"
           id="g138"><path
             id="path140"
             style="fill:#00b944;fill-opacity:1;fill-rule:nonzero;stroke:none"
             d="m 0,0 h 10.566 l 16.173,-29.641 v 29.495 h 9.932 V -45.885 H 26.158 L 9.991,-16.901 V -45.885 H 0 Z" /></g><path
           id="path142"
           style="fill:#00b944;fill-opacity:1;fill-rule:nonzero;stroke:none"
           d="m 861.75,65.657 h -9.931 v 45.885 h 9.931 z" /><g
           transform="translate(851.829,110.1505)"
           id="g144"><path
             id="path146"
             style="fill:#00b944;fill-opacity:1;fill-rule:nonzero;stroke:none"
             d="m 0,0 c 0,-4.286 -3.991,-8.641 -8.277,-8.641 l -2.09,0.041 v -9.068 h 2.09 C 1.428,-17.668 8.554,-6.606 8.554,0 Z" /></g><g
           transform="translate(594.7041,99.0521)"
           id="g148"><path
             id="path150"
             style="fill:#00b944;fill-opacity:1;fill-rule:nonzero;stroke:none"
             d="m 0,0 -4.667,12.468 h -5.239 v -17.56 h 4.412 V 5.72 L -1.79,-5.092 H 1.792 L 5.393,5.644 V -5.092 h 4.38 v 17.56 H 4.666 Z" /></g><g
           transform="translate(616.4646,97.5006)"
           id="g152"><path
             id="path154"
             style="fill:#00b944;fill-opacity:1;fill-rule:nonzero;stroke:none"
             d="M 0,0 C -3.128,0 -4.808,2.404 -4.785,5.251 -4.808,8.099 -3.128,10.502 0,10.502 3.104,10.502 4.784,8.099 4.784,5.251 4.784,2.404 3.104,0 0,0 m 0,14.522 c -5.896,0 -9.382,-4.29 -9.382,-9.283 0,-4.992 3.486,-9.282 9.382,-9.282 5.896,0 9.382,4.29 9.382,9.282 0,4.993 -3.486,9.283 -9.382,9.283" /></g><g
           transform="translate(635.6163,97.1323)"
           id="g156"><path
             id="path158"
             style="fill:#00b944;fill-opacity:1;fill-rule:nonzero;stroke:none"
             d="M 0,0 H -2.667 V 4.191 H 0 C 1.214,4.191 2,3.286 2,2.12 2,0.928 1.214,0 0,0 m 1.246,7.238 h -3.913 v 3.633 h 7.526 v 3.517 H -7.057 V -3.173 h 8.303 c 3.061,0 5.144,2.358 5.144,5.269 0,2.859 -2.058,5.142 -5.144,5.142" /></g><g
           transform="translate(655.5035,110.8938)"
           id="g160"><path
             id="path162"
             style="fill:#00b944;fill-opacity:1;fill-rule:nonzero;stroke:none"
             d="M 0,0 -6.071,-9.734 V 0.627 h -4.372 v -17.561 h 4.372 v 0.627 L 0,-6.574 v -10.36 H 4.39 V 0.627 l -4.39,0 z" /></g><g
           transform="translate(665.111,101.1344)"
           id="g164"><path
             id="path166"
             style="fill:#00b944;fill-opacity:1;fill-rule:nonzero;stroke:none"
             d="M 0,0 C 0,-2.734 -0.752,-3.863 -2.132,-3.863 H -2.76 V -7.4 h 1.506 c 3.211,0 5.642,2.207 5.642,7.425 V 6.869 H 9.054 V -7.175 h 4.385 V 10.386 H 0 Z" /></g><g
           transform="translate(688.6786,97.1535)"
           id="g168"><path
             id="path170"
             style="fill:#00b944;fill-opacity:1;fill-rule:nonzero;stroke:none"
             d="M 0,0 H -2.687 V 4.149 H 0 C 1.202,4.149 1.98,3.253 1.98,2.098 1.98,0.896 1.202,0 0,0 m 1.076,7.342 h -3.763 v 7.025 h -4.39 V -3.194 h 8.153 c 3.085,0 5.293,2.409 5.293,5.268 0,2.885 -2.183,5.268 -5.293,5.268" /></g><g
           transform="translate(708.3721,104.4208)"
           id="g172"><path
             id="path174"
             style="fill:#00b944;fill-opacity:1;fill-rule:nonzero;stroke:none"
             d="m 0,0 h -6.071 v 7.1 h -4.385 v -17.561 h 4.385 v 6.974 H 0 v -6.974 H 4.412 V 7.1 H 0 Z" /></g><path
           id="path176"
           style="fill:#00b944;fill-opacity:1;fill-rule:nonzero;stroke:none"
           d="m 731.027,93.96 h 4.39 v 17.561 h -4.39 z" /><g
           transform="translate(723.3785,97.1535)"
           id="g178"><path
             id="path180"
             style="fill:#00b944;fill-opacity:1;fill-rule:nonzero;stroke:none"
             d="M 0,0 H -2.687 V 4.149 H 0 C 1.202,4.149 1.98,3.253 1.98,2.098 1.98,0.896 1.202,0 0,0 m 1.076,7.342 h -3.763 v 7.025 h -4.39 V -3.194 h 8.153 c 3.085,0 5.293,2.409 5.293,5.268 0,2.885 -2.183,5.268 -5.293,5.268" /></g><path
           id="path182"
           style="fill:#00b944;fill-opacity:1;fill-rule:nonzero;stroke:none"
           d="m 749.368,114.932 h -6.059 v -2.308 h 6.059 z" /><g
           transform="translate(749.3939,111.5205)"
           id="g184"><path
             id="path186"
             style="fill:#00b944;fill-opacity:1;fill-rule:nonzero;stroke:none"
             d="m 0,0 v -0.595 l -6.071,-9.734 V 0 h -4.389 v -17.561 h 4.389 v 0.69 L 0,-7.137 V -17.561 H 4.396 L 4.396,0 Z" /></g><g
           transform="translate(611.5726,65.7169)"
           id="g188"><path
             id="path190"
             style="fill:#00b944;fill-opacity:1;fill-rule:nonzero;stroke:none"
             d="m 0,0 h 5.503 v 17.528 h 7.546 V 0 h 5.474 V 21.918 H 0 Z" /></g><g
           transform="translate(634.4863,65.7169)"
           id="g192"><path
             id="path194"
             style="fill:#00b944;fill-opacity:1;fill-rule:nonzero;stroke:none"
             d="M 0,0 H 13.781 V 4.383 H 5.452 v 4.306 h 8.329 V 13.08 H 5.452 v 4.465 h 8.329 v 4.373 L 0,21.918 Z" /></g><g
           transform="translate(661.7063,76.1636)"
           id="g196"><path
             id="path198"
             style="fill:#00b944;fill-opacity:1;fill-rule:nonzero;stroke:none"
             d="M 0,0 H -3.256 V 7.098 H 0 C 1.907,7.098 3.285,5.602 3.285,3.549 3.285,1.496 1.907,0 0,0 m 1.003,11.471 h -9.737 v -21.918 h 5.478 v 6.075 h 4.259 c 4.539,0 7.858,3.319 7.858,7.921 0,4.603 -3.287,7.922 -7.858,7.922" /></g><g
           transform="translate(678.2729,72.7429)"
           id="g200"><path
             id="path202"
             style="fill:#00b944;fill-opacity:1;fill-rule:nonzero;stroke:none"
             d="M 0,0 2.646,9.35 5.291,0 Z M -0.284,14.892 -7.705,-7.026 h 5.717 l 0.751,2.661 H 6.528 L 7.28,-7.026 h 5.722 L 5.55,14.892 Z" /></g><g
           transform="translate(690.4514,83.2453)"
           id="g204"><path
             id="path206"
             style="fill:#00b944;fill-opacity:1;fill-rule:nonzero;stroke:none"
             d="m 0,0 h 5.808 v -17.528 h 5.479 V 0 h 5.808 V 4.389 H 0 Z" /></g><g
           transform="translate(745.3964,76.1106)"
           id="g208"><path
             id="path210"
             style="fill:#00b944;fill-opacity:1;fill-rule:nonzero;stroke:none"
             d="M 0,0 H -3.305 V 7.204 H 0 C 1.934,7.204 3.334,5.686 3.334,3.602 3.334,1.518 1.934,0 0,0 m 0.953,11.524 h -9.737 v -21.918 h 5.479 v 6.075 h 4.258 c 4.54,0 7.86,3.319 7.86,7.921 0,4.603 -3.288,7.922 -7.86,7.922" /></g><g
           transform="translate(596.0234,70.1382)"
           id="g212"><path
             id="path214"
             style="fill:#00b944;fill-opacity:1;fill-rule:nonzero;stroke:none"
             d="M 0,0 C -3.903,0 -6,3 -5.971,6.553 -6,10.107 -3.903,13.107 0,13.107 c 3.874,0 5.97,-3 5.97,-6.554 C 5.97,3 3.874,0 0,0 m 0,18.123 c -7.357,0 -11.709,-5.354 -11.709,-11.584 0,-6.231 4.352,-11.584 11.709,-11.584 7.358,0 11.709,5.353 11.709,11.584 0,6.23 -4.351,11.584 -11.709,11.584" /></g><g
           transform="translate(721.0281,70.1369)"
           id="g216"><path
             id="path218"
             style="fill:#00b944;fill-opacity:1;fill-rule:nonzero;stroke:none"
             d="M 0,0 C -3.903,0 -6,3 -5.971,6.553 -6,10.107 -3.903,13.107 0,13.107 c 3.874,0 5.97,-3 5.97,-6.554 C 5.97,3 3.874,0 0,0 m 0,18.123 c -7.358,0 -11.709,-5.354 -11.709,-11.584 0,-6.231 4.351,-11.584 11.709,-11.584 7.358,0 11.709,5.353 11.709,11.584 0,6.23 -4.351,11.584 -11.709,11.584" /></g></g></g></g></svg>